<svg class="eye" width="49" height="34" viewBox="0 0 49 34" fill="none" xmlns="http://www.w3.org/2000/svg">
<path d="M24.5 7.25C23.5984 7.26409 22.7034 7.40733 21.8424 7.67534C22.2407 8.37573 22.4528 9.16653 22.4583 9.97222C22.4583 10.5978 22.3351 11.2173 22.0957 11.7953C21.8563 12.3733 21.5054 12.8984 21.063 13.3408C20.6207 13.7832 20.0955 14.1341 19.5175 14.3735C18.9395 14.6129 18.3201 14.7361 17.6945 14.7361C16.8888 14.7305 16.098 14.5185 15.3976 14.1202C14.845 16.0366 14.9094 18.0784 15.5817 19.9562C16.2539 21.834 17.5 23.4527 19.1433 24.5829C20.7867 25.7132 22.744 26.2978 24.738 26.2539C26.732 26.2099 28.6617 25.5397 30.2537 24.3382C31.8456 23.1366 33.0192 21.4646 33.6081 19.559C34.197 17.6534 34.1714 15.6108 33.535 13.7206C32.8985 11.8304 31.6835 10.1883 30.0619 9.02697C28.4404 7.86566 26.4945 7.24398 24.5 7.25ZM48.704 15.5358C44.0907 6.53456 34.9576 0.444443 24.5 0.444443C14.0424 0.444443 4.90682 6.53882 0.296056 15.5366C0.101453 15.9216 6.10352e-05 16.3469 6.10352e-05 16.7782C6.10352e-05 17.2095 0.101453 17.6348 0.296056 18.0198C4.90937 27.021 14.0424 33.1111 24.5 33.1111C34.9576 33.1111 44.0932 27.0167 48.704 18.0189C48.8986 17.634 49 17.2087 49 16.7773C49 16.346 48.8986 15.9207 48.704 15.5358ZM24.5 29.0278C16.1079 29.0278 8.41423 24.349 4.25944 16.7778C8.41423 9.20659 16.1071 4.52778 24.5 4.52778C32.893 4.52778 40.5858 9.20659 44.7406 16.7778C40.5866 24.349 32.893 29.0278 24.5 29.0278Z" fill="#F05C26"/>
</svg>
