<svg class="hand" width="41" height="50" viewBox="0 0 41 50" fill="none" xmlns="http://www.w3.org/2000/svg">
<path d="M18.9231 4.70107V21.3199C18.9231 21.7336 19.0892 22.1304 19.3849 22.423C19.6807 22.7155 20.0818 22.8799 20.5 22.8799C20.9182 22.8799 21.3193 22.7155 21.6151 22.423C21.9108 22.1304 22.0769 21.7336 22.0769 21.3199V7.82724C22.0769 6.99526 22.7603 6.24648 23.6559 6.24024C24.4612 6.23608 25.2329 6.99526 25.2329 7.8938V26.5198C25.2331 26.8197 25.3206 27.1131 25.485 27.3651C25.6495 27.617 25.8838 27.8167 26.16 27.9402C26.4363 28.0638 26.7426 28.106 27.0424 28.0618C27.3422 28.0175 27.6228 27.8887 27.8506 27.6908L28.2416 27.3455C28.7463 26.8983 29.0785 26.603 29.5642 26.3264C30.1234 26.006 30.9455 25.692 32.4594 25.4611C33.8555 25.2489 35.2894 25.4361 36.305 25.9811C37.0409 26.3763 37.5791 26.9566 37.7705 27.8406L33.2626 30.9605C33.1734 31.0226 33.0909 31.0937 33.0166 31.1726L27.6866 36.7968C25.8863 38.6964 24.3787 40.848 23.2123 43.1823L22.4196 44.7672C22.1155 45.3753 21.6457 45.8872 21.0632 46.2451C20.4807 46.6031 19.8086 46.7929 19.1228 46.7931H10.9922C9.81056 46.7931 8.774 46.2482 8.20421 45.3496C6.94679 43.3762 5.85269 41.3054 4.93262 39.1576C3.89605 36.6866 3.15385 34.0763 3.15385 31.7197V13.0417C3.15385 12.1598 3.82667 11.4401 4.73077 11.4401C5.63487 11.4401 6.30769 12.1535 6.30769 13.0417V22.3599C6.30769 22.7736 6.47383 23.1704 6.76956 23.4629C7.06529 23.7555 7.46639 23.9198 7.88462 23.9198C8.30284 23.9198 8.70394 23.7555 8.99967 23.4629C9.2954 23.1704 9.46154 22.7736 9.46154 22.3599V7.8938C9.46154 6.96822 10.1596 6.24024 11.0322 6.24024C11.9173 6.24024 12.6154 6.96822 12.6154 7.8938V21.3199C12.6154 21.7336 12.7815 22.1304 13.0773 22.423C13.373 22.7155 13.7741 22.8799 14.1923 22.8799C14.6105 22.8799 15.0116 22.7155 15.3074 22.423C15.6031 22.1304 15.7692 21.7336 15.7692 21.3199V4.72603C15.7692 3.83789 16.4421 3.12031 17.3504 3.12031C18.2755 3.12031 18.9231 3.81085 18.9231 4.70107ZM23.637 3.12031C23.0452 3.1216 22.4589 3.23308 21.9087 3.44894L23.637 3.12031ZM21.9087 3.44894C21.6485 2.45208 21.0577 1.57043 20.2308 0.945177C19.404 0.319923 18.3889 -0.0127688 17.3483 0.000375023C15.0354 0.000375023 13.3282 1.5437 12.792 3.44894C12.232 3.22905 11.6346 3.11749 11.0322 3.12031C8.17267 3.12031 6.30769 5.49977 6.30769 7.8938V8.58019C5.8005 8.4067 5.26743 8.31881 4.73077 8.32019C1.91333 8.32019 0 10.6123 0 13.0417V31.7197C0 34.6607 0.908308 37.7058 2.01846 40.3536C3.00539 42.661 4.17966 44.8855 5.52974 47.0053C6.73241 48.9022 8.83497 49.913 10.9922 49.913H19.1228C20.397 49.9128 21.6458 49.5602 22.728 48.8949C23.8103 48.2297 24.683 47.2783 25.2476 46.1483L26.0403 44.5634C27.0705 42.5042 28.3993 40.6073 29.9868 38.9309L35.2053 33.4252L40.3272 29.8768C40.7477 29.5856 41 29.1073 41 28.5997C41 26.0227 39.6565 24.2298 37.8083 23.2376C36.0464 22.2933 33.8765 22.0895 31.9821 22.3786C30.4346 22.6136 29.3076 22.9527 28.3867 23.4123V7.89588C28.3867 5.4561 26.3788 3.10367 23.6349 3.12031" fill="#F05C26"/>
</svg>
