<svg width="82" height="82" viewBox="0 0 82 82" fill="none" xmlns="http://www.w3.org/2000/svg">
<g clip-path="url(#clip0)">
<path fill-rule="evenodd" clip-rule="evenodd" d="M79.991 70.2888L37.2337 27.5307C33.4716 23.7693 39.738 14.7895 32.536 7.58828L19.4045 0L16.6321 2.7716L23.8743 10.013C26.6467 12.7846 24.5705 19.0191 21.7874 21.8022C19.0265 24.5631 12.7863 26.6451 10.0147 23.8727L2.7716 16.6321L0 19.4045L7.58828 32.536C14.7502 39.6987 23.8817 33.5831 27.5315 37.2337L70.2888 79.9918C71.5782 81.2653 73.3191 81.977 75.1314 81.9713C76.9437 81.9656 78.6801 81.2431 79.9616 79.9616C81.243 78.68 81.9654 76.9435 81.9709 75.1312C81.9764 73.3189 81.2646 71.5781 79.991 70.2888ZM77.2186 77.2186C76.9456 77.4916 76.6215 77.7081 76.2649 77.8558C75.9082 78.0036 75.5259 78.0796 75.1399 78.0796C74.7538 78.0796 74.3716 78.0036 74.0149 77.8558C73.6582 77.7081 73.3342 77.4916 73.0612 77.2186C72.7882 76.9456 72.5717 76.6215 72.4239 76.2649C72.2762 75.9082 72.2001 75.5259 72.2001 75.1399C72.2001 74.7538 72.2762 74.3716 72.4239 74.0149C72.5717 73.6582 72.7882 73.3342 73.0612 73.0612C73.6125 72.5099 74.3602 72.2001 75.1399 72.2001C75.9195 72.2001 76.6673 72.5099 77.2186 73.0612C77.7699 73.6125 78.0796 74.3602 78.0796 75.1399C78.0796 75.9195 77.7699 76.6673 77.2186 77.2186Z" fill="#BDC3C7"/>
<path d="M27.6195 10.1134L18.4601 0.943359L16.6323 2.77114L23.8745 10.0126C26.647 12.7842 24.5707 19.0186 21.7876 21.8017C19.0267 24.5626 12.7865 26.6446 10.0149 23.8722L2.77184 16.6316L1.15234 18.2511L10.3175 27.4269C11.5672 28.6774 13.527 29.3391 15.9845 29.3391C19.6679 29.3391 23.736 27.8435 25.8762 25.7008C29.4981 22.0764 31.0512 13.5468 27.6195 10.1134ZM78.512 72.1177L37.5357 31.1366C36.6813 30.2821 35.5464 29.8123 34.3394 29.8123C33.1323 29.8123 31.9966 30.283 31.143 31.1366C30.2967 31.9854 29.8214 33.1351 29.8214 34.3338C29.8214 35.5324 30.2967 36.6821 31.143 37.5309L72.1192 78.5113C72.9729 79.3657 74.1086 79.8356 75.3156 79.8356C76.5227 79.8356 77.6583 79.3657 78.512 78.5113C79.3585 77.6627 79.8338 76.5131 79.8338 75.3145C79.8338 74.1159 79.3585 72.9663 78.512 72.1177ZM77.2188 77.2181C76.9458 77.4911 76.6218 77.7076 76.2651 77.8554C75.9085 78.0031 75.5262 78.0791 75.1401 78.0791C74.7541 78.0791 74.3718 78.0031 74.0151 77.8554C73.6585 77.7076 73.3344 77.4911 73.0614 77.2181C72.7885 76.9451 72.5719 76.6211 72.4242 76.2644C72.2764 75.9077 72.2004 75.5255 72.2004 75.1394C72.2004 74.7534 72.2764 74.3711 72.4242 74.0144C72.5719 73.6578 72.7885 73.3337 73.0614 73.0607C73.6127 72.5094 74.3605 72.1997 75.1401 72.1997C75.9198 72.1997 76.6675 72.5094 77.2188 73.0607C77.7701 73.612 78.0799 74.3598 78.0799 75.1394C78.0799 75.9191 77.7701 76.6668 77.2188 77.2181Z" fill="#95A5A6"/>
<path fill-rule="evenodd" clip-rule="evenodd" d="M65.6 11.4793L76.26 3.2793L82 9.0193L73.8 19.6793H69.7L45.1 44.2793L41 40.1793L65.6 15.5793V11.4793Z" fill="#ECF0F1"/>
<path fill-rule="evenodd" clip-rule="evenodd" d="M43.0508 42.2304L45.1008 44.2804L69.7008 19.6804H73.8008L82.0008 9.02039L79.1308 6.15039L43.0508 42.2304Z" fill="#BDC3C7"/>
<path fill-rule="evenodd" clip-rule="evenodd" d="M34.8586 37.7977L35.5589 38.4906L4.7302 69.0118C4.27126 69.4643 3.90683 70.0035 3.65809 70.598C3.40934 71.1926 3.28125 71.8306 3.28125 72.4751C3.28125 73.1196 3.40934 73.7576 3.65809 74.3522C3.90683 74.9467 4.27126 75.4859 4.7302 75.9384L8.92778 80.0941C10.8597 82.0064 13.1672 82.8214 15.0991 80.9092L46.7536 49.5721L47.453 50.265C48.2255 51.03 49.4792 51.03 50.2517 50.265C51.0241 49.4999 51.0241 48.2593 50.2517 47.4942L37.6573 35.0269C36.8849 34.2619 35.6311 34.2619 34.8586 35.0269C34.0862 35.792 34.0854 37.0326 34.8586 37.7977Z" fill="#D35400"/>
<path fill-rule="evenodd" clip-rule="evenodd" d="M41.2048 44.0742L7.04688 78.2321L8.92713 80.0944C10.8591 82.0066 13.1665 82.8217 15.0985 80.9094L46.7283 49.5969L41.2048 44.0742Z" fill="#E66612"/>
</g>
<defs>
<clipPath id="clip0">
<rect width="82" height="82" fill="white"/>
</clipPath>
</defs>
</svg>
