<svg width="526" height="116" viewBox="0 0 526 116" fill="none" xmlns="http://www.w3.org/2000/svg">
<path d="M467.909 3H317C312.029 3 308 7.02943 308 12V104C308 108.971 312.029 113 317 113H474.418C477.17 113 479.771 111.741 481.478 109.582L520.896 59.7334C523.82 56.0356 523.395 50.708 519.922 47.5204L473.995 5.36933C472.335 3.84549 470.163 3 467.909 3Z" fill="#F6F6F6" stroke="white" stroke-width="6"/>
<path d="M319.146 3H169C164.029 3 160 7.02943 160 12V104C160 108.971 164.029 113 169 113H325.621C328.381 113 330.987 111.734 332.694 109.566L371.926 59.7155C374.832 56.0236 374.409 50.7181 370.955 47.5332L325.248 5.38375C323.585 3.851 321.407 3 319.146 3Z" fill="#C4C4C4" stroke="white" stroke-width="6"/>
<path d="M168.248 5.38375L166.214 7.58917L168.248 5.38374C166.585 3.851 164.407 3 162.146 3H12C7.02944 3 3 7.02943 3 12V104C3 108.971 7.02943 113 12 113H168.621C171.381 113 173.987 111.734 175.694 109.566L214.926 59.7155C217.832 56.0236 217.409 50.7181 213.955 47.5332L168.248 5.38375Z" fill="#F05C26" stroke="white" stroke-width="6"/>
<path d="M74.8398 60.6621C73.2318 60.1999 72.0599 59.6335 71.3242 58.9629C70.5951 58.2858 70.2305 57.4525 70.2305 56.4629C70.2305 55.3431 70.6764 54.4186 71.5684 53.6895C72.4668 52.9538 73.6322 52.5859 75.0645 52.5859C76.041 52.5859 76.9102 52.7747 77.6719 53.1523C78.4401 53.5299 79.0326 54.0508 79.4492 54.7148C79.8724 55.3789 80.084 56.1048 80.084 56.8926H78.1992C78.1992 56.0332 77.9258 55.3594 77.3789 54.8711C76.832 54.3763 76.0605 54.1289 75.0645 54.1289C74.14 54.1289 73.4173 54.334 72.8965 54.7441C72.3822 55.1478 72.125 55.7109 72.125 56.4336C72.125 57.013 72.3691 57.5046 72.8574 57.9082C73.3522 58.3053 74.1888 58.6699 75.3672 59.002C76.5521 59.334 77.4766 59.7018 78.1406 60.1055C78.8112 60.5026 79.306 60.9681 79.625 61.502C79.9505 62.0358 80.1133 62.6641 80.1133 63.3867C80.1133 64.5391 79.6641 65.4635 78.7656 66.1602C77.8672 66.8503 76.666 67.1953 75.1621 67.1953C74.1855 67.1953 73.2741 67.0098 72.4277 66.6387C71.5814 66.2611 70.9271 65.7467 70.4648 65.0957C70.0091 64.4447 69.7812 63.7057 69.7812 62.8789H71.666C71.666 63.7383 71.9818 64.4186 72.6133 64.9199C73.2513 65.4147 74.1009 65.6621 75.1621 65.6621C76.1517 65.6621 76.9102 65.4603 77.4375 65.0566C77.9648 64.653 78.2285 64.1029 78.2285 63.4062C78.2285 62.7096 77.9844 62.1725 77.4961 61.7949C77.0078 61.4108 76.1224 61.0332 74.8398 60.6621ZM84.6934 53.875V56.4336H86.666V57.8301H84.6934V64.3828C84.6934 64.806 84.7812 65.125 84.957 65.3398C85.1328 65.5482 85.4323 65.6523 85.8555 65.6523C86.0638 65.6523 86.3503 65.6133 86.7148 65.5352V67C86.2396 67.1302 85.7773 67.1953 85.3281 67.1953C84.5208 67.1953 83.9121 66.9512 83.502 66.4629C83.0918 65.9746 82.8867 65.2812 82.8867 64.3828V57.8301H80.9629V56.4336H82.8867V53.875H84.6934ZM93.1699 67.1953C91.7376 67.1953 90.5723 66.7266 89.6738 65.7891C88.7754 64.8451 88.3262 63.5853 88.3262 62.0098V61.6777C88.3262 60.6296 88.5247 59.6953 88.9219 58.875C89.3255 58.0482 89.8854 57.4036 90.6016 56.9414C91.3242 56.4727 92.1055 56.2383 92.9453 56.2383C94.319 56.2383 95.3867 56.6908 96.1484 57.5957C96.9102 58.5007 97.291 59.7962 97.291 61.4824V62.2344H90.1328C90.1589 63.276 90.4616 64.1191 91.041 64.7637C91.627 65.4017 92.3691 65.7207 93.2676 65.7207C93.9056 65.7207 94.446 65.5905 94.8887 65.3301C95.3314 65.0697 95.7188 64.7246 96.0508 64.2949L97.1543 65.1543C96.2689 66.515 94.9408 67.1953 93.1699 67.1953ZM92.9453 57.7227C92.2161 57.7227 91.6042 57.9896 91.1094 58.5234C90.6146 59.0508 90.3086 59.793 90.1914 60.75H95.4844V60.6133C95.4323 59.6953 95.1849 58.9857 94.7422 58.4844C94.2995 57.9766 93.7005 57.7227 92.9453 57.7227ZM108.316 61.834C108.316 63.4421 107.949 64.7376 107.213 65.7207C106.477 66.7038 105.481 67.1953 104.225 67.1953C102.942 67.1953 101.933 66.7884 101.197 65.9746V71.0625H99.3906V56.4336H101.041L101.129 57.6055C101.865 56.694 102.887 56.2383 104.195 56.2383C105.465 56.2383 106.467 56.7168 107.203 57.6738C107.945 58.6309 108.316 59.9622 108.316 61.668V61.834ZM106.51 61.6289C106.51 60.4375 106.256 59.4967 105.748 58.8066C105.24 58.1165 104.544 57.7715 103.658 57.7715C102.564 57.7715 101.744 58.2565 101.197 59.2266V64.2754C101.738 65.2389 102.564 65.7207 103.678 65.7207C104.544 65.7207 105.23 65.3789 105.738 64.6953C106.253 64.0052 106.51 62.9831 106.51 61.6289ZM121.334 67H119.518V54.959L115.875 56.2969V54.6562L121.051 52.7129H121.334V67Z" fill="white"/>
<path d="M259.84 60.6621C258.232 60.1999 257.06 59.6335 256.324 58.9629C255.595 58.2858 255.23 57.4525 255.23 56.4629C255.23 55.3431 255.676 54.4186 256.568 53.6895C257.467 52.9538 258.632 52.5859 260.064 52.5859C261.041 52.5859 261.91 52.7747 262.672 53.1523C263.44 53.5299 264.033 54.0508 264.449 54.7148C264.872 55.3789 265.084 56.1048 265.084 56.8926H263.199C263.199 56.0332 262.926 55.3594 262.379 54.8711C261.832 54.3763 261.061 54.1289 260.064 54.1289C259.14 54.1289 258.417 54.334 257.896 54.7441C257.382 55.1478 257.125 55.7109 257.125 56.4336C257.125 57.013 257.369 57.5046 257.857 57.9082C258.352 58.3053 259.189 58.6699 260.367 59.002C261.552 59.334 262.477 59.7018 263.141 60.1055C263.811 60.5026 264.306 60.9681 264.625 61.502C264.951 62.0358 265.113 62.6641 265.113 63.3867C265.113 64.5391 264.664 65.4635 263.766 66.1602C262.867 66.8503 261.666 67.1953 260.162 67.1953C259.186 67.1953 258.274 67.0098 257.428 66.6387C256.581 66.2611 255.927 65.7467 255.465 65.0957C255.009 64.4447 254.781 63.7057 254.781 62.8789H256.666C256.666 63.7383 256.982 64.4186 257.613 64.9199C258.251 65.4147 259.101 65.6621 260.162 65.6621C261.152 65.6621 261.91 65.4603 262.438 65.0566C262.965 64.653 263.229 64.1029 263.229 63.4062C263.229 62.7096 262.984 62.1725 262.496 61.7949C262.008 61.4108 261.122 61.0332 259.84 60.6621ZM269.693 53.875V56.4336H271.666V57.8301H269.693V64.3828C269.693 64.806 269.781 65.125 269.957 65.3398C270.133 65.5482 270.432 65.6523 270.855 65.6523C271.064 65.6523 271.35 65.6133 271.715 65.5352V67C271.24 67.1302 270.777 67.1953 270.328 67.1953C269.521 67.1953 268.912 66.9512 268.502 66.4629C268.092 65.9746 267.887 65.2812 267.887 64.3828V57.8301H265.963V56.4336H267.887V53.875H269.693ZM278.17 67.1953C276.738 67.1953 275.572 66.7266 274.674 65.7891C273.775 64.8451 273.326 63.5853 273.326 62.0098V61.6777C273.326 60.6296 273.525 59.6953 273.922 58.875C274.326 58.0482 274.885 57.4036 275.602 56.9414C276.324 56.4727 277.105 56.2383 277.945 56.2383C279.319 56.2383 280.387 56.6908 281.148 57.5957C281.91 58.5007 282.291 59.7962 282.291 61.4824V62.2344H275.133C275.159 63.276 275.462 64.1191 276.041 64.7637C276.627 65.4017 277.369 65.7207 278.268 65.7207C278.906 65.7207 279.446 65.5905 279.889 65.3301C280.331 65.0697 280.719 64.7246 281.051 64.2949L282.154 65.1543C281.269 66.515 279.941 67.1953 278.17 67.1953ZM277.945 57.7227C277.216 57.7227 276.604 57.9896 276.109 58.5234C275.615 59.0508 275.309 59.793 275.191 60.75H280.484V60.6133C280.432 59.6953 280.185 58.9857 279.742 58.4844C279.299 57.9766 278.701 57.7227 277.945 57.7227ZM293.316 61.834C293.316 63.4421 292.949 64.7376 292.213 65.7207C291.477 66.7038 290.481 67.1953 289.225 67.1953C287.942 67.1953 286.933 66.7884 286.197 65.9746V71.0625H284.391V56.4336H286.041L286.129 57.6055C286.865 56.694 287.887 56.2383 289.195 56.2383C290.465 56.2383 291.467 56.7168 292.203 57.6738C292.945 58.6309 293.316 59.9622 293.316 61.668V61.834ZM291.51 61.6289C291.51 60.4375 291.256 59.4967 290.748 58.8066C290.24 58.1165 289.544 57.7715 288.658 57.7715C287.564 57.7715 286.744 58.2565 286.197 59.2266V64.2754C286.738 65.2389 287.564 65.7207 288.678 65.7207C289.544 65.7207 290.23 65.3789 290.738 64.6953C291.253 64.0052 291.51 62.9831 291.51 61.6289ZM309.713 67H300.396V65.7012L305.318 60.2324C306.048 59.4056 306.549 58.735 306.822 58.2207C307.102 57.6999 307.242 57.1628 307.242 56.6094C307.242 55.8672 307.018 55.2585 306.568 54.7832C306.119 54.3079 305.52 54.0703 304.771 54.0703C303.873 54.0703 303.173 54.3275 302.672 54.8418C302.177 55.3496 301.93 56.0592 301.93 56.9707H300.123C300.123 55.6621 300.543 54.6042 301.383 53.7969C302.229 52.9896 303.359 52.5859 304.771 52.5859C306.093 52.5859 307.138 52.9342 307.906 53.6309C308.674 54.321 309.059 55.2422 309.059 56.3945C309.059 57.7943 308.167 59.4609 306.383 61.3945L302.574 65.5254H309.713V67Z" fill="white"/>
</svg>
