<svg width="108" height="89" viewBox="0 0 108 89" fill="none" xmlns="http://www.w3.org/2000/svg">
<path d="M66.9737 61.0938V77.8372H26.0453C26.0453 75.3702 25.0653 73.0042 23.3209 71.2597C21.5764 69.5153 19.2104 68.5353 16.7434 68.5353C14.2764 68.5353 11.9104 69.5153 10.166 71.2597C8.42154 73.0042 7.44152 75.3702 7.44152 77.8372H1.86038C1.36698 77.8372 0.893782 77.6412 0.544893 77.2923C0.196004 76.9434 0 76.4702 0 75.9768V61.0938H66.9737Z" fill="#CC7400"/>
<path d="M9.30279 57.3751C11.3577 57.3751 13.0236 55.7093 13.0236 53.6544C13.0236 51.5994 11.3577 49.9336 9.30279 49.9336C7.24787 49.9336 5.58203 51.5994 5.58203 53.6544C5.58203 55.7093 7.24787 57.3751 9.30279 57.3751Z" fill="#57565C"/>
<path d="M42.7911 57.3751C44.846 57.3751 46.5118 55.7093 46.5118 53.6544C46.5118 51.5994 44.846 49.9336 42.7911 49.9336C40.7362 49.9336 39.0703 51.5994 39.0703 53.6544C39.0703 55.7093 40.7362 57.3751 42.7911 57.3751Z" fill="#57565C"/>
<path d="M24.1848 31.3301V42.4924H7.44141L11.9993 33.3951C12.3074 32.7752 12.7822 32.2535 13.3705 31.8887C13.9588 31.5239 14.6372 31.3304 15.3294 31.3301H24.1848Z" fill="#D1D3D4"/>
<path d="M44.6517 42.4924H24.1875V31.3301H31.629L44.6517 42.4924Z" fill="#E6E7E8"/>
<path d="M85.5753 87.1409C90.7126 87.1409 94.8772 82.9763 94.8772 77.839C94.8772 72.7017 90.7126 68.5371 85.5753 68.5371C80.438 68.5371 76.2734 72.7017 76.2734 77.839C76.2734 82.9763 80.438 87.1409 85.5753 87.1409Z" fill="#57565C"/>
<path d="M96.7427 57.3755V61.0962C96.7427 61.5896 96.9387 62.0628 97.2875 62.4117C97.6364 62.7606 98.1096 62.9566 98.603 62.9566H107.905V74.1189C107.902 75.1048 107.509 76.0495 106.812 76.7466C106.115 77.4438 105.17 77.8367 104.184 77.8397H94.8823C94.8823 75.3726 93.9023 73.0067 92.1578 71.2622C90.4134 69.5178 88.0474 68.5378 85.5804 68.5378C83.1134 68.5378 80.7474 69.5178 79.0029 71.2622C77.2585 73.0067 76.2785 75.3726 76.2785 77.8397H66.9766V27.6094H74.4181V48.0736H107.607C107.809 48.7432 107.909 49.4393 107.905 50.1386V55.5151H98.603C98.1096 55.5151 97.6364 55.7111 97.2875 56.06C96.9387 56.4089 96.7427 56.8821 96.7427 57.3755Z" fill="#EE8700"/>
<path d="M107.904 55.5156V62.9571H98.6026C98.1092 62.9571 97.636 62.7611 97.2871 62.4123C96.9382 62.0634 96.7422 61.5902 96.7422 61.0968V57.376C96.7422 56.8826 96.9382 56.4094 97.2871 56.0605C97.636 55.7116 98.1092 55.5156 98.6026 55.5156H107.904Z" fill="#E6E7E8"/>
<path d="M107.607 48.0736H74.418V27.6094H94.5287C95.1999 27.6094 95.8586 27.7909 96.435 28.1348C97.0115 28.4787 97.4841 28.9721 97.803 29.5628L106.844 46.3062C107.178 46.8577 107.435 47.4524 107.607 48.0736Z" fill="#E6E7E8"/>
<path d="M66.9767 35.0502V61.0955H59.5352V31.5898L66.9767 35.0502Z" fill="#787680"/>
<path d="M66.9767 35.0502V38.7709L59.5352 35.3106V31.5898L66.9767 35.0502Z" fill="#57565C"/>
<path d="M29.768 77.8371H26.0472C26.0472 75.3701 25.0672 73.0041 23.3228 71.2597C21.5783 69.5152 19.2123 68.5352 16.7453 68.5352C14.2783 68.5352 11.9123 69.5152 10.1679 71.2597C8.42344 73.0041 7.44342 75.3701 7.44342 77.8371H3.72266C3.72266 74.3833 5.09468 71.0709 7.53691 68.6287C9.97913 66.1865 13.2915 64.8145 16.7453 64.8145C20.1992 64.8145 23.5115 66.1865 25.9537 68.6287C28.396 71.0709 29.768 74.3833 29.768 77.8371Z" fill="#AA6100"/>
<path d="M16.7433 87.1409C21.8806 87.1409 26.0452 82.9763 26.0452 77.839C26.0452 72.7017 21.8806 68.5371 16.7433 68.5371C11.606 68.5371 7.44141 72.7017 7.44141 77.839C7.44141 82.9763 11.606 87.1409 16.7433 87.1409Z" fill="#57565C"/>
<path d="M52.0907 46.211V53.6525H46.5095C46.5095 52.6657 46.1175 51.7193 45.4197 51.0215C44.722 50.3238 43.7756 49.9318 42.7888 49.9318C41.802 49.9318 40.8556 50.3238 40.1578 51.0215C39.46 51.7193 39.068 52.6657 39.068 53.6525H13.0227C13.0227 52.6657 12.6307 51.7193 11.9329 51.0215C11.2351 50.3238 10.2887 49.9318 9.3019 49.9318C8.3151 49.9318 7.36871 50.3238 6.67093 51.0215C5.97315 51.7193 5.58114 52.6657 5.58114 53.6525H0V44.3506C0 43.8572 0.196004 43.384 0.544893 43.0351C0.893782 42.6862 1.36698 42.4902 1.86038 42.4902H48.3885L52.0907 46.211Z" fill="#3D9AE2"/>
<path d="M14.8849 53.6534H13.0246C13.0246 52.6666 12.6326 51.7202 11.9348 51.0224C11.237 50.3247 10.2906 49.9326 9.3038 49.9326C8.31699 49.9326 7.3706 50.3247 6.67282 51.0224C5.97504 51.7202 5.58304 52.6666 5.58304 53.6534H3.72266C3.72266 52.1732 4.31067 50.7536 5.35734 49.7069C6.404 48.6603 7.82359 48.0723 9.3038 48.0723C10.784 48.0723 12.2036 48.6603 13.2503 49.7069C14.2969 50.7536 14.8849 52.1732 14.8849 53.6534Z" fill="#1E81CE"/>
<path d="M48.3693 53.6534H46.5089C46.5089 52.6666 46.1169 51.7202 45.4191 51.0224C44.7214 50.3247 43.775 49.9326 42.7882 49.9326C41.8014 49.9326 40.855 50.3247 40.1572 51.0224C39.4594 51.7202 39.0674 52.6666 39.0674 53.6534H37.207C37.207 52.1732 37.795 50.7536 38.8417 49.7069C39.8884 48.6603 41.308 48.0723 42.7882 48.0723C44.2684 48.0723 45.688 48.6603 46.7346 49.7069C47.7813 50.7536 48.3693 52.1732 48.3693 53.6534Z" fill="#1E81CE"/>
<path d="M98.6 77.8371H94.8793C94.8793 75.3701 93.8992 73.0041 92.1548 71.2597C90.4103 69.5152 88.0444 68.5352 85.5774 68.5352C83.1103 68.5352 80.7444 69.5152 78.9999 71.2597C77.2555 73.0041 76.2754 75.3701 76.2754 77.8371H72.5547C72.5547 74.3833 73.9267 71.0709 76.3689 68.6287C78.8112 66.1865 82.1235 64.8145 85.5774 64.8145C89.0312 64.8145 92.3435 66.1865 94.7858 68.6287C97.228 71.0709 98.6 74.3833 98.6 77.8371Z" fill="#CC7400"/>
<path d="M16.7443 89.0004C14.5366 89.0004 12.3785 88.3457 10.5429 87.1192C8.70726 85.8926 7.27656 84.1493 6.43171 82.1097C5.58687 80.0701 5.36582 77.8257 5.79652 75.6604C6.22722 73.4951 7.29032 71.5062 8.85139 69.9451C10.4125 68.3841 12.4014 67.321 14.5667 66.8903C16.7319 66.4596 18.9763 66.6806 21.0159 67.5255C23.0556 68.3703 24.7989 69.801 26.0254 71.6366C27.252 73.4723 27.9066 75.6304 27.9066 77.8381C27.9037 80.7976 26.7267 83.635 24.634 85.7277C22.5413 87.8204 19.7038 88.9974 16.7443 89.0004ZM16.7443 70.3965C15.2725 70.3965 13.8338 70.833 12.61 71.6507C11.3863 72.4684 10.4325 73.6306 9.86925 74.9903C9.30602 76.3501 9.15865 77.8463 9.44578 79.2898C9.73292 80.7334 10.4417 82.0593 11.4824 83.1C12.5231 84.1407 13.849 84.8495 15.2926 85.1366C16.7361 85.4237 18.2323 85.2764 19.5921 84.7131C20.9518 84.1499 22.114 83.1961 22.9317 81.9724C23.7494 80.7486 24.1858 79.3099 24.1858 77.8381C24.1858 75.8645 23.4018 73.9717 22.0063 72.5761C20.6107 71.1806 18.7179 70.3965 16.7443 70.3965Z" fill="#3E3D42"/>
<path d="M85.5803 89.0004C83.3726 89.0004 81.2145 88.3457 79.3788 87.1192C77.5432 85.8926 76.1125 84.1493 75.2677 82.1097C74.4228 80.0701 74.2018 77.8257 74.6325 75.6604C75.0632 73.4951 76.1263 71.5062 77.6873 69.9451C79.2484 68.3841 81.2373 67.321 83.4026 66.8903C85.5679 66.4596 87.8122 66.6806 89.8519 67.5255C91.8915 68.3703 93.6348 69.801 94.8614 71.6366C96.0879 73.4723 96.7425 75.6304 96.7425 77.8381C96.7396 80.7976 95.5626 83.635 93.4699 85.7277C91.3772 87.8204 88.5398 88.9974 85.5803 89.0004ZM85.5803 70.3965C84.1085 70.3965 82.6697 70.833 81.446 71.6507C80.2222 72.4684 79.2684 73.6306 78.7052 74.9903C78.142 76.3501 77.9946 77.8463 78.2817 79.2898C78.5689 80.7334 79.2776 82.0593 80.3183 83.1C81.359 84.1407 82.685 84.8495 84.1285 85.1366C85.572 85.4237 87.0683 85.2764 88.428 84.7131C89.7878 84.1499 90.95 83.1961 91.7677 81.9724C92.5853 80.7486 93.0218 79.3099 93.0218 77.8381C93.0218 75.8645 92.2378 73.9717 90.8422 72.5761C89.4467 71.1806 87.5539 70.3965 85.5803 70.3965Z" fill="#3E3D42"/>
<path d="M100.461 68.5371H107.902V72.2579H100.461V68.5371Z" fill="#FFD422"/>
<path d="M72.5547 53.6543H79.9962V57.3751H72.5547V53.6543Z" fill="#CC7400"/>
<path d="M14.8828 75.9785H18.6036V79.6993H14.8828V75.9785Z" fill="#3E3D42"/>
<path d="M83.7148 75.9785H87.4356V79.6993H83.7148V75.9785Z" fill="#3E3D42"/>
<path d="M9.29989 59.2346C8.19605 59.2346 7.11699 58.9072 6.19918 58.294C5.28136 57.6807 4.56602 56.809 4.14359 55.7892C3.72117 54.7694 3.61064 53.6472 3.82599 52.5646C4.04134 51.4819 4.57289 50.4875 5.35343 49.7069C6.13397 48.9264 7.12843 48.3949 8.21107 48.1795C9.2937 47.9642 10.4159 48.0747 11.4357 48.4971C12.4555 48.9195 13.3272 49.6349 13.9404 50.5527C14.5537 51.4705 14.881 52.5496 14.881 53.6534C14.881 55.1336 14.293 56.5532 13.2464 57.5999C12.1997 58.6465 10.7801 59.2346 9.29989 59.2346ZM9.29989 51.793C8.93195 51.793 8.57226 51.9021 8.26632 52.1066C7.96038 52.311 7.72193 52.6015 7.58113 52.9415C7.44032 53.2814 7.40348 53.6555 7.47526 54.0164C7.54704 54.3772 7.72423 54.7087 7.98441 54.9689C8.24459 55.2291 8.57607 55.4063 8.93695 55.478C9.29783 55.5498 9.67189 55.513 10.0118 55.3722C10.3518 55.2314 10.6423 54.9929 10.8467 54.687C11.0512 54.381 11.1603 54.0214 11.1603 53.6534C11.1603 53.16 10.9643 52.6868 10.6154 52.3379C10.2665 51.989 9.7933 51.793 9.29989 51.793Z" fill="#3E3D42"/>
<path d="M42.7843 59.2346C41.6804 59.2346 40.6014 58.9072 39.6836 58.294C38.7657 57.6807 38.0504 56.809 37.628 55.7892C37.2055 54.7694 37.095 53.6472 37.3104 52.5646C37.5257 51.4819 38.0573 50.4875 38.8378 49.7069C39.6183 48.9264 40.6128 48.3949 41.6954 48.1795C42.7781 47.9642 43.9003 48.0747 44.9201 48.4971C45.9399 48.9195 46.8116 49.6349 47.4248 50.5527C48.0381 51.4705 48.3654 52.5496 48.3654 53.6534C48.3654 55.1336 47.7774 56.5532 46.7307 57.5999C45.6841 58.6465 44.2645 59.2346 42.7843 59.2346ZM42.7843 51.793C42.4163 51.793 42.0566 51.9021 41.7507 52.1066C41.4448 52.311 41.2063 52.6015 41.0655 52.9415C40.9247 53.2814 40.8879 53.6555 40.9596 54.0164C41.0314 54.3772 41.2086 54.7087 41.4688 54.9689C41.729 55.2291 42.0604 55.4063 42.4213 55.478C42.7822 55.5498 43.1563 55.513 43.4962 55.3722C43.8361 55.2314 44.1267 54.9929 44.3311 54.687C44.5355 54.381 44.6447 54.0214 44.6447 53.6534C44.6447 53.16 44.4486 52.6868 44.0998 52.3379C43.7509 51.989 43.2777 51.793 42.7843 51.793Z" fill="#3E3D42"/>
<path d="M22.3242 31.3301H26.045V42.4924H22.3242V31.3301Z" fill="#BCBEC0"/>
<path d="M7.44052 27.6067C5.96031 27.6067 4.54072 27.0186 3.49405 25.972C2.44739 24.9253 1.85938 23.5057 1.85938 22.0255H5.58014C5.58014 22.3935 5.68925 22.7531 5.89367 23.0591C6.09809 23.365 6.38864 23.6035 6.72858 23.7443C7.06852 23.8851 7.44258 23.9219 7.80346 23.8501C8.16434 23.7784 8.49583 23.6012 8.75601 23.341C9.01618 23.0808 9.19337 22.7493 9.26515 22.3885C9.33694 22.0276 9.30009 21.6535 9.15929 21.3136C9.01848 20.9736 8.78003 20.6831 8.47409 20.4787C8.16815 20.2742 7.80847 20.1651 7.44052 20.1651C6.94711 20.1651 6.47392 19.9691 6.12503 19.6202C5.77614 19.2713 5.58014 18.7982 5.58014 18.3047V7.29688H9.3009V16.7625C10.5429 17.2008 11.5899 18.0643 12.2567 19.2001C12.9234 20.336 13.167 21.6711 12.9443 22.9692C12.7216 24.2673 12.047 25.4449 11.0398 26.2936C10.0325 27.1422 8.75762 27.6074 7.44052 27.6067Z" fill="#BCBEC0"/>
<path d="M68.652 27.608H66.9777V35.0496L59.5361 31.5893L7.44548 7.29269L6.27344 6.75318L9.41748 0L68.652 27.608Z" fill="#898890"/>
</svg>
