<svg width="23" height="23" viewBox="0 0 23 23" fill="none" xmlns="http://www.w3.org/2000/svg">
<path d="M11.5 19.6C8.6875 19.6 6.20125 18.16 4.75 16C4.78375 13.75 9.25 12.5125 11.5 12.5125C13.75 12.5125 18.2162 13.75 18.25 16C17.5063 17.1075 16.5016 18.015 15.3245 18.6428C14.1474 19.2706 12.834 19.5993 11.5 19.6ZM11.5 3.625C12.3951 3.625 13.2536 3.98058 13.8865 4.61351C14.5194 5.24645 14.875 6.10489 14.875 7C14.875 7.89511 14.5194 8.75355 13.8865 9.38649C13.2536 10.0194 12.3951 10.375 11.5 10.375C10.6049 10.375 9.74645 10.0194 9.11351 9.38649C8.48058 8.75355 8.125 7.89511 8.125 7C8.125 6.10489 8.48058 5.24645 9.11351 4.61351C9.74645 3.98058 10.6049 3.625 11.5 3.625ZM11.5 0.25C10.0226 0.25 8.55972 0.54099 7.19481 1.10636C5.8299 1.67172 4.58971 2.50039 3.54505 3.54505C1.43526 5.65483 0.25 8.51631 0.25 11.5C0.25 14.4837 1.43526 17.3452 3.54505 19.455C4.58971 20.4996 5.8299 21.3283 7.19481 21.8936C8.55972 22.459 10.0226 22.75 11.5 22.75C14.4837 22.75 17.3452 21.5647 19.455 19.455C21.5647 17.3452 22.75 14.4837 22.75 11.5C22.75 5.27875 17.6875 0.25 11.5 0.25Z" fill="white"/>
</svg>
