<svg width="58" height="50" viewBox="0 0 58 50" fill="none" xmlns="http://www.w3.org/2000/svg">
<path d="M19.7747 18.6018L27.0096 13.4815H41.811V18.6018H28.6836L21.3952 23.7222H3.53146V18.6018H19.7747ZM22.1123 31.5564L29.5768 28.8298L31.3224 33.6429L23.8579 36.367C24.2093 39.1773 23.5164 42.0191 21.9116 44.3494C20.3068 46.6798 17.9025 48.3354 15.1581 49C12.4136 49.6647 9.52122 49.2917 7.03345 47.9525C4.54568 46.6133 2.63684 44.4016 1.67154 41.7399C0.706244 39.0782 0.752135 36.153 1.80045 33.5231C2.84877 30.8932 4.82604 28.7428 7.35459 27.4828C9.88314 26.2228 12.7858 25.9414 15.508 26.6923C18.2303 27.4433 20.5814 29.174 22.1123 31.5538V31.5564ZM12.4633 44.2037C14.1554 44.2037 15.7782 43.5294 16.9746 42.329C18.1711 41.1287 18.8433 39.5007 18.8433 37.8032C18.8433 36.1057 18.1711 34.4777 16.9746 33.2774C15.7782 32.0771 14.1554 31.4028 12.4633 31.4028C10.7713 31.4028 9.14853 32.0771 7.95206 33.2774C6.7556 34.4777 6.08343 36.1057 6.08343 37.8032C6.08343 39.5007 6.7556 41.1287 7.95206 42.329C9.14853 43.5294 10.7713 44.2037 12.4633 44.2037ZM45.6389 49.3241C44.1308 49.3241 42.6375 49.0261 41.2442 48.4471C39.8509 47.8681 38.585 47.0195 37.5186 45.9497C36.4522 44.8799 35.6063 43.6098 35.0292 42.2121C34.4521 40.8143 34.1551 39.3162 34.1551 37.8032C34.1551 36.2903 34.4521 34.7922 35.0292 33.3944C35.6063 31.9966 36.4522 30.7266 37.5186 29.6568C38.585 28.587 39.8509 27.7383 41.2442 27.1594C42.6375 26.5804 44.1308 26.2824 45.6389 26.2824C48.6846 26.2824 51.6056 27.4962 53.7592 29.6568C55.9129 31.8173 57.1228 34.7477 57.1228 37.8032C57.1228 40.8587 55.9129 43.7891 53.7592 45.9497C51.6056 48.1103 48.6846 49.3241 45.6389 49.3241ZM45.6389 44.2037C47.331 44.2037 48.9537 43.5294 50.1502 42.329C51.3467 41.1287 52.0188 39.5007 52.0188 37.8032C52.0188 36.1057 51.3467 34.4777 50.1502 33.2774C48.9537 32.0771 47.331 31.4028 45.6389 31.4028C43.9468 31.4028 42.3241 32.0771 41.1276 33.2774C39.9312 34.4777 39.259 36.1057 39.259 37.8032C39.259 39.5007 39.9312 41.1287 41.1276 42.329C42.3241 43.5294 43.9468 44.2037 45.6389 44.2037ZM8.6354 21.162H23.9472L30.5823 16.7252L31.2969 14.0473L36.2273 15.3734L31.3224 33.6301L26.6727 31.3567L26.9738 30.2302L21.3952 33.963L18.8433 28.8426H8.6354V21.162ZM39.4938 8.3611H49.4669V16.0417H42.2805L47.1803 29.5492L42.3826 31.3004L36.8499 16.0417H36.707V15.6525L33.1343 5.80091H26.4992V0.680542H36.707L39.4938 8.3611Z" fill="#0E538C"/>
</svg>
