<svg width="73" height="50" viewBox="0 0 73 50" fill="none" xmlns="http://www.w3.org/2000/svg">
<path d="M72.3321 28.0804C71.7906 21.9242 70.8988 20.7252 70.562 20.2743C69.7874 19.2323 68.5482 18.5513 67.2368 17.8368C67.1627 17.7971 67.0986 17.7404 67.0498 17.6714C67.0009 17.6023 66.9686 17.5226 66.9553 17.4387C66.942 17.3548 66.9482 17.2689 66.9733 17.1878C66.9984 17.1068 67.0418 17.0327 67.1 16.9715C67.3428 16.722 67.5295 16.4222 67.6471 16.0927C67.7647 15.7632 67.8104 15.4118 67.7812 15.0626C67.7247 14.4435 67.4405 13.8685 66.985 13.4518C66.5296 13.035 65.9361 12.8068 65.3223 12.8125H62.9762C62.8757 12.8131 62.7753 12.8197 62.6755 12.8323C62.607 12.8022 62.536 12.7783 62.4634 12.7607C61.0738 9.78543 59.1714 5.71176 55.2281 3.72367C49.3794 0.777343 38.6055 0.625 36.5 0.625C34.3945 0.625 23.6205 0.777343 17.7794 3.7191C13.8361 5.70719 11.9337 9.78086 10.5441 12.7561L10.532 12.7805C10.4627 12.7904 10.3947 12.8077 10.329 12.8323C10.2292 12.8197 10.1288 12.8131 10.0282 12.8125H7.67763C7.06387 12.8068 6.47041 13.035 6.01495 13.4518C5.55949 13.8685 5.2753 14.4435 5.21874 15.0626C5.19203 15.4109 5.23987 15.761 5.35901 16.0889C5.47814 16.4167 5.66576 16.7147 5.90903 16.9623C5.96723 17.0235 6.01059 17.0976 6.0357 17.1787C6.0608 17.2598 6.06696 17.3457 6.05369 17.4296C6.04042 17.5135 6.00808 17.5931 5.95923 17.6622C5.91037 17.7313 5.84634 17.7879 5.77218 17.8277C4.46077 18.5467 3.21554 19.2277 2.44704 20.2652C2.11017 20.7222 1.21985 21.915 0.676943 28.0713C0.376161 31.5355 0.331044 35.1217 0.567158 37.4313C1.06194 42.2301 1.98985 45.1307 2.02895 45.2511C2.17134 45.689 2.43344 46.0771 2.78483 46.3702C3.13622 46.6633 3.56247 46.8495 4.01411 46.907V46.9375C4.01411 47.584 4.26763 48.204 4.71888 48.6611C5.17014 49.1182 5.78218 49.375 6.42036 49.375H14.8422C15.4804 49.375 16.0925 49.1182 16.5437 48.6611C16.995 48.204 17.2485 47.584 17.2485 46.9375C18.5433 46.9375 19.4442 46.7029 20.3992 46.453C21.7779 46.0767 23.1872 45.8264 24.6101 45.705C29.1985 45.2617 33.7614 45.1094 36.5 45.1094C39.183 45.1094 43.9473 45.2617 48.5433 45.705C49.9718 45.8266 51.3866 46.078 52.7707 46.4561C53.6851 46.6937 54.5529 46.9131 55.7545 46.936C55.7545 47.5824 56.008 48.2024 56.4593 48.6595C56.9105 49.1167 57.5226 49.3735 58.1607 49.3735H66.5826C67.2208 49.3735 67.8328 49.1167 68.2841 48.6595C68.7354 48.2024 68.9889 47.5824 68.9889 46.936V46.9177C69.4416 46.8612 69.8691 46.6756 70.2217 46.3824C70.5742 46.0892 70.8372 45.7005 70.98 45.2617C71.0191 45.1414 71.9471 42.2407 72.4418 37.4419C72.6779 35.1309 72.6358 31.5508 72.3321 28.0804ZM14.8934 14.8402C16.0965 12.2504 17.4726 9.31926 19.9224 8.08375C23.4626 6.29828 30.8002 5.49391 36.5 5.49391C42.1998 5.49391 49.5373 6.29219 53.0775 8.08375C55.5274 9.31926 56.8975 12.2519 58.1066 14.8402L58.257 15.1708C58.3449 15.359 58.3838 15.5669 58.3699 15.7746C58.356 15.9824 58.2898 16.183 58.1776 16.3575C58.0654 16.5319 57.911 16.6744 57.729 16.7712C57.547 16.868 57.3436 16.916 57.1381 16.9105C52.1406 16.7734 41.6133 16.3347 36.5 16.3347C31.3867 16.3347 20.8594 16.7841 15.8544 16.9212C15.6489 16.9267 15.4455 16.8787 15.2635 16.7819C15.0815 16.685 14.927 16.5426 14.8148 16.3682C14.7026 16.1937 14.6364 15.993 14.6225 15.7853C14.6086 15.5775 14.6475 15.3696 14.7355 15.1814C14.7881 15.0687 14.8437 14.9545 14.8934 14.8402ZM16.6875 26.9713C14.1005 27.2867 11.497 27.4424 8.89128 27.4375C7.29714 27.4375 5.65337 26.9805 5.34807 25.5423C5.13903 24.575 5.16159 24.0311 5.27438 23.4842C5.36913 23.0195 5.51952 22.6813 6.27147 22.5625C8.22655 22.2578 9.31989 22.6402 12.5202 23.5954C14.6422 24.2276 16.1732 25.0701 17.0455 25.7373C17.4831 26.0664 17.25 26.9256 16.6875 26.9713ZM49.981 39.4635C48.0019 39.692 44.0436 39.6082 36.5451 39.6082C29.0466 39.6082 25.0899 39.692 23.1107 39.4635C21.0684 39.2335 18.4651 37.2774 20.2428 35.5346C21.4263 34.3859 24.1875 33.5267 27.8646 33.0437C31.5416 32.5608 33.0982 32.3125 36.5301 32.3125C39.962 32.3125 41.3606 32.4648 45.1956 33.0453C49.0305 33.6257 51.9286 34.4956 52.8174 35.5361C54.4386 37.4008 52.0218 39.2213 49.981 39.4727V39.4635ZM67.6519 25.5408C67.3511 26.985 65.6968 27.436 64.1087 27.436C61.4531 27.4366 58.7998 27.281 56.1621 26.9698C55.7019 26.9256 55.4883 26.1075 55.9545 25.7358C56.8132 25.0518 58.3608 24.2261 60.4798 23.5939C63.6801 22.6387 65.5254 22.2563 67.1105 22.5747C67.497 22.6524 67.7015 23.0729 67.7256 23.3364C67.8317 24.0703 67.8067 24.8174 67.6519 25.5423V25.5408Z" fill="#F05C26"/>
</svg>
