<svg width="115" height="115" viewBox="0 0 115 115" fill="none" xmlns="http://www.w3.org/2000/svg">
<path d="M80.3269 97.3352H34.8461V105.871C34.8461 108.135 33.9477 110.307 32.3485 111.907C30.7492 113.508 28.5802 114.408 26.3185 114.408H20.6334C18.3717 114.408 16.2027 113.508 14.6034 111.907C13.0042 110.307 12.1058 108.135 12.1058 105.871V96.3678C8.77955 95.1897 5.90002 93.0084 3.86373 90.1241C1.82744 87.2399 0.734548 83.7947 0.735566 80.2629V63.1905C0.735566 59.6622 1.80436 56.3843 3.63496 53.6641L9.80898 14.9667C10.4501 10.9558 12.4989 7.30507 15.5874 4.67035C18.6759 2.03562 22.6017 0.589521 26.6596 0.5918H88.5135C92.5683 0.595151 96.4893 2.0445 99.5732 4.67989C102.657 7.31529 104.702 10.9643 105.341 14.9724L111.498 53.6129C113.352 56.3445 114.432 59.6451 114.432 63.1905V80.2629C114.433 83.7947 113.34 87.2399 111.304 90.1241C109.267 93.0084 106.388 95.1897 103.062 96.3678V105.871C103.062 108.135 102.163 110.307 100.564 111.907C98.9647 113.508 96.7956 114.408 94.534 114.408H88.8489C86.5872 114.408 84.4182 113.508 82.8189 111.907C81.2197 110.307 80.3212 108.135 80.3212 105.871V97.3352H80.3269ZM98.8035 46.175L94.1189 16.765C93.9055 15.43 93.2243 14.2146 92.1971 13.3366C91.17 12.4586 89.8641 11.9753 88.5135 11.9734H26.6539C25.3013 11.9726 23.9927 12.4547 22.9632 13.3329C21.9337 14.2111 21.2508 15.428 21.037 16.765L16.3468 46.1807C16.8271 46.1397 17.3089 46.1188 17.7909 46.1181H97.3822C97.8597 46.1181 98.3373 46.1352 98.8035 46.175ZM88.8546 80.2629C91.1162 80.2629 93.2853 79.3635 94.8845 77.7627C96.4837 76.1618 97.3822 73.9906 97.3822 71.7267C97.3822 69.4627 96.4837 67.2915 94.8845 65.6907C93.2853 64.0898 91.1162 63.1905 88.8546 63.1905C86.5929 63.1905 84.4238 64.0898 82.8246 65.6907C81.2254 67.2915 80.3269 69.4627 80.3269 71.7267C80.3269 73.9906 81.2254 76.1618 82.8246 77.7627C84.4238 79.3635 86.5929 80.2629 88.8546 80.2629ZM26.3185 80.2629C28.5802 80.2629 30.7492 79.3635 32.3485 77.7627C33.9477 76.1618 34.8461 73.9906 34.8461 71.7267C34.8461 69.4627 33.9477 67.2915 32.3485 65.6907C30.7492 64.0898 28.5802 63.1905 26.3185 63.1905C24.0568 63.1905 21.8878 64.0898 20.2885 65.6907C18.6893 67.2915 17.7909 69.4627 17.7909 71.7267C17.7909 73.9906 18.6893 76.1618 20.2885 77.7627C21.8878 79.3635 24.0568 80.2629 26.3185 80.2629ZM30.3208 18.1991C31.0674 18.1991 31.8066 18.3463 32.4964 18.6323C33.1861 18.9183 33.8129 19.3375 34.3408 19.8659C34.8687 20.3943 35.2874 21.0217 35.5731 21.7121C35.8588 22.4026 36.0059 23.1426 36.0059 23.8899V35.2715C36.0059 36.7808 35.4069 38.2282 34.3408 39.2955C33.2746 40.3627 31.8286 40.9623 30.3208 40.9623C28.813 40.9623 27.367 40.3627 26.3008 39.2955C25.2347 38.2282 24.6357 36.7808 24.6357 35.2715V23.8899C24.6357 22.3806 25.2347 20.9331 26.3008 19.8659C27.367 18.7987 28.813 18.1991 30.3208 18.1991Z" fill="white"/>
</svg>
