<svg width="37" height="25" viewBox="0 0 37 25" fill="none" xmlns="http://www.w3.org/2000/svg">
<path d="M36.6484 14.0402C36.3742 10.9621 35.9225 10.3626 35.7518 10.1371C35.3596 9.61613 34.7319 9.27564 34.0677 8.9184C34.0301 8.89854 33.9977 8.87022 33.9729 8.83568C33.9482 8.80114 33.9318 8.76132 33.9251 8.71936C33.9184 8.67741 33.9215 8.63446 33.9342 8.59392C33.9469 8.55338 33.9689 8.51634 33.9984 8.48574C34.1214 8.36099 34.2159 8.21109 34.2755 8.04633C34.335 7.88158 34.3582 7.70588 34.3434 7.53131C34.3148 7.22175 34.1708 6.93427 33.9401 6.72588C33.7095 6.51748 33.4089 6.4034 33.098 6.40625H31.9097C31.8588 6.40655 31.8079 6.40986 31.7574 6.41615C31.7227 6.40111 31.6868 6.38913 31.65 6.38035C30.9462 4.89271 29.9826 2.85588 27.9854 1.86184C25.023 0.388672 19.5661 0.3125 18.4997 0.3125C17.4333 0.3125 11.9763 0.388672 9.01779 1.85955C7.02057 2.85359 6.05699 4.89043 5.35317 6.37807L5.34707 6.39025C5.31197 6.39519 5.27749 6.40387 5.24424 6.41615C5.1937 6.40986 5.14283 6.40655 5.0919 6.40625H3.90133C3.59046 6.4034 3.28988 6.51748 3.0592 6.72588C2.82851 6.93427 2.68457 7.22175 2.65592 7.53131C2.64239 7.70547 2.66662 7.8805 2.72696 8.04444C2.78731 8.20837 2.88233 8.35734 3.00555 8.48117C3.03502 8.51177 3.05699 8.54881 3.0697 8.58935C3.08242 8.62989 3.08554 8.67284 3.07882 8.71479C3.0721 8.75675 3.05572 8.79657 3.03097 8.83111C3.00623 8.86565 2.97379 8.89397 2.93623 8.91383C2.27201 9.27336 1.64131 9.61385 1.25207 10.1326C1.08145 10.3611 0.630508 10.9575 0.355528 14.0356C0.203184 15.7678 0.180333 17.5609 0.299922 18.7156C0.550528 21.115 1.02051 22.5654 1.04031 22.6255C1.11243 22.8445 1.24518 23.0385 1.42316 23.1851C1.60114 23.3317 1.81703 23.4247 2.04578 23.4535V23.4688C2.04578 23.792 2.17419 24.102 2.40275 24.3305C2.63131 24.5591 2.9413 24.6875 3.26453 24.6875H7.53016C7.85339 24.6875 8.16338 24.5591 8.39194 24.3305C8.6205 24.102 8.74891 23.792 8.74891 23.4688C9.40475 23.4688 9.86102 23.3514 10.3447 23.2265C11.043 23.0384 11.7568 22.9132 12.4775 22.8525C14.8015 22.6309 17.1126 22.5547 18.4997 22.5547C19.8586 22.5547 22.2717 22.6309 24.5995 22.8525C25.323 22.9133 26.0397 23.039 26.7407 23.228C27.2038 23.3469 27.6433 23.4566 28.252 23.468C28.252 23.7912 28.3804 24.1012 28.6089 24.3298C28.8375 24.5583 29.1475 24.6867 29.4707 24.6867H33.7363C34.0596 24.6867 34.3696 24.5583 34.5981 24.3298C34.8267 24.1012 34.9551 23.7912 34.9551 23.468V23.4588C35.1844 23.4306 35.4009 23.3378 35.5795 23.1912C35.758 23.0446 35.8913 22.8503 35.9636 22.6309C35.9834 22.5707 36.4534 21.1204 36.704 18.721C36.8236 17.5654 36.8022 15.7754 36.6484 14.0402ZM7.55606 7.4201C8.16543 6.12518 8.8624 4.65963 10.1032 4.04188C11.8963 3.14914 15.6128 2.74695 18.4997 2.74695C21.3866 2.74695 25.103 3.14609 26.8961 4.04188C28.1369 4.65963 28.8309 6.12594 29.4433 7.4201L29.5195 7.58539C29.564 7.67949 29.5837 7.78343 29.5766 7.8873C29.5696 7.99118 29.5361 8.09151 29.4792 8.17874C29.4224 8.26597 29.3442 8.33719 29.252 8.3856C29.1598 8.43401 29.0568 8.458 28.9527 8.45527C26.4215 8.38672 21.0895 8.16734 18.4997 8.16734C15.9098 8.16734 10.5778 8.39205 8.04279 8.46061C7.93872 8.46333 7.83568 8.43934 7.74351 8.39093C7.65134 8.34252 7.57311 8.27131 7.51628 8.18408C7.45945 8.09685 7.42592 7.99651 7.41888 7.89264C7.41184 7.78877 7.43153 7.68482 7.47608 7.59072C7.50274 7.53436 7.53092 7.47723 7.55606 7.4201ZM8.46479 13.4857C7.15448 13.6434 5.83579 13.7212 4.51604 13.7188C3.70861 13.7188 2.87606 13.4902 2.72143 12.7712C2.61555 12.2875 2.62697 12.0155 2.6841 11.7421C2.73209 11.5098 2.80826 11.3407 3.18912 11.2812C4.17936 11.1289 4.73313 11.3201 6.35406 11.7977C7.42885 12.1138 8.20428 12.535 8.64608 12.8687C8.86773 13.0332 8.74967 13.4628 8.46479 13.4857ZM25.3277 19.7318C24.3253 19.846 22.3204 19.8041 18.5225 19.8041C14.7246 19.8041 12.7205 19.846 11.7181 19.7318C10.6837 19.6167 9.36514 18.6387 10.2655 17.7673C10.865 17.1929 12.2635 16.7633 14.1259 16.5219C15.9883 16.2804 16.7767 16.1562 18.5149 16.1562C20.2531 16.1562 20.9615 16.2324 22.9039 16.5226C24.8463 16.8129 26.3141 17.2478 26.7643 17.768C27.5854 18.7004 26.3614 19.6106 25.3277 19.7363V19.7318ZM34.2779 12.7704C34.1256 13.4925 33.2877 13.718 32.4833 13.718C31.1383 13.7183 29.7944 13.6405 28.4584 13.4849C28.2253 13.4628 28.1171 13.0538 28.3533 12.8679C28.7882 12.5259 29.572 12.113 30.6453 11.7969C32.2662 11.3193 33.2008 11.1281 34.0037 11.2873C34.1995 11.3262 34.303 11.5364 34.3152 11.6682C34.369 12.0351 34.3563 12.4087 34.2779 12.7712V12.7704Z" fill="#F05C26"/>
</svg>
