<svg width="37" height="37" viewBox="0 0 37 37" fill="none" xmlns="http://www.w3.org/2000/svg">
<path d="M34.2162 20.5694L31.7652 13.2164C31.4096 12.1458 30.7257 11.2145 29.8107 10.5549C28.8956 9.89518 27.7959 9.54066 26.6679 9.54166H10.3315C9.20341 9.54066 8.10373 9.89518 7.18868 10.5549C6.27362 11.2145 5.58973 12.1458 5.23418 13.2164L2.78317 20.5694C2.13155 20.8423 1.57507 21.3016 1.18364 21.8898C0.792198 22.4779 0.583242 23.1685 0.583008 23.875V29.25C0.583008 30.5722 1.30684 31.7153 2.37467 32.337V34.625C2.37467 35.1002 2.56344 35.5559 2.89944 35.8919C3.23544 36.2279 3.69116 36.4167 4.16634 36.4167H5.95801C6.43319 36.4167 6.8889 36.2279 7.22491 35.8919C7.56091 35.5559 7.74967 35.1002 7.74967 34.625V32.8333H29.2497V34.625C29.2497 35.1002 29.4384 35.5559 29.7744 35.8919C30.1104 36.2279 30.5662 36.4167 31.0413 36.4167H32.833C33.3082 36.4167 33.7639 36.2279 34.0999 35.8919C34.4359 35.5559 34.6247 35.1002 34.6247 34.625V32.337C35.1683 32.0253 35.6201 31.5758 35.9346 31.0339C36.2492 30.4919 36.4153 29.8766 36.4163 29.25V23.875C36.4163 22.3861 35.508 21.1122 34.2162 20.5694ZM10.3315 13.125H26.6661C27.0423 13.1249 27.4089 13.2432 27.7141 13.4632C28.0193 13.6831 28.2475 13.9936 28.3664 14.3505L30.348 20.2917H6.65138L8.63118 14.3505C8.87663 13.6177 9.56105 13.125 10.3315 13.125ZM6.85384 29.25C6.5008 29.2499 6.15123 29.1802 5.82511 29.045C5.49898 28.9098 5.20268 28.7117 4.95312 28.4619C4.44912 27.9576 4.1661 27.2737 4.16634 26.5607C4.16658 25.8477 4.45005 25.164 4.95439 24.66C5.45873 24.156 6.14263 23.873 6.85563 23.8732C7.56864 23.8734 8.25235 24.1569 8.75635 24.6612C9.26036 25.1656 9.54337 25.8495 9.54313 26.5625C9.5429 27.2755 9.25943 27.9592 8.75509 28.4632C8.25075 28.9672 7.56685 29.2502 6.85384 29.25ZM30.1455 29.25C29.4325 29.2498 28.7488 28.9663 28.2448 28.4619C27.7408 27.9576 27.4578 27.2737 27.458 26.5607C27.4582 25.8477 27.7417 25.164 28.2461 24.66C28.7504 24.156 29.4343 23.873 30.1473 23.8732C30.8603 23.8734 31.544 24.1569 32.048 24.6612C32.552 25.1656 32.835 25.8495 32.8348 26.5625C32.8346 27.2755 32.5511 27.9592 32.0468 28.4632C31.5424 28.9672 30.8585 29.2502 30.1455 29.25ZM13.1247 4.84391C13.1336 2.89458 11.2667 1.1692 10.6396 0.644242C10.5826 0.595769 10.5102 0.569153 10.4354 0.569153C10.3605 0.569153 10.2881 0.595769 10.2311 0.644242C9.60047 1.16562 7.74072 2.86053 7.74967 4.84212C7.74967 6.44566 8.95547 7.74999 10.4372 7.74999C11.9189 7.74999 13.1247 6.44566 13.1247 4.84391ZM21.1872 4.84391C21.1961 2.89458 19.3292 1.16741 18.7021 0.644242C18.6451 0.595769 18.5727 0.569153 18.4979 0.569153C18.423 0.569153 18.3507 0.595769 18.2936 0.644242C17.6612 1.16562 15.8014 2.86233 15.8104 4.84391C15.8122 6.44566 17.018 7.74999 18.4997 7.74999C19.9814 7.74999 21.1872 6.44566 21.1872 4.84391ZM29.2497 4.84391C29.2586 2.89458 27.3917 1.16741 26.7646 0.644242C26.7076 0.595769 26.6352 0.569153 26.5604 0.569153C26.4855 0.569153 26.4132 0.595769 26.3561 0.644242C25.7255 1.16562 23.8657 2.86053 23.8747 4.84212C23.8747 6.44566 25.0805 7.74999 26.5622 7.74999C28.0439 7.74999 29.2497 6.44566 29.2497 4.84391Z" fill="#F05C26"/>
</svg>
