<svg width="28" height="32" viewBox="0 0 28 32" fill="none" xmlns="http://www.w3.org/2000/svg">
<path fill-rule="evenodd" clip-rule="evenodd" d="M4.97653 28.6401V20.8283H8.94279C10.6323 21.0835 12.3046 21.8976 13.9855 22.8393H17.0624C18.4583 22.9133 19.1866 24.1664 17.8338 24.9881C16.7544 25.6925 15.3354 25.6516 13.8675 25.5368C12.8601 25.4934 12.8169 26.6903 13.8675 26.6954C14.233 26.7209 14.6302 26.6444 14.9756 26.6444C16.7918 26.6444 18.3 26.3356 19.2182 25.057L19.673 24.1025L24.2782 22.0992C26.5808 21.4306 28.2013 23.5539 26.5118 25.034C23.3151 27.1022 19.8954 28.8846 16.3025 30.3551C13.7754 31.7179 11.2454 31.6719 8.72404 30.3551L4.98229 28.6401H4.97653ZM0 20.0831H3.78493V29.4261H0V20.0831ZM17.1804 0.621182C17.1956 0.445171 17.2874 0.281315 17.4366 0.164366C17.583 0.0500138 17.7742 -0.00865794 17.969 0.00103536H18.0209C18.2083 0.0226514 18.3796 0.10611 18.5007 0.234768C18.6218 0.363426 18.6838 0.527829 18.6742 0.695192C18.6742 0.695192 18.6742 0.71816 18.6742 0.728368L18.5648 2.1422C18.5648 2.15751 18.5648 2.17283 18.5648 2.18559C18.5405 2.34716 18.4517 2.49566 18.3144 2.60412C18.1674 2.71731 17.9763 2.77502 17.782 2.7649H17.7301C17.5528 2.7459 17.3893 2.67067 17.2696 2.55308C17.1412 2.42299 17.0751 2.2536 17.0854 2.08095C17.0839 2.06993 17.0839 2.05879 17.0854 2.04778L17.1919 0.628838L17.1804 0.621182ZM8.83341 2.77511C8.69438 2.65042 8.6164 2.48215 8.6164 2.30681C8.6164 2.13147 8.69438 1.9632 8.83341 1.83851C8.97367 1.71461 9.16359 1.64505 9.36158 1.64505C9.55956 1.64505 9.74948 1.71461 9.88974 1.83851L11.041 2.87464C11.1808 2.999 11.2592 3.16739 11.2592 3.34294C11.2592 3.51848 11.1808 3.68688 11.041 3.81124C10.8995 3.93399 10.7094 4.0027 10.5114 4.00264C10.4134 4.00221 10.3164 3.98464 10.226 3.95092C10.1356 3.9172 10.0536 3.868 9.98472 3.80613L8.83341 2.77V2.77511ZM6.5308 9.98974C6.33433 9.98506 6.14783 9.91204 6.01157 9.78646C5.87532 9.66087 5.80026 9.4928 5.80259 9.31855C5.80784 9.14704 5.88839 8.98412 6.02709 8.86448C6.16579 8.74484 6.35168 8.67793 6.54519 8.67799H8.18005C8.27853 8.67894 8.37582 8.69726 8.46625 8.73187C8.55668 8.76649 8.63844 8.8167 8.70677 8.8796C8.77685 8.94129 8.83211 9.01493 8.86921 9.09607C8.90631 9.17722 8.92449 9.26418 8.92264 9.35173V9.3747C8.91198 9.53793 8.83294 9.69175 8.70101 9.80599C8.5585 9.92866 8.36715 9.99653 8.16853 9.99484H8.13975L6.52216 9.97953L6.5308 9.98974ZM27.2169 8.73924H27.24C27.4273 8.73556 27.6093 8.79481 27.7494 8.90512C27.8974 9.02226 27.9874 9.18639 27.9998 9.36194C27.9998 9.36194 27.9998 9.3798 27.9998 9.38235C28.004 9.54846 27.9371 9.70982 27.8127 9.83406C27.6806 9.96528 27.4955 10.0451 27.2975 10.0561L25.6655 10.1454C25.4694 10.1528 25.2779 10.0917 25.1322 9.97506C24.9865 9.85846 24.8983 9.69577 24.8866 9.52205C24.8749 9.34833 24.9406 9.17749 25.0696 9.04634C25.1987 8.91519 25.3806 8.83423 25.5763 8.8209C26.1232 8.79028 26.6701 8.7571 27.2169 8.73158V8.73924ZM24.2696 2.84912C24.3274 2.77899 24.4003 2.71969 24.484 2.67465C24.5678 2.6296 24.6607 2.59969 24.7576 2.58665C24.8544 2.5736 24.9532 2.57767 25.0483 2.59863C25.1434 2.61959 25.2328 2.65701 25.3115 2.70876C25.3891 2.76031 25.4545 2.82495 25.5039 2.89896C25.5533 2.97297 25.5857 3.0549 25.5993 3.14005C25.6268 3.3139 25.5773 3.49043 25.4612 3.6326L24.4941 4.80143C24.3763 4.94251 24.2005 5.03666 24.0048 5.06342C23.8092 5.09018 23.6095 5.04739 23.4493 4.94435C23.2937 4.83813 23.1906 4.68265 23.1614 4.5105C23.1488 4.42393 23.1558 4.33601 23.182 4.25187C23.2082 4.16773 23.2531 4.08907 23.314 4.02051L24.284 2.84912H24.2696ZM19.2671 19.8381C18.9524 20.276 18.5138 20.6333 17.9949 20.8742C17.5571 21.0795 17.0712 21.1914 16.576 21.2009C16.0743 21.2118 15.5782 21.1062 15.1368 20.8946C14.8226 20.742 14.5427 20.5396 14.3108 20.2974L19.2528 19.8381H19.2671ZM19.8428 17.4213V17.7071V17.8041C19.8539 17.9947 19.8501 18.1857 19.8313 18.3758L19.7133 18.7841L13.7236 19.3277L13.6315 19.1107L13.4386 18.2584V18.0032L19.8601 17.4213H19.8428ZM14.4432 10.0867C14.7216 10.1824 14.9745 10.3284 15.1858 10.5155C15.358 10.6592 15.5195 10.8126 15.6693 10.9748C16.1795 10.3122 16.7401 9.68119 17.3473 9.08632C17.8842 8.54412 18.4726 8.04379 19.106 7.59082L19.2441 7.54998L20.7495 7.60868L20.4357 7.88941C19.5628 8.68272 18.7539 9.52954 18.0151 10.4236C17.1352 11.429 16.3305 12.4844 15.606 13.583C15.2912 12.8893 14.873 12.2362 14.3626 11.6409C13.9612 11.1514 13.4755 10.7208 12.9234 10.3649L14.4316 10.0791L14.4432 10.0867ZM11.018 6.38115C11.4135 5.8549 11.899 5.38651 12.4572 4.99284C13.0222 4.5902 13.6595 4.27447 14.3424 4.05879L14.4 4.04347C14.9094 3.88684 15.4378 3.78404 15.9744 3.73723C16.5427 3.68735 17.1157 3.69763 17.6812 3.76785C18.7881 3.89662 19.8478 4.24559 20.7811 4.78867C21.3909 5.13703 21.9356 5.56754 22.3958 6.06469C22.8433 6.55485 23.1954 7.10771 23.4378 7.70056C23.5744 8.03921 23.6784 8.38754 23.7486 8.74179C23.8244 9.1199 23.8581 9.5037 23.8494 9.88766C23.8432 10.3174 23.7843 10.7452 23.6738 11.1637C23.5596 11.5904 23.3976 12.0059 23.1902 12.404C22.7383 13.2717 21.9986 14.0985 21.2704 14.9126C20.9135 15.3133 20.5595 15.7114 20.2544 16.1044C20.1596 16.2262 20.029 16.3227 19.8768 16.3834C19.7246 16.4441 19.5566 16.4668 19.3909 16.449L14.0085 16.9441C13.7948 16.9634 13.5802 16.9154 13.4024 16.8086C13.2245 16.7017 13.0947 16.5428 13.0357 16.3596C12.9167 15.9955 12.7646 15.6404 12.5809 15.298C12.432 15.0157 12.2486 14.7487 12.034 14.5018C11.775 14.2159 11.5102 13.9224 11.2454 13.5728C10.95 13.1875 10.6983 12.7772 10.4942 12.3478L10.4769 12.3019C10.2743 11.8636 10.12 11.4089 10.0164 10.9442C9.91416 10.4615 9.87648 9.96984 9.90413 9.47933C9.93433 8.96996 10.0358 8.46589 10.2063 7.97873C10.3851 7.45802 10.6304 6.95712 10.9374 6.48578V6.47047L11.0036 6.38115H11.018Z" fill="#F05C26"/>
</svg>
