<svg width="24" height="24" viewBox="0 0 24 24" fill="none" xmlns="http://www.w3.org/2000/svg">
<g clip-path="url(#clip0)">
<g filter="url(#filter0_f)">
<path d="M0.589844 23.4399L2.19813 17.5945C1.20925 15.8841 0.682188 13.9411 0.687625 11.9548C0.687625 5.73047 5.77338 0.669922 12.022 0.669922C15.0539 0.669922 17.9011 1.84443 20.0365 3.97688C22.1773 6.10933 23.3564 8.94544 23.3509 11.9602C23.3509 18.1844 18.2651 23.2451 12.0166 23.2451H12.0111C10.1148 23.2451 8.2511 22.7688 6.59388 21.8702L0.589844 23.4399ZM6.87644 19.8244L7.21872 20.0301C8.66406 20.8852 10.3213 21.3344 12.0111 21.3398H12.0166C17.2056 21.3398 21.4328 17.1344 21.4328 11.9602C21.4328 9.4542 20.4548 7.09987 18.6781 5.32452C16.9013 3.54927 14.5323 2.57507 12.0166 2.57507C6.82206 2.57507 2.59478 6.78049 2.59478 11.9547C2.59478 13.7246 3.08922 15.4511 4.03469 16.945L4.25744 17.3022L3.30663 20.7607L6.87644 19.8244Z" fill="black" fill-opacity="0.24"/>
</g>
<path d="M1.10547 22.8363L2.64016 17.2612C1.69383 15.6259 1.19601 13.7715 1.19669 11.884C1.19669 5.95073 6.04769 1.12402 11.9986 1.12402C14.8909 1.12402 17.6009 2.24651 19.6399 4.27764C21.679 6.30886 22.8006 9.01358 22.8006 11.8893C22.8006 17.8224 17.9496 22.6491 11.9987 22.6491H11.9933C10.1849 22.6491 8.40869 22.1948 6.83106 21.3396L1.10547 22.8364V22.8363Z" fill="url(#paint0_linear)"/>
<path d="M0.712891 23.2265L2.3012 17.4537C1.32461 15.7647 0.804016 13.8457 0.809453 11.884C0.809453 5.73705 5.83211 0.739258 12.0032 0.739258C14.9974 0.739258 17.8091 1.8991 19.9181 4.00513C22.0323 6.11115 23.1968 8.91205 23.1914 11.8894C23.1914 18.0363 18.1688 23.0341 11.9977 23.0341H11.9924C10.1233 23.0334 8.28404 22.5666 6.64239 21.6764L0.712891 23.2266V23.2265ZM6.92139 19.6559L7.25945 19.859C8.68689 20.7036 10.3235 21.1473 11.9924 21.1526H11.9978C17.1223 21.1526 21.2972 16.9994 21.2972 11.8894C21.2972 9.41456 20.3313 7.08936 18.5766 5.33614C16.8219 3.58293 14.4822 2.62078 11.9978 2.62078C6.86777 2.62078 2.69298 6.774 2.69298 11.884C2.69298 13.6319 3.18123 15.337 4.11498 16.8123L4.33502 17.1651L3.39592 20.5806L6.92139 19.6559Z" fill="white"/>
<path d="M9.20149 7.21789C8.99214 6.75283 8.77211 6.74209 8.57364 6.73677C8.41267 6.73145 8.22489 6.73145 8.03702 6.73145C7.84924 6.73145 7.54867 6.80092 7.29114 7.07884C7.03352 7.35685 6.31445 8.03034 6.31445 9.40413C6.31445 10.7724 7.31795 12.098 7.45745 12.2851C7.59695 12.4722 9.39461 15.3746 12.2333 16.4918C14.5944 17.4219 15.0774 17.2348 15.5871 17.1867C16.1022 17.1386 17.2399 16.5132 17.476 15.8611C17.7067 15.209 17.7067 14.653 17.6369 14.5355C17.5672 14.4178 17.3794 14.3484 17.1003 14.2094C16.8213 14.0704 15.4476 13.3969 15.1901 13.3007C14.9324 13.2045 14.7446 13.1618 14.5622 13.4397C14.3743 13.7176 13.8378 14.343 13.6767 14.5301C13.5158 14.7172 13.3495 14.7386 13.0704 14.5996C12.7914 14.4607 11.8899 14.1666 10.822 13.2152C9.9903 12.4775 9.42686 11.5635 9.2658 11.2856C9.10483 11.0076 9.24977 10.8579 9.38927 10.719C9.51264 10.596 9.66827 10.3929 9.80786 10.2326C9.94736 10.0722 9.99564 9.95464 10.0869 9.76749C10.1781 9.58044 10.1351 9.4201 10.0654 9.28114C9.99564 9.14209 9.44833 7.7684 9.20149 7.21789Z" fill="white"/>
</g>
<defs>
<filter id="filter0_f" x="-5.41016" y="-5.33008" width="34.7611" height="34.7699" filterUnits="userSpaceOnUse" color-interpolation-filters="sRGB">
<feFlood flood-opacity="0" result="BackgroundImageFix"/>
<feBlend mode="normal" in="SourceGraphic" in2="BackgroundImageFix" result="shape"/>
<feGaussianBlur stdDeviation="3" result="effect1_foregroundBlur"/>
</filter>
<linearGradient id="paint0_linear" x1="11.9526" y1="22.8348" x2="11.9526" y2="1.12272" gradientUnits="userSpaceOnUse">
<stop stop-color="#20B038"/>
<stop offset="1" stop-color="#60D66A"/>
</linearGradient>
<clipPath id="clip0">
<rect width="24" height="24" fill="white"/>
</clipPath>
</defs>
</svg>
