<svg width="23" height="23" viewBox="0 0 23 23" fill="none" xmlns="http://www.w3.org/2000/svg">
<path d="M11.5 0C9.22552 0 7.00211 0.674463 5.11095 1.9381C3.21978 3.20174 1.7458 4.99779 0.87539 7.09914C0.00498279 9.20049 -0.222756 11.5128 0.220974 13.7435C0.664704 15.9743 1.75997 18.0234 3.36828 19.6317C4.97658 21.24 7.02568 22.3353 9.25646 22.779C11.4872 23.2228 13.7995 22.995 15.9009 22.1246C18.0022 21.2542 19.7983 19.7802 21.0619 17.8891C22.3255 15.9979 23 13.7745 23 11.5C22.9971 8.45091 21.7845 5.52754 19.6285 3.37151C17.4725 1.21547 14.5491 0.0029276 11.5 0ZM11.2788 5.30769C11.5413 5.30769 11.7978 5.38551 12.016 5.53132C12.2343 5.67712 12.4043 5.88436 12.5048 6.12682C12.6052 6.36929 12.6315 6.63609 12.5803 6.89348C12.5291 7.15088 12.4027 7.38732 12.2171 7.57289C12.0316 7.75846 11.7951 7.88484 11.5377 7.93604C11.2803 7.98724 11.0135 7.96096 10.7711 7.86053C10.5286 7.7601 10.3214 7.59002 10.1756 7.37181C10.0297 7.1536 9.95193 6.89705 9.95193 6.63461C9.95193 6.28269 10.0917 5.94518 10.3406 5.69634C10.5894 5.44749 10.9269 5.30769 11.2788 5.30769ZM12.3846 17.6923H11.5C11.2654 17.6923 11.0404 17.5991 10.8745 17.4332C10.7086 17.2673 10.6154 17.0423 10.6154 16.8077V11.5C10.3808 11.5 10.1558 11.4068 9.98987 11.2409C9.82397 11.075 9.73077 10.85 9.73077 10.6154C9.73077 10.3808 9.82397 10.1558 9.98987 9.98987C10.1558 9.82397 10.3808 9.73077 10.6154 9.73077H11.5C11.7346 9.73077 11.9596 9.82397 12.1255 9.98987C12.2914 10.1558 12.3846 10.3808 12.3846 10.6154V15.9231C12.6192 15.9231 12.8442 16.0163 13.0101 16.1822C13.176 16.3481 13.2692 16.5731 13.2692 16.8077C13.2692 17.0423 13.176 17.2673 13.0101 17.4332C12.8442 17.5991 12.6192 17.6923 12.3846 17.6923Z" fill="white"/>
</svg>
