<svg width="13" height="17" viewBox="0 0 13 17" fill="none" xmlns="http://www.w3.org/2000/svg">
<path fill-rule="evenodd" clip-rule="evenodd" d="M10.727 6.14552C10.7291 7.12541 10.4138 8.07972 9.82804 8.86604L6.14562 13.7674L2.46321 8.86604C2.03205 8.28458 1.74524 7.60931 1.62633 6.8957C1.50742 6.1821 1.5598 5.45051 1.77917 4.76104C1.99854 4.07157 2.37864 3.44388 2.88826 2.92954C3.39787 2.41519 4.02245 2.02887 4.7107 1.80229C5.39895 1.57571 6.13123 1.51535 6.84739 1.62616C7.56355 1.73697 8.24316 2.01579 8.83039 2.43972C9.41763 2.86365 9.89573 3.42059 10.2254 4.06481C10.5551 4.70902 10.727 5.42211 10.727 6.14552ZM12.2541 6.14552C12.2541 7.5073 11.8072 8.7634 11.0528 9.77762L7.09957 15.0378L6.14562 16.3081L5.19066 15.0378L1.23845 9.77762C0.662913 9.00265 0.279796 8.10242 0.120578 7.15091C-0.0386389 6.1994 0.0305874 5.22376 0.32257 4.30415C0.614552 3.38453 1.12096 2.5472 1.80018 1.86094C2.4794 1.17468 3.31204 0.659084 4.22971 0.356511C5.14737 0.0539387 6.12386 -0.0269735 7.07895 0.120423C8.03403 0.267819 8.94045 0.639317 9.72373 1.20439C10.507 1.76947 11.1448 2.512 11.5847 3.37097C12.0246 4.22993 12.254 5.18083 12.2541 6.14552ZM6.14562 8.17803C6.68565 8.17803 7.20356 7.96389 7.58541 7.58272C7.96727 7.20155 8.18179 6.68458 8.18179 6.14552C8.18179 5.60647 7.96727 5.08949 7.58541 4.70832C7.20356 4.32715 6.68565 4.11301 6.14562 4.11301C5.6056 4.11301 5.08769 4.32715 4.70583 4.70832C4.32398 5.08949 4.10945 5.60647 4.10945 6.14552C4.10945 6.68458 4.32398 7.20155 4.70583 7.58272C5.08769 7.96389 5.6056 8.17803 6.14562 8.17803Z" fill="#F05C26"/>
</svg>
