<svg width="22" height="27" viewBox="0 0 22 27" fill="none" xmlns="http://www.w3.org/2000/svg">
<path d="M5.51562 14.816V7.57915C5.51562 7.0557 5.71954 6.55368 6.08251 6.18355C6.44549 5.81341 6.93779 5.60547 7.45111 5.60547C7.96443 5.60547 8.45673 5.81341 8.8197 6.18355C9.18268 6.55368 9.38659 7.0557 9.38659 7.57915V14.816" stroke="white" stroke-width="1.5" stroke-linecap="round" stroke-linejoin="round"/>
<path d="M20.9995 14.1582V18.4345C20.9995 22.6128 17.6776 26.0003 13.5801 26.0003H12.935C8.83756 26.0003 5.51562 22.6128 5.51562 18.4345V14.1582" stroke="white" stroke-width="1.5" stroke-linecap="round" stroke-linejoin="round"/>
<path d="M9.38672 16.7895V13.5001C9.38672 12.9766 9.59063 12.4746 9.95361 12.1044C10.3166 11.7343 10.8089 11.5264 11.3222 11.5264C11.8355 11.5264 12.3278 11.7343 12.6908 12.1044C13.0538 12.4746 13.2577 12.9766 13.2577 13.5001M13.2577 13.5001V16.7895M13.2577 13.5001C13.2577 12.9766 13.4616 12.4746 13.8246 12.1044C14.1875 11.7343 14.6798 11.5264 15.1932 11.5264C15.7065 11.5264 16.1988 11.7343 16.5618 12.1044C16.9247 12.4746 17.1287 12.9766 17.1287 13.5001M17.1287 13.5001V16.7895M17.1287 13.5001C17.1287 12.9766 17.3326 12.4746 17.6955 12.1044C18.0585 11.7343 18.5508 11.5264 19.0641 11.5264C19.5775 11.5264 20.0698 11.7343 20.4327 12.1044C20.7957 12.4746 20.9996 12.9766 20.9996 13.5001V16.7895" stroke="white" stroke-width="1.5" stroke-linecap="round" stroke-linejoin="round"/>
<path d="M13.9032 7.57895C13.9047 6.17065 13.4616 4.79927 12.6394 3.66776C12.04 2.83983 11.2582 2.16707 10.3571 1.70369C9.45605 1.24031 8.4608 0.99927 7.45162 1C6.44232 0.999167 5.44695 1.24015 4.54574 1.70354C3.64453 2.16692 2.86268 2.83974 2.26323 3.66776C1.44127 4.79937 0.998349 6.17073 1 7.57895" stroke="white" stroke-width="1.5" stroke-linecap="round"/>
</svg>
