<svg width="106" height="124" viewBox="0 0 106 124" fill="none" xmlns="http://www.w3.org/2000/svg">
<path d="M77.75 33.875V27.125C77.75 26.5063 77.2438 26 76.625 26H22.625C22.0063 26 21.5 26.5063 21.5 27.125V33.875C21.5 34.4938 22.0063 35 22.625 35H76.625C77.2438 35 77.75 34.4938 77.75 33.875ZM22.625 46.25C22.0063 46.25 21.5 46.7562 21.5 47.375V54.125C21.5 54.7438 22.0063 55.25 22.625 55.25H48.5C49.1188 55.25 49.625 54.7438 49.625 54.125V47.375C49.625 46.7562 49.1188 46.25 48.5 46.25H22.625ZM42.875 109.812H10.25V10.8125H89V59.1875C89 59.8063 89.5062 60.3125 90.125 60.3125H98C98.6188 60.3125 99.125 59.8063 99.125 59.1875V5.1875C99.125 2.69844 97.1141 0.6875 94.625 0.6875H4.625C2.13594 0.6875 0.125 2.69844 0.125 5.1875V115.438C0.125 117.927 2.13594 119.938 4.625 119.938H42.875C43.4938 119.938 44 119.431 44 118.812V110.938C44 110.319 43.4938 109.812 42.875 109.812ZM105.552 117.055L92.4313 103.934C95.5672 99.7859 97.4375 94.6109 97.4375 89C97.4375 75.3313 86.3562 64.25 72.6875 64.25C59.0187 64.25 47.9375 75.3313 47.9375 89C47.9375 102.669 59.0187 113.75 72.6875 113.75C77.7219 113.75 82.3906 112.245 86.3 109.672L99.6172 122.989C99.8422 123.214 100.123 123.312 100.405 123.312C100.686 123.312 100.981 123.2 101.192 122.989L105.552 118.63C105.655 118.526 105.738 118.404 105.794 118.269C105.85 118.133 105.879 117.989 105.879 117.842C105.879 117.696 105.85 117.551 105.794 117.416C105.738 117.281 105.655 117.158 105.552 117.055ZM72.6875 104.75C63.9828 104.75 56.9375 97.7047 56.9375 89C56.9375 80.2953 63.9828 73.25 72.6875 73.25C81.3922 73.25 88.4375 80.2953 88.4375 89C88.4375 97.7047 81.3922 104.75 72.6875 104.75Z" fill="white"/>
</svg>
