<svg width="23" height="23" viewBox="0 0 23 23" fill="none" xmlns="http://www.w3.org/2000/svg">
<path d="M12.3912 15.4963L17.6812 11.9887C17.7771 11.9312 17.8442 11.8596 17.8825 11.7737C17.9208 11.6871 17.94 11.5958 17.94 11.5C17.94 11.4042 17.9208 11.3129 17.8825 11.2263C17.8442 11.1404 17.7771 11.0687 17.6812 11.0112L12.3912 7.50375C12.1996 7.36958 12.0029 7.3554 11.8013 7.4612C11.6004 7.56623 11.5 7.73375 11.5 7.96375V15.0362C11.5 15.2662 11.6004 15.4338 11.8013 15.5388C12.0029 15.6446 12.1996 15.6304 12.3912 15.4963ZM8.05 16.1C8.37583 16.1 8.64915 15.9896 8.86995 15.7688C9.08998 15.5488 9.2 15.2758 9.2 14.95V8.05C9.2 7.72417 9.08998 7.45085 8.86995 7.23005C8.64915 7.01002 8.37583 6.9 8.05 6.9C7.72417 6.9 7.45123 7.01002 7.2312 7.23005C7.0104 7.45085 6.9 7.72417 6.9 8.05V14.95C6.9 15.2758 7.0104 15.5488 7.2312 15.7688C7.45123 15.9896 7.72417 16.1 8.05 16.1ZM11.5 23C9.90917 23 8.41417 22.6979 7.015 22.0938C5.61583 21.4904 4.39875 20.6713 3.36375 19.6362C2.32875 18.6012 1.50957 17.3842 0.9062 15.985C0.302067 14.5858 0 13.0908 0 11.5C0 9.90917 0.302067 8.41417 0.9062 7.015C1.50957 5.61583 2.32875 4.39875 3.36375 3.36375C4.39875 2.32875 5.61583 1.50918 7.015 0.90505C8.41417 0.301683 9.90917 0 11.5 0C13.0908 0 14.5858 0.301683 15.985 0.90505C17.3842 1.50918 18.6012 2.32875 19.6362 3.36375C20.6713 4.39875 21.4904 5.61583 22.0938 7.015C22.6979 8.41417 23 9.90917 23 11.5C23 13.0908 22.6979 14.5858 22.0938 15.985C21.4904 17.3842 20.6713 18.6012 19.6362 19.6362C18.6012 20.6713 17.3842 21.4904 15.985 22.0938C14.5858 22.6979 13.0908 23 11.5 23ZM11.5 20.7C14.0492 20.7 16.22 19.8041 18.0124 18.0124C19.8041 16.22 20.7 14.0492 20.7 11.5C20.7 8.95083 19.8041 6.78002 18.0124 4.98755C16.22 3.19585 14.0492 2.3 11.5 2.3C8.95083 2.3 6.7804 3.19585 4.9887 4.98755C3.19623 6.78002 2.3 8.95083 2.3 11.5C2.3 14.0492 3.19623 16.22 4.9887 18.0124C6.7804 19.8041 8.95083 20.7 11.5 20.7Z" fill="white"/>
</svg>
