<svg width="100" height="100" viewBox="0 0 100 100" fill="none" xmlns="http://www.w3.org/2000/svg">
<path d="M50.0001 5.55469C41.2098 5.55469 32.617 8.16131 25.3081 13.0449C17.9993 17.9285 12.3027 24.8698 8.93882 32.991C5.57492 41.1121 4.69477 50.0484 6.40967 58.6698C8.12457 67.2912 12.3575 75.2104 18.5732 81.4261C24.7888 87.6418 32.7081 91.8747 41.3294 93.5896C49.9508 95.3045 58.8871 94.4243 67.0083 91.0604C75.1294 87.6965 82.0707 82 86.9543 74.6911C91.838 67.3823 94.4446 58.7894 94.4446 49.9991C94.4446 38.2117 89.762 26.9071 81.4271 18.5722C73.0921 10.2372 61.7875 5.55469 50.0001 5.55469ZM50.0001 88.888C42.3086 88.888 34.7899 86.6072 28.3946 82.3341C21.9994 78.0609 17.0149 71.9873 14.0715 64.8813C11.1281 57.7752 10.3579 49.956 11.8585 42.4123C13.359 34.8686 17.0628 27.9392 22.5015 22.5005C27.9402 17.0618 34.8696 13.358 42.4133 11.8575C49.957 10.3569 57.7762 11.1271 64.8823 14.0705C71.9883 17.0139 78.0619 21.9984 82.3351 28.3936C86.6082 34.7889 88.889 42.3076 88.889 49.9991C88.889 60.3131 84.7918 70.2046 77.4987 77.4977C70.2056 84.7908 60.3141 88.888 50.0001 88.888Z" fill="black"/>
<path d="M69.8887 44.668C72.6501 44.668 74.8887 42.4294 74.8887 39.668C74.8887 36.9065 72.6501 34.668 69.8887 34.668C67.1272 34.668 64.8887 36.9065 64.8887 39.668C64.8887 42.4294 67.1272 44.668 69.8887 44.668Z" fill="black"/>
<path d="M31.6943 44.668C34.4558 44.668 36.6943 42.4294 36.6943 39.668C36.6943 36.9065 34.4558 34.668 31.6943 34.668C28.9329 34.668 26.6943 36.9065 26.6943 39.668C26.6943 42.4294 28.9329 44.668 31.6943 44.668Z" fill="black"/>
<path d="M50.4442 55.5547C46.4592 55.5554 42.532 56.5087 38.9902 58.3352C35.4484 60.1617 32.3945 62.8084 30.0831 66.0547C29.6558 66.6551 29.4846 67.4007 29.607 68.1274C29.7294 68.8541 30.1355 69.5024 30.7359 69.9297C31.3363 70.357 32.0819 70.5283 32.8086 70.4058C33.5353 70.2834 34.1836 69.8773 34.6109 69.2769C36.387 66.7822 38.7272 64.7423 41.441 63.3233C44.1548 61.9043 47.1653 61.1463 50.2275 61.1111C53.2896 61.076 56.3168 61.7645 59.0624 63.1208C61.8081 64.477 64.1946 66.4626 66.0276 68.9158C66.4696 69.5052 67.1277 69.8948 67.857 69.999C68.5863 70.1032 69.3271 69.9134 69.9165 69.4714C70.5058 69.0293 70.8955 68.3713 70.9997 67.642C71.1038 66.9127 70.914 66.1718 70.472 65.5825C68.1434 62.4687 65.1207 59.941 61.644 58.2002C58.1672 56.4594 54.3324 55.5536 50.4442 55.5547Z" fill="black"/>
</svg>
