<svg width="174" height="110" viewBox="0 0 174 110" fill="none" xmlns="http://www.w3.org/2000/svg">
<path d="M118.333 47.1665C131.337 47.1665 141.755 36.6698 141.755 23.6665C141.755 10.6632 131.337 0.166504 118.333 0.166504C105.33 0.166504 94.8333 10.6632 94.8333 23.6665C94.8333 36.6698 105.33 47.1665 118.333 47.1665ZM55.6667 47.1665C68.67 47.1665 79.0883 36.6698 79.0883 23.6665C79.0883 10.6632 68.67 0.166504 55.6667 0.166504C42.6633 0.166504 32.1667 10.6632 32.1667 23.6665C32.1667 36.6698 42.6633 47.1665 55.6667 47.1665ZM55.6667 62.8332C37.415 62.8332 0.833336 71.9982 0.833336 90.2498V109.833H110.5V90.2498C110.5 71.9982 73.9183 62.8332 55.6667 62.8332ZM118.333 62.8332C116.062 62.8332 113.477 62.9898 110.735 63.2248C119.822 69.8048 126.167 78.6565 126.167 90.2498V109.833H173.167V90.2498C173.167 71.9982 136.585 62.8332 118.333 62.8332Z" fill="white"/>
</svg>
