<svg width="31" height="27" viewBox="0 0 31 27" fill="none" xmlns="http://www.w3.org/2000/svg">
<path d="M26.745 1.76625C26.42 0.8075 25.51 0.125 24.4375 0.125H6.5625C5.49 0.125 4.59625 0.8075 4.255 1.76625L0.875 11.5V24.5C0.875 25.3937 1.60625 26.125 2.5 26.125H4.125C5.01875 26.125 5.75 25.3937 5.75 24.5V22.875H25.25V24.5C25.25 25.3937 25.9813 26.125 26.875 26.125H28.5C29.3937 26.125 30.125 25.3937 30.125 24.5V11.5L26.745 1.76625ZM7.13125 3.375H23.8525L25.6075 8.42875H5.37625L7.13125 3.375ZM26.875 19.625H4.125V11.5H26.875V19.625Z" fill="#F05C26"/>
</svg>
