<svg width="40" height="40" viewBox="0 0 40 40" fill="none" xmlns="http://www.w3.org/2000/svg">
<path d="M40 19.9995C40 21.652 36.7587 22.8568 36.3504 24.3818C35.9298 25.9593 38.1219 28.6214 37.3225 30.002C36.5127 31.4022 33.1037 30.8284 31.965 31.9655C30.8262 33.1026 31.4024 36.5102 30.0011 37.3229C28.6205 38.122 25.958 35.93 24.3821 36.3508C22.8571 36.758 21.6521 40 19.9993 40C18.3465 40 17.1403 36.7588 15.6168 36.3508C14.039 35.9286 11.3768 38.122 9.99592 37.3229C8.5941 36.5115 9.16817 33.1042 8.03236 31.9655C6.89655 30.8268 3.48591 31.403 2.67611 30.002C1.87676 28.6214 4.06909 25.9593 3.64798 24.3818C3.24134 22.8568 0 21.652 0 19.9995C0 18.347 3.24134 17.1418 3.64932 15.6171C4.07177 14.0396 1.8781 11.3773 2.67879 9.99665C3.48859 8.59649 6.89762 9.17054 8.03638 8.03316C9.17513 6.89578 8.59892 3.48848 9.99993 2.67736C11.3809 1.87804 14.043 4.07029 15.6208 3.6492C17.1456 3.24203 18.3508 0 20.0033 0C21.6559 0 22.8611 3.24123 24.3861 3.6492C25.9637 4.07136 28.6261 1.87938 30.0068 2.67736C31.407 3.48848 30.8332 6.89739 31.9706 8.03316C33.108 9.16893 36.5154 8.59569 37.3252 9.99826C38.1246 11.3789 35.9323 14.0396 36.3547 15.6171C36.7592 17.1418 40 18.3467 40 19.9995Z" fill="#3897F1"/>
<path d="M17.6487 27.6069L11.2676 21.3581L14.0156 18.6671L17.6487 22.2251L27.1111 12.959L29.8591 15.6498L17.6487 27.6069Z" fill="white"/>
</svg>
