<svg width="13" height="12" viewBox="0 0 13 12" fill="none" xmlns="http://www.w3.org/2000/svg">
<path d="M11.1315 7.53068C10.9656 7.53068 10.8311 7.66514 10.8311 7.83105V10.498C10.8305 10.9955 10.4275 11.3987 9.92999 11.3991H1.50186C1.00437 11.3987 0.60133 10.9955 0.600744 10.498V2.67064C0.60133 2.17326 1.00437 1.77011 1.50186 1.76952H4.16883C4.33474 1.76952 4.4692 1.63506 4.4692 1.46915C4.4692 1.30336 4.33474 1.16878 4.16883 1.16878H1.50186C0.672786 1.16972 0.000938662 1.84156 0 2.67064V10.4981C0.000938662 11.3272 0.672786 11.9991 1.50186 12H9.92999C10.7591 11.9991 11.4309 11.3272 11.4318 10.4981V7.83105C11.4318 7.66514 11.2974 7.53068 11.1315 7.53068Z" fill="#F05C26"/>
<path d="M11.3129 0.39591C10.785 -0.13197 9.9292 -0.13197 9.40133 0.39591L4.0425 5.75473C4.00578 5.79146 3.97926 5.83698 3.96542 5.88696L3.26072 8.43109C3.23174 8.5354 3.26119 8.6471 3.33769 8.72372C3.41431 8.80022 3.52601 8.82967 3.63031 8.80081L6.17444 8.09599C6.22442 8.08214 6.26995 8.05562 6.30667 8.0189L11.6654 2.65996C12.1924 2.13173 12.1924 1.27661 11.6654 0.748377L11.3129 0.39591ZM4.69699 5.94997L9.08277 1.56407L10.4972 2.97852L6.11132 7.36442L4.69699 5.94997ZM4.41445 6.51692L5.54448 7.64707L3.98137 8.08015L4.41445 6.51692ZM11.2406 2.23522L10.9221 2.55378L9.50751 1.13921L9.82619 0.820654C10.1194 0.52744 10.5948 0.52744 10.888 0.820654L11.2406 1.17312C11.5334 1.46669 11.5334 1.94177 11.2406 2.23522Z" fill="#F05C26"/>
</svg>
