<svg width="9" height="15" viewBox="0 0 9 15" fill="none" xmlns="http://www.w3.org/2000/svg">
<path d="M4.71796 13.2746C4.28663 13.2746 3.87339 13.6444 3.89333 14.0786C3.91333 14.5141 4.25566 14.8825 4.71796 14.8825C5.14928 14.8825 5.56252 14.5128 5.54258 14.0786C5.52259 13.6429 5.18025 13.2746 4.71796 13.2746Z" fill="#F05C26"/>
<path d="M4.71793 0.822784C2.45577 0.822784 0.615356 2.61718 0.615356 4.82278C0.615356 5.26678 0.984568 5.62676 1.43994 5.62676C1.89532 5.62676 2.26453 5.26678 2.26453 4.82278C2.26453 3.50384 3.36516 2.43073 4.71793 2.43073C6.07069 2.43073 7.17132 3.50384 7.17132 4.82278C7.17132 6.14173 6.07069 7.21484 4.71793 7.21484C4.26255 7.21484 3.89334 7.57482 3.89334 8.01881V11.2979C3.89334 11.7419 4.26255 12.1019 4.71793 12.1019C5.1733 12.1019 5.54252 11.7419 5.54252 11.2978V8.74158C7.4108 8.36841 8.8205 6.7531 8.8205 4.82278C8.8205 2.61718 6.98009 0.822784 4.71793 0.822784Z" fill="#F05C26"/>
</svg>
