<svg width="25" height="22" viewBox="0 0 25 22" fill="none" xmlns="http://www.w3.org/2000/svg">
<path d="M22.5712 3.01465H1.546C0.691955 3.01465 0 2.33999 0 1.50735C0 0.674703 0.691955 0 1.546 0H22.5712C23.4252 0 24.1172 0.674657 24.1172 1.50735C24.1172 2.34003 23.4252 3.01465 22.5712 3.01465Z" fill="#F05C26"/>
<path d="M13.9138 12.0586H1.546C0.691955 12.0586 0 11.3839 0 10.5513C0 9.71865 0.691955 9.04395 1.546 9.04395H13.9138C14.7678 9.04395 15.4598 9.7186 15.4598 10.5513C15.4598 11.384 14.7678 12.0586 13.9138 12.0586Z" fill="#F05C26"/>
<path d="M22.5712 12.0586H20.0977C19.2437 12.0586 18.5517 11.3839 18.5517 10.5513C18.5517 9.71857 19.2436 9.04391 20.0977 9.04391H22.5712C23.4252 9.04391 24.1172 9.71857 24.1172 10.5513C24.1172 11.3839 23.4252 12.0586 22.5712 12.0586Z" fill="#F5941E"/>
<path d="M22.5712 21.1025H1.546C0.691955 21.1025 0 20.4278 0 19.5952C0 18.7625 0.691955 18.0878 1.546 18.0878H22.5712C23.4252 18.0878 24.1172 18.7625 24.1172 19.5952C24.1172 20.4278 23.4252 21.1025 22.5712 21.1025Z" fill="#F05C26"/>
</svg>
