<svg width="18" height="17" viewBox="0 0 18 17" fill="none" xmlns="http://www.w3.org/2000/svg">
<path d="M15.4695 12.3931V10.9398C16.6339 10.7084 17.5128 9.70245 17.5128 8.5C17.5128 7.127 16.3671 6.00977 14.9587 6.00977C13.5505 6.00977 12.4046 7.127 12.4046 8.5C12.4046 9.70245 13.2835 10.7084 14.4479 10.9398V12.3931C14.4479 14.3843 12.7868 16.0039 10.7444 16.0039C8.56147 16.0039 6.75152 14.2724 6.75152 12.144V11.0109C7.07145 10.9004 7.38632 10.6971 7.57335 10.4061L9.26891 7.76849C9.27356 7.76123 9.27356 7.7528 9.27782 7.74541C11.0895 7.14373 12.4046 5.45387 12.4046 3.48633C12.4046 2.28388 11.5257 1.27793 10.3613 1.04655V0.498047C10.3613 0.222824 10.1329 0 9.8505 0C9.56822 0 9.33968 0.222824 9.33968 0.498047V2.49023C9.33968 2.76546 9.56822 2.98828 9.8505 2.98828C10.1329 2.98828 10.3613 2.76546 10.3613 2.49023V2.08389C10.9546 2.29024 11.383 2.83783 11.383 3.48633C11.383 5.40848 9.77867 7.00586 7.80722 7.00586H4.67418C2.66389 7.00586 1.03564 5.35751 1.10003 3.37154C1.11985 2.77726 1.54527 2.27415 2.12007 2.08051V2.49023C2.12007 2.76546 2.34861 2.98828 2.63089 2.98828C2.91331 2.98828 3.14172 2.76546 3.14172 2.49023V0.498047C3.14172 0.222824 2.91331 0 2.63089 0C2.34861 0 2.12007 0.222824 2.12007 0.498047V1.04694C0.991611 1.27002 0.116298 2.21255 0.0793164 3.33938C0.0174591 5.21484 1.14765 7.07058 3.2045 7.74774C3.20849 7.75436 3.20836 7.76188 3.21262 7.76849L4.90817 10.4061C5.09507 10.697 5.40995 10.9002 5.72988 11.0109V12.144C5.72988 14.8216 7.99824 17 10.7444 17C13.35 17 15.4695 14.9334 15.4695 12.3931ZM13.9371 8.5C13.9371 7.95085 14.3956 7.50391 14.9587 7.50391C15.5219 7.50391 15.9804 7.95085 15.9804 8.5C15.9804 9.04915 15.5219 9.49609 14.9587 9.49609C14.3956 9.49609 13.9371 9.04915 13.9371 8.5ZM5.80823 9.87689L4.5619 7.99106C4.92254 7.99975 5.60124 8.00221 6.27488 8.00195C6.92498 8.00182 7.5703 7.99923 7.91976 7.99093L6.6733 9.87702C6.47323 10.1886 6.0083 10.1886 5.80823 9.87689Z" fill="#F05C26"/>
</svg>
