<svg width="11" height="11" viewBox="0 0 11 11" fill="none" xmlns="http://www.w3.org/2000/svg">
<path d="M7.76016 1.71695C7.92726 1.88543 7.92615 2.1575 7.75766 2.32461C7.67388 2.40771 7.56446 2.4492 7.4551 2.44922C7.34454 2.44922 7.23403 2.40683 7.15 2.32212L5.82542 0.986605C5.74404 0.904557 5.63608 0.859375 5.52148 0.859375C5.40689 0.859375 5.29893 0.904557 5.21757 0.986605L3.89297 2.32212C3.72586 2.4906 3.45381 2.49171 3.2853 2.32461C3.11682 2.1575 3.11569 1.88543 3.28281 1.71695L4.60739 0.381434C4.85137 0.135459 5.17599 0 5.52148 0C5.86697 0 6.1916 0.135459 6.43558 0.381434L7.76016 1.71695ZM7.15 8.67788L5.82542 10.0134C5.74404 10.0954 5.63608 10.1406 5.52148 10.1406C5.40689 10.1406 5.29893 10.0954 5.21757 10.0134L3.89297 8.67788C3.72586 8.5094 3.45381 8.50828 3.2853 8.67539C3.11682 8.8425 3.11569 9.11457 3.28281 9.28306L4.60739 10.6186C4.85137 10.8645 5.17599 11 5.52148 11C5.86697 11 6.1916 10.8645 6.43558 10.6186L7.76016 9.28306C7.92726 9.11457 7.92615 8.8425 7.75766 8.67539C7.58916 8.50826 7.31711 8.5094 7.15 8.67788ZM2.32212 3.87148C2.4906 3.70438 2.49174 3.4323 2.32461 3.26382C2.15748 3.09534 1.88545 3.09422 1.71695 3.26133L0.381434 4.5859C0.135459 4.82988 0 5.15451 0 5.5C0 5.84549 0.135459 6.17012 0.381434 6.4141L1.71695 7.73867C1.80073 7.82177 1.91015 7.86328 2.01951 7.86328C2.13007 7.86328 2.24061 7.82087 2.32461 7.73618C2.49171 7.5677 2.4906 7.29562 2.32212 7.12852L0.986605 5.80394C0.904557 5.72256 0.859375 5.6146 0.859375 5.5C0.859375 5.3854 0.904557 5.27744 0.986605 5.19608L2.32212 3.87148ZM10.6186 4.5859L9.28306 3.26133C9.11455 3.09422 8.8425 3.09532 8.67539 3.26382C8.50828 3.4323 8.5094 3.70438 8.67788 3.87148L10.0134 5.19606C10.0954 5.27744 10.1406 5.3854 10.1406 5.5C10.1406 5.6146 10.0954 5.72256 10.0134 5.80392L8.67788 7.12852C8.5094 7.29562 8.50826 7.5677 8.67539 7.73618C8.75939 7.82089 8.86991 7.86328 8.98047 7.86328C9.08982 7.86328 9.19927 7.82177 9.28303 7.73867L10.6185 6.4141C10.8645 6.17012 11 5.84549 11 5.5C11 5.15451 10.8645 4.82988 10.6186 4.5859ZM5.52148 7.00391C4.69223 7.00391 4.01758 6.32925 4.01758 5.5C4.01758 4.67075 4.69223 3.99609 5.52148 3.99609C6.35074 3.99609 7.02539 4.67075 7.02539 5.5C7.02539 6.32925 6.35074 7.00391 5.52148 7.00391ZM5.52148 6.14453C5.87688 6.14453 6.16602 5.85539 6.16602 5.5C6.16602 5.14461 5.87688 4.85547 5.52148 4.85547C5.16609 4.85547 4.87695 5.14461 4.87695 5.5C4.87695 5.85539 5.16609 6.14453 5.52148 6.14453Z" fill="white"/>
</svg>
