<svg width="21" height="18" viewBox="0 0 21 18" fill="none" xmlns="http://www.w3.org/2000/svg">
<path d="M21 10.4482C21 12.7329 20.2729 14.9016 18.8973 16.7202C18.6258 17.0792 18.1154 17.1488 17.7576 16.8782C17.3993 16.6071 17.3286 16.0969 17.5995 15.7385C18.7596 14.2049 19.3729 12.3755 19.3729 10.4482C19.3729 5.59175 15.4398 1.6662 10.5861 1.6662C5.72909 1.6662 1.79941 5.59477 1.79941 10.4482C1.79941 12.3755 2.41262 14.2049 3.57261 15.7385C3.8437 16.0969 3.77299 16.6071 3.41466 16.8782C3.05618 17.1493 2.5461 17.0786 2.27485 16.7202C0.899383 14.9016 0.172241 12.7329 0.172241 10.4482C0.172241 4.69204 4.83319 0.039032 10.5861 0.039032C16.3422 0.039032 21 4.69522 21 10.4482ZM15.7411 5.54837C16.0588 5.86602 16.0588 6.38118 15.7411 6.69883L13.0892 9.35077C13.3075 9.75327 13.4318 10.2141 13.4318 10.7032C13.4318 12.2724 12.1551 13.5488 10.5861 13.5488C9.01696 13.5488 7.74049 12.2724 7.74049 10.7032C7.74049 9.13418 9.01696 7.85755 10.5861 7.85755C11.0754 7.85755 11.5361 7.98182 11.9386 8.20015L14.5905 5.54821C14.9083 5.23056 15.4233 5.23056 15.7411 5.54837ZM11.8046 10.7034C11.8046 10.0315 11.258 9.48488 10.5861 9.48488C9.91429 9.48488 9.36766 10.0315 9.36766 10.7034C9.36766 11.3752 9.91429 11.9218 10.5861 11.9218C11.258 11.9218 11.8046 11.3752 11.8046 10.7034Z" fill="#F05C26"/>
</svg>
