<svg width="11" height="11" viewBox="0 0 11 11" fill="none" xmlns="http://www.w3.org/2000/svg">
<path d="M10.3254 8.71836C9.27696 8.16191 8.48849 7.85469 7.7795 7.72578L7.81173 7.68066C7.859 7.63125 7.87618 7.5625 7.8547 7.49805L7.69142 6.84492C8.1297 6.20898 8.37032 5.42695 8.35528 4.69863V3.66309C8.36173 3.65879 8.36818 3.65234 8.37462 3.64805C8.61095 3.44824 8.7463 3.1582 8.7463 2.85098C8.7463 1.49102 7.64845 0.386719 6.30138 0.386719H4.71798C3.36876 0.386719 2.25587 1.48242 2.23654 2.83164C2.23654 3.14746 2.36544 3.42461 2.60822 3.63086V4.69863C2.60822 5.4334 2.86173 6.21758 3.30431 6.85137L3.14103 7.50449V7.50879C3.14103 7.54746 3.14103 7.60977 3.184 7.67637L3.21837 7.72363C2.50939 7.85254 1.71876 8.15977 0.674622 8.71406C0.330872 8.87734 0.116028 9.22539 0.116028 9.625V10.3898C0.116028 10.5209 0.206262 10.6111 0.337317 10.6111H10.6563C10.7873 10.6111 10.8776 10.5209 10.8776 10.3898V9.625C10.8797 9.26191 10.6627 8.90527 10.3254 8.71836ZM4.69864 0.829297H6.28204C7.32189 0.829297 8.1963 1.62852 8.29298 2.65762L7.60548 2.5416C6.18966 2.29023 4.77169 2.29023 3.39239 2.5416L2.70489 2.65762C2.80372 1.62637 3.66739 0.829297 4.69864 0.829297ZM2.94337 3.31074C2.86603 3.25918 2.80372 3.18398 2.76505 3.09375L3.47833 2.96055C4.80607 2.71348 6.17247 2.71348 7.53673 2.96055L8.24142 3.0916C8.20489 3.1668 8.15118 3.2377 8.08458 3.2957C8.08243 3.29785 8.08028 3.3 8.07814 3.3C8.0545 3.30645 8.03517 3.31504 8.01798 3.32793L8.01583 3.33008C7.94493 3.38379 7.86974 3.41816 7.79239 3.4332C7.72794 3.44395 7.66564 3.4418 7.60548 3.42891C6.89864 3.29356 6.18966 3.22695 5.48927 3.22695C4.91564 3.22695 4.34845 3.27207 3.78771 3.3623C3.64806 3.38164 3.51056 3.40527 3.37736 3.42891C3.35802 3.43106 3.33868 3.4332 3.31935 3.4332C3.1754 3.43106 3.04864 3.38809 2.94337 3.31074ZM3.05294 4.69863V3.8457C3.20978 3.87793 3.34943 3.88008 3.48048 3.85215C4.1379 3.72969 4.81466 3.66738 5.48712 3.66523C6.15958 3.66523 6.84493 3.72754 7.51954 3.85C7.5754 3.86504 7.62052 3.86719 7.65275 3.86719C7.74298 3.87363 7.84181 3.86504 7.94923 3.84355V4.69649C7.94923 5.40332 7.71935 6.09512 7.3004 6.64941L7.29396 6.65156L7.2338 6.71172L7.2295 6.71602C7.14142 6.83203 7.04904 6.9416 6.95236 7.03613C6.51622 7.44434 5.98771 7.67637 5.50216 7.67637C5.48497 7.67637 5.46564 7.67637 5.44845 7.67637C5.16056 7.66563 4.85548 7.57539 4.56759 7.41426C4.28185 7.24883 4.01329 7.01465 3.77482 6.71387L3.71036 6.64941L3.70392 6.64727C3.28282 6.09727 3.05294 5.40547 3.05294 4.69863ZM7.39279 7.5002L7.22521 7.73008C7.21232 7.74297 7.19943 7.75586 7.19083 7.76875L6.25626 9.05996L5.83087 8.09746C6.30997 8.02656 6.77189 7.80098 7.16935 7.44219C7.2295 7.39063 7.28751 7.33477 7.34337 7.27676L7.39279 7.5002ZM5.16915 8.09746L4.74376 9.05996L3.80919 7.76875L3.80489 7.76445C3.8006 7.76016 3.79415 7.75371 3.78771 7.74941L3.60724 7.50234L3.65665 7.27891C3.6631 7.28535 3.66739 7.2918 3.67384 7.29609C4.10997 7.74297 4.6256 8.01797 5.16915 8.09746ZM10.4393 10.1707H0.560754V9.62715C0.560754 9.40801 0.681067 9.21035 0.876575 9.11367C1.98517 8.525 2.79943 8.21992 3.51486 8.12539L4.61056 9.63145C4.64279 9.68086 4.6922 9.70879 4.75665 9.71738C4.7588 9.71738 4.76095 9.71738 4.7631 9.71953V9.73887H4.80607C4.87696 9.73887 4.9629 9.67442 4.98868 9.60567L5.50216 8.45195L5.69767 8.88164L6.01134 9.58848C6.03497 9.65293 6.09943 9.72168 6.19396 9.72168H6.21114C6.29064 9.72168 6.35939 9.66367 6.38302 9.63789L6.38517 9.63574L7.49591 8.11035C8.22208 8.22422 9.05782 8.53789 10.1213 9.09434C10.319 9.21035 10.4371 9.40801 10.4371 9.62715V10.1707H10.4393ZM5.14337 2.25156H5.8545C5.98556 2.25156 6.07579 2.16133 6.07579 2.03027V1.14082C6.07579 1.00977 5.98556 0.919531 5.8545 0.919531H5.14337C5.01232 0.919531 4.92208 1.00977 4.92208 1.14082V2.03027C4.92423 2.16133 5.01446 2.25156 5.14337 2.25156ZM5.36466 1.36211H5.63536V1.80898H5.36466V1.36211V1.36211Z" fill="#F05C26"/>
</svg>
