<svg width="19" height="18" viewBox="0 0 19 18" fill="none" xmlns="http://www.w3.org/2000/svg">
<path d="M17.9483 1.4758C17.6857 1.4758 17.4709 1.69061 17.4709 1.95315V14.6228C17.4709 15.9633 16.381 17.0493 15.0444 17.0493H3.38122C2.04066 17.0493 0.954696 15.9593 0.954696 14.6228V0.954696H14.9291V13.2464C14.9291 13.5089 15.1439 13.7238 15.4064 13.7238C15.6689 13.7238 15.8838 13.5089 15.8838 13.2464V0.477348C15.8838 0.214807 15.6689 0 15.4064 0H0.477348C0.214807 0 0 0.214807 0 0.477348V14.6188C0 16.4844 1.51558 18 3.38122 18H15.0404C16.9061 18 18.4217 16.4844 18.4217 14.6188V1.95315C18.4256 1.69061 18.2108 1.4758 17.9483 1.4758Z" fill="#F05C26"/>
<path d="M13.0993 3.70738C13.3618 3.70738 13.5766 3.49257 13.5766 3.23003C13.5766 2.96749 13.3618 2.75269 13.0993 2.75269H2.69311C2.43057 2.75269 2.21576 2.96749 2.21576 3.23003C2.21576 3.49257 2.43057 3.70738 2.69311 3.70738H13.0993Z" fill="#F05C26"/>
<path d="M13.0993 12.4827H2.69311C2.43057 12.4827 2.21576 12.6975 2.21576 12.96C2.21576 13.2226 2.43057 13.4374 2.69311 13.4374H13.0953C13.3579 13.4374 13.5727 13.2226 13.5727 12.96C13.5727 12.6975 13.3618 12.4827 13.0993 12.4827Z" fill="#F05C26"/>
<path d="M13.0992 14.9291H4.3438C4.08126 14.9291 3.86646 15.1439 3.86646 15.4064C3.86646 15.669 4.08126 15.8838 4.3438 15.8838H13.0992C13.3617 15.8838 13.5765 15.669 13.5765 15.4064C13.5765 15.1439 13.3617 14.9291 13.0992 14.9291Z" fill="#F05C26"/>
<path d="M2.05652 5.37411V10.5374C2.05652 10.8 2.27133 11.0148 2.53387 11.0148H7.71707C7.97961 11.0148 8.19442 10.8 8.19442 10.5374V5.37411C8.19442 5.11157 7.97961 4.89676 7.71707 4.89676H2.53387C2.27133 4.89676 2.05652 5.11157 2.05652 5.37411ZM3.01121 5.85146H7.23972V10.0601H3.01121V5.85146Z" fill="#F05C26"/>
<path d="M13.3539 5.37411H9.92095C9.65841 5.37411 9.4436 5.58892 9.4436 5.85146C9.4436 6.114 9.65841 6.32881 9.92095 6.32881H13.3539C13.6164 6.32881 13.8312 6.114 13.8312 5.85146C13.8312 5.58892 13.6204 5.37411 13.3539 5.37411Z" fill="#F05C26"/>
<path d="M13.3539 7.53012H9.92095C9.65841 7.53012 9.4436 7.74493 9.4436 8.00747C9.4436 8.27001 9.65841 8.48482 9.92095 8.48482H13.3539C13.6164 8.48482 13.8312 8.27001 13.8312 8.00747C13.8312 7.74493 13.6204 7.53012 13.3539 7.53012Z" fill="#F05C26"/>
<path d="M13.8312 10.2988C13.8312 10.0362 13.6164 9.82144 13.3539 9.82144H9.92095C9.65841 9.82144 9.4436 10.0362 9.4436 10.2988C9.4436 10.5613 9.65841 10.7761 9.92095 10.7761H13.3539C13.6204 10.7761 13.8312 10.5613 13.8312 10.2988Z" fill="#F05C26"/>
</svg>
