<svg width="11" height="22" viewBox="0 0 11 22" fill="none" xmlns="http://www.w3.org/2000/svg">
<path d="M3.82491 15.7714C3.84299 14.5976 3.96506 13.6705 4.19112 12.9899C4.41718 12.3093 4.87834 11.5548 5.5746 10.7263L7.35142 8.72898C8.11097 7.79197 8.49075 6.78592 8.49075 5.71083C8.49075 4.67518 8.24209 3.8664 7.74476 3.28447C7.24743 2.69267 6.52404 2.39677 5.5746 2.39677C4.65228 2.39677 3.91081 2.66308 3.35019 3.1957C2.78956 3.72831 2.50925 4.4434 2.50925 5.34095H0C0.0180847 3.74311 0.538019 2.45595 1.5598 1.47949C2.59063 0.493163 3.92889 0 5.5746 0C7.2836 0 8.61282 0.503026 9.56227 1.50908C10.5208 2.50527 11 3.87626 11 5.62206C11 7.34813 10.2676 9.04954 8.80271 10.7263L7.32429 12.3241C6.6642 13.1231 6.33416 14.2721 6.33416 15.7714H3.82491ZM3.7164 20.4613C3.7164 20.0175 3.83847 19.6476 4.08261 19.3517C4.3358 19.046 4.70654 18.8931 5.19482 18.8931C5.68311 18.8931 6.05384 19.046 6.30703 19.3517C6.56021 19.6476 6.68681 20.0175 6.68681 20.4613C6.68681 20.9052 6.56021 21.2751 6.30703 21.5709C6.05384 21.857 5.68311 22 5.19482 22C4.70654 22 4.3358 21.857 4.08261 21.5709C3.83847 21.2751 3.7164 20.9052 3.7164 20.4613Z" fill="#F05C26"/>
</svg>
