<svg width="17" height="23" viewBox="0 0 17 23" fill="none" xmlns="http://www.w3.org/2000/svg">
<path d="M14.9077 9.15386H13.3385V6.46002C13.3385 3.76618 11.1677 1.56924 8.49999 1.56924C5.83228 1.56924 3.66152 3.76618 3.66152 6.46002V9.15386H2.09229V6.46002C2.09229 2.90309 4.9692 0 8.49999 0C12.0308 0 14.9077 2.90309 14.9077 6.46002V9.15386Z" fill="white"/>
<path d="M8.36925 18.0463C7.92462 18.0463 7.58466 17.7063 7.58466 17.2617V15.431C7.58466 14.9863 7.92467 14.6464 8.36925 14.6464C8.81384 14.6464 9.15384 14.9864 9.15384 15.431V17.2617C9.15384 17.7063 8.81384 18.0463 8.36925 18.0463Z" fill="white"/>
<path d="M15.6923 22.4924H1.30767C0.575342 22.4924 0 21.917 0 21.1847V9.93853C0 9.2062 0.575392 8.63086 1.30767 8.63086H15.6923C16.4247 8.63086 17 9.20625 17 9.93853V21.1847C17 21.917 16.4246 22.4924 15.6923 22.4924ZM1.56919 20.9231H15.4308V10.2H1.56919V20.9231Z" fill="white"/>
</svg>
