<svg width="21" height="21" viewBox="0 0 21 21" fill="none" xmlns="http://www.w3.org/2000/svg">
<path d="M20.6903 15.0077C18.2203 12.537 17.8487 11.2973 17.8487 7.35C17.8487 3.29068 14.5587 0 10.5001 0C6.44145 0 3.15147 3.29072 3.15147 7.35C3.15147 9.47834 3.09479 10.2729 2.80181 11.2483C2.43747 12.4635 1.68951 13.6269 0.309461 15.0077C-0.351669 15.6692 0.116647 16.8 1.05184 16.8H6.87827L6.8254 17.325C6.8254 19.3547 8.47041 21 10.4997 21C12.529 21 14.174 19.3547 14.174 17.325L14.1211 16.8H19.9479C20.8835 16.8 21.3518 15.6692 20.6903 15.0077ZM10.5004 19.95C9.05103 19.95 7.87576 18.7744 7.87576 17.325L7.92863 16.8H13.0715L13.1251 17.325C13.1251 18.7744 11.9498 19.95 10.5004 19.95ZM1.05217 15.75C4.20147 12.6 4.06054 11.3818 4.20147 7.35C4.20147 3.87101 7.02141 1.05 10.5001 1.05C13.9787 1.05 16.7987 3.87101 16.799 7.35C16.799 10.5 16.799 12.6 19.9483 15.75H1.05217Z" fill="white"/>
</svg>
