<svg width="12" height="11" viewBox="0 0 12 11" fill="none" xmlns="http://www.w3.org/2000/svg">
<path d="M7.46618 3.33329C7.34736 3.33329 7.25092 3.4293 7.25092 3.54805C7.25092 3.66672 7.34736 3.76289 7.46618 3.76289C7.58525 3.76289 7.68144 3.66672 7.68144 3.54805C7.68144 3.4293 7.58525 3.33329 7.46618 3.33329Z" fill="white"/>
<path d="M3.55492 7.23682C3.43586 7.23682 3.33966 7.33308 3.33966 7.45167C3.33966 7.5705 3.43586 7.66651 3.55492 7.66651C3.67374 7.66651 3.77019 7.5705 3.77019 7.45167C3.77019 7.33308 3.67374 7.23682 3.55492 7.23682Z" fill="white"/>
<path d="M10.7537 1.32173C10.6811 1.30486 10.6047 1.32677 10.5522 1.37964L9.65981 2.27737H9.23198L8.761 1.79036V1.3574L9.64064 0.466383C9.69269 0.413679 9.71388 0.337896 9.69664 0.265806C9.67949 0.1938 9.62635 0.135725 9.55605 0.112058C9.33507 0.037702 9.10383 2.03826e-05 8.86863 2.03826e-05C8.16751 2.03826e-05 7.53055 0.326315 7.12104 0.895232C6.73777 1.42781 6.61963 2.08048 6.7889 2.70512L5.20326 4.28767L2.56156 1.64509V1.12644C2.56156 1.05099 2.52187 0.981001 2.45704 0.942229L0.93497 0.0306524C0.85021 -0.0201212 0.741821 -0.00677741 0.672028 0.062963L0.0632339 0.670485C-0.00655884 0.740225 -0.0199288 0.848402 0.0308602 0.932997L0.944051 2.4521C0.9829 2.5168 1.05294 2.55633 1.12854 2.55641L1.64803 2.55658L4.28998 5.19916L2.7104 6.77566C2.08453 6.60681 1.43025 6.72489 0.896374 7.10766C0.32668 7.51612 0 8.15167 0 8.85142C0 9.08607 0.0377553 9.31695 0.112257 9.53741C0.136054 9.60799 0.194831 9.66129 0.267483 9.67807C0.340218 9.69494 0.416486 9.67303 0.469041 9.62016L1.36138 8.72252H1.79157L2.28172 9.21171V9.64106L1.38232 10.5317C1.32934 10.5841 1.30739 10.6602 1.3243 10.7328C1.34111 10.8053 1.39451 10.864 1.46523 10.8877C1.68612 10.9621 1.91745 10.9998 2.15256 10.9998C2.85368 10.9998 3.49039 10.6737 3.89973 10.1051C4.28325 9.57224 4.40156 8.91932 4.23238 8.29468L5.50101 7.02852L5.79162 7.34357L5.65825 7.47659C5.57417 7.56051 5.57417 7.69655 5.65825 7.78048C5.74234 7.86432 5.87856 7.86432 5.96273 7.78048L6.08348 7.65996L8.81011 10.6159C8.81213 10.6181 8.81423 10.6202 8.81633 10.6223C9.32086 11.1258 10.1383 11.126 10.6431 10.6222C11.1464 10.1196 11.1464 9.30176 10.6431 8.79914C10.6409 8.79696 10.6386 8.79486 10.6363 8.79276L7.66997 6.07666L7.78937 5.95749C7.87346 5.87365 7.87346 5.73761 7.78937 5.65369C7.70528 5.56977 7.56906 5.56977 7.48489 5.65369L7.35245 5.78595L7.0362 5.49625L8.31096 4.22397C8.49217 4.27231 8.67918 4.29682 8.86863 4.29682C10.0556 4.29682 11.0212 3.33304 11.0212 2.14846C11.0212 1.91373 10.9834 1.68294 10.9089 1.46239C10.8851 1.39181 10.8264 1.33852 10.7537 1.32173ZM1.8897 2.19C1.84934 2.14964 1.7946 2.12907 1.73742 2.12907L1.25055 2.12891L0.486531 0.855788L0.857609 0.485433L2.13103 1.24813V1.73405C2.13103 1.79095 2.15365 1.8455 2.19393 1.88578L4.89886 4.59156L4.59438 4.89536L1.8897 2.19ZM7.36523 6.3808L10.3417 9.10605C10.6742 9.44141 10.6732 9.98439 10.3386 10.3185C10.0032 10.6532 9.46036 10.6542 9.12367 10.3214L6.38813 7.35582L7.36523 6.3808ZM7.04772 6.09001L6.09627 7.03943L5.80566 6.72438L6.73146 5.8003L7.04772 6.09001ZM8.86863 3.86713C8.68036 3.86713 8.4952 3.837 8.31845 3.77758C8.241 3.75165 8.1554 3.77162 8.09755 3.82928C7.01837 4.90635 4.69301 7.22709 3.83675 8.08176C3.7789 8.1395 3.7588 8.22494 3.78495 8.30231C3.96389 8.83263 3.87829 9.39827 3.55001 9.85439C3.22266 10.3092 2.71325 10.5701 2.15256 10.5701C2.08958 10.5701 2.02693 10.5667 1.96487 10.56L2.64859 9.88293C2.68929 9.84264 2.71225 9.78776 2.71225 9.73044V9.12266C2.71225 9.06568 2.68954 9.01105 2.64918 8.97076L2.0329 8.35569C1.99254 8.3154 1.9378 8.29275 1.8807 8.29275H1.27174C1.21431 8.29275 1.15932 8.31566 1.11887 8.35628L0.440535 9.03866C0.433808 8.97672 0.430444 8.9142 0.430444 8.85134C0.430444 8.29165 0.691789 7.78333 1.14754 7.45662C1.60448 7.12898 2.17131 7.04346 2.70274 7.22213C2.78019 7.24823 2.86579 7.22818 2.92364 7.17044C2.9355 7.15869 7.18142 2.92098 7.18444 2.91795C7.2423 2.86021 7.26231 2.77486 7.23624 2.69749C7.05722 2.16718 7.14265 1.6017 7.47068 1.14591C7.79828 0.69071 8.30777 0.429708 8.86855 0.429708C8.93347 0.429708 8.99796 0.433317 9.06187 0.440367L8.39236 1.11855C8.35267 1.15875 8.33047 1.21288 8.33047 1.26928V1.87705C8.33047 1.93278 8.35208 1.98624 8.39085 2.02627L8.9856 2.64134C9.02613 2.6833 9.08205 2.70697 9.14049 2.70697H9.74945C9.8068 2.70697 9.86179 2.68414 9.90224 2.64344L10.5806 1.96114C10.5873 2.02308 10.5907 2.0856 10.5907 2.14846C10.5907 3.09612 9.81815 3.86713 8.86863 3.86713Z" fill="white"/>
<path d="M6.70523 4.00376L4.01149 6.69225C3.92749 6.77609 3.92749 6.91213 4.01149 6.99605C4.09558 7.07997 4.23188 7.07997 4.31597 6.99605L7.00972 4.30756C7.0938 4.22372 7.0938 4.08768 7.00972 4.00376C6.92563 3.91984 6.78932 3.91984 6.70523 4.00376Z" fill="white"/>
<path d="M9.42547 9.71098C9.50956 9.79465 9.64587 9.79465 9.72995 9.71047C9.81387 9.62647 9.81362 9.49043 9.72945 9.40667L7.78913 7.47635C7.70496 7.39259 7.56857 7.39284 7.48473 7.47685C7.40073 7.56094 7.40098 7.6969 7.48515 7.78065L9.42547 9.71098Z" fill="white"/>
</svg>
