<svg width="17" height="19" viewBox="0 0 17 19" fill="none" xmlns="http://www.w3.org/2000/svg">
<path d="M2.28993 19C1.02502 19 0 18.0518 0 16.8816V2.1184C0 0.948235 1.02502 0 2.28993 0H12.3983C13.009 0 13.5869 0.221927 14.0176 0.620388L16.3294 2.75896C16.7601 3.15742 17 3.69206 17 4.25697V16.8816C17 18.0518 15.975 19 14.7101 19H2.28993ZM2.28993 1.21051C1.75016 1.21051 1.30853 1.61906 1.30853 2.1184V16.8866C1.30853 17.386 1.75016 17.7945 2.28993 17.7945H14.7101C15.2498 17.7945 15.6915 17.386 15.6915 16.8866V5.74993H11.4387C11.0789 5.74993 10.7845 5.47757 10.7845 5.14468V1.21051H2.28993ZM12.093 4.53942H15.6915V4.35784C15.6915 4.18131 15.6969 3.88877 15.4025 3.61641L13.0908 1.47783C12.8018 1.21051 12.4692 1.21051 12.3438 1.21051C12.3275 1.21051 12.2566 1.21051 12.2566 1.21051H12.093V4.53942Z" fill="#F05C26"/>
</svg>
