<svg width="15" height="10" viewBox="0 0 15 10" fill="none" xmlns="http://www.w3.org/2000/svg">
<path d="M12.3673 4.91557C12.7861 4.62131 13.0633 4.13182 13.0633 3.58009C13.0633 2.67751 12.3334 1.94753 11.4308 1.94753C10.5282 1.94753 9.79821 2.67751 9.79821 3.58009C9.79821 4.13182 10.0727 4.62131 10.4942 4.91557C10.1349 5.04006 9.8067 5.23246 9.52942 5.48145C9.14745 5.15607 8.69757 4.90708 8.20526 4.75995C8.80226 4.39779 9.20404 3.73854 9.20404 2.98875C9.20404 1.84567 8.27882 0.920456 7.13575 0.920456C5.99267 0.920456 5.06745 1.8485 5.06745 2.98875C5.06745 3.73854 5.4664 4.39779 6.06623 4.75995C5.57958 4.90708 5.13536 5.15324 4.75622 5.47296C4.47894 5.22963 4.15639 5.04006 3.80271 4.9184C4.22146 4.62414 4.49875 4.13465 4.49875 3.58292C4.49875 2.68034 3.76876 1.95036 2.86618 1.95036C1.9636 1.95036 1.23362 2.68034 1.23362 3.58292C1.23362 4.13465 1.50807 4.62414 1.92965 4.9184C0.806379 5.30603 0 6.37271 0 7.62613V7.81287C0 7.81853 0.0056588 7.82419 0.0113176 7.82419H3.47167C3.45187 7.97981 3.44055 8.14108 3.44055 8.30236V8.49476C3.44055 9.3266 4.11395 10 4.94579 10H9.33136C10.1632 10 10.8366 9.3266 10.8366 8.49476V8.30236C10.8366 8.14108 10.8253 7.97981 10.8055 7.82419H14.2885C14.2941 7.82419 14.2998 7.81853 14.2998 7.81287V7.62613C14.2941 6.36988 13.4906 5.3032 12.3673 4.91557ZM10.2509 3.57726C10.2509 2.9265 10.78 2.3974 11.4308 2.3974C12.0815 2.3974 12.6106 2.9265 12.6106 3.57726C12.6106 4.21954 12.0929 4.74297 11.4534 4.75712C11.4449 4.75712 11.4393 4.75712 11.4308 4.75712C11.4223 4.75712 11.4166 4.75712 11.4081 4.75712C10.7659 4.7458 10.2509 4.22236 10.2509 3.57726ZM5.5145 2.98875C5.5145 2.09749 6.23883 1.37316 7.13009 1.37316C8.02135 1.37316 8.74567 2.09749 8.74567 2.98875C8.74567 3.84888 8.06945 4.5534 7.22346 4.6015C7.19233 4.6015 7.16121 4.6015 7.13009 4.6015C7.09896 4.6015 7.06784 4.6015 7.03672 4.6015C6.19073 4.5534 5.5145 3.84888 5.5145 2.98875ZM1.67783 3.57726C1.67783 2.9265 2.20693 2.3974 2.85769 2.3974C3.50846 2.3974 4.03755 2.9265 4.03755 3.57726C4.03755 4.21954 3.51977 4.74297 2.88033 4.75712C2.87184 4.75712 2.86618 4.75712 2.85769 4.75712C2.84921 4.75712 2.84355 4.75712 2.83506 4.75712C2.19561 4.7458 1.67783 4.22236 1.67783 3.57726ZM3.5509 7.36866H0.458363C0.585686 6.16333 1.60427 5.21831 2.84072 5.20983C2.84638 5.20983 2.85203 5.20983 2.85769 5.20983C2.86335 5.20983 2.86901 5.20983 2.87467 5.20983C3.46318 5.21266 4.00077 5.43052 4.41669 5.78419C4.00926 6.22558 3.70651 6.76882 3.5509 7.36866ZM10.3782 8.49476C10.3782 9.07479 9.90573 9.54729 9.3257 9.54729H4.94013C4.36011 9.54729 3.88759 9.07479 3.88759 8.49476V8.30236C3.88759 6.5453 5.29098 5.10797 7.03672 5.05704C7.06784 5.05987 7.10179 5.05987 7.13292 5.05987C7.16404 5.05987 7.19799 5.05987 7.22912 5.05704C8.97486 5.10797 10.3782 6.5453 10.3782 8.30236V8.49476ZM10.7149 7.36866C10.5593 6.77165 10.2622 6.2369 9.85763 5.79551C10.2764 5.43335 10.8196 5.21548 11.4138 5.20983C11.4195 5.20983 11.4251 5.20983 11.4308 5.20983C11.4364 5.20983 11.4421 5.20983 11.4478 5.20983C12.6842 5.21831 13.7028 6.16333 13.8301 7.36866H10.7149Z" fill="white"/>
</svg>
