<svg width="20" height="25" viewBox="0 0 20 25" fill="none" xmlns="http://www.w3.org/2000/svg">
<path d="M15.9281 16.1032L12.8001 15.4024V14.406C13.9673 13.5568 14.7401 12.1943 14.7917 10.6479C15.8273 9.5463 16.4001 8.11407 16.4001 6.58988V4.83873C16.4001 3.81737 15.6429 2.97101 14.6645 2.83993C13.8257 1.10685 12.0813 0 10.1537 0H9.48048C8.17929 0 6.89726 0.44354 5.8701 1.24882C4.42722 2.37984 3.60001 4.08548 3.60001 5.9278V6.59031C3.60001 8.11407 4.17284 9.54673 5.20842 10.6484C5.26041 12.1948 6.03282 13.5572 7.20002 14.4064V15.4028L4.07204 16.1032C1.67444 16.6403 0 18.7439 0 21.2201V25H8.3652H11.6348H20V21.2201C20.0001 18.7439 18.3257 16.6403 15.9281 16.1032ZM13.1508 16.3068L12.5404 19.0753L10.654 17.7173L12.5052 16.162L13.1508 16.3068ZM10 17.2169L8.00001 15.5367V14.877C8.60964 15.16 9.28565 15.3225 10 15.3225C10.7144 15.3225 11.3904 15.16 12.0001 14.877V15.5367L10 17.2169ZM5.2 6.85487V9.33995C4.68116 8.52625 4.4 7.58067 4.4 6.58995V5.9278C4.4 4.33625 5.11482 2.86287 6.36122 1.8855C7.2484 1.18952 8.35641 0.806442 9.48041 0.806442H10.1536C11.844 0.806442 13.3664 1.81851 14.0324 3.38465L14.1364 3.62903H14.4C15.0616 3.62903 15.6001 4.17178 15.6001 4.83873V6.58995C15.6001 7.58067 15.3188 8.52625 14.8001 9.33995V6.04843H14.2421C13.4729 6.04843 12.7593 5.66331 12.3328 5.01822L12.214 4.8388H11.3732L11.2568 5.03433C10.5888 6.1573 9.36636 6.85487 8.06762 6.85487H5.2ZM6.00006 10.4838V7.66124H8.06769C9.56213 7.66124 10.9733 6.90117 11.8085 5.66208C12.3434 6.34956 13.1361 6.77779 14.0001 6.84558V10.4839C14.0001 12.7073 12.2058 14.5162 10.0001 14.5162C7.79445 14.5162 6.00006 12.7073 6.00006 10.4838ZM7.49443 16.1624L9.34562 17.7177L7.45922 19.0758L6.8488 16.3072L7.49443 16.1624ZM8.43201 24.1935H4.80004V22.5806H4.00004V24.1935H0.799994V21.2201C0.799994 19.1253 2.21681 17.3447 4.2452 16.8906L6.06803 16.4822L6.94082 20.4406L8.32365 19.4447L8.78604 19.9108L8.43201 24.1935ZM10.7653 24.1935H9.23482L9.61404 19.6052L8.98325 18.9693L10 18.2375L11.0168 18.9697L10.386 19.6056L10.7653 24.1935ZM19.2001 24.1935H16.0001V22.5806H15.2001V24.1935H11.5681L11.214 19.9108L11.6764 19.4447L13.0592 20.4406L13.932 16.4822L15.7549 16.8906C17.7833 17.3447 19.2001 19.1253 19.2001 21.2201V24.1935Z" fill="white"/>
</svg>
