<svg width="14" height="8" viewBox="0 0 14 8" fill="none" xmlns="http://www.w3.org/2000/svg">
<path d="M0.00604916 6.11653C0.0606842 5.87279 0.543192 3.72606 0.662384 3.41264C0.94896 2.65909 1.63746 1.80125 2.50409 1.11792C3.40514 0.407469 4.33869 0 5.06544 0H12.1348C12.5011 0 12.7992 0.26094 12.7992 0.58166V1.49562H13.2887C13.4682 1.49562 13.6138 1.62302 13.6138 1.78016C13.6138 1.93731 13.4682 2.06471 13.2887 2.06471H12.7993V2.74346H13.675C13.8545 2.74346 14 2.87086 14 3.02801C14 3.18515 13.8545 3.31255 13.675 3.31255H12.7993V6.17129C12.7993 6.49201 12.5012 6.75293 12.1348 6.75293H11.3244C11.2032 7.45781 10.5068 8 9.66837 8C8.82993 8 8.13351 7.45781 8.01237 6.75293H5.0309C4.90975 7.45781 4.21331 8 3.37486 8C2.53642 8 1.84001 7.45781 1.71886 6.75293H0.664475C0.298079 6.75293 0 6.49201 0 6.17129C0 6.15293 0.00203514 6.1346 0.00604916 6.11653ZM1.3164 3.50065L4.66583 3.50062V0.619962C3.47925 0.89894 1.83458 2.28094 1.3164 3.50065ZM9.66835 7.43093C10.2334 7.43093 10.6931 7.02854 10.6931 6.5339C10.6931 6.03929 10.2334 5.63689 9.66835 5.63689C9.10333 5.63689 8.64366 6.03929 8.64366 6.5339C8.64369 7.02854 9.10333 7.43093 9.66835 7.43093ZM3.37484 7.43093C3.93985 7.43091 4.39955 7.02851 4.39955 6.5339C4.39955 6.03929 3.93985 5.63689 3.37484 5.63689C2.80982 5.63689 2.35016 6.03929 2.35016 6.5339C2.35016 7.02854 2.80982 7.43093 3.37484 7.43093ZM0.680531 6.18386C0.951589 6.18386 1.74868 6.18386 1.74868 6.18386C1.92847 5.54398 2.58916 5.06782 3.37484 5.06782C4.16051 5.06782 4.82123 5.54398 5.00102 6.18386H8.04219C8.22198 5.54398 8.88267 5.06782 9.66835 5.06782C10.454 5.06782 11.1147 5.54398 11.2945 6.18386H12.1348C12.1427 6.18386 12.1491 6.17822 12.1491 6.17131V3.31258H8.16568C7.98617 3.31258 7.84064 3.18517 7.84064 3.02803C7.84064 2.87089 7.98617 2.74349 8.16568 2.74349H12.1492V2.06473H10.3156C10.1361 2.06473 9.99059 1.93733 9.99059 1.78019C9.99059 1.62305 10.1361 1.49564 10.3156 1.49564H12.1492V0.581684C12.1492 0.574756 12.1427 0.569115 12.1348 0.569115H5.31592V3.78517C5.31592 3.94231 5.17041 4.06971 4.99087 4.06971L1.14814 4.06974C1.00953 4.62302 0.819423 5.50983 0.657578 6.16632C0.6543 6.17953 0.663741 6.18386 0.680531 6.18386Z" fill="#F05C26"/>
</svg>
