<svg width="129" height="156" viewBox="0 0 129 156" fill="none" xmlns="http://www.w3.org/2000/svg">
<path d="M6.60979 93.4658C10.5519 101.625 16.236 108.959 23.4327 114.964V155.486L55.7492 129.404C65.1921 130.733 74.3141 129.954 82.7026 127.524C82.7026 127.524 91.2745 125.049 96.7293 121.473C116.028 110.243 129 89.1111 129 65.0456C129 29.1536 100.121 0 64.5962 0C29.0709 0 0.146484 29.1536 0.146484 64.9998C0.146484 69.9504 0.696553 74.7635 1.75085 79.4391C1.75085 79.3932 3.26354 89.1569 6.60979 93.4658ZM64.5962 115.927C61.525 115.927 58.3621 115.606 55.1533 115.01L51.9446 114.414L37.5053 126.057V108.043L34.7091 105.934C21.6908 96.1703 14.2191 81.2726 14.2191 64.9998C14.2191 36.9004 36.8177 14.0726 64.5962 14.0726C92.3746 14.0726 114.973 36.9463 114.973 64.9998C114.973 93.0533 92.3746 115.927 64.5962 115.927Z" fill="#D1D1D1"/>
<path d="M35.6724 72.334C40.8622 72.334 45.0694 68.0858 45.0694 62.8453C45.0694 57.6049 40.8622 53.3566 35.6724 53.3566C30.4826 53.3566 26.2754 57.6049 26.2754 62.8453C26.2754 68.0858 30.4826 72.334 35.6724 72.334Z" fill="#D1D1D1"/>
<path d="M64.5962 72.334C69.786 72.334 73.9932 68.0858 73.9932 62.8453C73.9932 57.6049 69.786 53.3566 64.5962 53.3566C59.4064 53.3566 55.1992 57.6049 55.1992 62.8453C55.1992 68.0858 59.4064 72.334 64.5962 72.334Z" fill="#D1D1D1"/>
<path d="M93.4732 72.334C98.663 72.334 102.87 68.0858 102.87 62.8453C102.87 57.6049 98.663 53.3566 93.4732 53.3566C88.2834 53.3566 84.0762 57.6049 84.0762 62.8453C84.0762 68.0858 88.2834 72.334 93.4732 72.334Z" fill="#D1D1D1"/>
</svg>
