<svg width="80" height="80" viewBox="0 0 80 80" fill="none" xmlns="http://www.w3.org/2000/svg">
<path d="M78.4027 33.599L62.8853 23.5993C62.764 23.5221 62.6302 23.4929 62.4997 23.4497V20.0008C62.4997 19.0799 61.7543 18.334 60.8328 18.334H54.6441L41.717 10.2544C41.1769 9.91577 40.49 9.91577 39.9494 10.2544L27.0223 18.334H19.1667C18.2457 18.334 17.4998 19.0794 17.4998 20.0008V23.4487C17.3694 23.4919 17.2351 23.5216 17.1142 23.5993L1.59683 33.599C1.12147 33.9065 0.833191 34.4341 0.833191 35.0002V78.3331C0.833191 79.2541 1.5786 80 2.50005 80H77.4995C78.4204 80 79.1663 79.2546 79.1663 78.3331V35.0006C79.1663 34.4341 78.8781 33.907 78.4027 33.599ZM40.8334 13.6337L48.3551 18.334H33.3117L40.8334 13.6337ZM20.8335 21.6672H59.1665V59.1669C59.1665 59.1717 59.1693 59.1756 59.1693 59.1808L53.5313 62.6043L39.9643 55.2044C39.4582 54.931 38.8428 54.9324 38.3401 55.2207L25.9598 62.2953L20.8312 59.1813C20.8312 59.1765 20.834 59.1727 20.834 59.1679L20.8335 21.6672ZM4.1669 35.9087L17.4998 27.3177V57.159L4.1669 49.0631V35.9087ZM4.1669 52.9614L22.652 64.1843L4.1669 74.7476V52.9614ZM7.52556 76.6672L39.1862 58.5765L72.3531 76.6672H7.52556ZM75.8331 74.7682L56.913 64.4486L75.8331 52.961V74.7682ZM75.8331 49.0631L62.4997 57.1586V27.3177L75.8331 35.9091V49.0631Z" fill="white"/>
<path d="M27.5 38.3339H47.4999C48.4209 38.3339 49.1668 37.5885 49.1668 36.667V26.6673C49.1668 25.7463 48.4213 25.0005 47.4999 25.0005H27.5C26.579 25.0005 25.8332 25.7459 25.8332 26.6673V36.667C25.8332 37.5885 26.579 38.3339 27.5 38.3339ZM29.1664 28.3337H45.833V35.0002H29.1664V28.3337Z" fill="white"/>
<path d="M52.4995 41.6671H25.8332V45.0003H52.4995V41.6671Z" fill="white"/>
<path d="M52.4995 48.334H25.8332V51.6673H52.4995V48.334Z" fill="white"/>
<path d="M70.833 20.0008C71.2594 20.0008 71.6859 19.8382 72.0116 19.5125L77.9034 13.6207C78.5543 12.9698 78.5543 11.915 77.9034 11.2641C77.2524 10.6127 76.1976 10.6132 75.5467 11.2641L69.6549 17.1559C69.004 17.8068 69.004 18.8616 69.6549 19.5125C69.9802 19.8382 70.4066 20.0008 70.833 20.0008Z" fill="white"/>
<path d="M7.98844 19.5125C8.31414 19.8382 8.74057 20.0008 9.167 20.0008C9.59342 20.0008 10.0198 19.8382 10.3455 19.5125C10.9965 18.8616 10.9965 17.8068 10.3455 17.1559L4.45327 11.2641C3.80235 10.6132 2.74756 10.6132 2.09664 11.2641C1.44573 11.915 1.44573 12.9698 2.09664 13.6207L7.98844 19.5125Z" fill="white"/>
<path d="M56.8813 11.5486C57.0832 11.6301 57.2933 11.667 57.4996 11.667C58.1606 11.667 58.787 11.2713 59.0475 10.619L62.3807 2.28564C62.7227 1.43134 62.3059 0.460967 61.4516 0.119442C60.6055 -0.220645 59.6269 0.190913 59.2854 1.04856L55.9522 9.38189C55.6102 10.2367 56.0265 11.207 56.8813 11.5486Z" fill="white"/>
<path d="M22.6189 10.6194C22.8793 11.2723 23.5058 11.6675 24.1668 11.6675C24.3735 11.6675 24.5836 11.6301 24.7851 11.5486C25.6394 11.2065 26.0562 10.2367 25.7142 9.38236L22.381 1.04904C22.039 0.191386 21.0628 -0.220651 20.2148 0.119915C19.3605 0.46192 18.9436 1.43181 19.2857 2.28611L22.6189 10.6194Z" fill="white"/>
</svg>
