<svg width="85" height="85" viewBox="0 0 85 85" fill="none" xmlns="http://www.w3.org/2000/svg">
<mask id="path-1-outside-1" maskUnits="userSpaceOnUse" x="0" y="0" width="85" height="85" fill="black">
<rect fill="white" width="85" height="85"/>
<path d="M83.9961 19.4803C83.9959 19.0587 83.8351 18.6441 83.5252 18.334L66.6658 1.47466C66.3552 1.16405 65.9396 1.0034 65.5169 1.00389C65.5179 1.00259 65.5186 1.00146 65.5195 1H20.7773C18.0957 1 15.9141 3.18167 15.9141 5.86328V23.9383C15.9141 24.8335 16.6398 25.5594 17.5352 25.5594C18.4305 25.5594 19.1562 24.8335 19.1562 23.9383V5.86328C19.1562 4.96941 19.8835 4.24219 20.7773 4.24219H63.8984V16.2383C63.8984 18.9199 66.0801 21.1016 68.7617 21.1016H80.7578V79.1367C80.7578 80.0306 80.0306 80.7578 79.1367 80.7578H20.7773C19.8835 80.7578 19.1562 80.0306 19.1562 79.1367V75.1652C19.7434 75.2189 20.3345 75.2461 20.9286 75.2461H42.7986C46.0033 75.2461 48.6107 72.6389 48.6107 69.434V69.3531C48.6107 68.4299 48.3933 67.5569 48.0088 66.7809C51.1751 66.736 53.7376 64.1479 53.7376 60.9711V60.8902C53.7376 59.2446 53.0489 57.7577 51.9461 56.6992C53.0489 55.6407 53.7376 54.1539 53.7376 52.5081V52.4273C53.7376 49.7666 51.94 47.5194 49.496 46.8324C49.9504 46.0043 50.2094 45.0545 50.2094 44.0452V43.9643C50.2094 40.7594 47.6022 38.1522 44.3973 38.1522H32.1328L35.8571 30.1032C37.3535 26.8691 36.8236 23.0295 34.5067 20.3215L32.6632 18.1667C32.355 17.8065 31.905 17.5995 31.4313 17.5995C31.427 17.5995 31.4224 17.5995 31.4179 17.5995C30.9395 17.6034 30.4872 17.8187 30.1823 18.1872L24.547 24.9983C23.9762 25.6883 24.0729 26.7102 24.7626 27.2808C25.4524 27.8515 26.4744 27.755 27.045 27.0652L31.4521 21.7387L32.043 22.4294C33.5381 24.1769 33.8802 26.6546 32.9143 28.7418L28.125 39.0928C27.8926 39.5948 27.9324 40.1805 28.2303 40.6466C28.5283 41.1127 29.0431 41.3946 29.5963 41.3946H44.397C45.814 41.3946 46.9669 42.5473 46.9669 43.9645V44.0454C46.9669 45.4624 45.8142 46.6153 44.397 46.6153H36.6778C35.7825 46.6153 35.0567 47.3412 35.0567 48.2364C35.0567 49.1316 35.7825 49.8575 36.6778 49.8575H44.397H47.9252C49.3422 49.8575 50.4951 51.0104 50.4951 52.4276V52.5085C50.4951 53.9255 49.3423 55.0784 47.9252 55.0784H36.6778C35.7825 55.0784 35.0567 55.8043 35.0567 56.6995C35.0567 57.5947 35.7825 58.3206 36.6778 58.3206H47.9252C49.3422 58.3206 50.4951 59.4733 50.4951 60.8905V60.9714C50.4951 62.3884 49.3423 63.5413 47.9252 63.5413H42.7984H36.678C35.7827 63.5413 35.0569 64.2672 35.0569 65.1624C35.0569 66.0576 35.7827 66.7835 36.678 66.7835H42.7984C44.2154 66.7835 45.3684 67.9364 45.3684 69.3536V69.4345C45.3684 70.8515 44.2156 72.0044 42.7984 72.0044H20.9286C18.9051 72.0044 16.9238 71.6296 15.0398 70.8909L12.9961 70.0889V44.0456L17.9508 38.0569C18.5216 37.367 18.425 36.345 17.7352 35.7744C17.0454 35.2036 16.0235 35.3002 15.4529 35.99L12.6495 39.3784C12.3527 39.0005 11.8928 38.7569 11.375 38.7569H2.62109C1.72576 38.7569 1 39.4828 1 40.378V73.625C1 74.5202 1.72576 75.2461 2.62109 75.2461H11.375C12.2703 75.2461 12.9961 74.5202 12.9961 73.625V73.5715L13.8561 73.9087C14.5322 74.1739 15.2189 74.3991 15.9141 74.5858V79.1367C15.9141 81.8183 18.0957 84 20.7773 84H79.1367C81.8183 84 84 81.8183 84 79.1367V19.4805C83.9987 19.4805 83.9974 19.4803 83.9961 19.4803ZM68.7617 17.8594C67.8679 17.8594 67.1406 17.1322 67.1406 16.2383V6.5349L78.4653 17.8594H68.7617ZM9.75391 72.0039H4.24219V41.9991H9.75391V72.0039Z"/>
</mask>
<path d="M83.9961 19.4803C83.9959 19.0587 83.8351 18.6441 83.5252 18.334L66.6658 1.47466C66.3552 1.16405 65.9396 1.0034 65.5169 1.00389C65.5179 1.00259 65.5186 1.00146 65.5195 1H20.7773C18.0957 1 15.9141 3.18167 15.9141 5.86328V23.9383C15.9141 24.8335 16.6398 25.5594 17.5352 25.5594C18.4305 25.5594 19.1562 24.8335 19.1562 23.9383V5.86328C19.1562 4.96941 19.8835 4.24219 20.7773 4.24219H63.8984V16.2383C63.8984 18.9199 66.0801 21.1016 68.7617 21.1016H80.7578V79.1367C80.7578 80.0306 80.0306 80.7578 79.1367 80.7578H20.7773C19.8835 80.7578 19.1562 80.0306 19.1562 79.1367V75.1652C19.7434 75.2189 20.3345 75.2461 20.9286 75.2461H42.7986C46.0033 75.2461 48.6107 72.6389 48.6107 69.434V69.3531C48.6107 68.4299 48.3933 67.5569 48.0088 66.7809C51.1751 66.736 53.7376 64.1479 53.7376 60.9711V60.8902C53.7376 59.2446 53.0489 57.7577 51.9461 56.6992C53.0489 55.6407 53.7376 54.1539 53.7376 52.5081V52.4273C53.7376 49.7666 51.94 47.5194 49.496 46.8324C49.9504 46.0043 50.2094 45.0545 50.2094 44.0452V43.9643C50.2094 40.7594 47.6022 38.1522 44.3973 38.1522H32.1328L35.8571 30.1032C37.3535 26.8691 36.8236 23.0295 34.5067 20.3215L32.6632 18.1667C32.355 17.8065 31.905 17.5995 31.4313 17.5995C31.427 17.5995 31.4224 17.5995 31.4179 17.5995C30.9395 17.6034 30.4872 17.8187 30.1823 18.1872L24.547 24.9983C23.9762 25.6883 24.0729 26.7102 24.7626 27.2808C25.4524 27.8515 26.4744 27.755 27.045 27.0652L31.4521 21.7387L32.043 22.4294C33.5381 24.1769 33.8802 26.6546 32.9143 28.7418L28.125 39.0928C27.8926 39.5948 27.9324 40.1805 28.2303 40.6466C28.5283 41.1127 29.0431 41.3946 29.5963 41.3946H44.397C45.814 41.3946 46.9669 42.5473 46.9669 43.9645V44.0454C46.9669 45.4624 45.8142 46.6153 44.397 46.6153H36.6778C35.7825 46.6153 35.0567 47.3412 35.0567 48.2364C35.0567 49.1316 35.7825 49.8575 36.6778 49.8575H44.397H47.9252C49.3422 49.8575 50.4951 51.0104 50.4951 52.4276V52.5085C50.4951 53.9255 49.3423 55.0784 47.9252 55.0784H36.6778C35.7825 55.0784 35.0567 55.8043 35.0567 56.6995C35.0567 57.5947 35.7825 58.3206 36.6778 58.3206H47.9252C49.3422 58.3206 50.4951 59.4733 50.4951 60.8905V60.9714C50.4951 62.3884 49.3423 63.5413 47.9252 63.5413H42.7984H36.678C35.7827 63.5413 35.0569 64.2672 35.0569 65.1624C35.0569 66.0576 35.7827 66.7835 36.678 66.7835H42.7984C44.2154 66.7835 45.3684 67.9364 45.3684 69.3536V69.4345C45.3684 70.8515 44.2156 72.0044 42.7984 72.0044H20.9286C18.9051 72.0044 16.9238 71.6296 15.0398 70.8909L12.9961 70.0889V44.0456L17.9508 38.0569C18.5216 37.367 18.425 36.345 17.7352 35.7744C17.0454 35.2036 16.0235 35.3002 15.4529 35.99L12.6495 39.3784C12.3527 39.0005 11.8928 38.7569 11.375 38.7569H2.62109C1.72576 38.7569 1 39.4828 1 40.378V73.625C1 74.5202 1.72576 75.2461 2.62109 75.2461H11.375C12.2703 75.2461 12.9961 74.5202 12.9961 73.625V73.5715L13.8561 73.9087C14.5322 74.1739 15.2189 74.3991 15.9141 74.5858V79.1367C15.9141 81.8183 18.0957 84 20.7773 84H79.1367C81.8183 84 84 81.8183 84 79.1367V19.4805C83.9987 19.4805 83.9974 19.4803 83.9961 19.4803ZM68.7617 17.8594C67.8679 17.8594 67.1406 17.1322 67.1406 16.2383V6.5349L78.4653 17.8594H68.7617ZM9.75391 72.0039H4.24219V41.9991H9.75391V72.0039Z" fill="white"/>
<path d="M83.9961 19.4803C83.9959 19.0587 83.8351 18.6441 83.5252 18.334L66.6658 1.47466C66.3552 1.16405 65.9396 1.0034 65.5169 1.00389C65.5179 1.00259 65.5186 1.00146 65.5195 1H20.7773C18.0957 1 15.9141 3.18167 15.9141 5.86328V23.9383C15.9141 24.8335 16.6398 25.5594 17.5352 25.5594C18.4305 25.5594 19.1562 24.8335 19.1562 23.9383V5.86328C19.1562 4.96941 19.8835 4.24219 20.7773 4.24219H63.8984V16.2383C63.8984 18.9199 66.0801 21.1016 68.7617 21.1016H80.7578V79.1367C80.7578 80.0306 80.0306 80.7578 79.1367 80.7578H20.7773C19.8835 80.7578 19.1562 80.0306 19.1562 79.1367V75.1652C19.7434 75.2189 20.3345 75.2461 20.9286 75.2461H42.7986C46.0033 75.2461 48.6107 72.6389 48.6107 69.434V69.3531C48.6107 68.4299 48.3933 67.5569 48.0088 66.7809C51.1751 66.736 53.7376 64.1479 53.7376 60.9711V60.8902C53.7376 59.2446 53.0489 57.7577 51.9461 56.6992C53.0489 55.6407 53.7376 54.1539 53.7376 52.5081V52.4273C53.7376 49.7666 51.94 47.5194 49.496 46.8324C49.9504 46.0043 50.2094 45.0545 50.2094 44.0452V43.9643C50.2094 40.7594 47.6022 38.1522 44.3973 38.1522H32.1328L35.8571 30.1032C37.3535 26.8691 36.8236 23.0295 34.5067 20.3215L32.6632 18.1667C32.355 17.8065 31.905 17.5995 31.4313 17.5995C31.427 17.5995 31.4224 17.5995 31.4179 17.5995C30.9395 17.6034 30.4872 17.8187 30.1823 18.1872L24.547 24.9983C23.9762 25.6883 24.0729 26.7102 24.7626 27.2808C25.4524 27.8515 26.4744 27.755 27.045 27.0652L31.4521 21.7387L32.043 22.4294C33.5381 24.1769 33.8802 26.6546 32.9143 28.7418L28.125 39.0928C27.8926 39.5948 27.9324 40.1805 28.2303 40.6466C28.5283 41.1127 29.0431 41.3946 29.5963 41.3946H44.397C45.814 41.3946 46.9669 42.5473 46.9669 43.9645V44.0454C46.9669 45.4624 45.8142 46.6153 44.397 46.6153H36.6778C35.7825 46.6153 35.0567 47.3412 35.0567 48.2364C35.0567 49.1316 35.7825 49.8575 36.6778 49.8575H44.397H47.9252C49.3422 49.8575 50.4951 51.0104 50.4951 52.4276V52.5085C50.4951 53.9255 49.3423 55.0784 47.9252 55.0784H36.6778C35.7825 55.0784 35.0567 55.8043 35.0567 56.6995C35.0567 57.5947 35.7825 58.3206 36.6778 58.3206H47.9252C49.3422 58.3206 50.4951 59.4733 50.4951 60.8905V60.9714C50.4951 62.3884 49.3423 63.5413 47.9252 63.5413H42.7984H36.678C35.7827 63.5413 35.0569 64.2672 35.0569 65.1624C35.0569 66.0576 35.7827 66.7835 36.678 66.7835H42.7984C44.2154 66.7835 45.3684 67.9364 45.3684 69.3536V69.4345C45.3684 70.8515 44.2156 72.0044 42.7984 72.0044H20.9286C18.9051 72.0044 16.9238 71.6296 15.0398 70.8909L12.9961 70.0889V44.0456L17.9508 38.0569C18.5216 37.367 18.425 36.345 17.7352 35.7744C17.0454 35.2036 16.0235 35.3002 15.4529 35.99L12.6495 39.3784C12.3527 39.0005 11.8928 38.7569 11.375 38.7569H2.62109C1.72576 38.7569 1 39.4828 1 40.378V73.625C1 74.5202 1.72576 75.2461 2.62109 75.2461H11.375C12.2703 75.2461 12.9961 74.5202 12.9961 73.625V73.5715L13.8561 73.9087C14.5322 74.1739 15.2189 74.3991 15.9141 74.5858V79.1367C15.9141 81.8183 18.0957 84 20.7773 84H79.1367C81.8183 84 84 81.8183 84 79.1367V19.4805C83.9987 19.4805 83.9974 19.4803 83.9961 19.4803ZM68.7617 17.8594C67.8679 17.8594 67.1406 17.1322 67.1406 16.2383V6.5349L78.4653 17.8594H68.7617ZM9.75391 72.0039H4.24219V41.9991H9.75391V72.0039Z" stroke="white" mask="url(#path-1-outside-1)"/>
</svg>
