<svg width="86" height="86" viewBox="0 0 86 86" fill="none" xmlns="http://www.w3.org/2000/svg">
<path d="M32.895 66.5819C31.506 66.5819 30.3755 65.4514 30.3755 64.0624C30.3755 62.6707 29.2476 61.5428 27.8559 61.5428C26.4643 61.5428 25.3364 62.6707 25.3364 64.0624C25.3364 67.3568 27.4557 70.1637 30.4024 71.1964V73.4023C30.4024 74.794 31.5302 75.9219 32.9219 75.9219C34.3135 75.9219 35.4414 74.794 35.4414 73.4023V71.1781C38.3599 70.1309 40.4536 67.3371 40.4536 64.0624C40.4536 59.8946 37.0627 56.5038 32.895 56.5038C31.506 56.5038 30.3755 55.3733 30.3755 53.9842C30.3755 52.5946 31.506 51.4647 32.895 51.4647C34.284 51.4647 35.4145 52.5946 35.4145 53.9842C35.4145 55.3759 36.5424 56.5038 37.9341 56.5038C39.3257 56.5038 40.4536 55.3759 40.4536 53.9842C40.4536 50.7095 38.3599 47.9157 35.4414 46.8679V43.168C35.4414 41.7763 34.3135 40.6484 32.9219 40.6484C31.5302 40.6484 30.4024 41.7763 30.4024 43.168V46.8495C27.4557 47.8822 25.3364 50.6892 25.3364 53.9842C25.3364 58.152 28.7273 61.5428 32.895 61.5428C34.284 61.5428 35.4145 62.6727 35.4145 64.0624C35.4145 65.4514 34.284 66.5819 32.895 66.5819V66.5819Z" fill="white"/>
<path d="M10.2697 81.8854C15.5128 84.6923 22.7112 86 32.9219 86C41.2298 86 47.4827 85.1392 52.3406 83.3086C53.7283 84.9528 55.8024 86 58.1172 86H78.4414C82.6091 86 86 82.6091 86 78.4414C86 76.5071 85.2684 74.7408 84.069 73.4023C85.2691 72.0638 86 70.2975 86 68.3633C86 66.429 85.2684 64.6627 84.069 63.3242C85.2691 61.9857 86 60.2194 86 58.2852C86 56.3509 85.2684 54.5846 84.069 53.2461C85.2691 51.9076 86 50.1413 86 48.207C86 44.0393 82.6091 40.6484 78.4414 40.6484H58.1172C57.8718 40.6484 57.629 40.6609 57.3895 40.6845C54.8608 37.6217 51.8978 35.0536 48.6329 33.0839C49.829 31.7467 50.5586 29.9824 50.5586 28.0508C50.5586 25.0398 48.7884 22.435 46.2341 21.2205L50.4346 8.34004C50.6846 7.57237 50.552 6.73187 50.0783 6.07903C49.6039 5.42552 48.8461 5.03906 48.0391 5.03906H40.0474C39.0068 2.10617 36.2065 0 32.9219 0C29.6366 0 26.835 2.10617 25.795 5.03906H17.8047C16.9977 5.03906 16.2398 5.42552 15.7654 6.07903C15.2917 6.73187 15.1592 7.57237 15.4092 8.34004L19.6097 21.2205C17.0554 22.435 15.2852 25.0398 15.2852 28.0508C15.2852 29.9837 16.0154 31.7494 17.2135 33.0872C7.10455 39.1886 0 50.7764 0 63.3242C0 71.9923 3.45517 78.2367 10.2697 81.8854V81.8854ZM80.9609 58.2852C80.9609 59.6742 79.8304 60.8047 78.4414 60.8047H58.1172C56.7282 60.8047 55.5977 59.6742 55.5977 58.2852C55.5977 56.8961 56.7282 55.7656 58.1172 55.7656H78.4414C79.8304 55.7656 80.9609 56.8961 80.9609 58.2852ZM80.9609 68.3633C80.9609 69.7523 79.8304 70.8828 78.4414 70.8828H58.1172C56.7282 70.8828 55.5977 69.7523 55.5977 68.3633C55.5977 66.9743 56.7282 65.8438 58.1172 65.8438H78.4414C79.8304 65.8438 80.9609 66.9743 80.9609 68.3633ZM78.4414 80.9609H58.1172C56.7282 80.9609 55.5977 79.8304 55.5977 78.4414C55.5977 77.0524 56.7282 75.9219 58.1172 75.9219H78.4414C79.8304 75.9219 80.9609 77.0524 80.9609 78.4414C80.9609 79.8304 79.8304 80.9609 78.4414 80.9609ZM80.9609 48.207C80.9609 49.5961 79.8304 50.7266 78.4414 50.7266H58.1172C56.7282 50.7266 55.5977 49.5961 55.5977 48.207C55.5977 46.818 56.7282 45.6875 58.1172 45.6875H78.4414C79.8304 45.6875 80.9609 46.818 80.9609 48.207ZM42.9278 30.5703H22.9166C22.8943 30.5697 22.872 30.5703 22.8497 30.5703H22.8438C21.4547 30.5703 20.3242 29.4398 20.3242 28.0508C20.3242 26.6644 21.4501 25.5358 22.8359 25.5319H22.8431C22.849 25.5319 22.8549 25.5312 22.8608 25.5312H42.9823C42.9882 25.5312 42.9948 25.5319 43.0007 25.5319H43.0079C44.3936 25.5358 45.5195 26.6644 45.5195 28.0508C45.5195 29.4398 44.389 30.5703 43 30.5703H42.9921C42.9711 30.5703 42.9495 30.5697 42.9278 30.5703V30.5703ZM27.8828 10.0781C29.2745 10.0781 30.4023 8.95024 30.4023 7.55859C30.4023 6.16957 31.5329 5.03906 32.9219 5.03906C34.3109 5.03906 35.4414 6.16957 35.4414 7.55859V12.5977C35.4414 13.9893 36.5693 15.1172 37.9609 15.1172C39.3526 15.1172 40.4805 13.9893 40.4805 12.5977V10.0781H44.5675L41.1714 20.4922H24.6724L21.2763 10.0781H27.8828ZM23.3352 35.6094H42.4987C46.3141 37.2031 49.7916 39.7128 52.6917 42.9521C51.3728 44.3136 50.5586 46.1665 50.5586 48.207C50.5586 50.1413 51.2902 51.9076 52.4896 53.2461C51.2902 54.5846 50.5586 56.3509 50.5586 58.2852C50.5586 60.2194 51.2902 61.9857 52.4896 63.3242C51.2902 64.6627 50.5586 66.429 50.5586 68.3633C50.5586 70.2975 51.2902 72.0638 52.4896 73.4023C51.2902 74.7408 50.5586 76.5071 50.5586 78.4414C50.5586 78.4932 50.5612 78.5444 50.5625 78.5956C46.3003 80.2051 40.6235 80.9609 32.9219 80.9609C23.5734 80.9609 17.1308 79.8429 12.6482 77.4428C7.45689 74.6634 5.03906 70.1775 5.03906 63.3242C5.03906 51.4404 12.5399 40.1157 23.3352 35.6094Z" fill="white"/>
</svg>
