<svg width="88" height="88" viewBox="0 0 88 88" fill="none" xmlns="http://www.w3.org/2000/svg">
<path d="M8.21484 65.2812H86.524V73.9823H8.21484V65.2812Z" fill="#2D2D30"/>
<path d="M86.5242 73.9824V78.3329C86.5277 78.8201 86.4791 79.3063 86.3792 79.7831H8.36004C8.26014 79.3063 8.21152 78.8201 8.21502 78.3329V73.9824H86.5242Z" fill="#57565C"/>
<path d="M86.5242 60.9306V65.2811H8.21502V60.9306C8.21152 60.4435 8.26014 59.9573 8.36004 59.4805H86.3792C86.4791 59.9573 86.5277 60.4435 86.5242 60.9306Z" fill="#57565C"/>
<path d="M8.35938 79.7812H86.3785C86.0442 81.419 85.1543 82.891 83.8594 83.948C82.5646 85.0051 80.9442 85.5823 79.2727 85.5819H15.4652C13.7937 85.5823 12.1733 85.0051 10.8785 83.948C9.58358 82.891 8.69368 81.419 8.35938 79.7812Z" fill="#2D2D30"/>
<path d="M86.3785 59.4804H8.35938C8.69368 57.8426 9.58358 56.3706 10.8785 55.3136C12.1733 54.2565 13.7937 53.6793 15.4652 53.6797H79.2727C80.9442 53.6793 82.5646 54.2565 83.8594 55.3136C85.1543 56.3706 86.0442 57.8426 86.3785 59.4804Z" fill="#2D2D30"/>
<path d="M41.5726 1.47266C33.8285 1.47266 26.2584 3.76903 19.8195 8.0714C13.3805 12.3738 8.36197 18.4889 5.39845 25.6434C2.43493 32.798 1.65954 40.6707 3.17033 48.2659C4.68112 55.8612 8.41023 62.8379 13.8861 68.3137C19.362 73.7896 26.3386 77.5187 33.9339 79.0295C41.5291 80.5403 49.4018 79.7649 56.5564 76.8014C63.711 73.8379 69.8261 68.8193 74.1284 62.3804C78.4308 55.9414 80.7272 48.3713 80.7272 40.6273C80.7272 30.2428 76.602 20.2837 69.2591 12.9408C61.9161 5.59786 51.957 1.47266 41.5726 1.47266ZM41.5726 60.9296C37.5571 60.9296 33.6319 59.7389 30.2932 57.5081C26.9545 55.2772 24.3523 52.1064 22.8156 48.3966C21.279 44.6869 20.8769 40.6047 21.6603 36.6665C22.4437 32.7282 24.3773 29.1106 27.2166 26.2713C30.056 23.432 33.6735 21.4983 37.6118 20.715C41.5501 19.9316 45.6322 20.3337 49.342 21.8703C53.0517 23.4069 56.2225 26.0091 58.4534 29.3479C60.6842 32.6866 61.875 36.6118 61.875 40.6273C61.875 46.0118 59.736 51.1758 55.9285 54.9832C52.1211 58.7906 46.9571 60.9296 41.5726 60.9296Z" fill="#2D2D30"/>
<path d="M61.4103 36.2781C62.029 39.1454 62.029 42.1117 61.4103 44.9791H52.0712L58.6694 51.5629C57.0905 54.0384 54.9925 56.1413 52.5207 57.7261L45.9224 51.1278V60.4669C43.0551 61.0857 40.0888 61.0857 37.2214 60.4669V51.1278L30.6231 57.7261C28.1513 56.1413 26.0534 54.0384 24.4744 51.5629L31.0727 44.9791H21.7336C21.1148 42.1117 21.1148 39.1454 21.7336 36.2781H31.0727L24.4744 29.6943C26.0548 27.215 28.1583 25.1114 30.6376 23.5311L37.2214 30.1293V20.7902C40.0888 20.1715 43.0551 20.1715 45.9224 20.7902V30.1293L52.5062 23.5311C54.9855 25.1114 57.0891 27.215 58.6694 29.6943L52.0712 36.2781H61.4103Z" fill="#898890"/>
<path d="M41.5718 14.5254C36.4091 14.5254 31.3624 16.0563 27.0697 18.9246C22.7771 21.7928 19.4314 25.8695 17.4557 30.6392C15.4801 35.409 14.9631 40.6574 15.9703 45.7209C16.9775 50.7844 19.4636 55.4355 23.1142 59.0861C26.7647 62.7367 31.4159 65.2228 36.4794 66.2299C41.5429 67.2371 46.7913 66.7202 51.561 64.7445C56.3307 62.7689 60.4075 59.4232 63.2757 55.1305C66.144 50.8379 67.6749 45.7911 67.6749 40.6285C67.6749 33.7055 64.9247 27.0661 60.0295 22.1708C55.1342 17.2755 48.4948 14.5254 41.5718 14.5254ZM41.5718 60.9308C37.5564 60.9308 33.6311 59.7401 30.2924 57.5093C26.9537 55.2784 24.3515 52.1076 22.8149 48.3978C21.2782 44.6881 20.8762 40.6059 21.6595 36.6677C22.4429 32.7294 24.3765 29.1118 27.2159 26.2725C30.0552 23.4332 33.6728 21.4995 37.611 20.7162C41.5493 19.9328 45.6314 20.3349 49.3412 21.8715C53.051 23.4081 56.2218 26.0103 58.4526 29.3491C60.6835 32.6878 61.8742 36.613 61.8742 40.6285C61.8742 46.013 59.7352 51.177 55.9278 54.9844C52.1203 58.7918 46.9564 60.9308 41.5718 60.9308Z" fill="#C6C5CA"/>
<path d="M41.5689 13.0781C36.1194 13.0781 30.7922 14.6941 26.2611 17.7217C21.73 20.7493 18.1984 25.0525 16.113 30.0872C14.0276 35.1219 13.4819 40.6619 14.5451 46.0067C15.6082 51.3515 18.2324 56.261 22.0858 60.1144C25.9392 63.9678 30.8487 66.592 36.1935 67.6552C41.5383 68.7183 47.0783 68.1727 52.113 66.0872C57.1477 64.0018 61.451 60.4702 64.4785 55.9391C67.5061 51.408 69.1221 46.0809 69.1221 40.6314C69.1156 33.3258 66.2106 26.3213 61.0447 21.1555C55.8789 15.9897 48.8744 13.0847 41.5689 13.0781ZM41.5689 65.2842C36.693 65.2842 31.9266 63.8384 27.8725 61.1295C23.8183 58.4206 20.6585 54.5703 18.7926 50.0656C16.9266 45.5609 16.4384 40.604 17.3897 35.8218C18.3409 31.0396 20.6889 26.6469 24.1366 23.1991C27.5844 19.7514 31.9771 17.4034 36.7593 16.4522C41.5415 15.5009 46.4984 15.9891 51.0031 17.8551C55.5078 19.721 59.3581 22.8808 62.067 26.9349C64.7759 30.9891 66.2218 35.7555 66.2218 40.6314C66.2126 47.1669 63.6122 53.4321 58.9909 58.0534C54.3696 62.6747 48.1044 65.275 41.5689 65.2842Z" fill="black"/>
<path d="M80.4487 52.3165C82.1313 46.7309 82.5906 40.8482 81.7953 35.0691C81 29.29 78.9688 23.7502 75.84 18.8266C72.7112 13.9031 68.5583 9.71155 63.6639 6.53733C58.7695 3.36311 53.2487 1.28076 47.4772 0.432041C41.7057 -0.416677 35.8191 -0.0118344 30.2181 1.61901C24.6171 3.24985 19.4333 6.0684 15.0196 9.88277C10.6058 13.6971 7.0658 18.4178 4.64049 23.7233C2.21517 29.0288 0.961519 34.7946 0.964876 40.6281C0.955533 47.988 2.96163 55.2099 6.76556 61.5106V78.3326C6.76556 80.6402 7.68227 82.8533 9.31403 84.4851C10.9458 86.1169 13.1589 87.0336 15.4666 87.0336H79.2741C81.5817 87.0336 83.7948 86.1169 85.4266 84.4851C87.0584 82.8533 87.9751 80.6402 87.9751 78.3326V60.9305C87.9715 58.8281 87.2075 56.798 85.8242 55.2148C84.4409 53.6316 82.5316 52.6021 80.4487 52.3165ZM84.2626 58.0302H78.2444C78.694 57.0876 79.1 56.1304 79.4771 55.1443C80.4537 55.1816 81.4049 55.4658 82.2418 55.9705C83.0787 56.4752 83.774 57.1838 84.2626 58.0302ZM8.23023 58.2042C7.13769 56.1511 6.23951 54.0003 5.54741 51.7799L8.33174 51.0404L7.57765 48.2415L4.80783 48.9811C4.29365 46.7132 3.99263 44.4022 3.90872 42.0783H6.76556V39.178H3.90872C3.99263 36.854 4.29365 34.543 4.80783 32.2752L7.57765 33.0147L8.33174 30.2159L5.54741 29.4763C6.23951 27.256 7.13769 25.1052 8.23023 23.0521L10.71 24.4877L12.1602 21.9644L9.6804 20.5433C10.9221 18.582 12.3394 16.7375 13.9149 15.0326L15.9306 17.0484L17.9899 14.9891L15.9741 12.9734C17.679 11.3979 19.5235 9.98063 21.4848 8.7389L22.9059 11.2187L25.4292 9.76852L23.9936 7.28873C26.0467 6.19619 28.1975 5.29801 30.4178 4.60591L31.1574 7.39024L33.9562 6.63615L33.2167 3.86632C35.4845 3.35214 37.7955 3.05113 40.1195 2.96722V5.82405H43.0198V2.96722C45.3437 3.05113 47.6547 3.35214 49.9226 3.86632L49.183 6.63615L51.9819 7.39024L52.7214 4.60591C54.9418 5.29801 57.0926 6.19619 59.1457 7.28873L57.71 9.76852L60.2333 11.2187L61.6545 8.7389C63.6158 9.98063 65.4603 11.3979 67.1651 12.9734L65.1494 14.9891L67.2086 17.0484L69.2244 15.0326C70.7998 16.7375 72.2171 18.582 73.4589 20.5433L70.9791 21.9644L72.4293 24.4877L74.909 23.0521C76.0016 25.1052 76.8998 27.256 77.5919 29.4763L74.8075 30.2159L75.5616 33.0147L78.3314 32.2752C78.8456 34.543 79.1466 36.854 79.2306 39.178H76.3737V42.0783H79.2306C79.1466 44.4022 78.8456 46.7132 78.3314 48.9811L75.5616 48.2415L74.8075 51.0404L77.5919 51.7799C76.8998 54.0003 76.0016 56.1511 74.909 58.2042L72.4293 56.7685L70.9791 59.2918L73.4589 60.713C72.2171 62.6743 70.7998 64.5188 69.2244 66.2236L67.2086 64.2079L65.1494 66.2671L67.1651 68.2829C65.4603 69.8583 63.6158 71.2756 61.6545 72.5174L60.2333 70.0376L57.71 71.4877L59.1457 73.9675C57.0926 75.0601 54.9418 75.9583 52.7214 76.6504L51.9819 73.866L49.183 74.6201L49.9226 77.3899C47.6547 77.9041 45.3437 78.2051 43.0198 78.2891V75.4322H40.1195V78.2891C37.7955 78.2051 35.4845 77.9041 33.2167 77.3899L33.9562 74.6201L31.1574 73.866L30.4178 76.6504C28.1975 75.9583 26.0467 75.0601 23.9936 73.9675L25.4292 71.4877L22.9059 70.0376L21.4848 72.5174C19.5235 71.2756 17.679 69.8583 15.9741 68.2829L17.9899 66.2671L15.9306 64.2079L13.9149 66.2236C12.3394 64.5188 10.9221 62.6743 9.6804 60.713L12.1602 59.2918L10.71 56.7685L8.23023 58.2042ZM16.4962 72.5319H9.6659V65.7016C11.6665 68.2387 13.959 70.5313 16.4962 72.5319ZM9.6659 75.4322H20.6872C22.5527 76.5571 24.5073 77.5271 26.5314 78.3326H9.6659V75.4322ZM79.2741 84.1332H15.4666C14.4537 84.13 13.4595 83.8603 12.5838 83.3512C11.7081 82.8421 10.9819 82.1116 10.478 81.2329H84.2626C83.7587 82.1116 83.0325 82.8421 82.1568 83.3512C81.2812 83.8603 80.2869 84.13 79.2741 84.1332ZM85.0747 78.3326H56.6079C58.6319 77.5271 60.5866 76.5571 62.4521 75.4322H85.0747V78.3326ZM85.0747 72.5319H66.6431C68.8351 70.8061 70.8467 68.8626 72.6468 66.7312H85.0747V72.5319ZM85.0747 63.8309H74.8655C75.5181 62.8882 76.1417 61.9311 76.7073 60.9305H85.0747V63.8309Z" fill="black"/>
<path d="M41.569 18.877C37.2667 18.877 33.0611 20.1527 29.4839 22.5429C25.9067 24.9331 23.1186 28.3304 21.4722 32.3052C19.8258 36.2799 19.3951 40.6536 20.2344 44.8732C21.0737 49.0928 23.1454 52.9687 26.1876 56.0109C29.2297 59.053 33.1057 61.1248 37.3253 61.9641C41.5448 62.8034 45.9185 62.3726 49.8933 60.7262C53.8681 59.0798 57.2654 56.2918 59.6556 52.7146C62.0458 49.1374 63.3215 44.9318 63.3215 40.6295C63.3146 34.8625 61.0206 29.3337 56.9427 25.2558C52.8648 21.1779 47.336 18.8839 41.569 18.877ZM58.3474 32.0735C58.8034 32.9594 59.1865 33.8809 59.4931 34.8288H55.5776L58.3474 32.0735ZM47.3696 22.7054C48.3176 23.012 49.2391 23.3951 50.125 23.851L47.3696 26.6209V22.7054ZM35.7683 22.7054V26.6209L33.013 23.851C33.8988 23.3951 34.8203 23.012 35.7683 22.7054ZM24.7905 32.0735L27.5603 34.8288H23.6449C23.9514 33.8809 24.3346 32.9594 24.7905 32.0735ZM24.7905 49.1855C24.3346 48.2996 23.9514 47.3782 23.6449 46.4302H27.5603L24.7905 49.1855ZM35.7683 58.5536C34.8129 58.2484 33.8861 57.8602 32.9985 57.3935L35.7683 54.6236V58.5536ZM47.3696 58.5536V54.6236L50.1395 57.3935C49.2518 57.8602 48.325 58.2484 47.3696 58.5536ZM58.3474 49.1855L55.5776 46.4302H59.4931C59.1865 47.3782 58.8034 48.2996 58.3474 49.1855ZM52.0682 43.5298C51.7813 43.5287 51.5007 43.6139 51.2628 43.7742C51.0249 43.9345 50.8407 44.1626 50.734 44.4289C50.623 44.693 50.5926 44.9841 50.6468 45.2654C50.701 45.5467 50.8374 45.8057 51.0386 46.0096L56.7813 51.7233C55.6315 53.2934 54.2474 54.6776 52.6773 55.8273L46.9491 50.0991C46.7452 49.8979 46.4862 49.7616 46.2049 49.7074C45.9236 49.6532 45.6325 49.6835 45.3684 49.7946C45.1021 49.9012 44.874 50.0855 44.7137 50.3234C44.5533 50.5613 44.4682 50.8419 44.4693 51.1287V59.2352C42.5497 59.5639 40.5882 59.5639 38.6686 59.2352V51.1287C38.6697 50.8419 38.5846 50.5613 38.4243 50.3234C38.2639 50.0855 38.0358 49.9012 37.7695 49.7946C37.5054 49.6835 37.2144 49.6532 36.933 49.7074C36.6517 49.7616 36.3928 49.8979 36.1888 50.0991L30.4607 55.8273C28.8905 54.6776 27.5064 53.2934 26.3567 51.7233L32.0994 46.0096C32.3006 45.8057 32.4369 45.5467 32.4911 45.2654C32.5453 44.9841 32.5149 44.693 32.4039 44.4289C32.2972 44.1626 32.113 43.9345 31.8751 43.7742C31.6372 43.6139 31.3566 43.5287 31.0697 43.5298H22.9633C22.6346 41.6103 22.6346 39.6488 22.9633 37.7292H31.0697C31.3566 37.7303 31.6372 37.6451 31.8751 37.4848C32.113 37.3245 32.2972 37.0964 32.4039 36.8301C32.5149 36.566 32.5453 36.2749 32.4911 35.9936C32.4369 35.7123 32.3006 35.4533 32.0994 35.2494L26.3567 29.5357C27.5112 27.9607 28.9001 26.5717 30.4752 25.4172L36.1888 31.1599C36.4631 31.4304 36.8332 31.5816 37.2185 31.5804C37.6013 31.5748 37.9669 31.4202 38.2377 31.1495C38.5084 30.8787 38.663 30.5131 38.6686 30.1303V22.0238C40.5882 21.6951 42.5497 21.6951 44.4693 22.0238V30.1303C44.4749 30.5131 44.6295 30.8787 44.9003 31.1495C45.171 31.4202 45.5366 31.5748 45.9195 31.5804C46.3047 31.5816 46.6748 31.4304 46.9491 31.1599L52.6628 25.4172C54.2378 26.5717 55.6268 27.9607 56.7813 29.5357L51.0386 35.2494C50.8374 35.4533 50.701 35.7123 50.6468 35.9936C50.5926 36.2749 50.623 36.566 50.734 36.8301C50.8407 37.0964 51.0249 37.3245 51.2628 37.4848C51.5007 37.6451 51.7813 37.7303 52.0682 37.7292H60.1747C60.5033 39.6488 60.5033 41.6103 60.1747 43.5298H52.0682Z" fill="black"/>
</svg>
