<svg width="47" height="64" viewBox="0 0 47 64" fill="none" xmlns="http://www.w3.org/2000/svg">
<path d="M34.0352 41.6788C39.9918 37.6317 44.4286 31.3967 44.4286 23.7143C44.4286 18.2205 42.2462 12.9518 38.3615 9.06707C34.4768 5.18239 29.2081 3 23.7143 3C18.2205 3 12.9518 5.18239 9.06707 9.06707C5.18239 12.9518 3 18.2205 3 23.7143V50.4577C3 56.1878 7.62705 61 13.3571 61C19.0872 61 22.0092 57.6417 23.3634 55.8214C25.2756 53.2567 28.7634 45.2623 34.0352 41.6788Z" stroke="#F05C26" stroke-width="4.14286" stroke-linecap="round" stroke-linejoin="round"/>
<path d="M11.2861 38.2147V22.679C11.2861 16.4129 16.879 11.2861 23.7147 11.2861C30.5504 11.2861 36.1433 16.4129 36.1433 22.679" stroke="#F05C26" stroke-width="4.14286" stroke-linecap="round" stroke-linejoin="round"/>
<path d="M11.2861 29.7992C14.5227 27.4689 21.62 27.8573 21.62 27.8573C24.986 27.8573 26.95 31.6661 24.986 34.4082C24.986 34.4082 20.214 39.8975 19.5667 42.3573" stroke="#F05C26" stroke-width="4.14286" stroke-linecap="round" stroke-linejoin="round"/>
</svg>
