<svg width="91" height="92" viewBox="0 0 91 92" fill="none" xmlns="http://www.w3.org/2000/svg">
<path d="M25.6328 59.5572V34.0004C29.261 32.1545 32.111 29.0737 33.6694 25.313C35.2277 21.5523 35.3922 17.3587 34.133 13.4875L24.0764 23.4629C23.3651 24.1662 22.4035 24.558 21.4032 24.5524C20.4102 24.5467 19.4595 24.1497 18.7574 23.4476L13.1682 17.8583C12.466 17.1562 12.069 16.2055 12.0634 15.2125C12.0576 14.2122 12.4494 13.2506 13.1526 12.5391L23.128 2.48257C20.7447 1.7067 18.2196 1.46546 15.7325 1.77599C7.6731 2.77536 1.26638 9.57194 0.764848 17.6776C0.553288 21.0096 1.32157 24.3306 2.97494 27.2311C4.62832 30.1316 7.09448 32.4848 10.0693 34.0004V59.5572C6.44104 61.4032 3.59111 64.4839 2.03272 68.2446C0.474339 72.0053 0.309926 76.1989 1.56909 80.0701L11.6256 70.0947C12.337 69.3915 13.2986 68.9996 14.2989 69.0052C15.2918 69.0109 16.2425 69.4079 16.9447 70.1101L22.5339 75.6993C23.2361 76.4014 23.6331 77.3521 23.6387 78.3451C23.6444 79.3454 23.2525 80.3069 22.5493 81.0183L12.574 91.0751C14.9574 91.8509 17.4825 92.0922 19.9696 91.7816C28.029 90.7823 34.4357 83.9857 34.9372 75.88C35.1488 72.5481 34.3805 69.2271 32.7271 66.3265C31.0738 63.426 28.6076 61.0729 25.6328 59.5572Z" fill="#D6D6D4"/>
<path d="M25.632 59.5559V40.0332L10.0686 55.5967V59.5559C6.44031 61.4018 3.59037 64.4825 2.03198 68.2433C0.473601 72.004 0.309188 76.1976 1.56835 80.0687L11.6249 70.0933C12.3337 69.3924 13.291 69.0005 14.2879 69.0033C15.2847 69.0061 16.2398 69.4033 16.9447 70.1081L22.5339 75.6972C23.2388 76.402 23.636 77.3573 23.6388 78.3541C23.6415 79.3509 23.2497 80.3083 22.5487 81.0171L12.5733 91.0737C14.9567 91.8496 17.4817 92.0908 19.9689 91.7803C28.0282 90.7809 34.435 83.9843 34.9365 75.8787C35.1481 72.5467 34.3798 69.2257 32.7264 66.3252C31.073 63.4247 28.6069 61.0715 25.632 59.5559Z" fill="#C7C7C5"/>
<path d="M16.2969 32.7715H19.4096V60.7858H16.2969V32.7715Z" fill="#B0B0AE"/>
<path d="M91.0007 73.2358V59.5457C91.0006 57.2979 90.1898 55.1256 88.717 53.4275C87.2442 51.7294 85.2084 50.6195 82.9831 50.3016L69.2118 48.3342V38.9961H53.6483V48.3342L39.2409 51.4214C37.1517 51.8691 35.2792 53.0197 33.9358 54.6813C32.5924 56.3429 31.8595 58.4149 31.8594 60.5515V73.2358" fill="#FEC9A3"/>
<path d="M53.6484 38.9961V44.4153C55.9515 45.9553 58.6597 46.7773 61.4302 46.7773C64.2007 46.7773 66.9089 45.9553 69.2119 44.4153V38.9961H53.6484Z" fill="#FEB784"/>
<path d="M82.9831 50.3032L69.2118 48.3359L65.8767 57.674H56.9833L53.6483 48.3359L39.2408 51.4231C37.1515 51.8709 35.279 53.0215 33.9357 54.6831C32.5924 56.3446 31.8595 58.4166 31.8594 60.5533V73.2375H91.0007V59.5475C91.0007 57.2997 90.1899 55.1272 88.7171 53.4291C87.2443 51.7309 85.2084 50.621 82.9831 50.3032Z" fill="#E0E0DE"/>
<path d="M91.0007 59.5475V76.3502H80.1062V91.9137H42.7538V77.9066H31.8594V60.5533C31.8596 58.4167 32.5924 56.3448 33.9356 54.6833C35.2789 53.0218 37.1512 51.8711 39.2404 51.4233L53.6483 48.3359L61.43 70.1248L69.2118 48.3359L82.9835 50.3028C85.2085 50.6214 87.244 51.7316 88.7165 53.4297C90.1891 55.1277 91.0001 57.2998 91.0007 59.5475Z" fill="#425B82"/>
<path d="M91.0008 59.5475V76.3503H80.1063V91.9138H42.7539V84.5678C60.5722 77.4845 75.5657 69.9615 88.1137 52.7969C89.027 53.668 89.7538 54.7155 90.2501 55.8759C90.7464 57.0363 91.0018 58.2855 91.0008 59.5475Z" fill="#3C5174"/>
<path d="M59.875 70.123H62.9877V91.9119H59.875V70.123Z" fill="#334562"/>
<path d="M66.1016 68.5684H80.1087V71.6811H66.1016V68.5684Z" fill="#334562"/>
<path d="M53.6484 67.0117H56.7611V70.1244H53.6484V67.0117Z" fill="#334562"/>
<path d="M78.5508 63.8984H81.6635V88.8H78.5508V63.8984Z" fill="#334562"/>
<path d="M41.1992 63.8984H44.3119V88.8H41.1992V63.8984Z" fill="#334562"/>
<path d="M47.7852 49.5916L48.9775 63.8991L57.4715 59.0455L53.6466 46.7793L47.7852 49.5916Z" fill="#49648E"/>
<path d="M65.3867 59.0455L73.8807 63.8991L75.1075 49.1778L69.2116 46.7793L65.3867 59.0455Z" fill="#49648E"/>
<path d="M38.0848 90.3575H42.7538L72.3245 84.1321H80.1062L83.2189 81.0194H91.0007V70.125H83.2189L72.3245 74.794L31.8594 77.9067V84.1321C31.8594 85.7832 32.5153 87.3667 33.6828 88.5342C34.8502 89.7017 36.4337 90.3575 38.0848 90.3575Z" fill="#FEB784"/>
<path d="M84.7753 90.3575H80.1062L50.5356 84.1321H42.7538L39.6411 81.0194H31.8594V70.125H39.6411L50.5356 74.794L91.0007 77.9067V84.1321C91.0007 85.7832 90.3448 87.3667 89.1773 88.5342C88.0098 89.7017 86.4263 90.3575 84.7753 90.3575Z" fill="#FEC9A3"/>
<path d="M76.9938 20.3203H75.4375V29.6584H76.9938C78.2322 29.6584 79.4197 29.1665 80.2954 28.2909C81.171 27.4153 81.6629 26.2277 81.6629 24.9894C81.6629 23.7511 81.171 22.5635 80.2954 21.6878C79.4197 20.8122 78.2322 20.3203 76.9938 20.3203Z" fill="#FEB784"/>
<path d="M45.9422 20.3203H45.8644C44.6261 20.3203 43.4385 20.8122 42.5628 21.6878C41.6872 22.5635 41.1953 23.7511 41.1953 24.9894C41.1953 26.2277 41.6872 27.4153 42.5628 28.2909C43.4385 29.1665 44.6261 29.6584 45.8644 29.6584H47.4207V20.3203H45.9422Z" fill="#FEB784"/>
<path d="M75.4362 18.765V29.6594C75.4359 33.3742 73.96 36.9368 71.3332 39.5636C68.7065 42.1904 65.1439 43.6663 61.429 43.6666C60.943 43.6665 60.4573 43.6419 59.9738 43.5926C56.5297 43.2318 53.3412 41.6083 51.0233 39.0354C48.7055 36.4625 47.4225 33.1224 47.4219 29.6594V18.765C47.4222 15.0501 48.898 11.4875 51.5248 8.86075C54.1516 6.23397 57.7142 4.75812 61.429 4.75781C61.8181 4.75781 62.2033 4.77338 62.5846 4.8045C62.5851 4.8045 62.5856 4.80471 62.586 4.80507C62.5864 4.80544 62.5866 4.80593 62.5866 4.80645C66.089 5.09688 69.3542 6.69329 71.7345 9.27894C74.1147 11.8646 75.436 15.2505 75.4362 18.765Z" fill="#FEC9A3"/>
<path d="M75.435 18.7652V29.6596C75.4347 33.3744 73.9588 36.937 71.3321 39.5638C68.7053 42.1906 65.1427 43.6664 61.4278 43.6668C60.9418 43.6667 60.4562 43.6421 59.9727 43.5928C62.9102 42.2083 65.3934 40.0168 67.1323 37.2742C68.8712 34.5315 69.7941 31.3507 69.7932 28.1033V18.7652C69.7916 16.0324 69.1366 13.3396 67.8827 10.9115C66.6289 8.4833 64.8126 6.39016 62.5854 4.80664C66.0878 5.09707 69.353 6.69348 71.7333 9.27914C74.1135 11.8648 75.4348 15.2507 75.435 18.7652Z" fill="#FEC093"/>
<path d="M54.7756 12.7646C59.1677 13.6432 63.6903 13.6432 68.0824 12.7646L69.2108 12.5396L75.4362 19.8025V18.765C75.4362 15.05 73.9604 11.4873 71.3336 8.86041C68.7067 6.23356 65.144 4.75781 61.429 4.75781C57.7141 4.75781 54.1513 6.23356 51.5245 8.86041C48.8976 11.4873 47.4219 15.05 47.4219 18.765V19.8021L53.6473 12.5396L54.7756 12.7646Z" fill="#7A432A"/>
<path d="M60.0569 34.3272H56.7617V31.2145H60.0569C61.9509 31.2174 63.835 30.9411 65.6485 30.3945L66.5512 33.3736C64.4451 34.009 62.2568 34.3303 60.0569 34.3272Z" fill="#F7A468"/>
<path d="M68.4322 26.546C69.7215 26.546 70.7667 25.5008 70.7667 24.2115C70.7667 22.9222 69.7215 21.877 68.4322 21.877C67.1429 21.877 66.0977 22.9222 66.0977 24.2115C66.0977 25.5008 67.1429 26.546 68.4322 26.546Z" fill="#7A432A"/>
<path d="M54.4244 26.544C55.7137 26.544 56.7589 25.4988 56.7589 24.2095C56.7589 22.9202 55.7137 21.875 54.4244 21.875C53.135 21.875 52.0898 22.9202 52.0898 24.2095C52.0898 25.4988 53.135 26.544 54.4244 26.544Z" fill="#7A432A"/>
<path d="M77.3359 17.4149C77.3331 18.0993 77.1816 18.7749 76.892 19.3951C76.6023 20.0152 76.1814 20.565 75.6584 21.0064C75.1354 21.4478 74.5227 21.7704 73.8627 21.9517C73.2028 22.1331 72.5113 22.1689 71.8361 22.0567L67.5679 21.3447C63.5026 20.6684 59.3535 20.6684 55.2883 21.3447L51.02 22.0567C50.1945 22.1943 49.3474 22.1098 48.5654 21.812C47.7834 21.5141 47.0947 21.0136 46.57 20.3617C46.0452 19.7099 45.7033 18.9301 45.5794 18.1026C45.4554 17.275 45.5539 16.4293 45.8646 15.6523H76.9916C77.2176 16.2126 77.3345 16.8108 77.3359 17.4149Z" fill="#49648E"/>
<path d="M76.9942 9.42599V15.6514H45.8672V9.42599C45.8672 6.94937 46.851 4.57419 48.6023 2.82296C50.3535 1.07172 52.7287 0.087891 55.2053 0.087891H67.6561C68.6598 0.0876067 69.657 0.249207 70.6093 0.566468C70.7824 0.624831 70.9536 0.687086 71.1209 0.755176C72.8547 1.44738 74.3412 2.6436 75.3881 4.18928C76.4351 5.73497 76.9946 7.55909 76.9942 9.42599Z" fill="#425B82"/>
<path d="M76.9931 9.42667V15.6521H50.5352C59.8733 12.5394 66.408 7.08631 71.1198 0.755859C72.8537 1.44807 74.3401 2.64429 75.3871 4.18997C76.4341 5.73565 76.9935 7.55977 76.9931 9.42667Z" fill="#3C5174"/>
<path d="M55.2031 9.42578H67.6539V15.6512H55.2031V9.42578Z" fill="#E0E0DE"/>
<path d="M55.2031 12.5391H67.6539V15.6518H55.2031V12.5391Z" fill="#D6D6D4"/>
<path d="M77.3343 17.4149C77.3315 18.0993 77.18 18.7749 76.8903 19.3951C76.6007 20.0152 76.1798 20.565 75.6568 21.0064C75.1338 21.4478 74.5211 21.7704 73.8611 21.9517C73.2012 22.1331 72.5097 22.1689 71.8345 22.0567L67.5663 21.3447C66.2446 21.1245 64.9119 20.9757 63.5742 20.8992C66.8503 19.5199 69.5389 17.8059 71.5135 15.6523H76.99C77.216 16.2126 77.3329 16.8108 77.3343 17.4149Z" fill="#425B82"/>
</svg>
