<svg class="nose" width="41" height="46" viewBox="0 0 41 46" fill="none" xmlns="http://www.w3.org/2000/svg">
<path d="M31.6818 20.6391V11.2577H27.9545V24.3916H31.6818C33.1646 24.3916 34.5867 24.9846 35.6352 26.0403C36.6837 27.0959 37.2727 28.5276 37.2727 30.0204C37.2727 31.5133 36.6837 32.945 35.6352 34.0006C34.5867 35.0562 33.1646 35.6493 31.6818 35.6493H29.8182V31.8967H26.0909V35.6493C26.0909 37.1421 25.5019 38.5738 24.4534 39.6295C23.4049 40.6851 21.9828 41.2781 20.5 41.2781C19.0172 41.2781 17.5951 40.6851 16.5466 39.6295C15.4981 38.5738 14.9091 37.1421 14.9091 35.6493V31.8967H11.1818V35.6493H9.31818C7.83538 35.6493 6.41331 35.0562 5.36481 34.0006C4.31631 32.945 3.72727 31.5133 3.72727 30.0204C3.72727 28.5276 4.31631 27.0959 5.36481 26.0403C6.41331 24.9846 7.83538 24.3916 9.31818 24.3916H13.0455V9.38139C13.0455 7.88853 13.6345 6.45681 14.683 5.4012C15.7315 4.34559 17.1536 3.75256 18.6364 3.75256H20.5V0H18.6364C16.165 0 13.7949 0.988393 12.0474 2.74774C10.2999 4.5071 9.31818 6.89329 9.31818 9.38139V20.6391C6.84685 20.6391 4.47673 21.6274 2.72923 23.3868C0.981734 25.1462 0 27.5323 0 30.0204C0 32.5085 0.981734 34.8947 2.72923 36.6541C4.47673 38.4134 6.84685 39.4018 9.31818 39.4018H11.9645C12.6911 41.072 13.8854 42.4928 15.4012 43.4906C16.9171 44.4883 18.6889 45.0196 20.5 45.0196C22.3111 45.0196 24.0829 44.4883 25.5988 43.4906C27.1146 42.4928 28.3089 41.072 29.0355 39.4018H31.6818C34.1532 39.4018 36.5233 38.4134 38.2708 36.6541C40.0183 34.8947 41 32.5085 41 30.0204C41 27.5323 40.0183 25.1462 38.2708 23.3868C36.5233 21.6274 34.1532 20.6391 31.6818 20.6391Z" fill="white"/>
</svg>
