<svg width="64" height="47" viewBox="0 0 64 47" fill="none" xmlns="http://www.w3.org/2000/svg">
<path d="M27.3144 5.87501V4.89584H26.3447H18.8296V0.979172H39.5164V4.89584H32.0013H31.0316V5.87501V11.75V12.7292H32.0013H48.0013V23.5V24.4792H48.971H54.6275H55.5972V23.5V15.6667H62.1427V43.0833H55.5972V35.25V34.2708H54.6275H48.971H48.0013V35.25V46.0208H26.7544L21.3834 40.4424L21.0978 40.1458H20.6881H13.173V32.3125V31.3333H12.2033H6.54673H5.57703V32.3125V40.1458H1.85986V18.6042H5.57703V26.4375V27.4167H6.54673H12.2033H13.173V26.4375V18.0225L18.2696 12.7292H26.3447H27.3144V11.75V5.87501Z" stroke="#F05C26" stroke-width="3"/>
</svg>
