<svg width="95" height="95" viewBox="0 0 95 95" fill="none" xmlns="http://www.w3.org/2000/svg">
<path d="M47.5 92.125C72.1457 92.125 92.125 72.1457 92.125 47.5C92.125 22.8543 72.1457 2.875 47.5 2.875C22.8543 2.875 2.875 22.8543 2.875 47.5C2.875 72.1457 22.8543 92.125 47.5 92.125Z" stroke="#F05C26" stroke-width="5" stroke-linecap="round" stroke-linejoin="round"/>
<path d="M47.5006 57.4173C52.9775 57.4173 57.4173 52.9775 57.4173 47.5006C57.4173 42.0238 52.9775 37.584 47.5006 37.584C42.0238 37.584 37.584 42.0238 37.584 47.5006C37.584 52.9775 42.0238 57.4173 47.5006 57.4173Z" stroke="#F05C26" stroke-width="5" stroke-linecap="round" stroke-linejoin="round"/>
<path d="M47.5 57.416V92.1244" stroke="#F05C26" stroke-width="5" stroke-linecap="round" stroke-linejoin="round"/>
<path d="M37.584 47.5007L4.11523 37.584" stroke="#F05C26" stroke-width="5" stroke-linecap="round" stroke-linejoin="round"/>
<path d="M57.416 47.5007L90.8848 37.584" stroke="#F05C26" stroke-width="5" stroke-linecap="round" stroke-linejoin="round"/>
</svg>
