<svg width="10" height="13" viewBox="0 0 10 13" fill="none" xmlns="http://www.w3.org/2000/svg">
<path d="M8.59867 2.20282H6.68924C6.59399 1.37687 5.89125 0.733154 5.04015 0.733154C4.18907 0.733154 3.48644 1.37685 3.39119 2.20282H1.48165C0.708911 2.20282 0.0803223 2.83159 0.0803223 3.6043V3.67621C0.0803223 4.2667 0.448001 4.77212 0.965955 4.97806V11.5985C0.965955 12.3713 1.59462 13 2.36731 13H7.71304C8.48575 13 9.11437 12.3712 9.11437 11.5985V4.97808C9.63229 4.77212 10 4.2667 10 3.67623V3.60432C10 2.83159 9.37136 2.20282 8.59867 2.20282ZM5.04015 1.3978C5.52421 1.3978 5.92825 1.74475 6.01765 2.20282H4.06282C4.1522 1.74473 4.55627 1.3978 5.04015 1.3978ZM8.44972 11.5985C8.44972 12.0048 8.11917 12.3354 7.71302 12.3354H2.36728C1.96113 12.3354 1.63057 12.0048 1.63057 11.5985V5.07768H8.44972V11.5985ZM9.33535 3.67621C9.33535 4.08248 9.0048 4.41306 8.59865 4.41306H1.48165C1.0755 4.41306 0.744941 4.08248 0.744941 3.67621V3.6043C0.744941 3.19802 1.0755 2.86744 1.48165 2.86744H8.59867C9.00482 2.86744 9.33538 3.19802 9.33538 3.6043V3.67621H9.33535Z" fill="black"/>
<path d="M3.25858 11.4854C3.44211 11.4854 3.59089 11.3366 3.59089 11.1531V7.41139C3.59089 7.22791 3.44209 7.07906 3.25858 7.07906C3.07507 7.07906 2.92627 7.22791 2.92627 7.41139V11.1531C2.92624 11.3366 3.07504 11.4854 3.25858 11.4854Z" fill="black"/>
<path d="M5.04032 11.4854C5.22385 11.4854 5.37265 11.3366 5.37265 11.1531V7.41139C5.37265 7.22791 5.2238 7.07906 5.04032 7.07906C4.85681 7.07906 4.70801 7.22791 4.70801 7.41139V11.1531C4.70801 11.3366 4.85678 11.4854 5.04032 11.4854Z" fill="black"/>
<path d="M6.82184 11.4854C7.00535 11.4854 7.15412 11.3366 7.15412 11.1531V7.41139C7.15412 7.22791 7.00532 7.07906 6.82184 7.07906C6.63828 7.07906 6.4895 7.22791 6.4895 7.41139V11.1531C6.48948 11.3366 6.63833 11.4854 6.82184 11.4854Z" fill="black"/>
</svg>
