<svg width="17" height="16" viewBox="0 0 17 16" fill="none" xmlns="http://www.w3.org/2000/svg">
<path d="M16.7486 6.50201L8.96985 0.94898C8.81985 0.841917 8.61607 0.841917 8.46613 0.94898L0.687355 6.50201C0.497355 6.63767 0.456073 6.8978 0.595208 7.08305C0.734342 7.2683 1.00117 7.30848 1.19114 7.17289L8.71796 1.79964L16.2448 7.17286C16.3207 7.22708 16.4089 7.25317 16.4963 7.25317C16.6276 7.25317 16.7572 7.19426 16.8407 7.08301C16.9798 6.8978 16.9386 6.63767 16.7486 6.50201Z" fill="#F05C26"/>
<path d="M14.6874 7.26697C14.4519 7.26697 14.261 7.45309 14.261 7.68269V14.2998H10.85V10.6878C10.85 9.54153 9.89354 8.60903 8.71796 8.60903C7.54238 8.60903 6.5859 9.54159 6.5859 10.6878V14.2999H3.1749V7.68272C3.1749 7.45312 2.98397 7.267 2.74852 7.267C2.51307 7.267 2.32214 7.45312 2.32214 7.68272V14.7156C2.32214 14.9452 2.51307 15.1313 2.74852 15.1313H7.01228C7.23651 15.1313 7.42001 14.9624 7.43699 14.748C7.43802 14.7383 7.43866 14.7277 7.43866 14.7156V10.6878C7.43866 10 8.01254 9.4405 8.71796 9.4405C9.42337 9.4405 9.99725 10.0001 9.99725 10.6878V14.7156C9.99725 14.7276 9.9979 14.738 9.99892 14.7476C10.0157 14.9622 10.1993 15.1313 10.4236 15.1313H14.6874C14.9229 15.1313 15.1138 14.9452 15.1138 14.7156V7.68272C15.1137 7.45309 14.9228 7.26697 14.6874 7.26697Z" fill="#F05C26"/>
</svg>
