<svg width="58" height="51" viewBox="0 0 58 51" fill="none" xmlns="http://www.w3.org/2000/svg">
<path d="M55.8822 0.430603H2.11783C0.950058 0.430603 0 1.38066 0 2.54843V48.0565C0 49.2243 0.950058 50.1743 2.11783 50.1743H55.8822C57.0499 50.1743 58 49.2243 58 48.0565V2.54843C58 1.38066 57.0499 0.430603 55.8822 0.430603ZM54.6016 3.82904V30.7227L43.9133 20.034C43.2164 19.3384 42.0831 19.3388 41.3866 20.0353L26.2702 35.1517L16.6143 25.4963C16.2767 25.1582 15.8275 24.9719 15.3496 24.9719C14.8721 24.9719 14.4234 25.1578 14.0858 25.4954L3.39844 36.1828V3.82904H54.6016ZM3.39844 46.7759V40.9888L15.3496 29.0377L25.0051 38.6931C25.3431 39.0312 25.7923 39.2179 26.2702 39.2179C26.7472 39.2179 27.1964 39.0316 27.5335 38.694L42.6504 23.5771L54.602 35.5288V46.7759H3.39844Z" fill="#E0E0E0"/>
</svg>
