<svg width="66" height="66" viewBox="0 0 66 66" fill="none" xmlns="http://www.w3.org/2000/svg">
<path d="M15.4082 52.8655C13.1007 52.8655 11.2241 54.7421 11.2241 57.0497C11.2241 59.3572 13.1007 61.2338 15.4082 61.2338C17.7158 61.2338 19.5924 59.3572 19.5924 57.0497C19.5924 54.7421 17.7158 52.8655 15.4082 52.8655ZM15.4082 59.1417C14.2544 59.1417 13.3161 58.2034 13.3161 57.0497C13.3161 55.8959 14.2544 54.9576 15.4082 54.9576C16.562 54.9576 17.5003 55.8959 17.5003 57.0497C17.5003 58.2034 16.562 59.1417 15.4082 59.1417Z" fill="white"/>
<path d="M50.9736 52.8655C48.666 52.8655 46.7894 54.7421 46.7894 57.0497C46.7894 59.3572 48.666 61.2338 50.9736 61.2338C53.2812 61.2338 55.1578 59.3572 55.1578 57.0497C55.1578 54.7421 53.2812 52.8655 50.9736 52.8655ZM50.9736 59.1417C49.8198 59.1417 48.8815 58.2034 48.8815 57.0497C48.8815 55.8959 49.8198 54.9576 50.9736 54.9576C52.1274 54.9576 53.0657 55.8959 53.0657 57.0497C53.0657 58.2034 52.1274 59.1417 50.9736 59.1417Z" fill="white"/>
<path d="M37.3751 13.1161C36.2213 13.1161 35.283 12.1778 35.283 11.0241C35.283 9.87027 36.2213 8.93197 37.3751 8.93197C38.5289 8.93197 39.4672 9.87027 39.4672 11.0241H41.5593C41.5593 9.08051 40.2214 7.45601 38.4211 6.98843V4.7478H36.3291V6.98843C34.5288 7.45601 33.1909 9.08051 33.1909 11.0241C33.1909 13.3316 35.0675 15.2082 37.3751 15.2082C38.5289 15.2082 39.4672 16.1465 39.4672 17.3003C39.4672 18.4541 38.5289 19.3924 37.3751 19.3924C36.2213 19.3924 35.283 18.4541 35.283 17.3003H33.1909C33.1909 19.2439 34.5288 20.8684 36.3291 21.3359V23.5766H38.4211V21.3359C40.2214 20.8684 41.5593 19.2439 41.5593 17.3003C41.5593 14.9927 39.6827 13.1161 37.3751 13.1161Z" fill="white"/>
<path d="M61.2468 39.7452L58.798 39.3372C55.7687 33.1227 50.347 28.3433 43.8846 26.0828C44.3501 25.8266 44.8083 25.5515 45.2466 25.2387L44.0331 23.5347C42.0718 24.9301 39.7705 25.6686 37.3751 25.6686C31.0309 25.6686 25.8686 20.5064 25.8686 14.1622C25.8686 7.81792 31.0309 2.65571 37.3751 2.65571C43.7193 2.65571 48.8815 7.81792 48.8815 14.1622C48.8815 16.5566 48.143 18.8589 46.7466 20.8213L48.4506 22.0347C50.1012 19.7166 50.9736 16.9938 50.9736 14.1622C50.9736 6.66414 44.8731 0.563629 37.3751 0.563629C29.8771 0.563629 23.7766 6.66414 23.7766 14.1622C23.7766 18.7501 26.0663 22.8066 29.557 25.2701C22.6688 26.8172 16.6175 31.1289 12.9155 37.2305L6.7763 38.3466C4.39865 38.7797 2.48962 40.3404 1.50216 42.4053H1.35049L1.15488 43.2034C1.14755 43.2348 1.14546 43.2672 1.13814 43.2986C0.905918 44.013 0.763657 44.7662 0.763657 45.5507V46.4597V49.7276V60.188H7.65602C8.90081 63.2508 11.904 65.4182 15.4082 65.4182C18.9125 65.4182 21.9157 63.2508 23.1604 60.188H43.2214C44.4662 63.2508 47.4694 65.4182 50.9736 65.4182C54.4779 65.4182 57.481 63.2508 58.7258 60.188H65.6182V44.9043C65.6182 42.3373 63.7803 40.1678 61.2468 39.7452ZM2.85574 46.4597C2.85574 45.8028 2.91222 45.1459 3.02206 44.4974H3.90178C4.47919 44.4974 4.94782 44.967 4.94782 45.5434V46.5894C4.94782 47.1658 4.47919 47.6355 3.90178 47.6355H2.85574V46.4597ZM7.0399 57.0498C7.0399 57.4045 7.06919 57.7528 7.11208 58.0959H2.85574V53.9117H7.65602C7.26166 54.8814 7.0399 55.94 7.0399 57.0498ZM15.4082 63.3261C11.9469 63.3261 9.13198 60.5112 9.13198 57.0498C9.13198 53.5885 11.9469 50.7736 15.4082 50.7736C18.8696 50.7736 21.6845 53.5885 21.6845 57.0498C21.6845 60.5112 18.8696 63.3261 15.4082 63.3261ZM50.9736 63.3261C47.5123 63.3261 44.6974 60.5112 44.6974 57.0498C44.6974 53.5885 47.5123 50.7736 50.9736 50.7736C54.435 50.7736 57.2499 53.5885 57.2499 57.0498C57.2499 60.5112 54.435 63.3261 50.9736 63.3261ZM63.5261 58.0959H59.2698C59.3127 57.7528 59.342 57.4045 59.342 57.0498C59.342 55.94 59.1202 54.8814 58.7258 53.9117H63.5261V58.0959ZM63.5261 51.8196H57.4957C55.9601 49.9096 53.6096 48.6815 50.9736 48.6815C48.3376 48.6815 45.9861 49.9096 44.4516 51.8196H39.4672V53.9117H43.2214C42.8271 54.8814 42.6053 55.94 42.6053 57.0498C42.6053 57.4045 42.6346 57.7528 42.6775 58.0959H23.7044C23.7473 57.7528 23.7766 57.4045 23.7766 57.0498C23.7766 55.94 23.5548 54.8814 23.1604 53.9117H37.3751V51.8196H21.9303C20.3947 49.9096 18.0443 48.6815 15.4082 48.6815C12.7722 48.6815 10.4207 49.9096 8.88616 51.8196H2.85574V49.7276H3.90178C5.63193 49.7276 7.0399 48.3196 7.0399 46.5894V45.5434C7.0399 43.8206 5.64448 42.4199 3.92479 42.4074C4.69363 41.3906 5.81813 40.6479 7.15078 40.4052L13.3873 39.2713L14.1268 39.3058L14.4459 38.7556C18.266 32.1447 25.0465 27.722 32.6093 26.882C34.0947 27.4406 35.6962 27.7607 37.3751 27.7607C38.5111 27.7607 39.6272 27.6143 40.7088 27.3391C47.9129 29.0023 54.049 33.993 57.1505 40.74L57.4162 41.3184L58.0511 41.3488L60.9037 41.808C62.4225 42.0611 63.5261 43.3634 63.5261 44.9043V51.8196Z" fill="white"/>
<path d="M52.8712 37.7514C48.8837 32.1509 42.4003 28.8067 35.5278 28.8067C28.2882 28.8067 21.6113 32.4354 17.6687 38.5129L17.5003 38.7733V43.4512H53.0657V38.0233L52.8712 37.7514ZM23.7766 41.3592H19.5924V39.3968C19.6227 39.3528 19.6552 39.311 19.6855 39.2671H22.7305C23.3079 39.2671 23.7766 39.7367 23.7766 40.3131V41.3592ZM38.4212 41.3592H25.8687V40.3131C25.8687 38.583 24.4607 37.175 22.7305 37.175H21.3414C24.9471 33.2042 30.057 30.8988 35.5278 30.8988C36.5038 30.8988 37.4693 30.9814 38.4212 31.1278V41.3592ZM50.9737 41.3592H40.5132V31.5682C44.6598 32.6875 48.3732 35.175 50.9737 38.697V41.3592Z" fill="white"/>
<path d="M30.0529 13.1163H27.9608V15.2084H30.0529V13.1163Z" fill="white"/>
<path d="M46.7894 13.1163H44.6973V15.2084H46.7894V13.1163Z" fill="white"/>
</svg>
