<svg width="87" height="86" viewBox="0 0 87 86" fill="none" xmlns="http://www.w3.org/2000/svg">
<path d="M69.3136 6.48056V7.39824L47.264 0.435429C45.9643 0.0234178 44.5901 -0.0982179 43.2383 0.0791127C41.8865 0.256443 40.5901 0.728415 39.4407 1.46169L30.3155 7.26868C29.1954 7.97801 28.2401 8.9191 27.5142 10.0286C26.7883 11.1381 26.3085 12.3902 26.1071 13.7007H5.77613C5.39315 13.7007 5.02585 13.8529 4.75504 14.1237C4.48424 14.3945 4.3321 14.7618 4.33209 15.1448V46.9135C4.3321 47.2965 4.48424 47.6638 4.75504 47.9346C5.02585 48.2054 5.39315 48.3575 5.77613 48.3575H66.4256C66.8085 48.3575 67.1758 48.2054 67.4466 47.9346C67.7174 47.6638 67.8696 47.2965 67.8696 46.9135V31.4915C68.0639 31.3452 68.2547 31.1921 68.4399 31.0291H69.3136V33.9172C69.3136 34.3002 69.4658 34.6675 69.7366 34.9383C70.0074 35.2091 70.3747 35.3612 70.7577 35.3612H86.642V32.4732H72.2017V7.92459H86.642V5.03652H70.7577C70.3747 5.03653 70.0074 5.18867 69.7366 5.45948C69.4658 5.73029 69.3136 6.09758 69.3136 6.48056ZM46.5589 38.2493C47.1326 38.249 47.7045 38.184 48.2636 38.0555C46.3554 40.094 45.1571 42.6945 44.8472 45.4695H37.5449V16.5888H38.6383C39.5644 16.5888 40.4697 16.8634 41.2397 17.378C42.0098 17.8925 42.6099 18.6238 42.9643 19.4794C43.3187 20.335 43.4114 21.2765 43.2307 22.1848C43.05 23.0931 42.604 23.9275 41.9491 24.5823L41.2057 25.3255C40.1469 26.3842 39.4258 27.7332 39.1337 29.2017C38.8416 30.6703 38.9915 32.1925 39.5645 33.5759C40.1375 34.9592 41.1078 36.1416 42.3528 36.9735C43.5978 37.8053 45.0616 38.2493 46.5589 38.2493ZM56.3173 33.9994C55.2503 34.1176 54.2023 34.3686 53.1975 34.7465L56.3173 31.6269V33.9994ZM56.3173 36.9101V45.4695H47.7579C48.0729 43.3114 49.0761 41.3126 50.6183 39.7705C52.1605 38.2283 54.1592 37.2251 56.3173 36.9101ZM34.6568 45.4695H28.8807V16.5888H34.6568V45.4695ZM25.9926 45.4695H18.6903C18.3586 42.5417 17.0435 39.8131 14.9601 37.7296C12.8766 35.6461 10.1479 34.331 7.22016 33.9994V28.0589C10.1479 27.7273 12.8766 26.4122 14.9601 24.3287C17.0435 22.2452 18.3586 19.5166 18.6903 16.5888H25.9926V45.4695ZM15.7796 16.5888C15.4645 18.7469 14.4613 20.7456 12.9192 22.2878C11.377 23.83 9.37824 24.8332 7.22016 25.1482V16.5888H15.7796ZM7.22016 36.9101C9.37824 37.2251 11.377 38.2283 12.9192 39.7705C14.4613 41.3126 15.4645 43.3114 15.7796 45.4695H7.22016V36.9101ZM64.9815 45.4695H59.2054V32.9745C61.0859 33.5624 63.101 33.5624 64.9815 32.9744V45.4695ZM67.8693 28.1413C67.4864 28.1412 67.1191 28.2934 66.8484 28.5641C65.5862 29.8233 63.876 30.5305 62.0932 30.5305C60.3103 30.5304 58.6002 29.8232 57.338 28.564C57.0672 28.2933 56.6999 28.1412 56.317 28.1412C55.934 28.1412 55.5668 28.2933 55.2959 28.564L49.8698 33.9898C49.4351 34.4252 48.9188 34.7705 48.3506 35.0063C47.7824 35.242 47.1732 35.3634 46.558 35.3637C45.9428 35.3639 45.3336 35.2429 44.7652 35.0075C44.1968 34.7722 43.6803 34.4272 43.2453 33.9922C42.8103 33.5572 42.4653 33.0407 42.23 32.4723C41.9947 31.9039 41.8737 31.2947 41.8739 30.6795C41.8741 30.0643 41.9956 29.4551 42.2313 28.8869C42.4671 28.3187 42.8125 27.8025 43.2478 27.3678L43.9911 26.6246H43.9912C45.05 25.5659 45.7711 24.2169 46.0632 22.7484C46.3554 21.2798 46.2055 19.7576 45.6325 18.3743C45.0595 16.9909 44.0892 15.8086 42.8443 14.9767C41.5993 14.1448 40.1356 13.7007 38.6383 13.7007H29.0415C29.4181 12.048 30.4336 10.6115 31.8661 9.70513L40.9912 3.89815C41.785 3.39175 42.6804 3.06581 43.614 2.94337C44.5476 2.82093 45.4967 2.90496 46.3943 3.18953L69.3136 10.427V28.1413H67.8693Z" fill="white"/>
<path d="M8.6642 84.4584V83.0144H12.9963C13.3793 83.0144 13.7466 82.8622 14.0174 82.5914C14.2882 82.3206 14.4403 81.9533 14.4403 81.5703V80.0443L14.5769 80.1418C20.5341 84.397 27.8077 86.4009 35.1037 85.7971C42.3996 85.1932 49.2448 82.0209 54.4215 76.8443L65.2806 65.9851C66.4356 64.8304 67.1174 63.2858 67.1923 61.6543C67.2673 60.0228 66.7298 58.4222 65.6855 57.1665C64.6412 55.9108 63.1654 55.0906 61.5476 54.8668C59.9298 54.6431 58.2868 55.0319 56.9409 55.9571C56.5517 55.1173 55.9575 54.389 55.2129 53.8392C54.4683 53.2895 53.5974 52.936 52.6803 52.8112C51.7631 52.6865 50.8294 52.7947 49.9651 53.1256C49.1007 53.4566 48.3336 53.9998 47.7344 54.7052C46.9801 54.2534 46.1305 53.9845 45.2536 53.9201C44.3768 53.8557 43.497 53.9976 42.6849 54.3344C41.8727 54.6711 41.1507 55.1935 40.5767 55.8595C40.0027 56.5255 39.5927 57.3167 39.3795 58.1696L37.8614 64.2419H29.4789L28.4577 63.2208C26.6505 61.4141 24.2998 60.2512 21.7672 59.9109C19.2346 59.5706 16.6604 60.0717 14.4403 61.3372V59.9098C14.4403 59.5268 14.2882 59.1595 14.0174 58.8887C13.7466 58.6179 13.3793 58.4658 12.9963 58.4658H8.6642C8.6642 58.0828 8.51206 57.7155 8.24125 57.4447C7.97044 57.1739 7.60315 57.0218 7.22017 57.0218H0V59.9098H5.77614V83.0144H0V85.9024H7.22017C7.60315 85.9024 7.97044 85.7503 8.24125 85.4795C8.51206 85.2087 8.6642 84.8414 8.6642 84.4584ZM51.3006 55.7272C51.6798 55.6324 52.0755 55.6234 52.4586 55.7008C52.8418 55.7782 53.2029 55.9402 53.5156 56.1748C53.8283 56.4094 54.0847 56.7109 54.2661 57.0571C54.4476 57.4034 54.5495 57.7858 54.5644 58.1764L44.4881 68.2527C44.3202 67.7305 44.0785 67.235 43.7703 66.7812L49.684 56.9252C49.8609 56.6285 50.0948 56.3699 50.3723 56.1643C50.6498 55.9587 50.9653 55.8101 51.3006 55.7272ZM42.1813 58.8702C42.273 58.5035 42.4394 58.1598 42.6702 57.8605C42.901 57.5612 43.1911 57.3129 43.5224 57.131C43.8537 56.9492 44.219 56.8378 44.5954 56.8038C44.9717 56.7698 45.3511 56.8139 45.7096 56.9334C45.8742 56.9886 46.0331 57.0592 46.1845 57.1442L41.5617 64.8487C41.3056 64.7207 41.0403 64.612 40.768 64.5235L42.1813 58.8702ZM20.2165 62.6951C21.3682 62.692 22.5092 62.9174 23.5733 63.3581C24.6373 63.7989 25.6034 64.4464 26.4156 65.2631L27.8596 66.7071C28.1304 66.9779 28.4977 67.13 28.8807 67.13H38.9889C39.7549 67.13 40.4895 67.4343 41.0311 67.9759C41.5727 68.5175 41.877 69.2521 41.877 70.0181C41.877 70.784 41.5727 71.5186 41.0311 72.0602C40.4895 72.6019 39.7549 72.9061 38.9889 72.9061H25.9926V75.7942H38.9889C40.0333 75.7934 41.058 75.5097 41.9541 74.9731C42.8502 74.4366 43.5842 73.6674 44.0781 72.7471L58.0604 58.7649C58.7472 58.079 59.6782 57.6938 60.6489 57.694C61.6196 57.6943 62.5504 58.08 63.2368 58.7664C63.9232 59.4527 64.3089 60.3836 64.3092 61.3542C64.3095 62.3249 63.9244 63.256 63.2385 63.9428L52.3794 74.802C47.6861 79.4952 41.4801 82.3714 34.8655 82.9188C28.2509 83.4663 21.6565 81.6495 16.2555 77.7917L14.4403 76.4951V64.8696C16.0353 63.4633 18.0901 62.6898 20.2165 62.6951ZM11.5523 61.3539V80.1263H8.6642V61.3539H11.5523Z" fill="white"/>
</svg>
