<svg width="87" height="87" viewBox="0 0 87 87" fill="none" xmlns="http://www.w3.org/2000/svg">
<path d="M19.6452 70.1611C16.5496 70.1611 14.0322 72.6784 14.0322 75.774C14.0322 78.8695 16.5496 81.3869 19.6452 81.3869C22.7407 81.3869 25.2581 78.8695 25.2581 75.774C25.2581 72.6784 22.7407 70.1611 19.6452 70.1611ZM19.6452 78.5804C18.0974 78.5804 16.8387 77.3217 16.8387 75.774C16.8387 74.2262 18.0974 72.9675 19.6452 72.9675C21.1929 72.9675 22.4516 74.2262 22.4516 75.774C22.4516 77.3217 21.1929 78.5804 19.6452 78.5804Z" fill="white"/>
<path d="M67.3548 70.1611C64.2593 70.1611 61.7419 72.6784 61.7419 75.774C61.7419 78.8695 64.2593 81.3869 67.3548 81.3869C70.4503 81.3869 72.9677 78.8695 72.9677 75.774C72.9677 72.6784 70.4503 70.1611 67.3548 70.1611ZM67.3548 78.5804C65.807 78.5804 64.5483 77.3217 64.5483 75.774C64.5483 74.2262 65.807 72.9675 67.3548 72.9675C68.9025 72.9675 70.1612 74.2262 70.1612 75.774C70.1612 77.3217 68.9025 78.5804 67.3548 78.5804Z" fill="white"/>
<path d="M49.1129 16.8388C47.5651 16.8388 46.3065 15.5801 46.3065 14.0324C46.3065 12.4846 47.5651 11.2259 49.1129 11.2259C50.6607 11.2259 51.9194 12.4846 51.9194 14.0324H54.7258C54.7258 11.4252 52.9311 9.24596 50.5161 8.61872V5.61301H47.7097V8.61872C45.2947 9.24596 43.5 11.4252 43.5 14.0324C43.5 17.1279 46.0174 19.6453 49.1129 19.6453C50.6607 19.6453 51.9194 20.904 51.9194 22.4517C51.9194 23.9995 50.6607 25.2582 49.1129 25.2582C47.5651 25.2582 46.3065 23.9995 46.3065 22.4517H43.5C43.5 25.0589 45.2947 27.2381 47.7097 27.8654V30.8711H50.5161V27.8654C52.9311 27.2381 54.7258 25.0589 54.7258 22.4517C54.7258 19.3562 52.2084 16.8388 49.1129 16.8388Z" fill="white"/>
<path d="M81.1359 52.5606L77.851 52.0134C73.7872 43.6768 66.5143 37.2655 57.8452 34.2331C58.4696 33.8893 59.0842 33.5203 59.6722 33.1007L58.0444 30.8148C55.4134 32.6867 52.3263 33.6774 49.1129 33.6774C40.6023 33.6774 33.6774 26.7525 33.6774 18.2419C33.6774 9.73137 40.6023 2.80645 49.1129 2.80645C57.6235 2.80645 64.5484 9.73137 64.5484 18.2419C64.5484 21.4539 63.5577 24.5424 61.6844 27.1749L63.9703 28.8026C66.1845 25.6931 67.3548 22.0405 67.3548 18.2419C67.3548 8.18361 59.1712 0 49.1129 0C39.0546 0 30.871 8.18361 30.871 18.2419C30.871 24.3965 33.9426 29.8382 38.6252 33.1428C29.385 35.2182 21.2673 41.0023 16.3013 49.1873L8.06574 50.6845C4.87621 51.2654 2.31532 53.3591 0.990677 56.129H0.78721L0.524806 57.1997C0.514984 57.2418 0.512177 57.2853 0.502355 57.3274C0.190839 58.2858 0 59.2961 0 60.3485V61.5679V65.9516V79.9839H9.24586C10.9157 84.0925 14.9444 87 19.6452 87C24.346 87 28.3746 84.0925 30.0445 79.9839H56.9555C58.6254 84.0925 62.654 87 67.3548 87C72.0556 87 76.0843 84.0925 77.7541 79.9839H87V59.4813C87 56.0378 84.5345 53.1275 81.1359 52.5606ZM2.80645 61.5679C2.80645 60.6867 2.88223 59.8055 3.02956 58.9355H4.20968C4.98426 58.9355 5.6129 59.5655 5.6129 60.3387V61.7419C5.6129 62.5151 4.98426 63.1452 4.20968 63.1452H2.80645V61.5679ZM8.41935 75.7742C8.41935 76.2499 8.45864 76.7172 8.51618 77.1774H2.80645V71.5645H9.24586C8.71684 72.8653 8.41935 74.2854 8.41935 75.7742ZM19.6452 84.1936C15.0019 84.1936 11.2258 80.4175 11.2258 75.7742C11.2258 71.1309 15.0019 67.3548 19.6452 67.3548C24.2884 67.3548 28.0645 71.1309 28.0645 75.7742C28.0645 80.4175 24.2884 84.1936 19.6452 84.1936ZM67.3548 84.1936C62.7116 84.1936 58.9355 80.4175 58.9355 75.7742C58.9355 71.1309 62.7116 67.3548 67.3548 67.3548C71.9981 67.3548 75.7742 71.1309 75.7742 75.7742C75.7742 80.4175 71.9981 84.1936 67.3548 84.1936ZM84.1936 77.1774H78.4838C78.5414 76.7172 78.5806 76.2499 78.5806 75.7742C78.5806 74.2854 78.2832 72.8653 77.7541 71.5645H84.1936V77.1774ZM84.1936 68.7581H76.104C74.044 66.1958 70.891 64.5484 67.3548 64.5484C63.8187 64.5484 60.6643 66.1958 58.6057 68.7581H51.9194V71.5645H56.9555C56.4265 72.8653 56.129 74.2854 56.129 75.7742C56.129 76.2499 56.1683 76.7172 56.2259 77.1774H30.7741C30.8317 76.7172 30.871 76.2499 30.871 75.7742C30.871 74.2854 30.5735 72.8653 30.0445 71.5645H49.1129V68.7581H28.3943C26.3343 66.1958 23.1813 64.5484 19.6452 64.5484C16.109 64.5484 12.9546 66.1958 10.896 68.7581H2.80645V65.9516H4.20968C6.53061 65.9516 8.41935 64.0629 8.41935 61.7419V60.3387C8.41935 58.0276 6.54745 56.1487 4.24055 56.1318C5.27192 54.7679 6.78039 53.7716 8.5681 53.4461L16.9341 51.925L17.9262 51.9713L18.3542 51.2332C23.4788 42.3648 32.5745 36.4319 42.7198 35.3052C44.7124 36.0545 46.8607 36.4839 49.1129 36.4839C50.6368 36.4839 52.134 36.2874 53.585 35.9184C63.249 38.1495 71.4803 44.8443 75.6409 53.8951L75.9973 54.6711L76.8491 54.7118L80.6757 55.3278C82.7131 55.6674 84.1936 57.4144 84.1936 59.4813V68.7581Z" fill="white"/>
<path d="M69.9003 49.886C64.5512 42.3731 55.854 37.887 46.6348 37.887C36.9231 37.887 27.9663 42.7548 22.6775 50.9075L22.4516 51.2569V57.5322H70.1613V50.2508L69.9003 49.886ZM30.871 54.7257H25.2581V52.0933C25.2988 52.0343 25.3423 51.9782 25.383 51.9193H29.4678C30.2423 51.9193 30.871 52.5493 30.871 53.3225V54.7257ZM50.5162 54.7257H33.6774V53.3225C33.6774 51.0016 31.7887 49.1128 29.4678 49.1128H27.6043C32.4412 43.7862 39.296 40.6935 46.6348 40.6935C47.944 40.6935 49.2392 40.8043 50.5162 41.0008V54.7257ZM67.3549 54.7257H53.3226V41.5915C58.885 43.093 63.8665 46.4299 67.3549 51.1545V54.7257Z" fill="white"/>
<path d="M39.2904 16.839H36.4839V19.6454H39.2904V16.839Z" fill="white"/>
<path d="M61.7418 16.839H58.9354V19.6454H61.7418V16.839Z" fill="white"/>
</svg>
