<svg width="61" height="90" viewBox="0 0 61 90" fill="none" xmlns="http://www.w3.org/2000/svg">
<path d="M59.674 72.9216C58.9419 72.9216 58.3483 73.5119 58.3483 74.24V86.635C58.3483 87.0363 58.0199 87.3629 57.6164 87.3629H50.4901V61.4006C50.4901 60.6725 49.8966 60.0822 49.1644 60.0822C48.4323 60.0822 47.8388 60.6725 47.8388 61.4006V87.3631H33.4889L37.6502 82.8104C38.1048 82.3129 38.3192 81.6043 38.2236 80.9142C38.2218 80.9009 38.2197 80.8875 38.2174 80.8741L34.254 57.5889L35.3218 55.9904C35.9122 56.4073 36.367 56.8088 37.2198 56.8088C38.0873 56.8088 38.8985 56.3259 39.2976 55.5311V55.5309L43.4779 47.1988L53.0007 50.8665C53.3452 51.0135 58.348 53.254 58.348 59.1701V68.0875C58.3478 68.8154 58.9413 69.4058 59.6736 69.4058C60.4057 69.4058 60.9993 68.8156 60.9993 68.0875V59.1701C60.9993 51.3752 54.2881 48.5418 54.0024 48.4249C53.9941 48.4214 53.9856 48.4181 53.9771 48.4149L38.1278 42.3107V38.614C40.6452 36.6671 42.3906 33.7809 42.8288 30.4882C44.0839 30.4003 45.2486 29.9341 46.1997 29.1208C47.4418 28.0586 48.1544 26.5126 48.1544 24.8799C48.1544 23.525 47.6629 22.2312 46.7869 21.2231V16.3394C46.7867 7.3299 39.4164 0 30.3569 0C21.2975 0 13.9271 7.3299 13.9271 16.3394V21.3511C13.0417 22.349 12.5603 23.5774 12.5603 24.8797C12.5603 26.5129 13.2726 28.0587 14.515 29.1212C15.4654 29.9341 16.6294 30.3998 17.8841 30.4879C18.3259 33.8423 20.1222 36.836 22.854 38.8092V42.3107L7.0218 48.4147C7.01349 48.4179 7.00518 48.4212 6.99688 48.4246C6.71106 48.5415 0 51.3749 0 59.1697V86.6347C0 88.49 1.5178 89.9995 3.38346 89.9995H16.0139C16.746 89.9995 17.3396 89.4092 17.3396 88.6811C17.3396 87.953 16.746 87.3628 16.0139 87.3628H13.1616V61.4006C13.1616 60.6725 12.568 60.0822 11.8359 60.0822C11.1038 60.0822 10.5102 60.6725 10.5102 61.4006V87.3631H3.38363C2.9801 87.3631 2.65169 87.0365 2.65169 86.6352V59.1699C2.65169 53.2339 7.68799 50.9985 7.99731 50.8671L17.5128 47.1985L21.6934 55.5309C22.0934 56.3277 22.9056 56.8088 23.7713 56.8088C24.62 56.8088 25.0703 56.4135 25.6694 55.9904L26.7371 57.5889L22.7741 80.8743C22.7718 80.8875 22.7699 80.9007 22.7679 80.914C22.6721 81.6038 22.8865 82.3127 23.3413 82.8105L27.5027 87.3633H22.2009C21.4688 87.3633 20.8752 87.9536 20.8752 88.6816C20.8752 89.4097 21.4688 90 22.2009 90H57.6165C59.4822 90 61 88.4904 61 86.6352V74.2402C60.9996 73.5119 60.4061 72.9216 59.674 72.9216ZM40.9946 46.2426L37.0973 54.0104C37.0005 53.942 34.9351 52.4827 32.4103 50.6997C33.5058 49.3548 32.2242 50.928 37.2242 44.7905L40.9946 46.2426ZM33.1587 54.4628L32.148 55.9758H28.8421L27.8314 54.4628L30.4951 52.5814L33.1587 54.4628ZM25.5051 42.7361V40.2688C27.1157 40.9145 28.837 41.2138 30.5179 41.2138C32.256 41.2138 33.9604 40.8454 35.4763 40.1862V42.7468L30.4951 48.8614L25.5051 42.7361ZM45.5029 24.8799C45.5028 25.7435 45.1266 26.5607 44.4709 27.1216C44.0373 27.4925 43.5136 27.7297 42.94 27.8225V21.9379C44.4636 22.1839 45.5029 23.4408 45.5029 24.8799ZM17.7746 27.8225C16.2336 27.5738 15.2116 26.3067 15.2116 24.8797C15.2116 23.4703 16.3865 22.3232 17.7746 22.0041V27.8225ZM17.8458 19.3177C17.4235 19.3658 16.9396 19.4796 16.5788 19.6015V16.3394C16.5788 8.78379 22.7596 2.63689 30.3571 2.63689C37.9546 2.63689 44.1354 8.78379 44.1354 16.3394V19.511C43.7501 19.3945 43.3504 19.3175 42.9402 19.2813C42.9402 18.0091 42.9513 18.2545 38.7666 13.7804C37.997 12.9581 36.724 12.7858 35.7552 13.4153C31.1366 16.4157 25.5025 17.923 20.3041 17.5518C19.1639 17.4669 18.1252 18.2138 17.8458 19.3177ZM20.4261 28.8605V20.6353V20.202C26.1485 20.5353 32.1482 18.8446 36.995 15.7577C38.9142 17.807 39.9535 18.8819 40.2886 19.2908C40.2886 20.3251 40.2886 27.6764 40.2886 28.8603C40.2886 34.2123 35.9005 38.5768 30.5181 38.5768C24.4741 38.577 20.4261 33.9142 20.4261 28.8605ZM23.8931 54.0104L19.9958 46.2426L23.7595 44.7929L28.5745 50.7036C26.1259 52.4327 24.1153 53.8534 23.8931 54.0104ZM25.4141 81.1586L29.2513 58.6123H31.7384L35.5756 81.1586L30.495 86.7173L25.4141 81.1586Z" fill="white"/>
</svg>
