<svg width="533" height="144" viewBox="0 0 533 144" fill="none" xmlns="http://www.w3.org/2000/svg">
<path fill-rule="evenodd" clip-rule="evenodd" d="M450.541 29.3371C400.631 18.4882 343.669 -1.04318 278.027 0.043508C237.7 3.2973 184.355 38.018 165.187 40.7297C84.8984 36.9337 48.8218 51.307 10.0336 76.8062C9.2608 77.6418 9.49069 79.8795 9.21921 81.4158C7.2106 83.2957 5.10234 85.5758 3.79596 87.6551C14.4777 84.1698 19.6185 81.958 36.0734 82.5025C46.4711 80.8736 61.48 69.7541 68.3516 62.9727C70.7023 66.9499 67.0861 76.6257 65.3677 82.5025C76.2182 65.3234 104.427 50.3145 130.468 61.886C158.497 53.7495 206.599 57.0057 253.072 65.6843C221.607 55.919 191.77 49.9528 158.677 47.7818L195.331 45.6264C259.875 48.8504 318.995 53.7009 387.336 61.806C335.71 52.4298 286.252 47.3942 232.458 43.4413L336.617 38.5602L321.425 45.6123C366.715 51.1164 396.571 53.6593 441.319 61.886C461.03 53.5683 473.143 53.3878 490.685 64.0578C498.494 71.5155 500.613 76.1252 505.577 89.8426C505.054 79.725 503.961 70.1762 498.886 61.1955C510.256 54.1936 519.221 49.5958 533 40.1875C475.496 26.2637 438.605 34.5814 396.29 33.6776L450.541 29.3371ZM67.0617 59.5165C58.8343 59.7409 30.5332 70.1393 17.0159 79.9941C22.2603 78.3229 28.3183 76.2421 35.5964 79.1804C49.6566 77.1475 63.174 65.3469 67.0617 59.5165ZM373.641 23.7773C363.064 26.4905 355.74 29.2021 348.415 34.3562C344.619 36.9776 237.475 37.9741 192.989 38.9682C209.355 29.3826 236.84 13.0187 262.431 10.2145C303.569 4.9701 348.234 14.9166 373.641 23.7773Z" fill="#D01818"/>
<path fill-rule="evenodd" clip-rule="evenodd" d="M53.1646 79.6041C42.5865 85.6621 30.3802 96.8743 21.4294 97.7781C13.9245 97.4156 7.50483 97.8684 0 94.2513C0.723414 100.942 7.27886 107.769 2.17024 114.324C19.3494 113.149 32.4587 116.313 42.315 121.376C40.785 124.981 38.053 127.083 33.5171 128.282C37.0055 129.206 40.8956 128.125 44.4852 127.344C29.6741 137.014 10.2094 131.581 11.3926 127.886C12.9297 123.546 18.8064 122.733 29.8373 123.004C20.9767 120.383 11.1368 117.654 0.378184 118.829C1.734 122.717 1.29697 129.536 6.61037 133.3C12.3145 137.034 27.6545 140.616 46.4986 137.669C60.737 134.726 48.861 129.261 50.9952 119.207C52.1698 111.702 48.4632 106.639 40.6877 99.134C41.3201 93.4377 46.0223 86.9277 53.1646 79.6041Z" fill="#D01818"/>
<path d="M119.728 89.9528H109.793C109.51 88.3234 108.987 86.8801 108.226 85.6227C107.464 84.3476 106.517 83.2672 105.383 82.3817C104.25 81.4962 102.957 80.8321 101.505 80.3894C100.07 79.9289 98.5207 79.6987 96.856 79.6987C93.8984 79.6987 91.2773 80.4425 88.9927 81.9301C86.7082 83.4001 84.9195 85.5607 83.6266 88.412C82.3338 91.2456 81.6874 94.7079 81.6874 98.7989C81.6874 102.961 82.3338 106.467 83.6266 109.319C84.9372 112.152 86.7259 114.295 88.9927 115.747C91.2773 117.182 93.8896 117.899 96.8294 117.899C98.4587 117.899 99.9818 117.687 101.399 117.262C102.833 116.819 104.117 116.172 105.251 115.322C106.402 114.472 107.367 113.427 108.146 112.188C108.943 110.948 109.492 109.531 109.793 107.937L119.728 107.99C119.357 110.576 118.551 113.002 117.311 115.269C116.089 117.536 114.486 119.537 112.503 121.273C110.519 122.991 108.199 124.337 105.543 125.311C102.886 126.267 99.9375 126.745 96.6966 126.745C91.9149 126.745 87.6468 125.638 83.8923 123.425C80.1378 121.211 77.1802 118.014 75.0196 113.835C72.8589 109.655 71.7786 104.643 71.7786 98.7989C71.7786 92.9369 72.8678 87.925 75.0461 83.7631C77.2245 79.5836 80.1909 76.3869 83.9454 74.1732C87.6999 71.9594 91.9503 70.8525 96.6966 70.8525C99.725 70.8525 102.541 71.2776 105.144 72.1277C107.748 72.9777 110.068 74.2263 112.104 75.8733C114.141 77.5026 115.815 79.5039 117.125 81.877C118.453 84.2324 119.321 86.9244 119.728 89.9528ZM140.071 126.825C137.485 126.825 135.156 126.365 133.084 125.444C131.03 124.505 129.4 123.124 128.196 121.299C127.009 119.475 126.416 117.226 126.416 114.552C126.416 112.25 126.841 110.346 127.691 108.84C128.541 107.335 129.701 106.131 131.171 105.228C132.641 104.324 134.297 103.643 136.139 103.182C137.999 102.704 139.92 102.359 141.904 102.146C144.294 101.898 146.234 101.677 147.721 101.482C149.209 101.269 150.289 100.951 150.962 100.526C151.653 100.083 151.998 99.401 151.998 98.4801V98.3207C151.998 96.3195 151.405 94.7699 150.218 93.6719C149.032 92.5738 147.323 92.0248 145.091 92.0248C142.736 92.0248 140.868 92.5384 139.486 93.5656C138.122 94.5928 137.202 95.8059 136.723 97.205L127.744 95.9299C128.453 93.4505 129.622 91.3784 131.251 89.7137C132.88 88.0312 134.873 86.7738 137.228 85.9415C139.584 85.0914 142.187 84.6663 145.038 84.6663C147.004 84.6663 148.961 84.8966 150.909 85.357C152.857 85.8175 154.637 86.579 156.249 87.6416C157.86 88.6865 159.153 90.1122 160.127 91.9186C161.119 93.725 161.615 95.983 161.615 98.6926V126.001H152.37V120.396H152.051C151.467 121.53 150.643 122.592 149.581 123.584C148.536 124.558 147.217 125.346 145.623 125.948C144.046 126.533 142.196 126.825 140.071 126.825ZM142.568 119.759C144.498 119.759 146.172 119.378 147.588 118.616C149.005 117.837 150.094 116.81 150.856 115.535C151.635 114.26 152.025 112.87 152.025 111.364V106.556C151.724 106.804 151.21 107.034 150.484 107.247C149.776 107.459 148.979 107.645 148.093 107.804C147.208 107.964 146.331 108.106 145.463 108.229C144.595 108.353 143.843 108.46 143.205 108.548C141.771 108.743 140.487 109.062 139.353 109.505C138.22 109.947 137.326 110.567 136.67 111.364C136.015 112.143 135.687 113.153 135.687 114.393C135.687 116.164 136.334 117.501 137.627 118.404C138.919 119.307 140.566 119.759 142.568 119.759ZM171.284 126.001V85.1976H180.609V91.9983H181.034C181.778 89.6428 183.053 87.8276 184.859 86.5524C186.683 85.2596 188.764 84.6132 191.102 84.6132C191.633 84.6132 192.227 84.6398 192.882 84.6929C193.555 84.7283 194.113 84.7903 194.555 84.8789V93.725C194.148 93.5833 193.502 93.4593 192.616 93.3531C191.748 93.2291 190.907 93.1671 190.092 93.1671C188.339 93.1671 186.763 93.5479 185.364 94.3094C183.983 95.0532 182.893 96.0893 182.096 97.4175C181.299 98.7458 180.901 100.278 180.901 102.013V126.001H171.284Z" fill="#D01818"/>
<path d="M221.638 107.725H230.564L235.851 114.579L239.623 119.041L248.682 130.677H239.118L232.955 122.867L230.325 119.148L221.638 107.725ZM249.983 98.7989C249.983 104.661 248.885 109.682 246.689 113.861C244.511 118.023 241.536 121.211 237.763 123.425C234.009 125.638 229.75 126.745 224.986 126.745C220.222 126.745 215.953 125.638 212.181 123.425C208.427 121.193 205.451 117.997 203.255 113.835C201.077 109.655 199.988 104.643 199.988 98.7989C199.988 92.9369 201.077 87.925 203.255 83.7631C205.451 79.5836 208.427 76.3869 212.181 74.1732C215.953 71.9594 220.222 70.8525 224.986 70.8525C229.75 70.8525 234.009 71.9594 237.763 74.1732C241.536 76.3869 244.511 79.5836 246.689 83.7631C248.885 87.925 249.983 92.9369 249.983 98.7989ZM240.075 98.7989C240.075 94.6725 239.428 91.1925 238.135 88.3589C236.86 85.5076 235.089 83.3558 232.822 81.9036C230.555 80.4336 227.943 79.6987 224.986 79.6987C222.028 79.6987 219.416 80.4336 217.149 81.9036C214.882 83.3558 213.102 85.5076 211.809 88.3589C210.534 91.1925 209.897 94.6725 209.897 98.7989C209.897 102.925 210.534 106.414 211.809 109.266C213.102 112.099 214.882 114.251 217.149 115.721C219.416 117.173 222.028 117.899 224.986 117.899C227.943 117.899 230.555 117.173 232.822 115.721C235.089 114.251 236.86 112.099 238.135 109.266C239.428 106.414 240.075 102.925 240.075 98.7989ZM284.956 108.84V85.1976H294.573V126.001H285.248V118.749H284.823C283.902 121.034 282.388 122.902 280.281 124.354C278.191 125.807 275.614 126.533 272.55 126.533C269.876 126.533 267.512 125.939 265.457 124.753C263.421 123.549 261.827 121.804 260.676 119.52C259.525 117.217 258.949 114.437 258.949 111.178V85.1976H268.565V109.691C268.565 112.276 269.274 114.331 270.691 115.854C272.107 117.377 273.967 118.138 276.269 118.138C277.686 118.138 279.059 117.793 280.387 117.102C281.715 116.412 282.804 115.384 283.654 114.021C284.522 112.639 284.956 110.913 284.956 108.84ZM322.526 126.798C318.435 126.798 314.901 125.948 311.926 124.248C308.969 122.53 306.693 120.104 305.099 116.969C303.505 113.817 302.708 110.107 302.708 105.839C302.708 101.641 303.505 97.9577 305.099 94.7876C306.711 91.5998 308.96 89.1204 311.846 87.3494C314.733 85.5607 318.125 84.6663 322.021 84.6663C324.536 84.6663 326.909 85.0737 329.14 85.8883C331.389 86.6853 333.373 87.925 335.091 89.6074C336.826 91.2899 338.19 93.4328 339.182 96.0362C340.174 98.6218 340.67 101.703 340.67 105.281V108.229H307.224V101.748H331.451C331.434 99.9058 331.035 98.2676 330.256 96.8331C329.477 95.3809 328.388 94.2386 326.989 93.4062C325.607 92.5738 323.996 92.1577 322.154 92.1577C320.188 92.1577 318.461 92.6358 316.974 93.5922C315.486 94.5308 314.326 95.7705 313.494 97.3113C312.679 98.8343 312.263 100.508 312.245 102.332V107.99C312.245 110.364 312.679 112.4 313.547 114.1C314.414 115.783 315.628 117.076 317.186 117.979C318.745 118.864 320.569 119.307 322.658 119.307C324.058 119.307 325.324 119.112 326.457 118.723C327.591 118.315 328.574 117.722 329.406 116.943C330.238 116.164 330.867 115.198 331.292 114.047L340.271 115.057C339.704 117.43 338.624 119.502 337.03 121.273C335.454 123.026 333.435 124.39 330.973 125.364C328.512 126.32 325.696 126.798 322.526 126.798ZM381.055 95.983L372.288 96.9394C372.041 96.0539 371.607 95.2215 370.987 94.4423C370.385 93.663 369.57 93.0343 368.543 92.5561C367.516 92.078 366.258 91.8389 364.771 91.8389C362.769 91.8389 361.087 92.2728 359.723 93.1406C358.377 94.0084 357.713 95.1329 357.731 96.5143C357.713 97.7009 358.147 98.6661 359.033 99.4099C359.936 100.154 361.423 100.765 363.495 101.243L370.456 102.731C374.316 103.563 377.185 104.882 379.063 106.689C380.958 108.495 381.914 110.859 381.932 113.782C381.914 116.35 381.161 118.616 379.674 120.582C378.204 122.53 376.158 124.053 373.537 125.151C370.916 126.249 367.905 126.798 364.505 126.798C359.511 126.798 355.491 125.754 352.444 123.664C349.398 121.556 347.583 118.625 346.999 114.871L356.376 113.968C356.801 115.809 357.704 117.2 359.086 118.138C360.467 119.077 362.265 119.546 364.478 119.546C366.763 119.546 368.596 119.077 369.977 118.138C371.376 117.2 372.076 116.04 372.076 114.658C372.076 113.489 371.624 112.524 370.721 111.763C369.836 111.001 368.454 110.417 366.577 110.009L359.617 108.548C355.703 107.734 352.808 106.361 350.93 104.431C349.053 102.483 348.123 100.021 348.141 97.0456C348.123 94.5308 348.805 92.3525 350.186 90.5106C351.586 88.6511 353.525 87.2166 356.004 86.2071C358.501 85.1799 361.379 84.6663 364.638 84.6663C369.419 84.6663 373.183 85.6847 375.928 87.7213C378.691 89.758 380.4 92.5119 381.055 95.983ZM410.237 85.1976V92.6358H386.78V85.1976H410.237ZM392.571 75.4217H402.187V113.728C402.187 115.021 402.382 116.013 402.772 116.704C403.179 117.377 403.71 117.837 404.366 118.085C405.021 118.333 405.747 118.457 406.544 118.457C407.146 118.457 407.695 118.413 408.191 118.324C408.705 118.236 409.094 118.156 409.36 118.085L410.98 125.603C410.467 125.78 409.732 125.975 408.776 126.187C407.837 126.4 406.686 126.524 405.322 126.559C402.913 126.63 400.744 126.267 398.814 125.47C396.883 124.656 395.351 123.398 394.218 121.698C393.102 119.998 392.553 117.873 392.571 115.322V75.4217Z" fill="#2E302A"/>
<path d="M467 65C480.807 65 492 76.1928 492 90C492 103.807 480.807 115 467 115C453.193 115 442 103.807 442 90C442 76.1929 453.193 65.0001 467 65ZM467 72.9365C457.576 72.9366 449.937 80.5761 449.937 90C449.937 99.4238 457.576 107.063 467 107.063C476.424 107.063 484.063 99.4239 484.063 90C484.063 80.576 476.424 72.9365 467 72.9365Z" fill="#D01818"/>
</svg>
