<svg width="82" height="73" viewBox="0 0 82 73" fill="none" xmlns="http://www.w3.org/2000/svg">
<path d="M24.5361 32.9167L33.868 26.3333H52.9597V32.9167H36.0273L26.6263 39.5H3.58467V32.9167H24.5361ZM27.5513 49.5725L37.1794 46.0669L39.4309 52.2552L29.8028 55.7575C30.256 59.3709 29.3623 63.0246 27.2924 66.0207C25.2224 69.0169 22.1213 71.1455 18.5813 72C15.0413 72.8546 11.3106 72.3751 8.10173 70.6532C4.89286 68.9314 2.43074 66.0878 1.18564 62.6656C-0.0594519 59.2434 -0.000259025 55.4824 1.35192 52.1011C2.70409 48.7198 5.25448 45.9551 8.51595 44.3351C11.7774 42.715 15.5214 42.3532 19.0327 43.3187C22.544 44.2842 25.5766 46.5094 27.5513 49.5692V49.5725ZM15.1055 65.8333C17.288 65.8333 19.3811 64.9663 20.9244 63.4231C22.4677 61.8798 23.3347 59.7867 23.3347 57.6042C23.3347 55.4217 22.4677 53.3285 20.9244 51.7853C19.3811 50.242 17.288 49.375 15.1055 49.375C12.923 49.375 10.8299 50.242 9.2866 51.7853C7.74334 53.3285 6.87634 55.4217 6.87634 57.6042C6.87634 59.7867 7.74334 61.8798 9.2866 63.4231C10.8299 64.9663 12.923 65.8333 15.1055 65.8333V65.8333ZM57.8972 72.4167C55.952 72.4167 54.0258 72.0335 52.2287 71.2891C50.4315 70.5447 48.7986 69.4537 47.4232 68.0782C46.0477 66.7027 44.9566 65.0698 44.2122 63.2727C43.4678 61.4755 43.0847 59.5494 43.0847 57.6042C43.0847 55.659 43.4678 53.7328 44.2122 51.9357C44.9566 50.1385 46.0477 48.5056 47.4232 47.1302C48.7986 45.7547 50.4315 44.6636 52.2287 43.9192C54.0258 43.1748 55.952 42.7917 57.8972 42.7917C61.8257 42.7917 65.5933 44.3523 68.3712 47.1302C71.1491 49.908 72.7097 53.6757 72.7097 57.6042C72.7097 61.5327 71.1491 65.3003 68.3712 68.0782C65.5933 70.8561 61.8257 72.4167 57.8972 72.4167V72.4167ZM57.8972 65.8333C60.0797 65.8333 62.1728 64.9663 63.7161 63.4231C65.2593 61.8798 66.1263 59.7867 66.1263 57.6042C66.1263 55.4217 65.2593 53.3285 63.7161 51.7853C62.1728 50.242 60.0797 49.375 57.8972 49.375C55.7147 49.375 53.6215 50.242 52.0783 51.7853C50.535 53.3285 49.668 55.4217 49.668 57.6042C49.668 59.7867 50.535 61.8798 52.0783 63.4231C53.6215 64.9663 55.7147 65.8333 57.8972 65.8333ZM10.168 36.2083H29.918L38.4763 30.5039L39.398 27.0608L45.7575 28.7659L39.4309 52.2388L33.4335 49.3158L33.8219 47.8674L26.6263 52.6667L23.3347 46.0833H10.168V36.2083ZM49.9708 19.75H62.8347V29.625H53.5653L59.8853 46.9918L53.697 49.2433L46.5607 29.625H46.3763V29.1247L41.768 16.4583H33.2097V9.875H46.3763L49.9708 19.75Z" fill="#F05C26"/>
<path d="M31 16C31 23.6744 24.5666 30 16.5 30C8.43341 30 2 23.6744 2 16C2 8.32558 8.43341 2 16.5 2C24.5666 2 31 8.32558 31 16Z" fill="white" stroke="#F05C26" stroke-width="4"/>
<path d="M81 35.5C81 40.1467 77.0195 44 72 44C66.9805 44 63 40.1467 63 35.5C63 30.8533 66.9805 27 72 27C77.0195 27 81 30.8533 81 35.5Z" fill="white" stroke="#F05C26" stroke-width="2"/>
<path fill-rule="evenodd" clip-rule="evenodd" d="M20.7188 21.3444H18.8779L17.1224 18.5502H14.1555V21.3444H12.3146V18.5502H9.375V16.6875H12.3146V14.8248H9.375V12.962H12.3146V10.75H14.1555L15.5442 12.962H18.8924V10.75H20.7188V12.962H23.3456V14.8248H20.7188V16.6875H23.3456V18.5502H20.7188V21.3444ZM14.1555 16.6875H15.9521L14.7818 14.8248H14.1555V16.6875ZM18.8924 16.6875H17.8829L16.7135 14.8248H18.8924V16.6875Z" fill="#F05C26"/>
<path fill-rule="evenodd" clip-rule="evenodd" d="M74.3017 38.6732H73.2086L72.1663 37.0142H70.4048V38.6732H69.3117V37.0142H67.5664V35.9082H69.3117V34.8022H67.5664V33.6962H69.3117V32.3828H70.4048L71.2293 33.6962H73.2173V32.3828H74.3017V33.6962H75.8614V34.8022H74.3017V35.9082H75.8614V37.0142H74.3017V38.6732ZM70.4048 35.9082H71.4715L70.7766 34.8022H70.4048V35.9082ZM73.2173 35.9082H72.6179L71.9236 34.8022H73.2173V35.9082Z" fill="#F05C26"/>
</svg>
