<svg width="94" height="68" viewBox="0 0 94 68" fill="none" xmlns="http://www.w3.org/2000/svg">
<path d="M83.9164 32.5543C83.2906 25.451 82.2598 24.0676 81.8704 23.5473C80.9752 22.3449 79.5428 21.5592 78.0271 20.7348C77.9413 20.6889 77.8673 20.6236 77.8109 20.5439C77.7544 20.4642 77.717 20.3723 77.7017 20.2754C77.6863 20.1786 77.6935 20.0795 77.7225 19.986C77.7515 19.8924 77.8016 19.8069 77.8689 19.7363C78.1496 19.4484 78.3653 19.1025 78.5012 18.7223C78.6372 18.3421 78.6901 17.9366 78.6563 17.5338C78.5909 16.8194 78.2625 16.156 77.736 15.6751C77.2096 15.1942 76.5236 14.9309 75.8142 14.9375H73.1025C72.9863 14.9382 72.8702 14.9458 72.7548 14.9603C72.6757 14.9256 72.5937 14.898 72.5098 14.8777C70.9036 11.4447 68.7047 6.74433 64.1469 4.45038C57.3867 1.05077 44.9337 0.874992 42.5001 0.874992C40.0665 0.874992 27.6134 1.05077 20.8619 4.44511C16.3042 6.73905 14.1052 11.4394 12.4991 14.8725L12.4852 14.9006C12.4051 14.912 12.3264 14.932 12.2505 14.9603C12.1352 14.9458 12.0191 14.9382 11.9028 14.9375H9.1859C8.47649 14.9309 7.79055 15.1942 7.26411 15.6751C6.73767 16.156 6.40919 16.8194 6.34381 17.5338C6.31294 17.9357 6.36824 18.3396 6.50594 18.7179C6.64365 19.0962 6.8605 19.44 7.14168 19.7258C7.20895 19.7964 7.25907 19.8819 7.28809 19.9754C7.31711 20.069 7.32423 20.1681 7.30889 20.2649C7.29355 20.3617 7.25617 20.4536 7.1997 20.5333C7.14323 20.613 7.06922 20.6784 6.9835 20.7242C5.46772 21.5539 4.02842 22.3396 3.14016 23.5367C2.75079 24.0641 1.72172 25.4404 1.0942 32.5437C0.746548 36.541 0.6944 40.6789 0.96731 43.3437C1.5392 48.8809 2.61172 52.2277 2.65692 52.3666C2.8215 52.8719 3.12445 53.3197 3.5306 53.6579C3.93674 53.9961 4.42943 54.2109 4.95145 54.2773V54.3125C4.95145 55.0584 5.24447 55.7738 5.76606 56.3012C6.28765 56.8287 6.99507 57.125 7.7327 57.125H17.4671C18.2047 57.125 18.9121 56.8287 19.4337 56.3012C19.9553 55.7738 20.2483 55.0584 20.2483 54.3125C21.745 54.3125 22.7862 54.0418 23.89 53.7535C25.4837 53.3193 27.1126 53.0304 28.7572 52.8904C34.0607 52.3789 39.3347 52.2031 42.5001 52.2031C45.6012 52.2031 51.108 52.3789 56.4202 52.8904C58.0714 53.0307 59.7067 53.3208 61.3065 53.757C62.3634 54.0312 63.3664 54.2844 64.7553 54.3107C64.7553 55.0567 65.0483 55.772 65.5699 56.2995C66.0915 56.8269 66.7989 57.1232 67.5365 57.1232H77.2709C78.0085 57.1232 78.716 56.8269 79.2375 56.2995C79.7591 55.772 80.0522 55.0567 80.0522 54.3107V54.2896C80.5754 54.2245 81.0696 54.0103 81.4771 53.672C81.8846 53.3337 82.1886 52.8852 82.3536 52.3789C82.3988 52.24 83.4714 48.8932 84.0432 43.356C84.3162 40.6894 84.2675 36.5586 83.9164 32.5543ZM17.5262 17.2771C18.9168 14.2889 20.5073 10.9068 23.339 9.48124C27.4309 7.42109 35.912 6.49296 42.5001 6.49296C49.0882 6.49296 57.5692 7.41406 61.6611 9.48124C64.4928 10.9068 66.0764 14.2906 67.474 17.2771L67.6478 17.6586C67.7494 17.8757 67.7944 18.1156 67.7783 18.3553C67.7622 18.595 67.6857 18.8266 67.556 19.0279C67.4263 19.2292 67.2478 19.3935 67.0375 19.5052C66.8271 19.6169 66.592 19.6723 66.3545 19.666C60.5782 19.5078 48.4102 19.0016 42.5001 19.0016C36.5899 19.0016 24.4219 19.5201 18.6369 19.6783C18.3994 19.6846 18.1643 19.6292 17.954 19.5175C17.7436 19.4058 17.5651 19.2415 17.4354 19.0402C17.3057 18.8389 17.2292 18.6073 17.2131 18.3676C17.1971 18.1279 17.242 17.888 17.3437 17.6709C17.4045 17.5408 17.4688 17.409 17.5262 17.2771ZM19.5999 31.2746C16.6098 31.6385 13.6005 31.8182 10.5887 31.8125C8.74612 31.8125 6.84618 31.2851 6.49331 29.6258C6.25168 28.5096 6.27776 27.882 6.40813 27.251C6.51764 26.7148 6.69147 26.3246 7.56061 26.1875C9.82038 25.8359 11.0841 26.2771 14.7832 27.3793C17.2359 28.1088 19.0055 29.0809 20.0137 29.8508C20.5195 30.2305 20.2501 31.2219 19.5999 31.2746ZM58.082 45.6887C55.7944 45.9523 51.2193 45.8557 42.5522 45.8557C33.8851 45.8557 29.3117 45.9523 27.0241 45.6887C24.6636 45.4232 21.6546 43.1662 23.7092 41.1553C25.0773 39.8299 28.2688 38.8385 32.5189 38.2812C36.769 37.724 38.5681 37.4375 42.5348 37.4375C46.5016 37.4375 48.1182 37.6133 52.5508 38.283C56.9834 38.9527 60.3331 39.9564 61.3604 41.157C63.2343 43.3086 60.4409 45.4092 58.082 45.6992V45.6887ZM78.5068 29.624C78.1592 31.2904 76.2471 31.8107 74.4114 31.8107C71.342 31.8115 68.2752 31.6319 65.2263 31.2728C64.6944 31.2219 64.4476 30.2779 64.9865 29.849C65.979 29.0598 67.7677 28.107 70.217 27.3775C73.916 26.2754 76.0489 25.8342 77.881 26.2016C78.3278 26.2912 78.5642 26.7764 78.592 27.0805C78.7146 27.9272 78.6858 28.7893 78.5068 29.6258V29.624Z" fill="#F05C26"/>
<path fill-rule="evenodd" clip-rule="evenodd" d="M83.8371 18.5206L82.5652 17.1897L83.3725 13.9902L81.3228 11.8452L79.3027 13.7756L78.0308 12.4446L80.0509 10.5142L78.02 8.38897L79.3668 7.10205L81.3976 9.22731L82.7444 7.94039L80.7135 5.81513L82.0602 4.52821L84.0911 6.65347L85.6903 5.12526L86.9622 6.4562L86.3223 8.98837L88.6355 11.4091L90.2348 9.88087L91.4965 11.2013L89.8973 12.7295L91.7121 14.6286L90.3654 15.9155L88.5506 14.0164L87.2039 15.3033L89.0187 17.2025L87.6719 18.4894L85.8571 16.5903L83.8371 18.5206ZM82.6695 10.5583L83.9107 11.8571L84.4489 9.72413L84.0162 9.27133L82.6695 10.5583ZM85.9421 13.9829L85.2446 13.2531L85.7835 11.1207L87.2888 12.696L85.9421 13.9829Z" fill="#F05C26"/>
<path fill-rule="evenodd" clip-rule="evenodd" d="M43.7822 65.7256L42.9033 64.8059L43.4612 62.5948L42.0447 61.1125L40.6487 62.4465L39.7698 61.5268L41.1658 60.1928L39.7623 58.7241L40.6929 57.8348L42.0964 59.3034L43.0271 58.4141L41.6236 56.9454L42.5543 56.0561L43.9577 57.5248L45.0629 56.4687L45.9418 57.3884L45.4996 59.1383L47.0982 60.8111L48.2033 59.7551L49.0753 60.6675L47.9701 61.7236L49.2243 63.036L48.2936 63.9253L47.0395 62.613L46.1088 63.5023L47.3629 64.8147L46.4323 65.704L45.1782 64.3916L43.7822 65.7256ZM42.9753 60.2232L43.8331 61.1208L44.205 59.6467L43.906 59.3338L42.9753 60.2232ZM45.2369 62.5898L44.7549 62.0855L45.1273 60.6119L46.1675 61.7005L45.2369 62.5898Z" fill="#F05C26"/>
<path fill-rule="evenodd" clip-rule="evenodd" d="M11.6998 6.47764L10.8002 7.3772L8.57712 6.86967L7.12734 8.31945L8.49266 9.68477L7.5931 10.5843L6.22778 9.21901L4.79133 10.6555L3.8811 9.74523L5.31755 8.30878L4.40731 7.39854L2.97087 8.83497L2.06064 7.92475L3.49708 6.48831L2.41618 5.40742L3.31574 4.50786L5.07519 4.91019L6.71132 3.27407L5.63042 2.19318L6.52287 1.30073L7.60377 2.38162L8.88735 1.09804L9.79757 2.00827L8.514 3.29185L9.42424 4.20209L10.7078 2.91852L11.618 3.82875L10.3345 5.11232L11.6998 6.47764ZM6.21711 7.40922L7.09502 6.53131L5.6129 6.19294L5.30687 6.49898L6.21711 7.40922ZM8.53179 5.09454L8.03851 5.58782L6.55684 5.24901L7.62155 4.1843L8.53179 5.09454Z" fill="#F05C26"/>
</svg>
