<svg width="93" height="61" viewBox="0 0 93 61" fill="none" xmlns="http://www.w3.org/2000/svg">
<path d="M83.9164 35.5543C83.2906 28.451 82.2598 27.0676 81.8704 26.5473C80.9752 25.3449 79.5428 24.5592 78.0271 23.7348C77.9413 23.6889 77.8673 23.6236 77.8109 23.5439C77.7544 23.4642 77.717 23.3723 77.7017 23.2754C77.6863 23.1786 77.6934 23.0795 77.7225 22.986C77.7515 22.8924 77.8016 22.8069 77.8689 22.7363C78.1496 22.4484 78.3653 22.1025 78.5012 21.7223C78.6372 21.3421 78.6901 20.9366 78.6563 20.5338C78.5909 19.8194 78.2625 19.156 77.736 18.6751C77.2096 18.1942 76.5236 17.9309 75.8142 17.9375H73.1025C72.9863 17.9382 72.8702 17.9458 72.7548 17.9604C72.6757 17.9256 72.5937 17.898 72.5098 17.8777C70.9036 14.4447 68.7047 9.74434 64.1469 7.45039C57.3867 4.05078 44.9337 3.875 42.5001 3.875C40.0665 3.875 27.6134 4.05078 20.8619 7.44512C16.3042 9.73906 14.1052 14.4395 12.4991 17.8725L12.4852 17.9006C12.4051 17.912 12.3264 17.932 12.2505 17.9604C12.1352 17.9458 12.0191 17.9382 11.9028 17.9375H9.1859C8.47649 17.9309 7.79055 18.1942 7.26411 18.6751C6.73767 19.156 6.40919 19.8194 6.34381 20.5338C6.31294 20.9357 6.36824 21.3396 6.50594 21.7179C6.64365 22.0962 6.8605 22.44 7.14168 22.7258C7.20895 22.7964 7.25907 22.8819 7.28809 22.9754C7.31711 23.069 7.32423 23.1681 7.30889 23.2649C7.29355 23.3617 7.25617 23.4536 7.1997 23.5333C7.14323 23.613 7.06922 23.6784 6.9835 23.7242C5.46772 24.5539 4.02842 25.3396 3.14016 26.5367C2.75079 27.0641 1.72172 28.4404 1.0942 35.5438C0.746548 39.541 0.6944 43.6789 0.96731 46.3438C1.5392 51.8809 2.61172 55.2277 2.65692 55.3666C2.8215 55.8719 3.12445 56.3197 3.5306 56.6579C3.93674 56.9962 4.42943 57.2109 4.95145 57.2773V57.3125C4.95145 58.0584 5.24447 58.7738 5.76606 59.3012C6.28765 59.8287 6.99507 60.125 7.7327 60.125H17.4671C18.2047 60.125 18.9121 59.8287 19.4337 59.3012C19.9553 58.7738 20.2483 58.0584 20.2483 57.3125C21.745 57.3125 22.7862 57.0418 23.89 56.7535C25.4836 56.3193 27.1126 56.0304 28.7572 55.8904C34.0607 55.3789 39.3347 55.2031 42.5001 55.2031C45.6012 55.2031 51.108 55.3789 56.4202 55.8904C58.0714 56.0307 59.7067 56.3208 61.3065 56.757C62.3634 57.0312 63.3664 57.2844 64.7553 57.3107C64.7553 58.0567 65.0483 58.772 65.5699 59.2995C66.0915 59.8269 66.7989 60.1232 67.5365 60.1232H77.2709C78.0085 60.1232 78.716 59.8269 79.2375 59.2995C79.7591 58.772 80.0522 58.0567 80.0522 57.3107V57.2896C80.5754 57.2245 81.0696 57.0103 81.4771 56.672C81.8845 56.3337 82.1885 55.8852 82.3536 55.3789C82.3988 55.24 83.4714 51.8932 84.0432 46.3561C84.3162 43.6895 84.2675 39.5586 83.9164 35.5543ZM17.5262 20.2771C18.9168 17.2889 20.5073 13.9068 23.339 12.4813C27.4309 10.4211 35.912 9.49297 42.5001 9.49297C49.0882 9.49297 57.5692 10.4141 61.6611 12.4813C64.4928 13.9068 66.0764 17.2906 67.474 20.2771L67.6478 20.6586C67.7494 20.8757 67.7944 21.1156 67.7783 21.3553C67.7622 21.595 67.6857 21.8266 67.556 22.0279C67.4263 22.2292 67.2478 22.3935 67.0375 22.5052C66.8271 22.6169 66.592 22.6723 66.3545 22.666C60.5782 22.5078 48.4102 22.0016 42.5001 22.0016C36.5899 22.0016 24.4219 22.5201 18.6369 22.6783C18.3994 22.6846 18.1643 22.6292 17.954 22.5175C17.7436 22.4058 17.5651 22.2415 17.4354 22.0402C17.3057 21.8389 17.2292 21.6073 17.2131 21.3676C17.1971 21.1279 17.242 20.8881 17.3437 20.6709C17.4045 20.5408 17.4688 20.409 17.5262 20.2771V20.2771ZM19.5999 34.2746C16.6098 34.6385 13.6005 34.8182 10.5887 34.8125C8.74612 34.8125 6.84618 34.2852 6.49331 32.6258C6.25168 31.5096 6.27776 30.882 6.40813 30.251C6.51764 29.7148 6.69147 29.3246 7.56061 29.1875C9.82038 28.8359 11.0841 29.2771 14.7832 30.3793C17.2359 31.1088 19.0055 32.0809 20.0137 32.8508C20.5195 33.2305 20.2501 34.2219 19.5999 34.2746V34.2746ZM58.082 48.6887C55.7944 48.9523 51.2193 48.8557 42.5522 48.8557C33.8851 48.8557 29.3117 48.9523 27.0241 48.6887C24.6636 48.4232 21.6546 46.1662 23.7092 44.1553C25.0773 42.8299 28.2688 41.8385 32.5189 41.2812C36.769 40.724 38.5681 40.4375 42.5348 40.4375C46.5016 40.4375 48.1182 40.6133 52.5508 41.283C56.9834 41.9527 60.3331 42.9564 61.3604 44.157C63.2343 46.3086 60.4409 48.4092 58.082 48.6992V48.6887ZM78.5068 32.624C78.1592 34.2904 76.2471 34.8107 74.4114 34.8107C71.342 34.8115 68.2752 34.6319 65.2264 34.2729C64.6944 34.2219 64.4476 33.2779 64.9865 32.849C65.979 32.0598 67.7677 31.107 70.217 30.3775C73.916 29.2754 76.0489 28.8342 77.881 29.2016C78.3278 29.2912 78.5642 29.7764 78.592 30.0805C78.7146 30.9272 78.6857 31.7894 78.5068 32.6258V32.624Z" fill="#F05C26"/>
<path d="M91 16C91 23.6744 84.5666 30 76.5 30C68.4334 30 62 23.6744 62 16C62 8.32558 68.4334 2 76.5 2C84.5666 2 91 8.32558 91 16Z" fill="white" stroke="#F05C26" stroke-width="4"/>
<path fill-rule="evenodd" clip-rule="evenodd" d="M80.7188 21.3444H78.8779L77.1224 18.5502H74.1555V21.3444H72.3146V18.5502H69.375V16.6875H72.3146V14.8248H69.375V12.962H72.3146V10.75H74.1555L75.5442 12.962H78.8924V10.75H80.7188V12.962H83.3456V14.8248H80.7188V16.6875H83.3456V18.5502H80.7188V21.3444ZM74.1555 16.6875H75.9521L74.7818 14.8248H74.1555V16.6875ZM78.8924 16.6875H77.8829L76.7135 14.8248H78.8924V16.6875Z" fill="#F05C26"/>
</svg>
