<svg width="83" height="51" viewBox="0 0 83 51" fill="none" xmlns="http://www.w3.org/2000/svg">
<path d="M72.332 29.0804C71.7906 22.9242 70.8988 21.7252 70.5619 21.2743C69.7874 20.2323 68.5482 19.5513 67.2368 18.8368C67.1626 18.7971 67.0986 18.7404 67.0497 18.6714C67.0009 18.6023 66.9685 18.5226 66.9553 18.4387C66.942 18.3548 66.9482 18.2689 66.9733 18.1878C66.9984 18.1068 67.0417 18.0327 67.0999 17.9715C67.3428 17.722 67.5294 17.4222 67.647 17.0927C67.7646 16.7632 67.8104 16.4118 67.7812 16.0626C67.7246 15.4435 67.4405 14.8685 66.985 14.4518C66.5295 14.035 65.9361 13.8068 65.3223 13.8125H62.9762C62.8757 13.8131 62.7752 13.8197 62.6754 13.8323C62.607 13.8022 62.536 13.7783 62.4634 13.7607C61.0738 10.7854 59.1713 6.71176 55.2281 4.72367C49.3794 1.77734 38.6054 1.625 36.5 1.625C34.3945 1.625 23.6205 1.77734 17.7793 4.7191C13.8361 6.70719 11.9337 10.7809 10.544 13.7561L10.532 13.7805C10.4627 13.7904 10.3946 13.8077 10.329 13.8323C10.2292 13.8197 10.1288 13.8131 10.0282 13.8125H7.67759C7.06384 13.8068 6.47038 14.035 6.01492 14.4518C5.55946 14.8685 5.27527 15.4435 5.21871 16.0626C5.192 16.4109 5.23984 16.761 5.35898 17.0889C5.47811 17.4167 5.66573 17.7147 5.909 17.9623C5.9672 18.0235 6.01056 18.0976 6.03567 18.1787C6.06077 18.2598 6.06693 18.3457 6.05366 18.4296C6.04039 18.5135 6.00805 18.5931 5.9592 18.6622C5.91034 18.7313 5.84631 18.7879 5.77215 18.8277C4.46074 19.5467 3.21551 20.2277 2.44701 21.2652C2.11013 21.7222 1.21982 22.915 0.676912 29.0713C0.376131 32.5355 0.331014 36.1217 0.567127 38.4313C1.06191 43.2301 1.98982 46.1307 2.02892 46.2511C2.17131 46.689 2.43341 47.0771 2.7848 47.3702C3.13619 47.6633 3.56244 47.8495 4.01408 47.907V47.9375C4.01408 48.584 4.2676 49.204 4.71885 49.6611C5.17011 50.1182 5.78215 50.375 6.42033 50.375H14.8422C15.4804 50.375 16.0924 50.1182 16.5437 49.6611C16.9949 49.204 17.2485 48.584 17.2485 47.9375C18.5433 47.9375 19.4442 47.7029 20.3991 47.453C21.7779 47.0767 23.1872 46.8264 24.6101 46.705C29.1985 46.2617 33.7613 46.1094 36.5 46.1094C39.1829 46.1094 43.9473 46.2617 48.5432 46.705C49.9718 46.8266 51.3866 47.078 52.7707 47.4561C53.6851 47.6937 54.5528 47.9131 55.7545 47.936C55.7545 48.5824 56.008 49.2024 56.4592 49.6595C56.9105 50.1167 57.5225 50.3735 58.1607 50.3735H66.5826C67.2208 50.3735 67.8328 50.1167 68.2841 49.6595C68.7353 49.2024 68.9888 48.5824 68.9888 47.936V47.9177C69.4416 47.8612 69.8691 47.6756 70.2216 47.3824C70.5742 47.0892 70.8372 46.7005 70.98 46.2617C71.0191 46.1414 71.947 43.2407 72.4418 38.4419C72.6779 36.1309 72.6358 32.5508 72.332 29.0804ZM14.8933 15.8402C16.0965 13.2504 17.4725 10.3193 19.9224 9.08375C23.4626 7.29828 30.8002 6.49391 36.5 6.49391C42.1998 6.49391 49.5373 7.29219 53.0775 9.08375C55.5274 10.3193 56.8974 13.2519 58.1066 15.8402L58.257 16.1708C58.3449 16.359 58.3838 16.5669 58.3699 16.7746C58.356 16.9824 58.2898 17.183 58.1776 17.3575C58.0654 17.5319 57.9109 17.6744 57.7289 17.7712C57.547 17.868 57.3435 17.916 57.1381 17.9105C52.1406 17.7734 41.6132 17.3347 36.5 17.3347C31.3867 17.3347 20.8593 17.7841 15.8543 17.9212C15.6489 17.9267 15.4454 17.8787 15.2634 17.7819C15.0815 17.685 14.927 17.5426 14.8148 17.3682C14.7026 17.1937 14.6364 16.993 14.6225 16.7853C14.6086 16.5775 14.6475 16.3696 14.7354 16.1814C14.7881 16.0687 14.8437 15.9545 14.8933 15.8402ZM16.6875 27.9713C14.1005 28.2867 11.4969 28.4424 8.89125 28.4375C7.29711 28.4375 5.65334 27.9805 5.34804 26.5423C5.139 25.575 5.16156 25.0311 5.27435 24.4842C5.3691 24.0195 5.51949 23.6813 6.27144 23.5625C8.22652 23.2578 9.31986 23.6402 12.5202 24.5954C14.6422 25.2276 16.1732 26.0701 17.0454 26.7373C17.4831 27.0664 17.25 27.9256 16.6875 27.9713ZM49.981 40.4635C48.0018 40.692 44.0435 40.6082 36.5451 40.6082C29.0466 40.6082 25.0898 40.692 23.1107 40.4635C21.0684 40.2335 18.4651 38.2774 20.2427 36.5346C21.4263 35.3859 24.1875 34.5267 27.8645 34.0437C31.5416 33.5608 33.0981 33.3125 36.53 33.3125C39.9619 33.3125 41.3606 33.4648 45.1955 34.0453C49.0305 34.6257 51.9285 35.4956 52.8173 36.5361C54.4385 38.4008 52.0218 40.2213 49.981 40.4727V40.4635ZM67.6519 26.5408C67.3511 27.985 65.6968 28.436 64.1087 28.436C61.4531 28.4366 58.7998 28.281 56.162 27.9698C55.7018 27.9256 55.4883 27.1075 55.9545 26.7358C56.8132 26.0518 58.3607 25.2261 60.4797 24.5939C63.6801 23.6387 65.5253 23.2563 67.1105 23.5747C67.497 23.6524 67.7015 24.0729 67.7256 24.3364C67.8316 25.0703 67.8067 25.8174 67.6519 26.5423V26.5408Z" fill="#0E538C"/>
<circle cx="65.5" cy="17.5" r="16.5" fill="white" stroke="#0E538C" stroke-width="2"/>
<path d="M66.5251 15.8113H71V17.7925H66.5251V23H64.4749V17.7925H60V15.8113H64.4749V11H66.5251V15.8113Z" fill="#F05C26"/>
</svg>
