<svg width="148" height="97" viewBox="0 0 148 97" fill="none" xmlns="http://www.w3.org/2000/svg">
<path d="M134.045 57.6869C133.04 46.3216 131.384 44.1081 130.758 43.2756C129.32 41.3519 127.018 40.0947 124.583 38.7756C124.445 38.7023 124.326 38.5977 124.235 38.4702C124.145 38.3427 124.085 38.1956 124.06 38.0407C124.035 37.8858 124.047 37.7272 124.093 37.5776C124.14 37.4279 124.22 37.2911 124.329 37.1781C124.78 36.7175 125.126 36.164 125.345 35.5557C125.563 34.9474 125.648 34.2986 125.594 33.6541C125.489 32.5111 124.961 31.4496 124.115 30.6802C123.269 29.9107 122.167 29.4895 121.027 29.5H116.67C116.483 29.5011 116.297 29.5133 116.112 29.5366C115.984 29.481 115.853 29.4368 115.718 29.4044C113.137 23.9116 109.604 16.3909 102.281 12.7206C91.419 7.28125 71.4101 7 67.5 7C63.5898 7 43.581 7.28125 32.7331 12.7122C25.4099 16.3825 21.8768 23.9031 19.2961 29.3959L19.2738 29.4409C19.1451 29.4592 19.0187 29.4912 18.8967 29.5366C18.7114 29.5133 18.5249 29.5011 18.3382 29.5H13.9727C12.8329 29.4895 11.7308 29.9107 10.8849 30.6802C10.0391 31.4496 9.51128 32.5111 9.40624 33.6541C9.35663 34.2971 9.44548 34.9434 9.66674 35.5487C9.88799 36.154 10.2364 36.704 10.6882 37.1613C10.7963 37.2742 10.8768 37.411 10.9234 37.5607C10.9701 37.7104 10.9815 37.8689 10.9569 38.0238C10.9322 38.1788 10.8722 38.3258 10.7814 38.4533C10.6907 38.5809 10.5718 38.6854 10.434 38.7587C7.99858 40.0863 5.686 41.3434 4.25879 43.2588C3.63317 44.1025 1.97973 46.3047 0.971469 57.67C0.412876 64.0656 0.329087 70.6863 0.767583 74.95C1.68647 83.8094 3.40973 89.1644 3.48235 89.3866C3.74678 90.1951 4.23354 90.9116 4.88612 91.4527C5.5387 91.9938 6.33032 92.3375 7.16907 92.4437V92.5C7.16907 93.6935 7.63988 94.8381 8.47793 95.682C9.31599 96.5259 10.4526 97 11.6378 97H27.2784C28.4636 97 29.6003 96.5259 30.4383 95.682C31.2764 94.8381 31.7472 93.6935 31.7472 92.5C34.1519 92.5 35.8249 92.0669 37.5985 91.6056C40.159 90.9109 42.7763 90.4487 45.4188 90.2247C53.9401 89.4062 62.414 89.125 67.5 89.125C72.4826 89.125 81.3308 89.4062 89.8661 90.2247C92.519 90.4492 95.1466 90.9132 97.7171 91.6113C99.4152 92.05 101.027 92.455 103.258 92.4972C103.258 93.6907 103.729 94.8353 104.567 95.6792C105.405 96.5231 106.542 96.9972 107.727 96.9972H123.368C124.553 96.9972 125.69 96.5231 126.528 95.6792C127.366 94.8353 127.836 93.6907 127.836 92.4972V92.4634C128.677 92.3592 129.471 92.0164 130.126 91.4752C130.781 90.9339 131.269 90.2164 131.534 89.4062C131.607 89.1841 133.33 83.8291 134.249 74.9697C134.688 70.7031 134.609 64.0938 134.045 57.6869ZM27.3734 33.2434C29.6078 28.4622 32.1633 23.0509 36.7131 20.77C43.2877 17.4738 56.9146 15.9887 67.5 15.9887C78.0853 15.9887 91.7122 17.4625 98.2869 20.77C102.837 23.0509 105.381 28.465 107.627 33.2434L107.906 33.8537C108.069 34.2012 108.141 34.585 108.116 34.9685C108.09 35.352 107.967 35.7225 107.758 36.0446C107.55 36.3667 107.263 36.6296 106.925 36.8084C106.587 36.9871 106.21 37.0757 105.828 37.0656C96.5469 36.8125 76.9961 36.0025 67.5 36.0025C58.0039 36.0025 38.4531 36.8322 29.1581 37.0853C28.7765 37.0954 28.3987 37.0068 28.0607 36.8281C27.7228 36.6493 27.4359 36.3864 27.2276 36.0643C27.0192 35.7422 26.8962 35.3717 26.8704 34.9882C26.8446 34.6047 26.9168 34.2209 27.0801 33.8734C27.1779 33.6653 27.2812 33.4544 27.3734 33.2434ZM30.7054 55.6394C25.901 56.2217 21.0658 56.5091 16.2267 56.5C13.2661 56.5 10.2134 55.6562 9.64643 53.0013C9.25821 51.2153 9.3001 50.2113 9.50957 49.2016C9.68553 48.3438 9.96483 47.7194 11.3613 47.5C14.9922 46.9375 17.0227 47.6434 22.9661 49.4069C26.907 50.5741 29.7502 52.1294 31.3701 53.3612C32.1829 53.9688 31.75 55.555 30.7054 55.6394ZM92.5362 78.7019C88.8606 79.1237 81.5095 78.9691 67.5838 78.9691C53.658 78.9691 46.3097 79.1237 42.6342 78.7019C38.8413 78.2772 34.0067 74.6659 37.308 71.4484C39.5061 69.3278 44.6339 67.7416 51.4628 66.85C58.2916 65.9584 61.1823 65.5 67.5558 65.5C73.9294 65.5 76.5269 65.7812 83.6489 66.8528C90.771 67.9244 96.1531 69.5303 97.8037 71.4512C100.815 74.8938 96.3262 78.2547 92.5362 78.7188V78.7019ZM125.354 52.9984C124.795 55.6647 121.723 56.4972 118.773 56.4972C113.842 56.4983 108.914 56.211 104.015 55.6366C103.161 55.555 102.764 54.0447 103.63 53.3584C105.225 52.0956 108.099 50.5713 112.034 49.4041C117.977 47.6406 121.404 46.9347 124.348 47.5225C125.066 47.6659 125.446 48.4422 125.49 48.9287C125.687 50.2835 125.641 51.663 125.354 53.0013V52.9984Z" fill="white"/>
<circle cx="122" cy="26" r="24" fill="white" stroke="#F05C26" stroke-width="4"/>
<path fill-rule="evenodd" clip-rule="evenodd" d="M129.15 34.951H126.205L123.396 30.4804H118.649V34.951H115.703V30.4804H111V27.5H115.703V24.5196H111V21.5392H115.703V18H118.649L120.871 21.5392H126.228V18H129.15V21.5392H133.353V24.5196H129.15V27.5H133.353V30.4804H129.15V34.951ZM118.649 27.5H121.523L119.651 24.5196H118.649V27.5ZM126.228 27.5H124.613L122.742 24.5196H126.228V27.5Z" fill="#F05C26"/>
</svg>
