<svg width="135" height="90" viewBox="0 0 135 90" fill="none" xmlns="http://www.w3.org/2000/svg">
<path d="M134.045 50.6869C133.04 39.3216 131.384 37.1081 130.758 36.2756C129.32 34.3519 127.018 33.0947 124.583 31.7756C124.445 31.7023 124.326 31.5977 124.235 31.4702C124.145 31.3427 124.085 31.1956 124.06 31.0407C124.035 30.8858 124.047 30.7272 124.093 30.5776C124.14 30.4279 124.22 30.2911 124.329 30.1781C124.78 29.7175 125.126 29.164 125.345 28.5557C125.563 27.9474 125.648 27.2986 125.594 26.6541C125.489 25.5111 124.961 24.4496 124.115 23.6802C123.269 22.9107 122.167 22.4895 121.027 22.5H116.67C116.483 22.5011 116.297 22.5133 116.112 22.5366C115.984 22.481 115.853 22.4368 115.718 22.4044C113.137 16.9116 109.604 9.39094 102.281 5.72062C91.419 0.281249 71.4101 0 67.5 0C63.5898 0 43.581 0.281249 32.7331 5.71219C25.4099 9.3825 21.8768 16.9031 19.2961 22.3959L19.2738 22.4409C19.1451 22.4592 19.0187 22.4912 18.8967 22.5366C18.7114 22.5133 18.5249 22.5011 18.3382 22.5H13.9727C12.8329 22.4895 11.7308 22.9107 10.8849 23.6802C10.0391 24.4496 9.51128 25.5111 9.40624 26.6541C9.35663 27.2971 9.44548 27.9434 9.66674 28.5487C9.88799 29.154 10.2364 29.704 10.6882 30.1613C10.7963 30.2742 10.8768 30.411 10.9234 30.5607C10.9701 30.7104 10.9815 30.8689 10.9569 31.0238C10.9322 31.1788 10.8722 31.3258 10.7814 31.4533C10.6907 31.5809 10.5718 31.6854 10.434 31.7587C7.99858 33.0863 5.686 34.3434 4.25879 36.2588C3.63317 37.1025 1.97973 39.3047 0.971469 50.67C0.412876 57.0656 0.329087 63.6863 0.767583 67.95C1.68647 76.8094 3.40973 82.1644 3.48235 82.3866C3.74678 83.1951 4.23354 83.9116 4.88612 84.4527C5.5387 84.9938 6.33032 85.3375 7.16907 85.4437V85.5C7.16907 86.6935 7.63988 87.8381 8.47793 88.682C9.31599 89.5259 10.4526 90 11.6378 90H27.2784C28.4636 90 29.6003 89.5259 30.4383 88.682C31.2764 87.8381 31.7472 86.6935 31.7472 85.5C34.1519 85.5 35.8249 85.0669 37.5985 84.6056C40.159 83.9109 42.7763 83.4487 45.4188 83.2247C53.9401 82.4062 62.414 82.125 67.5 82.125C72.4826 82.125 81.3308 82.4062 89.8661 83.2247C92.519 83.4492 95.1466 83.9132 97.7171 84.6113C99.4152 85.05 101.027 85.455 103.258 85.4972C103.258 86.6907 103.729 87.8353 104.567 88.6792C105.405 89.5231 106.542 89.9972 107.727 89.9972H123.368C124.553 89.9972 125.69 89.5231 126.528 88.6792C127.366 87.8353 127.836 86.6907 127.836 85.4972V85.4634C128.677 85.3592 129.471 85.0164 130.126 84.4752C130.781 83.9339 131.269 83.2164 131.534 82.4062C131.607 82.1841 133.33 76.8291 134.249 67.9697C134.688 63.7031 134.609 57.0938 134.045 50.6869ZM27.3734 26.2434C29.6078 21.4622 32.1633 16.0509 36.7131 13.77C43.2877 10.4738 56.9146 8.98875 67.5 8.98875C78.0853 8.98875 91.7122 10.4625 98.2869 13.77C102.837 16.0509 105.381 21.465 107.627 26.2434L107.906 26.8537C108.069 27.2012 108.141 27.585 108.116 27.9685C108.09 28.352 107.967 28.7225 107.758 29.0446C107.55 29.3667 107.263 29.6296 106.925 29.8084C106.587 29.9871 106.21 30.0757 105.828 30.0656C96.5469 29.8125 76.9961 29.0025 67.5 29.0025C58.0039 29.0025 38.4531 29.8322 29.1581 30.0853C28.7765 30.0954 28.3987 30.0068 28.0607 29.8281C27.7228 29.6493 27.4359 29.3864 27.2276 29.0643C27.0192 28.7422 26.8962 28.3717 26.8704 27.9882C26.8446 27.6047 26.9168 27.2209 27.0801 26.8734C27.1779 26.6653 27.2812 26.4544 27.3734 26.2434ZM30.7054 48.6394C25.901 49.2217 21.0658 49.5091 16.2267 49.5C13.2661 49.5 10.2134 48.6562 9.64643 46.0013C9.25821 44.2153 9.3001 43.2113 9.50957 42.2016C9.68553 41.3438 9.96483 40.7194 11.3613 40.5C14.9922 39.9375 17.0227 40.6434 22.9661 42.4069C26.907 43.5741 29.7502 45.1294 31.3701 46.3612C32.1829 46.9688 31.75 48.555 30.7054 48.6394ZM92.5362 71.7019C88.8606 72.1237 81.5095 71.9691 67.5838 71.9691C53.658 71.9691 46.3097 72.1237 42.6342 71.7019C38.8413 71.2772 34.0067 67.6659 37.308 64.4484C39.5061 62.3278 44.6339 60.7416 51.4628 59.85C58.2916 58.9584 61.1823 58.5 67.5558 58.5C73.9294 58.5 76.5269 58.7812 83.6489 59.8528C90.771 60.9244 96.1531 62.5303 97.8037 64.4512C100.815 67.8938 96.3262 71.2547 92.5362 71.7188V71.7019ZM125.354 45.9984C124.795 48.6647 121.723 49.4972 118.773 49.4972C113.842 49.4983 108.914 49.211 104.015 48.6366C103.161 48.555 102.764 47.0447 103.63 46.3584C105.225 45.0956 108.099 43.5713 112.034 42.4041C117.977 40.6406 121.404 39.9347 124.348 40.5225C125.066 40.6659 125.446 41.4422 125.49 41.9287C125.687 43.2835 125.641 44.663 125.354 46.0013V45.9984Z" fill="white"/>
</svg>
