<svg width="147" height="84" viewBox="0 0 147 84" fill="none" xmlns="http://www.w3.org/2000/svg">
<path d="M71.0599 0.97998H55.8099C54.2199 0.97998 52.9299 2.26998 52.9299 3.84998V9.30998C52.9299 10.9 54.2099 12.19 55.8099 12.19H71.0699C72.6499 12.19 73.9399 10.9 73.9399 9.30998V3.84998C73.9342 3.08887 73.6285 2.36072 73.0894 1.82345C72.5503 1.28618 71.8211 0.983117 71.0599 0.97998Z" fill="#AFAFAF"/>
<path d="M122.02 41.0602C117.34 36.3802 110.02 34.9302 110.02 34.9302C110.02 34.9302 106.19 24.9802 102.97 20.6502C94.1801 8.85021 83.1901 6.22021 65.3801 6.22021C53.0701 6.22021 40.8501 6.68021 30.8401 19.2902C27.0101 24.1202 20.7301 34.9302 20.7301 34.9302C20.7301 34.9302 9.64009 36.0802 4.58009 41.7102C0.700085 46.0402 -1.12991 61.6902 4.00009 66.8102C8.33009 71.1402 13.0101 73.4302 16.4001 73.8002C16.4001 73.4102 16.4201 73.0302 16.4601 72.6502C16.5701 71.4802 16.8301 70.3502 17.2201 69.2802C19.1001 64.1002 24.0601 60.3802 29.8901 60.3802C35.7101 60.3802 40.6701 64.1002 42.5501 69.2902C43.0701 70.7202 43.3701 72.2602 43.3701 73.8702H84.6601C84.6601 72.2602 84.9601 70.7202 85.4801 69.2902C87.3601 64.1002 92.3201 60.3802 98.1501 60.3802C103.97 60.3802 108.93 64.1002 110.81 69.2902C111.32 70.7102 111.62 72.2502 111.62 73.8502V73.8702H112.46C117.63 73.8702 121.98 71.2702 124.7 66.9202C129.38 59.4302 126.7 45.7402 122.02 41.0602Z" fill="#AFAFAF"/>
<path d="M6.1499 49.52C6.6099 47.37 7.2599 45.6 7.9899 44.77C11.1399 41.26 18.6099 39.75 21.2099 39.48C22.6599 39.33 23.9599 38.49 24.6999 37.23C24.7599 37.12 30.8499 26.65 34.4399 22.13C42.7899 11.6 52.5299 10.79 65.3799 10.79C83.9599 10.79 92.1899 13.85 99.2999 23.38C101.63 26.51 104.74 33.96 105.74 36.57C106.017 37.287 106.47 37.9228 107.057 38.419C107.644 38.9153 108.347 39.256 109.1 39.41C109.16 39.43 115.17 40.7 118.77 44.3C119.81 45.34 120.75 47.24 121.43 49.52H6.1499Z" fill="white"/>
<path d="M29.8801 63.8198C25.9801 63.8198 22.6401 66.0598 20.9801 69.2898C20.3047 70.58 19.9255 72.0046 19.8701 73.4598C19.8701 73.5998 19.8301 73.7298 19.8301 73.8698C19.8301 79.4198 24.3301 83.9198 29.8901 83.9198C35.4301 83.9198 39.9301 79.4198 39.9301 73.8698C39.9301 72.2098 39.4901 70.6698 38.7801 69.2898C37.1001 66.0598 33.7701 63.8198 29.8801 63.8198Z" fill="#AFAFAF"/>
<path d="M98.1501 63.8198C94.2501 63.8198 90.9201 66.0598 89.2501 69.2898C88.5301 70.6698 88.0901 72.2098 88.0901 73.8698C88.0901 79.4198 92.5901 83.9198 98.1501 83.9198C103.69 83.9198 108.2 79.4198 108.2 73.8698C108.2 72.2098 107.76 70.6698 107.05 69.2898C105.38 66.0598 102.04 63.8198 98.1501 63.8198Z" fill="#AFAFAF"/>
<path d="M56.6999 16.6801C55.5499 16.3901 47.2599 16.8601 41.8799 22.7801C36.4899 28.6901 33.5099 37.0301 39.0299 37.0301H54.9799C57.2199 37.0301 59.0599 36.0801 59.0599 33.2301V21.4901C59.0499 19.2701 58.8899 17.2301 56.6999 16.6801Z" fill="#F05C26"/>
<path d="M88.0899 19.9402C82.3299 16.0502 68.9599 16.3902 67.2999 16.6802C64.1199 17.2302 63.8799 19.2602 63.8799 21.4902V33.2302C63.8799 36.0802 66.5399 37.0302 69.7899 37.0302H92.8499C100.83 37.0302 96.2099 25.4102 88.0899 19.9402Z" fill="#F05C26"/>
<rect x="79" y="8" width="67" height="21" rx="10.5" fill="white" stroke="#AFAFAF" stroke-width="2"/>
<path d="M98.1934 18.6602V22H97.0684V13.4688H100.215C101.148 13.4688 101.879 13.707 102.406 14.1836C102.938 14.6602 103.203 15.291 103.203 16.0762C103.203 16.9043 102.943 17.543 102.424 17.9922C101.908 18.4375 101.168 18.6602 100.203 18.6602H98.1934ZM98.1934 17.7402H100.215C100.816 17.7402 101.277 17.5996 101.598 17.3184C101.918 17.0332 102.078 16.623 102.078 16.0879C102.078 15.5801 101.918 15.1738 101.598 14.8691C101.277 14.5645 100.838 14.4062 100.279 14.3945H98.1934V17.7402ZM108.312 22C108.25 21.875 108.199 21.6523 108.16 21.332C107.656 21.8555 107.055 22.1172 106.355 22.1172C105.73 22.1172 105.217 21.9414 104.814 21.5898C104.416 21.2344 104.217 20.7852 104.217 20.2422C104.217 19.582 104.467 19.0703 104.967 18.707C105.471 18.3398 106.178 18.1562 107.088 18.1562H108.143V17.6582C108.143 17.2793 108.029 16.9785 107.803 16.7559C107.576 16.5293 107.242 16.416 106.801 16.416C106.414 16.416 106.09 16.5137 105.828 16.709C105.566 16.9043 105.436 17.1406 105.436 17.418H104.346C104.346 17.1016 104.457 16.7969 104.68 16.5039C104.906 16.207 105.211 15.9727 105.594 15.8008C105.98 15.6289 106.404 15.543 106.865 15.543C107.596 15.543 108.168 15.7266 108.582 16.0938C108.996 16.457 109.211 16.959 109.227 17.5996V20.5176C109.227 21.0996 109.301 21.5625 109.449 21.9062V22H108.312ZM106.514 21.1738C106.854 21.1738 107.176 21.0859 107.48 20.9102C107.785 20.7344 108.006 20.5059 108.143 20.2246V18.9238H107.293C105.965 18.9238 105.301 19.3125 105.301 20.0898C105.301 20.4297 105.414 20.6953 105.641 20.8867C105.867 21.0781 106.158 21.1738 106.514 21.1738ZM110.668 18.7773C110.668 17.7891 110.896 17.0039 111.354 16.4219C111.811 15.8359 112.416 15.543 113.17 15.543C113.943 15.543 114.547 15.8164 114.98 16.3633L115.033 15.6602H116.023V21.8477C116.023 22.668 115.779 23.3145 115.291 23.7871C114.807 24.2598 114.154 24.4961 113.334 24.4961C112.877 24.4961 112.43 24.3984 111.992 24.2031C111.555 24.0078 111.221 23.7402 110.99 23.4004L111.553 22.75C112.018 23.3242 112.586 23.6113 113.258 23.6113C113.785 23.6113 114.195 23.4629 114.488 23.166C114.785 22.8691 114.934 22.4512 114.934 21.9121V21.3672C114.5 21.8672 113.908 22.1172 113.158 22.1172C112.416 22.1172 111.814 21.8184 111.354 21.2207C110.896 20.623 110.668 19.8086 110.668 18.7773ZM111.758 18.9004C111.758 19.6152 111.904 20.1777 112.197 20.5879C112.49 20.9941 112.9 21.1973 113.428 21.1973C114.111 21.1973 114.613 20.8867 114.934 20.2656V17.3711C114.602 16.7656 114.104 16.4629 113.439 16.4629C112.912 16.4629 112.5 16.668 112.203 17.0781C111.906 17.4883 111.758 18.0957 111.758 18.9004ZM120.295 22.1172C119.436 22.1172 118.736 21.8359 118.197 21.2734C117.658 20.707 117.389 19.9512 117.389 19.0059V18.8066C117.389 18.1777 117.508 17.6172 117.746 17.125C117.988 16.6289 118.324 16.2422 118.754 15.9648C119.188 15.6836 119.656 15.543 120.16 15.543C120.984 15.543 121.625 15.8145 122.082 16.3574C122.539 16.9004 122.768 17.6777 122.768 18.6895V19.1406H118.473C118.488 19.7656 118.67 20.2715 119.018 20.6582C119.369 21.041 119.814 21.2324 120.354 21.2324C120.736 21.2324 121.061 21.1543 121.326 20.998C121.592 20.8418 121.824 20.6348 122.023 20.377L122.686 20.8926C122.154 21.709 121.357 22.1172 120.295 22.1172ZM120.16 16.4336C119.723 16.4336 119.355 16.5938 119.059 16.9141C118.762 17.2305 118.578 17.6758 118.508 18.25H121.684V18.168C121.652 17.6172 121.504 17.1914 121.238 16.8906C120.973 16.5859 120.613 16.4336 120.16 16.4336ZM130.455 22H129.365V14.7754L127.18 15.5781V14.5938L130.285 13.4277H130.455V22Z" fill="#C4C4C4"/>
</svg>
