<svg width="35" height="34" viewBox="0 0 35 34" fill="none" xmlns="http://www.w3.org/2000/svg">
<rect width="35" height="34" rx="5" fill="#F05C26"/>
<path d="M10.6111 8.66667C10.0954 8.66667 9.60084 8.87153 9.23618 9.23618C8.87153 9.60084 8.66667 10.0954 8.66667 10.6111V12C8.66667 14.7614 10.9052 17 13.6667 17H13.9444C14.3457 17 14.743 17.079 15.1138 17.2326C15.4845 17.3861 15.8213 17.6112 16.105 17.895C16.3888 18.1787 16.6139 18.5155 16.7674 18.8862C16.921 19.257 17 19.6543 17 20.0556V20.3333C17 23.0948 19.2386 25.3333 22 25.3333H23.3889C23.9046 25.3333 24.3992 25.1285 24.7638 24.7638C25.1285 24.3992 25.3333 23.9046 25.3333 23.3889V18.9444C25.3333 18.7234 25.4211 18.5115 25.5774 18.3552C25.7337 18.1989 25.9457 18.1111 26.1667 18.1111C26.3877 18.1111 26.5996 18.1989 26.7559 18.3552C26.9122 18.5115 27 18.7234 27 18.9444V23.3889C27 24.3466 26.6195 25.2651 25.9423 25.9423C25.2651 26.6195 24.3466 27 23.3889 27H10.6111C9.65338 27 8.73488 26.6195 8.05767 25.9423C7.38046 25.2651 7 24.3466 7 23.3889V10.6111C7 9.65338 7.38046 8.73488 8.05767 8.05767C8.73488 7.38046 9.65338 7 10.6111 7H15.0556C15.2766 7 15.4885 7.0878 15.6448 7.24408C15.8011 7.40036 15.8889 7.61232 15.8889 7.83333C15.8889 8.05435 15.8011 8.26631 15.6448 8.42259C15.4885 8.57887 15.2766 8.66667 15.0556 8.66667H10.6111ZM18.1111 7.83333C18.1111 7.61232 18.1989 7.40036 18.3552 7.24408C18.5115 7.0878 18.7234 7 18.9444 7H26.1667C26.3877 7 26.5996 7.0878 26.7559 7.24408C26.9122 7.40036 27 7.61232 27 7.83333V15.0556C27 15.2766 26.9122 15.4885 26.7559 15.6448C26.5996 15.8011 26.3877 15.8889 26.1667 15.8889C25.9457 15.8889 25.7337 15.8011 25.5774 15.6448C25.4211 15.4885 25.3333 15.2766 25.3333 15.0556V15.0556C25.3333 13.1325 23.0083 12.1695 21.6485 13.5293L19.5333 15.6444C19.3754 15.7916 19.1664 15.8718 18.9505 15.868C18.7346 15.8642 18.5287 15.7767 18.376 15.624C18.2233 15.4713 18.1358 15.2654 18.132 15.0495C18.1282 14.8336 18.2084 14.6246 18.3556 14.4667L20.4707 12.3515C21.8305 10.9917 20.8675 8.66667 18.9444 8.66667V8.66667C18.7234 8.66667 18.5115 8.57887 18.3552 8.42259C18.1989 8.26631 18.1111 8.05435 18.1111 7.83333Z" fill="white"/>
</svg>
