<svg width="532" height="255" viewBox="0 0 532 255" fill="none" xmlns="http://www.w3.org/2000/svg">
<path d="M50.9102 34.3122L54.5084 33.5898L69.6212 96.4369L66.3828 97.1592L50.9102 34.3122Z" fill="#232121"/>
<path d="M453.918 130.75C435.927 123.526 349.568 111.607 349.568 111.607L267.887 61.7627C191.603 38.6465 108.483 56.3448 94.8096 63.2074C88.3327 66.4581 57.7473 98.604 42.6345 110.523C42.6345 110.523 14.5679 114.858 11.3295 138.696C9.89017 149.893 8.45086 173.009 4.13292 191.791C-1.98416 219.603 22.1243 218.88 22.1243 218.88C22.1243 218.88 26.8021 218.88 34.7183 218.88C34.7183 216.713 34.7183 214.185 34.7183 211.656C34.7183 184.206 56.6678 162.535 83.6549 162.535C110.642 162.535 132.592 184.567 132.592 211.656C132.592 214.546 132.232 217.435 131.872 220.325C199.16 219.964 250.255 220.325 321.861 220.686C321.142 217.435 321.142 215.268 321.142 211.656C321.142 184.567 343.091 162.535 370.078 162.535C397.065 162.535 419.015 184.567 419.015 211.656C419.015 215.63 418.655 219.241 417.575 222.853C444.563 222.853 456.077 222.853 458.596 222.492C471.55 220.325 478.027 209.128 479.826 199.015C482.704 163.257 453.918 130.75 453.918 130.75ZM75.7387 116.302C75.7387 116.302 99.4874 83.4341 106.684 78.3774C122.876 67.9029 179.009 68.9865 179.009 68.9865L188.725 116.302H75.7387ZM203.478 116.302C203.478 116.302 195.561 84.1564 191.963 68.2641C191.603 67.5417 227.946 68.2641 255.653 75.1267C270.766 79.0998 278.682 85.9624 287.318 91.0191C322.581 112.69 322.941 115.941 322.941 115.941L203.478 116.302Z" fill="#BFB8B8"/>
<path d="M41.9141 214.186C41.9141 191.431 60.2653 173.371 82.5746 173.371C104.884 173.371 123.235 191.792 123.235 214.186C123.235 236.579 104.884 255 82.5746 255C60.2653 255 41.9141 236.579 41.9141 214.186Z" fill="#232121"/>
<path d="M54.1484 214.184C54.1484 198.292 66.7424 185.65 82.5749 185.65C98.4073 185.65 111.001 198.292 111.001 214.184C111.001 230.077 98.4073 242.718 82.5749 242.718C66.7424 242.718 54.1484 229.716 54.1484 214.184ZM58.4664 214.184C58.4664 227.548 69.2612 238.384 82.5749 238.384C95.8885 238.384 106.683 227.548 106.683 214.184C106.683 200.82 95.8885 189.985 82.5749 189.985C69.2612 189.623 58.4664 200.82 58.4664 214.184Z" fill="#BFB8B8"/>
<path d="M108.123 219.603C97.6884 218.881 90.132 216.714 90.132 213.824C90.132 210.935 97.6884 208.768 108.123 208.045C107.404 205.156 106.324 202.266 104.525 199.738C96.6089 206.6 89.7722 210.573 87.6132 208.406C85.8141 206.6 89.4123 199.377 96.2491 191.43C94.4499 190.347 92.6508 189.624 90.8517 188.902C89.7722 188.541 89.0525 188.18 87.973 188.18C87.2534 198.654 85.0944 206.239 82.2158 206.239C79.3372 206.239 77.1782 198.654 76.4585 188.18C73.5799 188.902 70.7013 189.986 68.1825 191.792C75.0192 199.738 78.9773 206.6 76.8184 208.406C75.0192 210.212 67.8227 206.6 59.9064 199.738C58.8269 201.544 58.1073 203.35 57.3876 205.156C57.0278 206.239 56.668 206.962 56.668 208.045C67.103 208.768 74.6594 210.935 74.6594 213.824C74.6594 216.714 67.103 218.881 56.668 219.603C57.3876 222.493 58.4671 225.382 60.2663 227.911C68.1825 221.048 75.0192 217.075 77.1782 219.242C78.9773 221.048 75.3791 228.272 68.5423 236.218C70.3415 237.302 72.1406 238.024 73.9397 238.746C75.0192 239.108 75.7389 239.469 76.8184 239.469C77.538 228.994 79.697 221.409 82.5756 221.409C85.4542 221.409 87.6132 228.994 88.3329 239.469C91.2115 238.746 94.0901 237.663 96.6089 235.857C89.7722 227.911 85.8141 221.048 87.973 218.881C89.7722 217.075 96.9687 220.687 104.885 227.549C105.964 225.743 106.684 223.938 107.404 222.132C107.404 221.77 107.764 220.687 108.123 219.603Z" fill="#BFB8B8"/>
<path d="M329.059 214.186C329.059 191.792 347.41 173.371 369.719 173.371C392.028 173.371 410.38 191.792 410.38 214.186C410.38 236.579 392.028 255 369.719 255C347.41 255 329.059 236.579 329.059 214.186Z" fill="#232121"/>
<path d="M341.293 214.184C341.293 198.292 353.887 185.65 369.719 185.65C385.552 185.65 398.146 198.292 398.146 214.184C398.146 230.077 385.552 242.718 369.719 242.718C353.887 242.718 341.293 229.716 341.293 214.184ZM345.611 214.184C345.611 227.548 356.406 238.384 369.719 238.384C383.033 238.384 393.828 227.548 393.828 214.184C393.828 200.82 383.033 189.985 369.719 189.985C356.406 189.623 345.611 200.82 345.611 214.184Z" fill="#BFB8B8"/>
<path d="M395.266 219.603C384.831 218.881 377.275 216.714 377.275 213.824C377.275 210.935 384.831 208.768 395.266 208.045C394.546 205.156 393.467 202.266 391.668 199.738C383.752 206.6 376.915 210.573 374.756 208.406C372.957 206.6 376.555 199.377 383.392 191.43C381.593 190.347 379.793 189.624 377.994 188.902C376.915 188.541 376.195 188.18 375.116 188.18C374.396 198.654 372.237 206.239 369.358 206.239C366.48 206.239 364.321 198.654 363.601 188.18C360.723 188.902 357.844 189.986 355.325 191.792C362.162 199.738 366.12 206.6 363.961 208.406C362.162 210.212 354.965 206.6 347.049 199.738C345.97 201.544 345.25 203.35 344.53 205.156C344.17 206.239 343.811 206.962 343.811 208.045C354.246 208.768 361.802 210.935 361.802 213.824C361.802 216.714 354.246 218.881 343.811 219.603C344.53 222.493 345.61 225.382 347.409 227.911C355.325 221.048 362.162 217.075 364.321 219.242C366.12 221.048 362.522 228.272 355.685 236.218C357.484 237.302 359.283 238.024 361.082 238.746C362.162 239.108 362.881 239.469 363.961 239.469C364.681 228.994 366.84 221.409 369.718 221.409C372.597 221.409 374.756 228.994 375.475 239.469C378.354 238.746 381.233 237.663 383.752 235.857C376.915 227.911 372.957 221.048 375.116 218.881C376.915 217.075 384.111 220.687 392.028 227.549C393.107 225.743 393.827 223.938 394.546 222.132C394.546 221.77 394.906 220.687 395.266 219.603Z" fill="#BFB8B8"/>
<path d="M20.6845 122.082C25.7221 122.443 23.9229 122.082 29.6802 122.443L40.1152 122.804C45.8724 123.165 46.5921 125.693 41.1947 128.222L15.6469 141.947C10.6093 144.836 10.6093 144.114 11.3289 139.419L13.1281 130.028C13.8477 125.332 16.3665 121.72 20.6845 122.082Z" fill="#D8D8D8"/>
<path d="M41.5543 186.375H5.93129C5.57146 188.181 5.21164 189.987 4.85181 191.793C2.33301 203.351 4.85181 209.852 8.80992 213.825H34.7176C34.7176 213.103 34.7176 212.381 34.7176 211.658C34.7176 202.267 37.2364 193.96 41.5543 186.375Z" fill="#D8D8D8"/>
<path d="M327.617 186.375H125.754C130.072 193.599 132.591 202.267 132.591 211.297C132.591 212.019 132.591 212.742 132.591 213.464H321.141C321.141 212.742 321.141 212.019 321.141 211.297C320.781 202.267 323.299 193.96 327.617 186.375Z" fill="#D8D8D8"/>
<path d="M479.106 186.375H411.818C416.136 193.599 418.655 202.267 418.655 211.297C418.655 212.019 418.655 212.742 418.655 213.464H472.989C476.587 209.13 478.746 203.712 479.826 198.294C480.186 194.321 479.826 190.348 479.106 186.375Z" fill="#D8D8D8"/>
<path d="M235.862 130.751C235.862 132.196 234.782 133.64 232.983 133.64H210.674C209.234 133.64 207.795 132.557 207.795 130.751C207.795 129.306 208.874 127.861 210.674 127.861H232.983C234.422 127.861 235.862 128.945 235.862 130.751Z" fill="#D8D8D8"/>
<path d="M334.094 117.026C334.094 124.611 327.617 130.39 319.341 130.39C315.383 130.39 315.023 124.25 315.023 117.026C315.023 109.441 315.383 103.662 319.341 103.662C327.617 103.662 334.094 109.802 334.094 117.026Z" fill="#D8D8D8"/>
<path d="M464.713 148.088C464.713 148.088 442.403 147.004 434.127 144.837C423.692 141.948 417.215 137.613 424.412 135.446C431.608 133.279 454.637 136.53 454.637 136.53L464.713 148.088Z" fill="#D8D8D8"/>
<path d="M439.524 123.887L349.567 110.523C344.17 117.386 351.007 123.165 351.007 123.165L453.198 131.111L439.524 123.887Z" fill="#232121"/>
<path d="M342.012 109.079L415.057 1.08357C415.057 1.08357 427.291 -3.25071 425.132 5.41785C422.973 14.4476 349.208 127.5 349.208 127.5L342.012 109.079Z" fill="#BFB8B8"/>
<path d="M96.6087 64.2921C79.337 39.0088 47.3123 10.1137 0.534633 15.8927C-0.544851 18.7822 5.57222 25.2836 8.09102 25.6448C11.3295 26.006 26.0824 27.0896 40.1157 31.7851C60.2661 38.6477 73.2199 55.6236 82.2156 78.0173C87.9729 74.0443 96.6087 64.2921 96.6087 64.2921Z" fill="#BFB8B8"/>
<path d="M515.088 220.326C513.649 223.938 514.728 227.911 515.088 232.606C515.448 237.302 516.887 241.275 511.85 242.358C507.172 243.442 488.821 243.442 488.821 243.442C488.821 243.442 479.105 241.275 489.181 236.94C497.097 233.69 502.854 229.355 502.134 219.965C502.494 218.52 515.088 220.326 515.088 220.326Z" fill="black"/>
<path d="M490.98 104.021C491.34 122.081 492.78 171.925 493.139 174.454C496.018 198.292 498.897 231.522 498.897 231.522L513.65 231.16C513.65 231.16 519.407 189.623 514.009 172.648C512.57 167.591 520.127 116.302 520.127 116.302L490.98 104.021Z" fill="#F05C26"/>
<path d="M529.481 229.716C529.841 233.689 532 239.107 530.92 244.886C530.561 246.692 526.962 247.776 524.084 248.137C523.004 248.498 518.686 251.026 516.527 252.11C508.971 255 505.373 252.832 503.933 252.11C502.494 251.388 502.134 249.22 505.373 245.97C508.251 243.08 512.569 241.635 513.649 239.107C514.728 236.579 514.368 228.271 514.368 228.271L529.481 229.716Z" fill="#232121"/>
<path d="M492.42 101.133C492.78 119.193 496.378 139.419 503.215 175.899C505.734 188.18 512.57 240.191 512.57 240.191L531.641 240.914C531.641 240.914 533.8 206.601 527.683 176.261C526.963 173.01 528.403 143.392 530.202 120.276C531.281 106.551 522.645 91.7422 522.645 91.7422L492.42 101.133Z" fill="#F05C26"/>
<path d="M395.266 110.886C396.345 111.969 402.462 109.802 406.42 108.719C408.219 107.996 421.533 109.08 422.253 109.08C423.332 108.719 418.654 102.217 418.654 102.217C418.654 102.217 411.458 102.94 405.341 102.217C401.383 101.856 398.144 99.689 397.425 100.05C395.625 100.411 389.148 103.301 389.148 103.301L395.266 110.886Z" fill="#DDAC9E"/>
<path d="M418.654 97.8814C415.416 97.8814 404.981 101.854 403.182 100.41C401.383 99.3261 399.583 98.965 396.705 98.6038C394.186 98.2426 392.747 94.2695 392.027 94.9919C391.307 95.7143 390.948 95.7143 392.027 97.8814C393.106 99.3262 394.186 100.771 394.186 100.771C394.186 100.771 402.822 103.299 403.542 103.66C404.261 103.66 418.295 101.854 419.014 101.854C420.094 102.216 418.654 97.8814 418.654 97.8814Z" fill="#E8C8BA"/>
<path d="M451.759 68.627C447.082 72.2389 439.525 90.2983 431.969 93.1879C424.772 95.7162 407.141 100.412 407.141 100.412L413.618 110.886C413.618 110.886 421.894 110.525 427.291 109.803C432.688 109.08 438.086 107.635 443.123 104.746C447.082 102.579 464.353 88.4924 463.993 83.4357C463.634 78.3791 451.759 68.627 451.759 68.627Z" fill="#F05C26"/>
<path d="M457.517 59.5945C457.517 59.5945 457.517 59.5945 452.119 58.8721C448.521 58.5109 445.642 56.7049 443.483 54.899C441.684 49.8423 437.726 44.4245 429.45 38.2843C417.576 29.6157 404.982 48.0364 407.5 57.4273C407.5 58.5109 407.141 59.9556 407.141 60.3168C408.58 64.6511 413.258 66.4571 417.935 70.069C417.935 70.069 417.936 70.069 418.295 70.4302C419.015 71.5137 421.174 74.042 421.534 75.848L421.894 76.2092C422.613 76.9316 424.053 75.4868 425.492 74.7644H425.852C429.09 76.2092 431.609 77.2928 433.408 76.5704C433.768 76.5704 433.768 76.5704 434.128 76.5704C436.647 75.848 437.006 75.4868 439.525 72.5973C443.124 74.042 452.479 78.7375 452.479 78.7375L453.559 70.7913H453.199L457.517 59.5945Z" fill="#DDAC9E"/>
<path d="M422.614 34.3121C419.375 33.9509 415.417 33.9509 410.739 39.7299C406.421 45.1478 404.262 49.4821 404.982 55.9835C405.342 59.2342 408.58 59.9566 408.58 59.9566C408.58 59.9566 409.66 54.8999 411.099 54.1775C412.539 53.094 412.898 57.067 416.497 57.067C419.735 57.4282 424.053 57.4282 424.053 57.4282C424.053 57.4282 430.53 53.4551 432.329 54.8999C434.128 56.3447 442.764 54.1775 442.764 54.1775C442.764 54.1775 442.404 48.0373 437.007 41.5359C429.81 31.7838 423.333 34.6733 422.614 34.3121Z" fill="#300901"/>
<path d="M427.652 57.0664C427.652 55.6217 427.293 52.0098 429.092 52.0098C430.891 52.0098 434.849 55.9829 434.489 59.2336C433.769 62.4843 427.652 57.0664 427.652 57.0664Z" fill="#DDAC9E"/>
<path d="M399.944 67.181C397.426 70.0705 398.865 72.5988 402.823 72.5988C406.421 72.5988 406.781 70.7929 408.58 68.2645C411.099 64.2914 412.538 60.3184 412.538 60.3184L399.944 67.181Z" fill="#F05C26"/>
<path d="M440.967 45.1481C438.448 46.2317 422.256 49.8436 422.256 49.8436C422.256 49.8436 417.938 60.3181 414.34 62.4852C410.742 64.6523 402.106 63.2076 398.867 68.9866C402.106 61.7628 404.265 58.8733 404.265 58.8733C404.265 58.8733 401.026 52.3719 404.984 42.9809C406.783 39.0078 411.821 34.3124 414.7 33.59C417.578 32.8676 424.055 29.9781 430.532 33.9512C437.009 38.2855 440.967 45.1481 440.967 45.1481Z" fill="#F05C26"/>
<path d="M430.89 34.3115C437.007 38.6458 441.325 45.1472 441.325 45.1472C439.166 45.8696 427.652 48.7591 423.693 49.4815C422.254 43.7025 418.656 36.4787 414.338 33.9503C414.698 33.9503 414.698 33.5891 415.058 33.5891C417.936 33.2279 424.413 29.9772 430.89 34.3115Z" fill="#F05C26"/>
<path d="M442.044 74.4062L441.324 78.3793L448.161 84.1584L450.32 76.5734L442.044 74.4062Z" fill="#F05C26"/>
<path d="M449.24 59.2362C458.235 57.7914 470.47 57.069 486.662 66.8212C503.214 76.9345 525.883 85.9642 526.603 102.218C526.963 107.636 507.172 120.638 494.938 121.361C489.9 121.722 483.064 114.498 478.026 109.442C472.988 104.024 453.558 95.7163 447.081 79.824C444.562 73.6838 449.24 59.2362 449.24 59.2362Z" fill="#F05C26"/>
<path d="M447.442 57.4297C447.442 60.6804 443.844 77.6563 443.844 77.6563L453.559 84.5189L454.639 57.7909L447.442 57.4297Z" fill="#F05C26"/>
<path d="M385.191 89.2144L387.35 88.1309L412.538 127.501L410.739 128.945L385.191 89.2144Z" fill="#232121"/>
<path d="M381.232 87.0473V86.6861C381.232 84.8802 382.312 83.4354 384.111 83.0742H384.471C386.27 83.0742 387.709 84.1578 388.069 85.9637H387.709H388.069V86.3249C388.069 88.1309 386.99 89.5756 385.19 89.9368H384.831C383.032 89.9368 381.592 88.8533 381.232 87.0473ZM384.471 84.1578C383.391 84.519 382.312 85.2414 382.312 86.6861V87.0473C382.312 88.1309 383.391 89.2144 384.831 89.2144H385.19C386.27 88.8533 387.349 88.1309 387.349 86.6861V86.3249C386.99 85.2414 386.27 84.1578 384.831 84.1578H384.471Z" fill="#232121"/>
<path d="M389.149 102.578C388.07 104.023 388.429 105.467 389.869 105.467C389.509 106.551 390.588 108.718 392.028 108.357C391.308 109.44 392.747 110.524 393.827 110.524C394.187 111.608 394.906 111.969 395.986 111.608C397.425 111.246 400.664 110.163 400.664 109.079C400.664 107.635 396.346 109.44 396.346 109.44C396.346 109.44 399.584 108.357 399.584 107.273C399.584 107.273 400.304 105.829 398.865 106.19C397.785 106.19 393.827 107.273 393.827 107.273C393.827 107.273 398.505 105.467 398.505 105.106C398.505 104.023 398.145 103.3 392.028 105.106C395.986 103.661 396.706 103.3 396.346 102.217C396.346 100.411 389.149 102.578 389.149 102.578Z" fill="#E8C8BA"/>
<path d="M478.386 109.441C483.424 114.859 490.62 121.721 495.298 121.36C499.256 120.999 508.252 117.387 512.93 115.22C513.289 114.136 511.85 110.525 511.49 109.441C505.733 93.5486 467.951 77.2951 459.675 72.5996L447.801 80.907C454.997 96.4381 473.349 104.384 478.386 109.441Z" fill="#F05C26"/>
<path d="M396.346 125.332C396.706 124.609 404.262 122.442 404.622 122.081C404.982 122.081 407.501 120.636 409.66 119.553C407.501 119.191 403.902 117.747 404.982 117.386C407.86 117.024 412.898 117.747 414.697 118.108H426.572C421.894 123.887 427.651 122.803 423.693 125.332C422.973 126.054 410.379 128.944 409.3 129.305C408.22 129.305 401.384 131.111 400.664 130.027C400.304 129.666 404.262 128.944 405.702 128.582C403.902 128.944 398.145 129.666 398.145 128.944C398.505 128.221 405.342 126.415 405.342 126.415C405.342 126.415 400.304 127.499 398.505 127.499C396.346 127.499 396.346 126.776 397.785 126.415C398.865 126.054 404.982 124.248 404.982 124.248C404.982 124.248 402.463 124.971 399.944 125.332C396.706 126.054 395.626 126.054 396.346 125.332Z" fill="#E8C8BA"/>
<path d="M466.512 64.6523C466.512 64.6523 469.031 70.4313 468.311 75.1268C466.512 87.4073 459.316 106.189 454.278 110.885C444.923 119.192 433.768 122.804 425.132 124.971C420.454 126.055 416.496 115.941 416.496 115.941C416.496 115.941 440.605 98.9653 442.404 96.437C446.722 88.852 449.6 68.9866 452.119 65.3747C454.998 61.4016 461.475 59.5956 466.512 64.6523Z" fill="#F05C26"/>
</svg>
