<svg width="31" height="31" viewBox="0 0 31 31" fill="none" xmlns="http://www.w3.org/2000/svg">
<g clip-path="url(#clip0)">
<path d="M30.7058 16.7405C31.098 15.9637 31.098 15.0363 30.7058 14.2594L30.2997 13.455C30.2112 13.2796 30.1802 13.0844 30.2102 12.8902L30.3479 11.9996C30.4808 11.1397 30.1942 10.2576 29.5811 9.64L28.9464 9.00045C28.808 8.861 28.7182 8.68479 28.6867 8.49084L28.5425 7.60134C28.4047 6.75192 27.8701 6.0087 27.1098 5.60755L26.3288 5.14693C26.3137 5.13803 26.2984 5.12955 26.2828 5.12156C26.1081 5.03176 25.9683 4.89195 25.8785 4.71719L25.4663 3.91585C25.0778 3.16016 24.2855 2.60133 23.3986 2.45746L22.5091 2.31322C22.3152 2.28174 22.139 2.192 21.9995 2.05364L21.36 1.41875C20.7424 0.805726 19.8605 0.519315 19.0004 0.652045L18.1098 0.789679C17.9155 0.819713 17.7203 0.788771 17.545 0.700244L16.7405 0.294123C15.9638 -0.0980107 15.0363 -0.0980713 14.2595 0.294123L13.455 0.700244C13.2797 0.78871 13.0845 0.819592 12.8902 0.78974L11.9997 0.652105C11.1395 0.519073 10.2576 0.805786 9.64003 1.41881L9.00043 2.05358C8.86104 2.192 8.68483 2.28174 8.49088 2.31322L7.60131 2.45746C6.71447 2.60133 5.92215 3.1601 5.53359 3.91585L5.12154 4.71719C5.03168 4.89188 4.89186 5.03176 4.71711 5.12156L3.91571 5.53367C3.16002 5.92224 2.60119 6.71456 2.45738 7.6014L2.31308 8.49097C2.28165 8.68491 2.19186 8.86106 2.05343 9.00051L1.41873 9.64006C0.805703 10.2576 0.519111 11.1397 0.652022 11.9996L0.789717 12.8902C0.819751 13.0844 0.788809 13.2796 0.700221 13.455L0.2941 14.2594C-0.0980334 15.0362 -0.0980334 15.9637 0.2941 16.7405L0.700221 17.5449C0.788748 17.7203 0.81969 17.9156 0.789717 18.1097L0.652022 19.0003C0.519111 19.8603 0.805763 20.7424 1.41873 21.3599L2.05356 21.9995C2.19198 22.139 2.28177 22.3151 2.3132 22.5091L2.4575 23.3986C2.60131 24.2855 3.16014 25.0778 3.91583 25.4664L4.71717 25.8784C4.89192 25.9683 5.03174 26.1081 5.1216 26.2829L5.53365 27.0843C5.92227 27.8399 6.71459 28.3988 7.60144 28.5426L8.49094 28.6869C8.68489 28.7184 8.8611 28.8081 9.00049 28.9465L9.64009 29.5814C10.2578 30.1944 11.1398 30.4808 11.9997 30.348L12.8903 30.2103C13.0843 30.1803 13.2797 30.2113 13.455 30.2998L14.2595 30.7059C14.6479 30.902 15.074 31 15.5 31C15.9261 31 16.3521 30.902 16.7405 30.7059L17.545 30.2998C17.7203 30.2113 17.9157 30.1804 18.1098 30.2103L19.0003 30.3479C19.8603 30.4808 20.7423 30.1943 21.36 29.5812L21.9995 28.9464C22.1389 28.808 22.3151 28.7182 22.5091 28.6868L23.3986 28.5425C24.248 28.4047 24.9913 27.8701 25.3924 27.1098L25.853 26.3288C25.8619 26.3137 25.8704 26.2984 25.8784 26.2827C25.9682 26.108 26.1081 25.9682 26.2828 25.8784L27.0841 25.4663C27.858 25.0684 28.4032 24.3181 28.5425 23.4591L28.6867 22.5696C28.7182 22.3757 28.808 22.1995 28.9464 22.06C28.956 22.0503 29.5971 21.3438 29.5971 21.3438C30.1991 20.727 30.4797 19.8528 30.3479 19.0003L30.2102 18.1098C30.1802 17.9156 30.2111 17.7203 30.2997 17.5449L30.7058 16.7405Z" fill="url(#paint0_linear)"/>
<path d="M15.5009 4.54004C9.4838 4.54004 4.54102 9.48416 4.54102 15.4999C4.54102 21.517 9.48513 26.4598 15.5009 26.4598C21.518 26.4598 26.4608 21.5157 26.4608 15.4999C26.4608 9.48282 21.5166 4.54004 15.5009 4.54004ZM21.8317 12.9954L20.0152 20.2616C19.9141 20.6659 19.5508 20.9496 19.134 20.9496H11.8678C11.451 20.9496 11.0877 20.6659 10.9866 20.2616L9.17008 12.9954C9.06309 12.5673 9.2792 12.1243 9.68241 11.945C10.0856 11.7659 10.5593 11.9024 10.8053 12.2687C11.0539 12.6341 11.953 13.6834 12.7761 13.6834C12.9265 13.6834 13.3925 13.3333 13.8725 12.251C14.3032 11.28 14.5926 10.0306 14.5926 9.14198C14.5926 8.64037 14.9993 8.2337 15.5009 8.2337C16.0025 8.2337 16.4092 8.64037 16.4092 9.14198C16.4092 10.0306 16.6986 11.28 17.1293 12.251C17.6094 13.3333 18.0753 13.6834 18.2257 13.6834C19.0733 13.6834 19.9958 12.5675 20.1965 12.2687C20.4425 11.9025 20.9163 11.7659 21.3194 11.945C21.7226 12.1243 21.9387 12.5673 21.8317 12.9954Z" fill="url(#paint1_linear)"/>
</g>
<defs>
<linearGradient id="paint0_linear" x1="15.5" y1="31" x2="15.5" y2="2.21729e-05" gradientUnits="userSpaceOnUse">
<stop stop-color="#FD5900"/>
<stop offset="1" stop-color="#FFDE00"/>
</linearGradient>
<linearGradient id="paint1_linear" x1="15.5009" y1="26.4598" x2="15.5009" y2="4.54004" gradientUnits="userSpaceOnUse">
<stop stop-color="#FFE59A"/>
<stop offset="1" stop-color="#FFFFD5"/>
</linearGradient>
<clipPath id="clip0">
<rect width="31" height="31" fill="white"/>
</clipPath>
</defs>
</svg>
