<svg width="63" height="63" viewBox="0 0 63 63" fill="none" xmlns="http://www.w3.org/2000/svg">
<path d="M3.37512 55.6344V59.625C3.37512 60.4538 3.70436 61.2487 4.29041 61.8347C4.87646 62.4208 5.67132 62.75 6.50012 62.75H9.62512C10.4539 62.75 11.2488 62.4208 11.8348 61.8347C12.4209 61.2487 12.7501 60.4538 12.7501 59.625V56.5H50.2501V59.625C50.2501 60.4538 50.5794 61.2487 51.1654 61.8347C51.7515 62.4208 52.5463 62.75 53.3751 62.75H56.5001C57.3289 62.75 58.1238 62.4208 58.7098 61.8347C59.2959 61.2487 59.6251 60.4538 59.6251 59.625V55.6344C60.5732 55.0906 61.3613 54.3067 61.9099 53.3614C62.4585 52.4161 62.7483 51.3429 62.7501 50.25V40.875C62.7501 38.2781 61.1657 36.0562 58.9126 35.1094L54.6376 22.2844C54.0175 20.4171 52.8246 18.7928 51.2286 17.6422C49.6326 16.4916 47.7145 15.8732 45.747 15.875H17.2532C15.2857 15.8732 13.3677 16.4916 11.7716 17.6422C10.1756 18.7928 8.98277 20.4171 8.36262 22.2844L4.08762 35.1094C2.95106 35.5854 1.98047 36.3866 1.29773 37.4124C0.614988 38.4381 0.25053 39.6428 0.250122 40.875V50.25C0.250122 52.5562 1.51262 54.55 3.37512 55.6344ZM11.1876 50.25C10.5718 50.2498 9.96214 50.1283 9.39332 49.8925C8.82449 49.6566 8.30769 49.3111 7.87241 48.8755C6.99333 47.9958 6.49971 46.803 6.50012 45.5594C6.50054 44.3158 6.99496 43.1232 7.87462 42.2442C8.75428 41.3651 9.94713 40.8715 11.1907 40.8719C12.4344 40.8723 13.6269 41.3667 14.506 42.2464C15.385 43.126 15.8787 44.3189 15.8782 45.5625C15.8778 46.8061 15.3834 47.9986 14.5037 48.8777C13.6241 49.7568 12.4312 50.2504 11.1876 50.25ZM51.8126 50.25C50.569 50.2496 49.3765 49.7552 48.4974 48.8755C47.6183 47.9958 47.1247 46.803 47.1251 45.5594C47.1255 44.3158 47.62 43.1232 48.4996 42.2442C49.3793 41.3651 50.5721 40.8715 51.8157 40.8719C53.0594 40.8723 54.2519 41.3667 55.131 42.2464C56.01 43.126 56.5037 44.3189 56.5032 45.5625C56.5028 46.8061 56.0084 47.9986 55.1287 48.8777C54.2491 49.7568 53.0562 50.2504 51.8126 50.25ZM17.2532 22.125H45.7439C46.4 22.1248 47.0396 22.3312 47.5718 22.7149C48.1041 23.0985 48.5022 23.64 48.7095 24.2625L52.1657 34.625H10.8345L14.2876 24.2625C14.7157 22.9844 15.9095 22.125 17.2532 22.125Z" fill="#20B038"/>
<path d="M62.7501 17.0875V10.4969L32.4876 0.409376C31.8188 0.185512 31.0938 0.195428 30.4314 0.437501L0.250122 11.4125V18.0625L31.547 6.68125L62.7501 17.0875Z" fill="#20B038"/>
</svg>
