<svg width="16" height="16" viewBox="0 0 16 16" fill="none" xmlns="http://www.w3.org/2000/svg">
<path d="M8 0.125C3.65117 0.125 0.125 3.65117 0.125 8C0.125 12.3488 3.65117 15.875 8 15.875C12.3488 15.875 15.875 12.3488 15.875 8C15.875 3.65117 12.3488 0.125 8 0.125ZM8 14.5391C4.38945 14.5391 1.46094 11.6105 1.46094 8C1.46094 4.38945 4.38945 1.46094 8 1.46094C11.6105 1.46094 14.5391 4.38945 14.5391 8C14.5391 11.6105 11.6105 14.5391 8 14.5391Z" fill="black"/>
<path d="M7.15625 4.90625C7.15625 5.13003 7.24514 5.34464 7.40338 5.50287C7.56161 5.66111 7.77622 5.75 8 5.75C8.22378 5.75 8.43839 5.66111 8.59662 5.50287C8.75485 5.34464 8.84375 5.13003 8.84375 4.90625C8.84375 4.68247 8.75485 4.46786 8.59662 4.30963C8.43839 4.15139 8.22378 4.0625 8 4.0625C7.77622 4.0625 7.56161 4.15139 7.40338 4.30963C7.24514 4.46786 7.15625 4.68247 7.15625 4.90625ZM8.42188 6.875H7.57812C7.50078 6.875 7.4375 6.93828 7.4375 7.01562V11.7969C7.4375 11.8742 7.50078 11.9375 7.57812 11.9375H8.42188C8.49922 11.9375 8.5625 11.8742 8.5625 11.7969V7.01562C8.5625 6.93828 8.49922 6.875 8.42188 6.875Z" fill="black"/>
</svg>
