<svg width="80" height="72" viewBox="0 0 80 72" fill="none" xmlns="http://www.w3.org/2000/svg">
<mask id="path-1-outside-1_1_23" maskUnits="userSpaceOnUse" x="0" y="0" width="80" height="72" fill="black">
<rect fill="white" width="80" height="72"/>
<path d="M4.6877 64.0854C5.41634 62.8148 6.13652 61.5441 6.86521 60.265C8.70373 57.0371 10.5422 53.809 12.3809 50.5809C14.8296 46.2799 17.278 41.9873 19.7267 37.6861C22.2684 33.2217 24.8101 28.7662 27.352 24.3019C29.5125 20.5159 31.6731 16.7212 33.8336 12.9352C35.096 10.7288 36.3499 8.51393 37.6124 6.30752C37.731 6.10147 37.8412 5.90402 37.9598 5.69798C37.9852 5.65505 38.0021 5.62071 38.0276 5.57779C38.0699 5.5091 38.1038 5.44042 38.1462 5.38033C38.1631 5.34599 38.1885 5.32023 38.2055 5.28589C38.3071 5.13995 38.2902 5.1657 38.1292 5.37175C38.1377 5.37175 38.2733 5.20004 38.2648 5.20862C38.3326 5.13136 38.4088 5.05409 38.4851 4.98541C38.5359 4.9339 38.5867 4.89097 38.6376 4.84805C38.7731 4.73644 38.7393 4.7622 38.5359 4.92531C38.6461 4.90814 38.8579 4.71068 38.9595 4.65918C39.0358 4.61625 39.1629 4.58191 39.2222 4.52181C38.9765 4.73644 38.968 4.62484 39.1798 4.54757C39.3323 4.49606 39.4933 4.45313 39.6543 4.41879C39.8576 4.37587 39.9762 4.46172 39.5865 4.41879C39.7051 4.43596 39.8492 4.39304 39.9762 4.39304C40.1288 4.39304 40.3067 4.43596 40.4592 4.41879C40.0695 4.46172 40.1881 4.37587 40.3914 4.41879C40.4846 4.43596 40.5778 4.46172 40.6795 4.48747C40.7557 4.51323 40.832 4.53898 40.9082 4.56474C41.1031 4.62484 41.0523 4.72786 40.8235 4.52181C40.976 4.65918 41.2472 4.75362 41.4251 4.86522C41.6623 5.01117 41.3403 4.81371 41.3234 4.77937C41.3488 4.83946 41.5013 4.9339 41.5522 4.98541C41.6284 5.05409 41.6962 5.13136 41.7725 5.20862C42.0351 5.50052 41.747 5.22579 41.7725 5.19145C41.7725 5.19145 41.9927 5.53486 42.0182 5.56919C42.0436 5.60352 42.0605 5.64646 42.0775 5.6808C43.0179 7.32913 43.9584 8.97747 44.8988 10.6258C46.8729 14.0856 48.847 17.554 50.8213 21.0138C53.3207 25.4007 55.8201 29.7878 58.3194 34.1834C60.8443 38.6133 63.3691 43.0433 65.894 47.4731C67.9274 51.0445 69.9608 54.6159 71.9942 58.1873C73.0618 60.0588 74.1209 61.9218 75.1884 63.7933C75.2392 63.8878 75.2985 63.9822 75.3494 64.0767C75.3663 64.111 75.5612 64.4716 75.5527 64.4802C75.5273 64.4887 75.4171 64.0681 75.5019 64.3771C75.5273 64.4802 75.5696 64.5832 75.5951 64.6862C75.6205 64.7892 75.6374 64.8922 75.6628 64.9953C75.7391 65.3644 75.6544 64.5832 75.6544 64.9523C75.6544 65.1584 75.6544 65.3644 75.6459 65.5705C75.629 65.9396 75.7391 65.1584 75.6544 65.519C75.6374 65.6048 75.6205 65.6821 75.5951 65.7679C75.5781 65.8538 75.5527 65.931 75.5273 66.0083C75.468 66.1886 75.3324 66.2916 75.5527 65.974C75.451 66.1199 75.3917 66.3088 75.2985 66.4633C75.2562 66.532 75.2053 66.6007 75.163 66.6779C75.0105 66.9269 75.4256 66.3775 75.1206 66.7294C75.002 66.8668 74.841 66.9784 74.7224 67.1158C74.5784 67.2875 75.0782 66.8754 74.7902 67.0643C74.7055 67.1158 74.6207 67.1759 74.536 67.2274C74.4513 67.2789 74.3581 67.3218 74.2649 67.3733C73.9599 67.545 74.5614 67.2961 74.3411 67.3476C74.1208 67.3991 73.9006 67.4849 73.6803 67.5364C73.3159 67.6309 74.087 67.5193 73.6972 67.5364C73.621 67.5364 73.5447 67.545 73.4769 67.545H73.3583H73.3244H72.8161H65.8347H53.2869H38.0447H23.1837H11.7372C10.0682 67.545 8.399 67.5622 6.72997 67.545H6.69608H6.57746C6.54357 67.545 6.26398 67.5021 6.24703 67.5193C6.27245 67.4935 6.67066 67.6051 6.37412 67.5279C6.17078 67.4764 5.96743 67.4248 5.76409 67.3562C5.41671 67.2445 6.103 67.545 5.78951 67.3647C5.7302 67.3304 5.6709 67.3046 5.61159 67.2703C5.52687 67.2188 5.43367 67.1673 5.34894 67.1072C5.32353 67.09 5.28964 67.0728 5.26422 67.0471C5.12018 66.9441 5.15407 66.9698 5.36589 67.1329C5.31505 67.0213 5.09476 66.884 5.00156 66.7895C4.95072 66.7294 4.87447 66.6007 4.80669 66.5577C4.85753 66.6178 4.89989 66.6865 4.95073 66.7466C4.90836 66.6951 4.87447 66.635 4.84058 66.5835C4.74739 66.4461 4.66266 66.3002 4.59488 66.1456C4.57794 66.1113 4.56947 66.0855 4.55252 66.0512C4.47627 65.8881 4.49321 65.931 4.60336 66.18C4.61183 66.1113 4.5271 65.9653 4.51016 65.8967C4.46779 65.7507 4.46779 65.5361 4.40001 65.3987C4.40849 65.4846 4.42543 65.5704 4.4339 65.6563C4.42543 65.5876 4.41696 65.5189 4.41696 65.4502C4.40848 65.3472 4.40848 65.2442 4.40848 65.1412C4.40848 65.0639 4.45085 64.8922 4.42543 64.8321C4.51016 65.0467 4.35765 65.1841 4.41696 64.9265C4.45932 64.7376 4.51016 64.5488 4.56947 64.3599C4.67114 63.9907 4.38307 64.7033 4.56099 64.3599C4.57794 64.2912 4.62877 64.1882 4.68808 64.0852C5.12019 63.3039 4.8999 62.1707 4.07806 61.7329C3.28164 61.3037 2.22249 61.5097 1.75662 62.351C0.739914 64.1969 0.71449 66.5491 1.88371 68.3435C2.95973 69.9918 4.71361 70.9791 6.67066 70.9962C7.10276 71.0048 7.52638 70.9962 7.95849 70.9962H16.3802H29.9448H45.5336H60.0218H70.2822H72.8493H73.3238C74.8319 70.979 76.2976 70.4038 77.3652 69.3135C79.2546 67.3818 79.4834 64.4887 78.1701 62.1793C77.8312 61.5784 77.4838 60.9774 77.1449 60.3765C75.5605 57.5949 73.9677 54.8048 72.3834 52.0232C70.028 47.8852 67.6727 43.7558 65.3173 39.6178C62.7162 35.0505 60.1067 30.4832 57.5056 25.9074C55.1671 21.8123 52.8372 17.7086 50.4987 13.6136C48.9651 10.9179 47.4231 8.22214 45.8896 5.5264C45.5846 4.99413 45.2796 4.46186 44.9746 3.92955C43.424 1.22518 40.1706 0.255174 37.4085 1.60304C35.4513 2.56457 34.4431 4.97696 33.401 6.80567C31.6473 9.87911 29.9018 12.9526 28.1481 16.026C25.7165 20.2928 23.2847 24.5682 20.8532 28.835C18.2606 33.385 15.6679 37.9437 13.0668 42.4939C10.83 46.4173 8.60181 50.3322 6.36497 54.2555C5.00936 56.6335 3.66226 59.003 2.30665 61.3812C2.12026 61.7074 1.94232 62.0251 1.75593 62.3513C1.31535 63.1326 1.55259 64.2657 2.36596 64.7036C3.17085 65.1328 4.213 64.9182 4.68739 64.0854L4.6877 64.0854Z"/>
</mask>
<path d="M4.6877 64.0854C5.41634 62.8148 6.13652 61.5441 6.86521 60.265C8.70373 57.0371 10.5422 53.809 12.3809 50.5809C14.8296 46.2799 17.278 41.9873 19.7267 37.6861C22.2684 33.2217 24.8101 28.7662 27.352 24.3019C29.5125 20.5159 31.6731 16.7212 33.8336 12.9352C35.096 10.7288 36.3499 8.51393 37.6124 6.30752C37.731 6.10147 37.8412 5.90402 37.9598 5.69798C37.9852 5.65505 38.0021 5.62071 38.0276 5.57779C38.0699 5.5091 38.1038 5.44042 38.1462 5.38033C38.1631 5.34599 38.1885 5.32023 38.2055 5.28589C38.3071 5.13995 38.2902 5.1657 38.1292 5.37175C38.1377 5.37175 38.2733 5.20004 38.2648 5.20862C38.3326 5.13136 38.4088 5.05409 38.4851 4.98541C38.5359 4.9339 38.5867 4.89097 38.6376 4.84805C38.7731 4.73644 38.7393 4.7622 38.5359 4.92531C38.6461 4.90814 38.8579 4.71068 38.9595 4.65918C39.0358 4.61625 39.1629 4.58191 39.2222 4.52181C38.9765 4.73644 38.968 4.62484 39.1798 4.54757C39.3323 4.49606 39.4933 4.45313 39.6543 4.41879C39.8576 4.37587 39.9762 4.46172 39.5865 4.41879C39.7051 4.43596 39.8492 4.39304 39.9762 4.39304C40.1288 4.39304 40.3067 4.43596 40.4592 4.41879C40.0695 4.46172 40.1881 4.37587 40.3914 4.41879C40.4846 4.43596 40.5778 4.46172 40.6795 4.48747C40.7557 4.51323 40.832 4.53898 40.9082 4.56474C41.1031 4.62484 41.0523 4.72786 40.8235 4.52181C40.976 4.65918 41.2472 4.75362 41.4251 4.86522C41.6623 5.01117 41.3403 4.81371 41.3234 4.77937C41.3488 4.83946 41.5013 4.9339 41.5522 4.98541C41.6284 5.05409 41.6962 5.13136 41.7725 5.20862C42.0351 5.50052 41.747 5.22579 41.7725 5.19145C41.7725 5.19145 41.9927 5.53486 42.0182 5.56919C42.0436 5.60352 42.0605 5.64646 42.0775 5.6808C43.0179 7.32913 43.9584 8.97747 44.8988 10.6258C46.8729 14.0856 48.847 17.554 50.8213 21.0138C53.3207 25.4007 55.8201 29.7878 58.3194 34.1834C60.8443 38.6133 63.3691 43.0433 65.894 47.4731C67.9274 51.0445 69.9608 54.6159 71.9942 58.1873C73.0618 60.0588 74.1209 61.9218 75.1884 63.7933C75.2392 63.8878 75.2985 63.9822 75.3494 64.0767C75.3663 64.111 75.5612 64.4716 75.5527 64.4802C75.5273 64.4887 75.4171 64.0681 75.5019 64.3771C75.5273 64.4802 75.5696 64.5832 75.5951 64.6862C75.6205 64.7892 75.6374 64.8922 75.6628 64.9953C75.7391 65.3644 75.6544 64.5832 75.6544 64.9523C75.6544 65.1584 75.6544 65.3644 75.6459 65.5705C75.629 65.9396 75.7391 65.1584 75.6544 65.519C75.6374 65.6048 75.6205 65.6821 75.5951 65.7679C75.5781 65.8538 75.5527 65.931 75.5273 66.0083C75.468 66.1886 75.3324 66.2916 75.5527 65.974C75.451 66.1199 75.3917 66.3088 75.2985 66.4633C75.2562 66.532 75.2053 66.6007 75.163 66.6779C75.0105 66.9269 75.4256 66.3775 75.1206 66.7294C75.002 66.8668 74.841 66.9784 74.7224 67.1158C74.5784 67.2875 75.0782 66.8754 74.7902 67.0643C74.7055 67.1158 74.6207 67.1759 74.536 67.2274C74.4513 67.2789 74.3581 67.3218 74.2649 67.3733C73.9599 67.545 74.5614 67.2961 74.3411 67.3476C74.1208 67.3991 73.9006 67.4849 73.6803 67.5364C73.3159 67.6309 74.087 67.5193 73.6972 67.5364C73.621 67.5364 73.5447 67.545 73.4769 67.545H73.3583H73.3244H72.8161H65.8347H53.2869H38.0447H23.1837H11.7372C10.0682 67.545 8.399 67.5622 6.72997 67.545H6.69608H6.57746C6.54357 67.545 6.26398 67.5021 6.24703 67.5193C6.27245 67.4935 6.67066 67.6051 6.37412 67.5279C6.17078 67.4764 5.96743 67.4248 5.76409 67.3562C5.41671 67.2445 6.103 67.545 5.78951 67.3647C5.7302 67.3304 5.6709 67.3046 5.61159 67.2703C5.52687 67.2188 5.43367 67.1673 5.34894 67.1072C5.32353 67.09 5.28964 67.0728 5.26422 67.0471C5.12018 66.9441 5.15407 66.9698 5.36589 67.1329C5.31505 67.0213 5.09476 66.884 5.00156 66.7895C4.95072 66.7294 4.87447 66.6007 4.80669 66.5577C4.85753 66.6178 4.89989 66.6865 4.95073 66.7466C4.90836 66.6951 4.87447 66.635 4.84058 66.5835C4.74739 66.4461 4.66266 66.3002 4.59488 66.1456C4.57794 66.1113 4.56947 66.0855 4.55252 66.0512C4.47627 65.8881 4.49321 65.931 4.60336 66.18C4.61183 66.1113 4.5271 65.9653 4.51016 65.8967C4.46779 65.7507 4.46779 65.5361 4.40001 65.3987C4.40849 65.4846 4.42543 65.5704 4.4339 65.6563C4.42543 65.5876 4.41696 65.5189 4.41696 65.4502C4.40848 65.3472 4.40848 65.2442 4.40848 65.1412C4.40848 65.0639 4.45085 64.8922 4.42543 64.8321C4.51016 65.0467 4.35765 65.1841 4.41696 64.9265C4.45932 64.7376 4.51016 64.5488 4.56947 64.3599C4.67114 63.9907 4.38307 64.7033 4.56099 64.3599C4.57794 64.2912 4.62877 64.1882 4.68808 64.0852C5.12019 63.3039 4.8999 62.1707 4.07806 61.7329C3.28164 61.3037 2.22249 61.5097 1.75662 62.351C0.739914 64.1969 0.71449 66.5491 1.88371 68.3435C2.95973 69.9918 4.71361 70.9791 6.67066 70.9962C7.10276 71.0048 7.52638 70.9962 7.95849 70.9962H16.3802H29.9448H45.5336H60.0218H70.2822H72.8493H73.3238C74.8319 70.979 76.2976 70.4038 77.3652 69.3135C79.2546 67.3818 79.4834 64.4887 78.1701 62.1793C77.8312 61.5784 77.4838 60.9774 77.1449 60.3765C75.5605 57.5949 73.9677 54.8048 72.3834 52.0232C70.028 47.8852 67.6727 43.7558 65.3173 39.6178C62.7162 35.0505 60.1067 30.4832 57.5056 25.9074C55.1671 21.8123 52.8372 17.7086 50.4987 13.6136C48.9651 10.9179 47.4231 8.22214 45.8896 5.5264C45.5846 4.99413 45.2796 4.46186 44.9746 3.92955C43.424 1.22518 40.1706 0.255174 37.4085 1.60304C35.4513 2.56457 34.4431 4.97696 33.401 6.80567C31.6473 9.87911 29.9018 12.9526 28.1481 16.026C25.7165 20.2928 23.2847 24.5682 20.8532 28.835C18.2606 33.385 15.6679 37.9437 13.0668 42.4939C10.83 46.4173 8.60181 50.3322 6.36497 54.2555C5.00936 56.6335 3.66226 59.003 2.30665 61.3812C2.12026 61.7074 1.94232 62.0251 1.75593 62.3513C1.31535 63.1326 1.55259 64.2657 2.36596 64.7036C3.17085 65.1328 4.213 64.9182 4.68739 64.0854L4.6877 64.0854Z" fill="#F05C26"/>
<path d="M4.6877 64.0854C5.41634 62.8148 6.13652 61.5441 6.86521 60.265C8.70373 57.0371 10.5422 53.809 12.3809 50.5809C14.8296 46.2799 17.278 41.9873 19.7267 37.6861C22.2684 33.2217 24.8101 28.7662 27.352 24.3019C29.5125 20.5159 31.6731 16.7212 33.8336 12.9352C35.096 10.7288 36.3499 8.51393 37.6124 6.30752C37.731 6.10147 37.8412 5.90402 37.9598 5.69798C37.9852 5.65505 38.0021 5.62071 38.0276 5.57779C38.0699 5.5091 38.1038 5.44042 38.1462 5.38033C38.1631 5.34599 38.1885 5.32023 38.2055 5.28589C38.3071 5.13995 38.2902 5.1657 38.1292 5.37175C38.1377 5.37175 38.2733 5.20004 38.2648 5.20862C38.3326 5.13136 38.4088 5.05409 38.4851 4.98541C38.5359 4.9339 38.5867 4.89097 38.6376 4.84805C38.7731 4.73644 38.7393 4.7622 38.5359 4.92531C38.6461 4.90814 38.8579 4.71068 38.9595 4.65918C39.0358 4.61625 39.1629 4.58191 39.2222 4.52181C38.9765 4.73644 38.968 4.62484 39.1798 4.54757C39.3323 4.49606 39.4933 4.45313 39.6543 4.41879C39.8576 4.37587 39.9762 4.46172 39.5865 4.41879C39.7051 4.43596 39.8492 4.39304 39.9762 4.39304C40.1288 4.39304 40.3067 4.43596 40.4592 4.41879C40.0695 4.46172 40.1881 4.37587 40.3914 4.41879C40.4846 4.43596 40.5778 4.46172 40.6795 4.48747C40.7557 4.51323 40.832 4.53898 40.9082 4.56474C41.1031 4.62484 41.0523 4.72786 40.8235 4.52181C40.976 4.65918 41.2472 4.75362 41.4251 4.86522C41.6623 5.01117 41.3403 4.81371 41.3234 4.77937C41.3488 4.83946 41.5013 4.9339 41.5522 4.98541C41.6284 5.05409 41.6962 5.13136 41.7725 5.20862C42.0351 5.50052 41.747 5.22579 41.7725 5.19145C41.7725 5.19145 41.9927 5.53486 42.0182 5.56919C42.0436 5.60352 42.0605 5.64646 42.0775 5.6808C43.0179 7.32913 43.9584 8.97747 44.8988 10.6258C46.8729 14.0856 48.847 17.554 50.8213 21.0138C53.3207 25.4007 55.8201 29.7878 58.3194 34.1834C60.8443 38.6133 63.3691 43.0433 65.894 47.4731C67.9274 51.0445 69.9608 54.6159 71.9942 58.1873C73.0618 60.0588 74.1209 61.9218 75.1884 63.7933C75.2392 63.8878 75.2985 63.9822 75.3494 64.0767C75.3663 64.111 75.5612 64.4716 75.5527 64.4802C75.5273 64.4887 75.4171 64.0681 75.5019 64.3771C75.5273 64.4802 75.5696 64.5832 75.5951 64.6862C75.6205 64.7892 75.6374 64.8922 75.6628 64.9953C75.7391 65.3644 75.6544 64.5832 75.6544 64.9523C75.6544 65.1584 75.6544 65.3644 75.6459 65.5705C75.629 65.9396 75.7391 65.1584 75.6544 65.519C75.6374 65.6048 75.6205 65.6821 75.5951 65.7679C75.5781 65.8538 75.5527 65.931 75.5273 66.0083C75.468 66.1886 75.3324 66.2916 75.5527 65.974C75.451 66.1199 75.3917 66.3088 75.2985 66.4633C75.2562 66.532 75.2053 66.6007 75.163 66.6779C75.0105 66.9269 75.4256 66.3775 75.1206 66.7294C75.002 66.8668 74.841 66.9784 74.7224 67.1158C74.5784 67.2875 75.0782 66.8754 74.7902 67.0643C74.7055 67.1158 74.6207 67.1759 74.536 67.2274C74.4513 67.2789 74.3581 67.3218 74.2649 67.3733C73.9599 67.545 74.5614 67.2961 74.3411 67.3476C74.1208 67.3991 73.9006 67.4849 73.6803 67.5364C73.3159 67.6309 74.087 67.5193 73.6972 67.5364C73.621 67.5364 73.5447 67.545 73.4769 67.545H73.3583H73.3244H72.8161H65.8347H53.2869H38.0447H23.1837H11.7372C10.0682 67.545 8.399 67.5622 6.72997 67.545H6.69608H6.57746C6.54357 67.545 6.26398 67.5021 6.24703 67.5193C6.27245 67.4935 6.67066 67.6051 6.37412 67.5279C6.17078 67.4764 5.96743 67.4248 5.76409 67.3562C5.41671 67.2445 6.103 67.545 5.78951 67.3647C5.7302 67.3304 5.6709 67.3046 5.61159 67.2703C5.52687 67.2188 5.43367 67.1673 5.34894 67.1072C5.32353 67.09 5.28964 67.0728 5.26422 67.0471C5.12018 66.9441 5.15407 66.9698 5.36589 67.1329C5.31505 67.0213 5.09476 66.884 5.00156 66.7895C4.95072 66.7294 4.87447 66.6007 4.80669 66.5577C4.85753 66.6178 4.89989 66.6865 4.95073 66.7466C4.90836 66.6951 4.87447 66.635 4.84058 66.5835C4.74739 66.4461 4.66266 66.3002 4.59488 66.1456C4.57794 66.1113 4.56947 66.0855 4.55252 66.0512C4.47627 65.8881 4.49321 65.931 4.60336 66.18C4.61183 66.1113 4.5271 65.9653 4.51016 65.8967C4.46779 65.7507 4.46779 65.5361 4.40001 65.3987C4.40849 65.4846 4.42543 65.5704 4.4339 65.6563C4.42543 65.5876 4.41696 65.5189 4.41696 65.4502C4.40848 65.3472 4.40848 65.2442 4.40848 65.1412C4.40848 65.0639 4.45085 64.8922 4.42543 64.8321C4.51016 65.0467 4.35765 65.1841 4.41696 64.9265C4.45932 64.7376 4.51016 64.5488 4.56947 64.3599C4.67114 63.9907 4.38307 64.7033 4.56099 64.3599C4.57794 64.2912 4.62877 64.1882 4.68808 64.0852C5.12019 63.3039 4.8999 62.1707 4.07806 61.7329C3.28164 61.3037 2.22249 61.5097 1.75662 62.351C0.739914 64.1969 0.71449 66.5491 1.88371 68.3435C2.95973 69.9918 4.71361 70.9791 6.67066 70.9962C7.10276 71.0048 7.52638 70.9962 7.95849 70.9962H16.3802H29.9448H45.5336H60.0218H70.2822H72.8493H73.3238C74.8319 70.979 76.2976 70.4038 77.3652 69.3135C79.2546 67.3818 79.4834 64.4887 78.1701 62.1793C77.8312 61.5784 77.4838 60.9774 77.1449 60.3765C75.5605 57.5949 73.9677 54.8048 72.3834 52.0232C70.028 47.8852 67.6727 43.7558 65.3173 39.6178C62.7162 35.0505 60.1067 30.4832 57.5056 25.9074C55.1671 21.8123 52.8372 17.7086 50.4987 13.6136C48.9651 10.9179 47.4231 8.22214 45.8896 5.5264C45.5846 4.99413 45.2796 4.46186 44.9746 3.92955C43.424 1.22518 40.1706 0.255174 37.4085 1.60304C35.4513 2.56457 34.4431 4.97696 33.401 6.80567C31.6473 9.87911 29.9018 12.9526 28.1481 16.026C25.7165 20.2928 23.2847 24.5682 20.8532 28.835C18.2606 33.385 15.6679 37.9437 13.0668 42.4939C10.83 46.4173 8.60181 50.3322 6.36497 54.2555C5.00936 56.6335 3.66226 59.003 2.30665 61.3812C2.12026 61.7074 1.94232 62.0251 1.75593 62.3513C1.31535 63.1326 1.55259 64.2657 2.36596 64.7036C3.17085 65.1328 4.213 64.9182 4.68739 64.0854L4.6877 64.0854Z" stroke="#F05C26" stroke-width="2" mask="url(#path-1-outside-1_1_23)"/>
<path d="M38.2559 45.8071C38.2559 46.7724 39.0327 47.5692 40.0013 47.5692C40.97 47.5692 41.7468 46.7724 41.7468 45.8071V27.6158C41.7468 26.6505 40.97 25.8538 40.0013 25.8538C39.0327 25.8538 38.2559 26.6505 38.2559 27.6158V45.8071Z" fill="#F05C26" stroke="#F05C26"/>
<path d="M39.9794 27.6034C39.9802 27.6036 39.9806 27.6036 39.9806 27.6036C39.9807 27.6036 39.9803 27.6036 39.9794 27.6034C39.9792 27.6034 39.979 27.6033 39.9788 27.6033M39.9788 27.6033L39.9789 27.6033C39.9784 27.6033 39.9779 27.6032 39.9773 27.603C39.9779 27.6031 39.9784 27.6032 39.9788 27.6033ZM37.3627 47.2052C37.8112 48.077 38.6961 48.6798 39.6569 48.7955C39.7739 48.8186 39.8956 48.8287 40.0209 48.8239L40.0229 48.8238C41.7082 48.7523 42.9539 47.4409 42.9756 45.7494C42.9814 45.5131 42.9794 45.2662 42.9775 45.0306C42.9766 44.9174 42.9757 44.8068 42.9757 44.7014V40.0397V29.0679C42.9757 28.9676 42.9766 28.8632 42.9776 28.7558C42.9827 28.1921 42.9887 27.5436 42.8619 26.9502C42.7032 26.2073 42.3294 25.4972 41.4956 25.0198L41.4951 25.0194C39.472 23.8644 37.09 25.3585 37.0195 27.6094C37.0136 27.7862 37.0156 27.9729 37.0175 28.1451C37.0184 28.2248 37.0193 28.3015 37.0193 28.3726V38.6747V43.8944C37.0193 44.0804 37.013 44.2767 37.0062 44.4885C37.0046 44.5392 37.003 44.5908 37.0014 44.6433C36.9933 44.9103 36.9867 45.196 36.9951 45.4824C37.0117 46.0466 37.0866 46.6667 37.3624 47.2047L37.3627 47.2052Z" fill="#F05C26" stroke="#F05C26"/>
<path d="M40.0021 59.0916C40.6869 59.0916 41.2435 58.6714 41.6056 58.1228C41.9704 57.5702 42.1797 56.8361 42.1797 56.0503C42.1797 55.2645 41.9704 54.5303 41.6056 53.9778C41.2435 53.4292 40.6869 53.009 40.0021 53.009C39.3174 53.009 38.7608 53.4292 38.3986 53.9778C38.0339 54.5304 37.8246 55.2645 37.8246 56.0503C37.8246 56.8361 38.0339 57.5703 38.3986 58.1228C38.7608 58.6714 39.3174 59.0916 40.0021 59.0916Z" fill="#F05C26" stroke="#F05C26"/>
<path d="M40.039 56.8586L40.0411 56.8577M40.039 56.8586C40.033 56.8576 40.0282 56.8569 40.0247 56.8565C40.0177 56.8555 40.0115 56.8549 40.0063 56.8544M40.039 56.8586L40.0348 56.8605C40.0213 56.8572 40.011 56.8552 40.0063 56.8544M40.039 56.8586C40.0421 56.8592 40.0456 56.8598 40.0493 56.8605C40.0501 56.8607 40.0509 56.8608 40.0518 56.861L40.0525 56.8606M40.0411 56.8577L40.0019 56.8541M40.0411 56.8577C40.0442 56.8584 40.0472 56.8592 40.0504 56.8601C40.0511 56.8602 40.0518 56.8604 40.0525 56.8606M40.0411 56.8577L40.0019 56.8541M40.0063 56.8544C40.0063 56.8544 40.0062 56.8544 40.0061 56.8544C40.0052 56.8542 40.0044 56.8541 40.0036 56.8539C40.0031 56.854 40.0025 56.854 40.0019 56.8541M40.0063 56.8544C40.0048 56.8543 40.0033 56.8542 40.0019 56.8541M40.0525 56.8606C40.0531 56.8608 40.0536 56.8609 40.0542 56.8611M40.0525 56.8606L40.0544 56.8598L40.0542 56.8611M40.0542 56.8611L40.0541 56.8615C40.0542 56.8615 40.0543 56.8615 40.0543 56.8615C40.056 56.8618 40.0576 56.8622 40.0593 56.8625M40.0542 56.8611C40.0543 56.8611 40.0543 56.8611 40.0544 56.8612C40.056 56.8616 40.0577 56.8621 40.0593 56.8625M40.0593 56.8625C40.0599 56.8627 40.0604 56.8629 40.0609 56.863M40.0593 56.8625C40.0599 56.8627 40.0604 56.8628 40.061 56.8629L40.0609 56.863M40.0609 56.863L40.06 56.8676C40.0646 56.869 40.0696 56.8707 40.0749 56.8725C40.0855 56.8762 40.1044 56.8831 40.1276 56.8943M40.0609 56.863C40.0704 56.8658 40.0801 56.8689 40.09 56.8725C40.0993 56.8759 40.1132 56.8812 40.1303 56.8891L40.1276 56.8943M40.1276 56.8943L40.1096 56.9278L40.1103 56.9281L40.1156 56.9304M40.1276 56.8943C40.1277 56.8944 40.1278 56.8944 40.128 56.8945C40.1298 56.8954 40.1317 56.8963 40.1337 56.8973L40.1156 56.9304M40.1156 56.9304L40.1119 56.9372L40.1081 56.9442L40.1319 56.9538M40.1156 56.9304L40.145 56.9432L40.1492 56.945L40.1421 56.9486L40.1366 56.9514L40.1319 56.9538M40.1319 56.9538L40.0916 56.9744L40.0881 56.9809L40.1255 56.9624L40.1379 56.9563M40.1319 56.9538L40.1335 56.9545L40.1379 56.9563M40.1379 56.9563L40.2064 56.9841M40.1379 56.9563L40.1484 56.9511L40.1553 56.9477L40.2079 56.9705C40.2078 56.9715 40.2077 56.9725 40.2076 56.9735C40.2072 56.977 40.2068 56.9805 40.2064 56.9841M40.2064 56.9841C40.2028 57.0121 40.1964 57.0444 40.185 57.0787C40.1819 57.0878 40.1783 57.0979 40.1739 57.1087M40.2064 56.9841L40.2339 56.9953C40.2364 56.9993 40.239 57.0033 40.2416 57.0073C40.2182 57.0521 40.1944 57.0999 40.1883 57.1153M40.1739 57.1087L40.0494 57.0517L40.0455 57.0589L40.1736 57.1095M40.1739 57.1087L40.1883 57.1153M40.1739 57.1087C40.1738 57.109 40.1737 57.1093 40.1736 57.1095M40.1736 57.1095C40.1623 57.1373 40.1461 57.1699 40.1229 57.2038C40.115 57.2153 40.1063 57.227 40.0967 57.2387C40.1089 57.2287 40.1201 57.2189 40.129 57.2098C40.1425 57.1961 40.1534 57.1858 40.162 57.1781C40.1672 57.1635 40.1756 57.1431 40.1883 57.1153M40.1736 57.1095L40.1883 57.1153M40.0045 57.1417L40.0049 57.1394L40.0057 57.1356L40.0716 57.2584C40.0707 57.2592 40.0697 57.2599 40.0688 57.2606C40.0687 57.2606 40.0686 57.2607 40.0685 57.2608L40.0049 57.1442L40.0045 57.1417ZM40.0045 57.1417L40.0034 57.1366L40.0034 57.1361L40.0033 57.1362L40.0025 57.1376L40.0019 57.1387M40.0045 57.1417L40.0042 57.1429L40.0022 57.1392L40.0019 57.1387M40.0019 57.1387L40.0019 57.1387L40.0013 57.1376L40.0006 57.1362L40.0005 57.1361L40.0004 57.1366L39.9994 57.1417M40.0019 57.1387L40.0019 57.1387L40.0016 57.1392L39.9997 57.1429L39.9994 57.1417M39.9994 57.1417L39.999 57.1394L39.9982 57.1356L39.9323 57.2584C39.9332 57.2592 39.9342 57.2599 39.9351 57.2606C39.9352 57.2606 39.9353 57.2607 39.9353 57.2608L39.9989 57.1442L39.9994 57.1417ZM39.9206 57.2494C39.9066 57.2336 39.8941 57.2176 39.8831 57.2017C39.8822 57.2005 39.8814 57.1993 39.8806 57.1981C39.8596 57.167 39.8438 57.1362 39.8319 57.1073M39.9206 57.2494L40.0019 56.8541M39.9206 57.2494C39.9033 57.2358 39.887 57.2221 39.8749 57.2098C39.8639 57.1987 39.8545 57.1894 39.8464 57.1818C39.8408 57.167 39.831 57.1455 39.8155 57.1153M39.9206 57.2494L40.0002 56.8539M39.8319 57.1073L39.9524 57.0478L39.9514 57.046L39.8318 57.107M39.8319 57.1073L39.8155 57.1153M39.8319 57.1073C39.8319 57.1072 39.8318 57.1071 39.8318 57.107M39.8318 57.107C39.8096 57.0528 39.8011 57.0049 39.7976 56.974M39.8318 57.107L39.8155 57.1153M39.7976 56.974L39.8131 56.9672M39.7976 56.974C39.7975 56.9727 39.7973 56.9713 39.7972 56.97C39.7972 56.9696 39.7971 56.9692 39.7971 56.9688L39.8064 56.9646L39.8081 56.9652L39.8131 56.9672M39.7976 56.974L39.753 56.9939C39.7805 57.046 39.8119 57.108 39.8155 57.1153M39.8131 56.9672L39.93 57.0133L39.9345 57.0151L39.9228 56.9937L39.899 56.9828L39.8394 56.9555M39.8131 56.9672L39.8394 56.9555M39.8394 56.9555L39.8614 56.9457L39.8897 56.9331L39.8883 56.9304L39.8869 56.9279M39.8394 56.9555L39.8352 56.9535L39.8329 56.9525L39.8572 56.9415L39.8869 56.9279M39.8869 56.9279L39.8922 56.9255L39.8929 56.9252L39.8763 56.8943M39.8869 56.9279L39.8702 56.8973C39.8721 56.8963 39.874 56.8954 39.8759 56.8945C39.876 56.8944 39.8762 56.8944 39.8763 56.8943M39.8763 56.8943C39.8995 56.8831 39.9184 56.8762 39.9289 56.8725C39.9295 56.8723 39.93 56.8721 39.9305 56.872M39.8763 56.8943L39.8736 56.8891C39.8907 56.8811 39.9047 56.8758 39.9139 56.8725C39.9172 56.8713 39.9204 56.8702 39.9236 56.8691L39.9305 56.872M39.9305 56.872L39.946 56.8783L39.9451 56.8739L39.9439 56.8676M39.9305 56.872C39.9323 56.8714 39.9339 56.8708 39.9356 56.8703C39.9385 56.8693 39.9412 56.8684 39.9439 56.8676M39.9439 56.8676C39.9461 56.8669 39.9483 56.8663 39.9503 56.8657C39.9504 56.8656 39.9505 56.8656 39.9506 56.8656L39.9498 56.8615M39.9439 56.8676L39.9429 56.863C39.9435 56.8629 39.944 56.8627 39.9446 56.8625C39.9463 56.8622 39.9479 56.8618 39.9495 56.8615C39.9496 56.8615 39.9497 56.8615 39.9498 56.8615M39.9498 56.8615C39.9514 56.8611 39.953 56.8608 39.9545 56.8605M39.9498 56.8615L39.9497 56.8611C39.951 56.8607 39.9522 56.8604 39.9535 56.8601L39.9545 56.8605M39.9545 56.8605L39.96 56.8629C39.9619 56.8624 39.9635 56.862 39.9651 56.8616C39.9805 56.8575 39.9924 56.8553 39.9975 56.8544M39.9545 56.8605C39.9653 56.8584 39.9738 56.8572 39.9792 56.8565C39.9862 56.8555 39.9924 56.8549 39.9975 56.8544M39.9975 56.8544C39.9991 56.8543 40.0006 56.8542 40.0019 56.8541M39.9975 56.8544C39.9976 56.8544 39.9977 56.8544 39.9978 56.8544C39.9986 56.8542 39.9995 56.8541 40.0002 56.8539M40.0019 56.8541C40.0014 56.854 40.0008 56.854 40.0002 56.8539M40.0019 56.8541L40.0002 56.8539M43.4221 56.1648C43.394 56.954 43.1982 57.816 42.795 58.5538C42.3711 59.3294 41.7003 59.9944 40.7372 60.2436L40.7367 60.2437C38.9187 60.7122 37.524 59.3696 36.9544 57.9641L36.9536 57.9621L36.9536 57.9621C36.3916 56.5573 36.4793 54.779 37.268 53.4595C38.0855 52.0857 39.7954 51.2613 41.3979 52.1154L41.3996 52.1163L41.3996 52.1163C42.8228 52.8821 43.3693 54.5435 43.4217 55.9302C43.4243 55.9701 43.4254 56.0103 43.425 56.0508M43.4221 56.1648C43.4234 56.1295 43.4243 56.0943 43.4249 56.0592L43.425 56.057C43.425 56.0549 43.425 56.0529 43.425 56.0508M43.4221 56.1648C43.4244 56.1271 43.4254 56.0891 43.425 56.0508M43.4221 56.1648L43.425 56.0508M39.8612 55.227C39.8961 55.2393 39.9282 55.2462 39.9549 55.2501L39.9532 55.2422M39.8612 55.227L40.0305 55.2552L40.0307 55.2546C40.0367 55.2547 40.0391 55.2548 40.0391 55.2548L40.039 55.2548L40.0307 55.2543L40.0318 55.249L40.1072 55.2152M39.8612 55.227L39.8748 55.2161M39.8612 55.227L40.0467 55.2549C40.0572 55.2534 40.0692 55.2514 40.0826 55.2485C40.0912 55.2459 40.1029 55.2422 40.1166 55.2371C40.1281 55.2282 40.1405 55.2195 40.1536 55.2111M39.9532 55.2422C39.9554 55.2427 39.9575 55.2432 39.9596 55.2436C39.9675 55.2454 39.9742 55.2468 39.9794 55.2477C39.9822 55.2482 39.9849 55.2487 39.9875 55.2492C39.9894 55.2488 39.9914 55.2485 39.9935 55.2481C39.995 55.2478 39.9965 55.2475 39.9981 55.2472C40.0052 55.2459 40.0153 55.2438 40.0274 55.2407C40.0288 55.2403 40.0302 55.2399 40.0316 55.2395C40.0323 55.2394 40.033 55.2392 40.0337 55.239M39.9532 55.2422L39.943 55.1945C39.9457 55.1953 39.9483 55.1961 39.9508 55.1968C39.9538 55.1976 39.9567 55.1984 39.9596 55.1992C39.9713 55.2023 39.9827 55.2048 39.9935 55.2068C40.0055 55.2091 40.0169 55.2108 40.0274 55.2121C40.0313 55.2126 40.0351 55.213 40.0387 55.2133L40.0337 55.239M39.9532 55.2422C39.9509 55.2416 39.9485 55.241 39.946 55.2403C39.9389 55.2385 39.9301 55.2361 39.9202 55.233C39.9105 55.2299 39.898 55.2256 39.8838 55.2198C39.881 55.2187 39.878 55.2175 39.8748 55.2161M40.0337 55.239L40.0337 55.2392L40.0353 55.2385M40.0337 55.239C40.0342 55.2388 40.0348 55.2387 40.0353 55.2385M40.0353 55.2385C40.0417 55.2368 40.0491 55.2346 40.0572 55.232C40.0669 55.2288 40.0792 55.2245 40.093 55.2188C40.0956 55.2177 40.0983 55.2166 40.1011 55.2154M40.0353 55.2385L40.0911 55.2156C40.0945 55.2156 40.0978 55.2155 40.1011 55.2154M40.1011 55.2154C40.1031 55.2153 40.1052 55.2153 40.1072 55.2152M40.1011 55.2154C40.1133 55.2101 40.1282 55.203 40.1447 55.1939M40.1072 55.2152L40.1475 55.1971M40.1072 55.2152C40.125 55.2144 40.1408 55.2128 40.1536 55.2111M40.1536 55.2111C40.1549 55.2109 40.1561 55.2108 40.1573 55.2106L40.1566 55.2092M40.1536 55.2111C40.1546 55.2105 40.1556 55.2098 40.1566 55.2092M40.1566 55.2092C40.1569 55.209 40.1572 55.2088 40.1575 55.2087L40.1552 55.206M40.1566 55.2092L40.1552 55.206M40.1552 55.206L40.1506 55.1957L40.1475 55.1971M40.1552 55.206L40.1475 55.1971M40.1475 55.1971L40.1447 55.1939M40.1447 55.1939C40.1448 55.1938 40.145 55.1938 40.1451 55.1937C40.1458 55.1933 40.1465 55.1929 40.1472 55.1926M40.1447 55.1939L40.1445 55.1937L40.1472 55.1926M40.1472 55.1926L40.1488 55.1919L40.1487 55.1917M40.1472 55.1926C40.1477 55.1923 40.1482 55.192 40.1487 55.1917M40.1487 55.1917C40.1525 55.1895 40.1566 55.1872 40.1608 55.1846L40.1519 55.1711M40.1487 55.1917L40.1285 55.1467L40.1519 55.1711M40.1519 55.1711L40.1555 55.1748L40.1634 55.183C40.166 55.1814 40.1686 55.1798 40.1713 55.1781L40.1395 55.1311L40.1225 55.1231L40.1195 55.1216M40.1519 55.1711L40.1195 55.1216M40.1195 55.1216L40.1122 55.1106M40.1195 55.1216L40.1166 55.1203L40.1122 55.1106M40.1122 55.1106L40.1107 55.1071M40.1122 55.1106L40.1096 55.1067L40.1107 55.1071M40.1107 55.1071L40.113 55.1081L40.1286 55.115L40.0854 55.0509M40.1107 55.1071L40.1066 55.0982L40.0854 55.0509M40.0854 55.0509L40.0844 55.0488L40.0841 55.0491M40.0854 55.0509L40.0841 55.0491M40.0841 55.0491L40.0829 55.0473L40.0822 55.0462L40.0764 55.0508L40.0741 55.0526M40.0841 55.0491L40.0783 55.0537L40.076 55.0555L40.0749 55.0538L40.0741 55.0526M40.0741 55.0526L40.071 55.0478L40.0693 55.0563M40.0741 55.0526L40.0693 55.0563M40.0693 55.0563L40.0535 55.0688L40.0547 55.0701L40.056 55.0714M40.0693 55.0563L40.0689 55.0587L40.0683 55.0617L40.056 55.0714M40.056 55.0714L40.0466 55.079L40.0635 55.0864M40.056 55.0714L40.0646 55.0804L40.0635 55.0864M40.0635 55.0864L40.0619 55.0944M40.0635 55.0864L40.0755 55.0917L40.0917 55.1085L40.0619 55.0944M40.0619 55.0944L40.0557 55.0914M40.0619 55.0944L40.0612 55.0978L40.0557 55.0914M40.0557 55.0914L40.0456 55.0798L40.0402 55.0841M40.0557 55.0914L40.0402 55.0841M40.0402 55.0841L40.0385 55.0833L40.0365 55.0823L40.0274 55.0895L39.9935 55.1162L39.9596 55.143L39.936 55.1616M40.0402 55.0841L40.0274 55.0944L39.9935 55.1214L39.9596 55.1485L39.937 55.1665L39.9368 55.1654L39.936 55.1616M39.936 55.1616L39.9227 55.1L39.8821 55.1301L39.8678 55.1651C39.8824 55.1722 39.8962 55.1781 39.909 55.1829M39.936 55.1616L39.909 55.1829M39.909 55.1829L39.8697 55.2139C39.8713 55.2146 39.8728 55.2152 39.8742 55.2159C39.8744 55.216 39.8746 55.216 39.8748 55.2161M39.909 55.1829C39.9104 55.1835 39.9117 55.184 39.9131 55.1845C39.9134 55.1846 39.9137 55.1847 39.914 55.1848L39.8748 55.2161M39.82 56.4331L39.9102 56.4219C39.9075 56.4348 39.9049 56.4474 39.9025 56.4592C39.8786 56.4493 39.851 56.44 39.82 56.4331ZM39.9367 56.4748C39.9332 56.452 39.932 56.4323 39.9315 56.4193L39.9917 56.4119C39.9984 56.4424 40.0059 56.4727 40.0142 56.5026C40.0101 56.5054 40.0068 56.5077 40.0042 56.5096C40.0027 56.5106 40.0012 56.5117 39.9997 56.5128C39.9908 56.5064 39.9691 56.4911 39.9367 56.4748ZM40.0428 55.0773L40.0432 55.077L40.0438 55.0778L40.0428 55.0773Z" fill="#F05C26" stroke="#F05C26"/>
</svg>
