<svg width="34" height="28" viewBox="0 0 34 28" fill="none" xmlns="http://www.w3.org/2000/svg">
<path d="M5.40372 7.19659C5.05565 6.91111 4.60898 6.77453 4.16077 6.81655C3.71257 6.85857 3.29906 7.07579 3.01012 7.42099L0.839219 10.0373C0.553638 10.3849 0.416823 10.8311 0.458527 11.2791C0.50023 11.727 0.717079 12.1403 1.06192 12.4292L14.4715 23.5506L7.99962 9.34879L5.40372 7.19659ZM11.9215 1.56109L8.82752 2.97039C8.41916 3.15919 8.10176 3.50145 7.94421 3.92285C7.78666 4.34426 7.80168 4.8108 7.98602 5.22119L15.211 21.0737L15.5731 5.46939L14.1757 2.40259C13.7847 1.55259 12.7715 1.17349 11.9215 1.56109ZM24.1581 1.90789C24.1673 1.45766 23.9979 1.02209 23.6871 0.696266C23.3762 0.370441 22.9491 0.180819 22.4989 0.168789L19.0989 0.090589C18.649 0.0819033 18.2138 0.251445 17.8884 0.562252C17.5629 0.873059 17.3736 1.29992 17.3615 1.74979L16.9552 19.1629L24.0782 5.27899L24.1581 1.90789ZM32.6241 3.52289L29.5998 1.97079C29.198 1.76695 28.7319 1.73012 28.303 1.8683C27.8741 2.00649 27.5172 2.3085 27.3099 2.70859L16.4452 23.8838C16.2409 24.2856 16.2038 24.7518 16.3421 25.1808C16.4803 25.6098 16.7826 25.9668 17.183 26.1737L20.2073 27.7258C20.6086 27.9301 21.0745 27.9674 21.5032 27.8295C21.9319 27.6916 22.2886 27.3897 22.4955 26.9897L33.3602 5.81449C33.5647 5.41268 33.6021 4.94632 33.4642 4.51706C33.3263 4.08781 33.0244 3.73045 32.6241 3.52289ZM21.7577 24.6981C21.6588 24.9015 21.5203 25.0831 21.3503 25.2323C21.1804 25.3816 20.9823 25.4953 20.7678 25.567C20.5533 25.6388 20.3266 25.6669 20.1011 25.6499C19.8756 25.6329 19.6557 25.5711 19.4543 25.4681C19.253 25.365 19.0742 25.2228 18.9285 25.0498C18.7829 24.8768 18.6731 24.6765 18.6058 24.4606C18.5385 24.2446 18.515 24.0174 18.5366 23.7923C18.5582 23.5671 18.6246 23.3486 18.7317 23.1494C18.9425 22.7576 19.2983 22.4641 19.723 22.3317C20.1477 22.1994 20.6074 22.2388 21.0034 22.4414C21.3994 22.6441 21.7001 22.9939 21.8412 23.4158C21.9822 23.8377 21.9522 24.298 21.7577 24.6981Z" fill="#F05C26"/>
</svg>
