<svg width="31" height="37" viewBox="0 0 31 37" fill="none" xmlns="http://www.w3.org/2000/svg">
<path d="M11.8962 4.91174H18.3685L21.1107 0.496013L21.1389 0.459719C20.7195 0.16937 20.2155 0 19.6711 0C18.7234 0 17.8927 0.516176 17.437 1.28641C16.9773 0.516176 16.1506 0 15.2029 0C14.2552 0 13.4245 0.516176 12.9688 1.28641C12.5091 0.516176 11.6824 0 10.7348 0C10.1944 0 9.69434 0.165338 9.27495 0.451654L9.29914 0.496013L11.8962 4.91174ZM21.2559 24.5627C22.2318 24.5627 22.9577 25.0668 23.3529 25.7443L23.8408 25.4257C25.0425 23.7119 25.7523 21.631 25.7523 19.3808C25.7523 16.8927 24.8893 14.6062 23.4496 12.8036C22.8568 12.0616 19.8203 9.1581 19.0057 8.38383C18.8766 8.26286 18.7073 8.1943 18.5298 8.1943H11.7228C11.5413 8.1943 11.3639 8.26689 11.2348 8.39593C10.4404 9.19036 7.53689 12.0898 6.96022 12.8117C5.52057 14.6142 4.66162 16.8967 4.66162 19.3848C4.66162 21.2681 5.16167 23.0344 6.02868 24.5668L21.2559 24.5627ZM11.9325 13.2996C12.0575 13.1746 12.2228 13.1101 12.4204 13.1101C12.6261 13.1101 12.7914 13.1706 12.9164 13.2956C13.0414 13.4206 13.1906 13.6182 13.36 13.8964L15.2997 16.937L17.0378 14.0698C17.1023 13.9569 17.1708 13.84 17.2434 13.719C17.316 13.598 17.3846 13.4932 17.4531 13.4085C17.5217 13.3238 17.6064 13.2512 17.7072 13.1948C17.808 13.1383 17.929 13.1101 18.0701 13.1101C18.2717 13.1101 18.433 13.1706 18.5581 13.2915C18.6831 13.4125 18.7476 13.5617 18.7476 13.7392C18.7476 13.8803 18.7234 14.0094 18.671 14.1223C18.6226 14.2392 18.5419 14.3844 18.4331 14.5618L16.7031 17.4169H17.4693C18.0338 17.4169 18.3161 17.6024 18.3161 17.9694C18.3161 18.3444 18.0338 18.534 17.4693 18.534H16.1103V19.401H17.4693C18.0338 19.401 18.3161 19.5905 18.3161 19.9655C18.3161 20.3325 18.0338 20.518 17.4693 20.518H16.1103V20.9979C16.1103 21.8125 15.8401 22.2198 15.2997 22.2198C14.7513 22.2198 14.477 21.8125 14.477 20.9979V20.518H13.1261C12.5575 20.518 12.2712 20.3325 12.2712 19.9655C12.2712 19.5905 12.5575 19.401 13.1261 19.401H14.477V18.538H13.1261C12.5575 18.538 12.2712 18.3485 12.2712 17.9734C12.2712 17.6065 12.5575 17.421 13.1261 17.421H13.8883L12.0897 14.6021C11.9445 14.3763 11.8518 14.219 11.8074 14.1223C11.7631 14.0255 11.7429 13.9206 11.7429 13.8037C11.7429 13.594 11.8034 13.4246 11.9325 13.2996ZM12.2551 5.73036C11.8034 5.73036 11.4364 6.09733 11.4364 6.54899C11.4364 7.00064 11.8034 7.36761 12.2551 7.36761H17.9854C18.4371 7.36761 18.8041 7.00064 18.8041 6.54899C18.8041 6.09733 18.4371 5.73036 17.9854 5.73036H12.2551Z" fill="#F05C26"/>
<path d="M30.2689 24.7684C29.9705 24.0627 29.2769 23.6353 28.547 23.6353C28.305 23.6353 28.0631 23.6796 27.8251 23.7804L23.6796 26.5025C23.7078 26.6678 23.8691 27.4985 23.4376 28.3413C23.0666 29.0753 22.2561 29.4664 21.26 29.4664H18.8041H16.2838C15.9531 29.4664 15.5297 29.4664 15.5297 29.0712C15.5297 28.676 15.9531 28.6478 16.2838 28.6478H21.26C22.2843 28.6478 22.8731 28.0026 22.8731 26.9823C22.8731 26.1919 22.2803 25.3773 21.256 25.3773L6.0933 25.3733C5.83925 25.3733 5.59326 25.4378 5.37146 25.5629L0.532307 28.297C0.205664 28.4825 0 28.8293 0 29.2083V33.6967C0 34.5113 0.887178 35.0113 1.58482 34.5919L5.73036 32.0876L14.3723 35.842H14.3804C14.6384 35.963 14.9248 36.0316 15.2151 36.0316C15.449 36.0316 15.6869 35.9872 15.9208 35.8944L29.2729 27.184C30.2205 26.7888 30.6681 25.708 30.2689 24.7684Z" fill="#F05C26"/>
</svg>
