<svg width="25" height="25" viewBox="0 0 25 25" fill="none" xmlns="http://www.w3.org/2000/svg">
<path d="M6.25 18.75C6.60417 18.75 6.90125 18.6 7.14125 18.3C7.38042 18.001 7.5 17.6302 7.5 17.1875C7.5 16.7448 7.38042 16.3734 7.14125 16.0734C6.90125 15.7745 6.60417 15.625 6.25 15.625C5.89583 15.625 5.59875 15.7745 5.35875 16.0734C5.11958 16.3734 5 16.7448 5 17.1875C5 17.6302 5.11958 18.001 5.35875 18.3C5.59875 18.6 5.89583 18.75 6.25 18.75ZM5 14.0625H7.5V6.25H5V14.0625ZM10 17.1875H20V14.0625H10V17.1875ZM10 10.9375H20V7.8125H10V10.9375ZM2.5 25C1.8125 25 1.22417 24.6943 0.735 24.0828C0.245 23.4703 0 22.7344 0 21.875V3.125C0 2.26562 0.245 1.53021 0.735 0.91875C1.22417 0.30625 1.8125 0 2.5 0H22.5C23.1875 0 23.7763 0.30625 24.2663 0.91875C24.7554 1.53021 25 2.26562 25 3.125V21.875C25 22.7344 24.7554 23.4703 24.2663 24.0828C23.7763 24.6943 23.1875 25 22.5 25H2.5ZM2.5 21.875H22.5V3.125H2.5V21.875Z" fill="white"/>
</svg>
