<svg width="24" height="20" viewBox="0 0 24 20" fill="none" xmlns="http://www.w3.org/2000/svg">
<path d="M6 14.4C6.34 14.4 6.6252 14.2848 6.8556 14.0544C7.0852 13.8248 7.2 13.54 7.2 13.2C7.2 12.86 7.0852 12.5748 6.8556 12.3444C6.6252 12.1148 6.34 12 6 12C5.66 12 5.3748 12.1148 5.1444 12.3444C4.9148 12.5748 4.8 12.86 4.8 13.2C4.8 13.54 4.9148 13.8248 5.1444 14.0544C5.3748 14.2848 5.66 14.4 6 14.4ZM4.8 10.8H7.2V4.8H4.8V10.8ZM9.6 13.2H19.2V10.8H9.6V13.2ZM9.6 8.4H19.2V6H9.6V8.4ZM2.4 19.2C1.74 19.2 1.1752 18.9652 0.7056 18.4956C0.2352 18.0252 0 17.46 0 16.8V2.4C0 1.74 0.2352 1.1752 0.7056 0.7056C1.1752 0.2352 1.74 0 2.4 0H21.6C22.26 0 22.8252 0.2352 23.2956 0.7056C23.7652 1.1752 24 1.74 24 2.4V16.8C24 17.46 23.7652 18.0252 23.2956 18.4956C22.8252 18.9652 22.26 19.2 21.6 19.2H2.4ZM2.4 16.8H21.6V2.4H2.4V16.8Z" fill="white"/>
</svg>
