<svg width="65" height="67" viewBox="0 0 65 67" fill="none" xmlns="http://www.w3.org/2000/svg">
<path d="M60.0447 31.3134L57.875 30.6556H40.3347C41.4881 32.8351 41.9046 35.3379 41.5204 37.7804C41.1361 40.2229 39.9724 42.4702 38.2074 44.178C36.4425 45.8858 34.1738 46.9597 31.749 47.2352C29.3243 47.5107 26.8773 46.9726 24.7832 45.7033C22.6891 44.434 21.0634 42.5035 20.1553 40.2079C19.2471 37.9123 19.1067 35.3781 19.7555 32.9938C20.4043 30.6095 21.8065 28.5066 23.7472 27.0076C25.6879 25.5085 28.06 24.696 30.5 24.6945C30.9389 24.6683 31.379 24.6683 31.818 24.6945C31.3937 22.8786 31.6465 20.9678 32.5277 19.3295L36.7658 11.8884L35.0219 6.07113C34.9523 5.8251 34.81 5.60657 34.6143 5.44489C34.4185 5.28321 34.1787 5.18613 33.9269 5.16669H27.073C26.8097 5.16793 26.5536 5.25432 26.3421 5.4133C26.1306 5.57227 25.9746 5.79553 25.8969 6.05058L23.8691 12.8339C22.1902 13.3354 20.5715 14.0249 19.043 14.8895L12.9597 11.5595C12.7247 11.433 12.4557 11.3867 12.1927 11.4274C11.9297 11.4681 11.6867 11.5937 11.4997 11.7856L6.57218 16.6572C6.38293 16.8468 6.25902 17.0932 6.21883 17.3598C6.17865 17.6264 6.22434 17.899 6.34913 18.1372L9.63413 24.3039C8.78258 25.8468 8.10249 27.4807 7.60635 29.1756L0.894406 31.2311C0.642805 31.3099 0.422565 31.468 0.26574 31.6824C0.108914 31.8969 0.0236869 32.1564 0.0224609 32.4234V39.3711C0.0236869 39.6381 0.108914 39.8976 0.26574 40.1121C0.422565 40.3265 0.642805 40.4846 0.894406 40.5634L7.64691 42.6189C8.14847 44.2856 8.82844 45.8916 9.67468 47.4084L6.34913 53.8628C6.22434 54.101 6.17865 54.3736 6.21883 54.6403C6.25902 54.9069 6.38293 55.1532 6.57218 55.3428L11.4186 60.2556C11.6056 60.4474 11.8486 60.573 12.1116 60.6138C12.3746 60.6545 12.6436 60.6082 12.8786 60.4817L19.1444 57.09C20.6266 57.9008 22.1902 58.5485 23.8083 59.0222L25.8361 65.9495C25.9138 66.2045 26.0697 66.4278 26.2813 66.5867C26.4928 66.7457 26.7489 66.8321 27.0122 66.8334H33.8661C34.1294 66.8321 34.3855 66.7457 34.597 66.5867C34.8085 66.4278 34.9645 66.2045 35.0422 65.9495L37.07 59.0017C38.6743 58.5255 40.2241 57.8778 41.6933 57.0695L47.9997 60.4817C48.2347 60.6082 48.5036 60.6545 48.7666 60.6138C49.0296 60.573 49.2727 60.4474 49.4597 60.2556L54.3061 55.3428C54.4953 55.1532 54.6192 54.9069 54.6594 54.6403C54.6996 54.3736 54.6539 54.101 54.5291 53.8628L51.163 47.4906C51.9688 45.9956 52.6146 44.4175 53.0894 42.7834L59.923 40.7278C60.1746 40.649 60.3949 40.4909 60.5517 40.2765C60.7085 40.0621 60.7937 39.8025 60.795 39.5356V32.5261C60.8069 32.2705 60.7415 32.0173 60.6073 31.8005C60.4732 31.5837 60.2769 31.4137 60.0447 31.3134Z" fill="#F7BA23"/>
<path d="M48.4459 1.34335L36.847 21.6111C36.5772 22.0126 36.4222 22.482 36.3994 22.9673C36.3766 23.4526 36.4868 23.9348 36.7178 24.3605C36.9487 24.7862 37.2915 25.1388 37.708 25.3791C38.1245 25.6195 38.5985 25.7382 39.0776 25.7222H62.2956C62.7746 25.7382 63.2487 25.6195 63.6652 25.3791C64.0817 25.1388 64.4244 24.7862 64.6554 24.3605C64.8864 23.9348 64.9965 23.4526 64.9737 22.9673C64.9509 22.482 64.796 22.0126 64.5262 21.6111L52.9273 1.34335C52.6985 0.946742 52.3713 0.617762 51.9782 0.38914C51.5851 0.160517 51.1398 0.0402222 50.6866 0.0402222C50.2334 0.0402222 49.7881 0.160517 49.3949 0.38914C49.0018 0.617762 48.6746 0.946742 48.4459 1.34335Z" fill="#F7BA23"/>
</svg>
