<svg width="50" height="54" viewBox="0 0 50 54" fill="none" xmlns="http://www.w3.org/2000/svg">
<path d="M11.7996 3.15865L9.3532 8.8871C9.28398 9.05104 9.16897 9.19157 9.02195 9.29185C8.87493 9.39212 8.70213 9.4479 8.52423 9.45251L2.37453 10.0067L7.06677 14.1042C7.19241 14.214 7.28614 14.3556 7.33807 14.5142C7.39 14.6728 7.39822 14.8424 7.36187 15.0053L5.97424 21.0874L11.322 17.8886C11.4693 17.8014 11.6378 17.7563 11.809 17.7583C11.9802 17.7603 12.1476 17.8093 12.2929 17.8999L14.8496 19.4294L14.4149 21.3261L11.7996 19.7628L6.21753 23.099C5.88208 23.307 5.47792 23.3738 5.09338 23.2847C4.70885 23.1957 4.3752 22.958 4.16538 22.6237C4.0605 22.4579 3.9894 22.2731 3.95615 22.0798C3.9229 21.8865 3.92817 21.6886 3.97165 21.4973L5.42685 15.1359L0.565664 10.8919C0.514915 10.8539 0.468125 10.8109 0.426001 10.7635C0.339593 10.6777 0.26395 10.5816 0.200738 10.4775L0.153433 10.3986C0.074301 10.2428 0.0232113 10.0743 0.00250465 9.90078V9.81293C-0.0196004 9.43071 0.105257 9.05451 0.351506 8.76135C0.597754 8.4682 0.946762 8.28028 1.32706 8.23608L7.8597 7.65265L10.4209 1.65388C10.4952 1.47645 10.603 1.31505 10.7386 1.17858C10.8554 1.06377 10.99 0.968671 11.1373 0.896998L11.2116 0.860955C11.3923 0.783621 11.5866 0.742673 11.7831 0.740449C11.9797 0.738224 12.1748 0.774769 12.3572 0.847993C12.5396 0.921218 12.7058 1.02968 12.8463 1.16719C12.9868 1.3047 13.0988 1.46855 13.1759 1.64938L15.2866 6.60518L13.3404 6.77863L11.7996 3.15865ZM22.7293 38.9936C22.7293 39.229 22.6358 39.4547 22.4694 39.6212C22.3029 39.7876 22.0772 39.8811 21.8418 39.8811C21.6064 39.8811 21.3807 39.7876 21.2142 39.6212C21.0478 39.4547 20.9543 39.229 20.9543 38.9936V37.3536C20.907 37.327 20.8618 37.2969 20.8191 37.2635L19.1094 35.8782L16.8072 33.9882C16.4129 33.6514 15.943 33.4149 15.4376 33.2989C15.182 33.2354 14.9135 33.2479 14.6649 33.3349C14.4755 33.4167 14.3258 33.5696 14.2482 33.7607C14.0988 34.1579 14.0463 34.5849 14.095 35.0064C14.1497 35.539 14.2944 36.0585 14.523 36.5427C14.8287 37.2153 15.2063 37.8527 15.6493 38.4439L22.4433 48.7227C22.5203 48.8381 22.569 48.9701 22.5852 49.1079C22.7181 50.2162 22.9546 51.0497 23.3015 51.57C23.401 51.7434 23.5453 51.8867 23.7193 51.985C23.8933 52.0833 24.0906 52.1329 24.2904 52.1287C27.7324 52.1287 31.4696 51.9868 34.8778 52.1287C35.5231 52.1234 36.1515 51.9223 36.6799 51.552C37.3694 51.0378 37.9351 50.3759 38.3356 49.6147L38.464 49.3895C39.7728 47.1368 41.0433 44.9405 41.1784 42.3387L41.1109 39.3225L41.0996 39.1895L41.1109 38.48C41.1334 36.2724 41.1717 32.8934 39.3358 32.5623H38.1464C38.1824 33.5061 38.1284 34.4793 38.0788 35.3646C38.0495 35.8872 38.0202 36.3737 38.0202 36.8243C38.0202 37.0597 37.9267 37.2854 37.7603 37.4519C37.5938 37.6183 37.3681 37.7118 37.1327 37.7118C36.8973 37.7118 36.6716 37.6183 36.5051 37.4519C36.3387 37.2854 36.2452 37.0597 36.2452 36.8243C36.2452 36.4053 36.2767 35.8579 36.3105 35.2677C36.4344 33.0691 36.5988 30.1272 35.0648 29.8344H33.9002C33.8243 29.8345 33.7486 29.8254 33.6749 29.8073C33.7237 30.869 33.7079 31.9327 33.6276 32.9925C33.5983 33.5152 33.5713 34.0017 33.5713 34.4523C33.5598 34.6802 33.4612 34.895 33.2958 35.0523C33.1304 35.2096 32.9109 35.2973 32.6826 35.2973C32.4544 35.2973 32.2349 35.2096 32.0695 35.0523C31.9041 34.895 31.8054 34.6802 31.7939 34.4523C31.7939 34.0333 31.8255 33.4859 31.8593 32.8957C31.9854 30.6971 32.1499 27.7552 30.6136 27.4646H29.449C29.3728 27.4638 29.2971 27.4532 29.2237 27.433V32.0127C29.2237 32.248 29.1302 32.4738 28.9637 32.6402C28.7973 32.8067 28.5715 32.9002 28.3362 32.9002C28.1008 32.9002 27.875 32.8067 27.7086 32.6402C27.5421 32.4738 27.4486 32.248 27.4486 32.0127V22.8061C27.4486 21.2631 26.8179 20.2877 26.0137 19.8777C25.7269 19.7313 25.4098 19.6541 25.0879 19.6524C24.7673 19.6536 24.4515 19.7308 24.1665 19.8777C23.3713 20.2832 22.7496 21.2608 22.7496 22.8422V38.9913L22.7293 38.9936ZM20.9475 35.0943V24.1622L17.2307 26.3856C17.1089 26.4581 16.9686 26.4932 16.827 26.4866C16.6855 26.48 16.549 26.4319 16.4345 26.3484C16.3201 26.2649 16.2327 26.1496 16.1832 26.0169C16.1337 25.8841 16.1243 25.7397 16.1562 25.6017L18.1835 16.7848L11.3671 10.8334C11.2583 10.7379 11.1807 10.6119 11.1443 10.4718C11.1079 10.3317 11.1144 10.1839 11.1629 10.0476C11.2114 9.9112 11.2998 9.79253 11.4165 9.70692C11.5332 9.62131 11.6729 9.57271 11.8176 9.56739L20.7988 8.7632L24.3535 0.44422C24.4081 0.312697 24.5005 0.200313 24.619 0.121252C24.7375 0.0421921 24.8767 0 25.0191 0C25.1616 0 25.3008 0.0421921 25.4193 0.121252C25.5378 0.200313 25.6301 0.312697 25.6848 0.44422L29.2372 8.7587L38.2477 9.56739C38.3421 9.57534 38.434 9.60181 38.5182 9.64529C38.6023 9.68877 38.6771 9.7484 38.7382 9.82078C38.7992 9.89317 38.8455 9.97688 38.8742 10.0671C38.9029 10.1574 38.9136 10.2524 38.9055 10.3468C38.8901 10.5335 38.8019 10.7066 38.66 10.8289L31.8277 16.7848L33.8416 25.6062C33.8633 25.6988 33.8664 25.7947 33.8508 25.8886C33.8352 25.9824 33.8012 26.0722 33.7507 26.1528C33.7002 26.2334 33.6343 26.3033 33.5567 26.3583C33.4792 26.4133 33.3915 26.4524 33.2987 26.4734C33.2041 26.4956 33.106 26.4983 33.0103 26.4812C32.9146 26.4642 32.8234 26.4278 32.7423 26.3743L29.2034 24.2546V25.7278C29.2769 25.7084 29.3526 25.6986 29.4287 25.6985H30.6519C30.7201 25.698 30.7882 25.7055 30.8546 25.721C32.3256 25.9463 33.0577 26.9352 33.4046 28.1989C33.5464 28.108 33.7114 28.0595 33.8799 28.0593H35.1031C35.1714 28.0595 35.2395 28.0678 35.3058 28.0841C36.8691 28.3341 37.599 29.4356 37.9166 30.8188C37.9901 30.7988 38.0658 30.7882 38.1419 30.7872H39.3673C39.4356 30.7874 39.5037 30.7957 39.57 30.812C42.9287 31.3481 42.8792 35.6754 42.8476 38.4957C42.8476 39.8023 42.9039 41.102 42.9175 42.4063C42.7665 45.4496 41.3879 47.8284 39.9665 50.277L39.8449 50.4888C39.3131 51.48 38.5647 52.3385 37.6553 53.0005C36.8361 53.5716 35.863 53.8811 34.8643 53.888H24.2904C23.2339 53.906 22.4162 53.4375 21.8125 52.5364C21.3282 51.8088 21.0061 50.7906 20.8326 49.5089L14.2054 39.4801C13.6852 38.7832 13.2426 38.0317 12.8853 37.2388C12.572 36.5639 12.3776 35.8399 12.3109 35.0988C12.2404 34.3896 12.3456 33.674 12.6173 33.0151C12.8764 32.4015 13.368 31.9155 13.9846 31.6635C14.5514 31.4466 15.1695 31.4012 15.7619 31.5328C16.5568 31.7072 17.2974 32.0721 17.92 32.5961L20.9385 35.074L20.9475 35.0943ZM35.9974 41.7553C35.9974 41.5629 36.0738 41.3784 36.2098 41.2424C36.3458 41.1064 36.5303 41.0299 36.7227 41.0299C36.9151 41.0299 37.0996 41.1064 37.2356 41.2424C37.3716 41.3784 37.4481 41.5629 37.4481 41.7553V45.0689C37.4481 45.2613 37.3716 45.4458 37.2356 45.5818C37.0996 45.7179 36.9151 45.7943 36.7227 45.7943C36.5303 45.7943 36.3458 45.7179 36.2098 45.5818C36.0738 45.4458 35.9974 45.2613 35.9974 45.0689V41.7553ZM31.7174 40.2888C31.7277 40.1037 31.8085 39.9296 31.9432 39.8022C32.0779 39.6749 32.2562 39.6039 32.4416 39.6039C32.627 39.6039 32.8053 39.6749 32.94 39.8022C33.0747 39.9296 33.1555 40.1037 33.1658 40.2888V45.0667C33.1713 45.1652 33.1566 45.2638 33.1227 45.3564C33.0888 45.4491 33.0364 45.5338 32.9686 45.6055C32.9008 45.6772 32.8191 45.7343 32.7285 45.7733C32.6379 45.8123 32.5402 45.8324 32.4416 45.8324C32.3429 45.8324 32.2453 45.8123 32.1547 45.7733C32.0641 45.7343 31.9824 45.6772 31.9146 45.6055C31.8468 45.5338 31.7943 45.4491 31.7604 45.3564C31.7265 45.2638 31.7119 45.1652 31.7174 45.0667V40.2888ZM39.5791 1.65163L42.1403 7.6504L48.6729 8.23383C49.0532 8.27803 49.4022 8.46595 49.6485 8.7591C49.8947 9.05226 50.0196 9.42846 49.9975 9.81068V9.89853C49.9768 10.072 49.9257 10.2406 49.8466 10.3964L49.7993 10.4775C49.7361 10.5803 49.6604 10.6748 49.574 10.759C49.5311 10.8072 49.4836 10.8509 49.4321 10.8897L44.5777 15.1359L46.0329 21.4973C46.1002 21.7861 46.0802 22.0883 45.9755 22.3656C45.8707 22.6429 45.6859 22.8829 45.4446 23.055C45.2032 23.2271 44.9161 23.3236 44.6198 23.3322C44.3234 23.3409 44.0312 23.2612 43.7802 23.1035L38.1982 19.7673L35.6009 21.3261L35.1504 19.4272L37.7026 17.8999C37.8479 17.8093 38.0153 17.7603 38.1865 17.7583C38.3577 17.7563 38.5262 17.8014 38.6735 17.8886L44.0213 21.0874L42.6336 15.0053C42.5978 14.8424 42.6062 14.6729 42.6581 14.5144C42.71 14.3559 42.8035 14.2143 42.9287 14.1042L47.621 10.0067L41.4713 9.45251C41.2934 9.4479 41.1206 9.39212 40.9735 9.29185C40.8265 9.19157 40.7115 9.05104 40.6423 8.8871L38.1959 3.15865L36.6551 6.76286L34.7066 6.58716L36.8196 1.63136C36.9758 1.26656 37.2704 0.978656 37.6386 0.830838C38.0069 0.68302 38.4188 0.687372 38.7839 0.842937L38.856 0.876725C39.1796 1.03428 39.435 1.30406 39.5746 1.63586L39.5791 1.65163Z" fill="#F05C26"/>
</svg>
