<svg width="24" height="26" viewBox="0 0 24 26" fill="none" xmlns="http://www.w3.org/2000/svg">
<path d="M3.99916 7.99982C4.70129 7.99981 5.39104 7.81497 5.9991 7.4639C6.60716 7.11283 7.11209 6.60789 7.46316 5.99982H21.9992C22.5296 5.99982 23.0383 5.78911 23.4134 5.41404C23.7884 5.03896 23.9992 4.53026 23.9992 3.99982C23.9992 3.46939 23.7884 2.96068 23.4134 2.58561C23.0383 2.21054 22.5296 1.99982 21.9992 1.99982H7.46316C7.11207 1.39179 6.60712 0.886888 5.99907 0.535848C5.39101 0.184807 4.70127 0 3.99916 0C3.29704 0 2.6073 0.184807 1.99924 0.535848C1.39119 0.886888 0.886243 1.39179 0.535156 1.99982H3.99916V5.99982H0.535156C0.886221 6.60789 1.39116 7.11283 1.99921 7.4639C2.60727 7.81497 3.29703 7.99981 3.99916 7.99982ZM2.29116 16.7078C2.10422 16.8952 1.99921 17.1491 1.99916 17.4138V24.9998C1.99916 25.265 2.10451 25.5194 2.29205 25.7069C2.47959 25.8945 2.73394 25.9998 2.99916 25.9998H5.99916C6.26437 25.9998 6.51873 25.8945 6.70626 25.7069C6.8938 25.5194 6.99916 25.265 6.99916 24.9998V23.9998H18.9992V24.9998C18.9992 25.265 19.1045 25.5194 19.292 25.7069C19.4796 25.8945 19.7339 25.9998 19.9992 25.9998H22.9992C23.2644 25.9998 23.5187 25.8945 23.7063 25.7069C23.8938 25.5194 23.9992 25.265 23.9992 24.9998V17.4138C23.9991 17.1491 23.8941 16.8952 23.7072 16.7078L21.9992 14.9998L19.2912 10.4858C19.2022 10.3373 19.0761 10.2144 18.9254 10.1292C18.7746 10.044 18.6043 9.99944 18.4312 9.99982H7.56716C7.39434 9.99979 7.22446 10.0445 7.07409 10.1297C6.92372 10.2149 6.79799 10.3376 6.70916 10.4858L3.99916 14.9998L2.29116 16.7078ZM20.2672 15.9998H5.73116L8.13116 11.9998H17.8672L20.2672 15.9998ZM8.99916 19.6558V20.3998C8.99916 20.559 8.93594 20.7116 8.82342 20.8241C8.7109 20.9366 8.55829 20.9998 8.39916 20.9998H4.59916C4.44003 20.9998 4.28741 20.9366 4.17489 20.8241C4.06237 20.7116 3.99916 20.559 3.99916 20.3998V18.7318C3.9992 18.643 4.01894 18.5554 4.05696 18.4752C4.09497 18.3949 4.15032 18.3242 4.219 18.2679C4.28769 18.2117 4.36799 18.1714 4.45414 18.1499C4.54028 18.1284 4.63011 18.1264 4.71716 18.1438L8.35716 18.8718C8.53822 18.9083 8.70109 19.0063 8.81811 19.1492C8.93513 19.2921 8.9991 19.4711 8.99916 19.6558ZM21.9992 18.9758V20.3998C21.9992 20.559 21.9359 20.7116 21.8234 20.8241C21.7109 20.9366 21.5583 20.9998 21.3992 20.9998H17.5992C17.44 20.9998 17.2874 20.9366 17.1749 20.8241C17.0624 20.7116 16.9992 20.559 16.9992 20.3998V19.4918C16.9992 19.3532 17.0473 19.2189 17.1351 19.1117C17.223 19.0045 17.3453 18.9311 17.4812 18.9038L21.0412 18.1918C21.1573 18.1684 21.2771 18.1711 21.3921 18.1997C21.507 18.2282 21.6142 18.2819 21.7058 18.357C21.7975 18.432 21.8713 18.5264 21.9221 18.6334C21.9728 18.7404 21.9991 18.8574 21.9992 18.9758Z" fill="#F05C26"/>
</svg>
