<svg width="30" height="22" viewBox="0 0 30 22" fill="none" xmlns="http://www.w3.org/2000/svg">
<path d="M15 0L0 11.6471H4.5V22H25.5V11.6471H30L15 0ZM15 6.08235C18.15 6.08235 20.7 8.28235 20.7 11C20.7 14.8824 15 19.4118 15 19.4118C15 19.4118 9.3 14.8824 9.3 11C9.3 8.28235 11.85 6.08235 15 6.08235ZM15 9.05882C14.4033 9.05882 13.831 9.26334 13.409 9.62738C12.9871 9.99142 12.75 10.4852 12.75 11C12.75 11.5148 12.9871 12.0086 13.409 12.3726C13.831 12.7367 14.4033 12.9412 15 12.9412C15.5967 12.9412 16.169 12.7367 16.591 12.3726C17.0129 12.0086 17.25 11.5148 17.25 11C17.25 10.4852 17.0129 9.99142 16.591 9.62738C16.169 9.26334 15.5967 9.05882 15 9.05882Z" fill="#F05C26"/>
</svg>
