<svg width="30" height="30" viewBox="0 0 30 30" fill="none" xmlns="http://www.w3.org/2000/svg">
<path fill-rule="evenodd" clip-rule="evenodd" d="M0.756658 15.5685H5.19897C5.39945 15.5692 5.59154 15.6595 5.7333 15.8196C5.87506 15.9797 5.95499 16.1967 5.95563 16.4231V26.6791C5.95499 26.9056 5.87506 27.1225 5.7333 27.2827C5.59154 27.4428 5.39945 27.5331 5.19897 27.5338H0.756658C0.556178 27.5331 0.364093 27.4428 0.222331 27.2827C0.0805694 27.1225 0.000643601 26.9056 0 26.6791L0 16.4231C0.000643601 16.1967 0.0805694 15.9797 0.222331 15.8196C0.364093 15.6595 0.556178 15.5692 0.756658 15.5685ZM6.93685 26.5302V16.5417H11.6599C13.3489 16.8836 15.038 17.9202 16.7246 19.1195H19.8196C21.2182 19.2132 21.9529 20.8178 20.5933 21.8764C19.5071 22.7752 18.0768 22.7228 16.6099 22.5767C15.5969 22.5188 15.553 24.0545 16.6099 24.06C16.976 24.0931 17.3738 23.9966 17.7229 23.9938C19.5535 23.9938 21.0619 23.5968 21.9846 21.9647L22.4557 20.7213L27.0566 18.1435C29.3608 17.2888 30.9961 20.01 29.2998 21.9013C26.0897 24.5482 22.6559 26.8302 19.0483 28.7138C16.5098 30.4589 13.9689 30.3983 11.4304 28.7138L6.93929 26.5302H6.93685ZM15.1332 2.10888C15.1051 2.08279 15.0727 2.06313 15.038 2.05098C15.0123 2.04436 14.9856 2.04436 14.9599 2.05098C14.8908 2.05883 14.827 2.09633 14.7817 2.15575L14.1642 2.98284C14.1091 3.05762 14.0329 3.10863 13.9484 3.12721C13.8639 3.1458 13.7763 3.13084 13.7004 3.08485C13.6174 3.03523 13.5295 2.98836 13.4417 2.947C13.3538 2.90565 13.2488 2.86154 13.1561 2.82569C13.0633 2.78985 12.9681 2.75953 12.8583 2.72369C12.7485 2.68785 12.6557 2.66028 12.5605 2.63546C12.4816 2.61283 12.4114 2.56189 12.3603 2.4903C12.3093 2.41871 12.2802 2.33033 12.2774 2.23846L12.1846 1.10258C12.1808 1.06238 12.1709 1.02322 12.1553 0.986787C12.1403 0.957066 12.1214 0.930105 12.0992 0.906834C12.0771 0.883946 12.0502 0.867812 12.0211 0.859966C11.9882 0.851463 11.954 0.851463 11.921 0.859966L10.6249 1.00333C10.5903 1.00859 10.5566 1.01975 10.5249 1.03641C10.4931 1.05598 10.465 1.08217 10.4419 1.11361C10.4226 1.1408 10.4078 1.17159 10.3979 1.20459C10.3929 1.23465 10.3929 1.26551 10.3979 1.29557L10.4883 2.36804C10.4967 2.46727 10.4739 2.56668 10.4239 2.64885C10.3739 2.73101 10.2999 2.79069 10.2149 2.81742C10.1368 2.84775 10.0489 2.88359 9.94883 2.93046C9.84876 2.97733 9.76333 3.0242 9.68522 3.07107H9.67058C9.58759 3.12069 9.49972 3.17307 9.4265 3.22821H9.40209C9.3191 3.28335 9.23855 3.34125 9.158 3.39915C9.09138 3.44891 9.01252 3.47358 8.93272 3.46962C8.85292 3.46565 8.77628 3.43327 8.71377 3.37709L7.86925 2.63822C7.84353 2.61486 7.81469 2.59625 7.78382 2.58308C7.7597 2.57701 7.7347 2.57701 7.71059 2.58308C7.67571 2.58872 7.6419 2.60083 7.61052 2.61892H7.59587C7.57323 2.63705 7.55273 2.65836 7.53485 2.68233L6.71717 3.80442C6.69253 3.83794 6.67351 3.87624 6.66103 3.91746C6.6562 3.94661 6.6562 3.97653 6.66103 4.00568V4.02498C6.66359 4.05775 6.67189 4.08961 6.68544 4.11872V4.1325C6.70161 4.15964 6.72136 4.18382 6.74402 4.20419L7.47627 4.9017C7.54346 4.9637 7.58928 5.05033 7.60578 5.14654C7.62228 5.24274 7.60841 5.34244 7.56658 5.42829C7.52276 5.51793 7.48285 5.60994 7.44698 5.70399C7.40639 5.80939 7.37055 5.91705 7.33958 6.02655C7.31029 6.12856 7.27856 6.23884 7.24683 6.3629C7.2151 6.48697 7.19069 6.59449 7.16873 6.69926C7.1536 6.78962 7.11275 6.87193 7.05238 6.93365C6.99201 6.99537 6.91544 7.03311 6.83433 7.04112L5.82627 7.14589C5.79146 7.15024 5.75759 7.16144 5.72619 7.17897C5.69862 7.19615 5.67385 7.21852 5.65297 7.24514C5.63399 7.27107 5.61987 7.30108 5.61147 7.33336C5.6049 7.36975 5.6049 7.40726 5.61147 7.44364L5.7384 8.9076C5.74191 8.94787 5.75184 8.9871 5.76769 9.02339C5.78398 9.05923 5.80637 9.09109 5.83359 9.11713C5.85826 9.13783 5.88537 9.15454 5.91414 9.16676C5.94402 9.17257 5.97457 9.17257 6.00445 9.16676L6.95393 9.06475C7.03948 9.05873 7.12426 9.08613 7.19403 9.14235C7.26381 9.19858 7.31434 9.2802 7.33714 9.37353C7.36399 9.46175 7.39816 9.56376 7.43966 9.67404C7.48115 9.78432 7.52021 9.88081 7.56414 9.97455L7.58123 10.0132C7.62028 10.0986 7.66422 10.1924 7.71303 10.2888L7.87657 10.5921C7.91882 10.6674 7.93918 10.7557 7.93481 10.8447C7.93043 10.9336 7.90153 11.0189 7.85216 11.0884L7.17605 12.0285C7.15826 12.0558 7.1435 12.0854 7.13211 12.1167C7.12829 12.1432 7.12829 12.1702 7.13211 12.1967C7.1353 12.237 7.14524 12.2763 7.1614 12.3125C7.17718 12.3455 7.19878 12.3746 7.22487 12.3979C7.5617 12.715 7.9083 13.0265 8.24269 13.3463C8.26498 13.3645 8.28971 13.3784 8.31592 13.3877C8.34651 13.3948 8.37807 13.3948 8.40867 13.3877C8.44581 13.3833 8.48208 13.3721 8.51607 13.3546H8.52827C8.5514 13.3371 8.57342 13.3177 8.59417 13.2967L9.20438 12.4696C9.25923 12.3937 9.33575 12.3418 9.42082 12.3226C9.50589 12.3035 9.59419 12.3185 9.67058 12.3649C9.75469 12.4158 9.84104 12.4618 9.92931 12.5027C10.0245 12.5496 10.1197 12.5882 10.2149 12.624C10.3101 12.6599 10.4004 12.6929 10.5127 12.7288C10.6249 12.7646 10.7153 12.7922 10.8104 12.817C10.8909 12.8377 10.963 12.8878 11.0155 12.9596C11.0681 13.0314 11.0981 13.1209 11.1009 13.214L11.1937 14.3361C11.1975 14.3758 11.2083 14.4142 11.2254 14.4491C11.2389 14.4808 11.258 14.5089 11.2815 14.5318C11.3051 14.5522 11.3315 14.568 11.3596 14.5787C11.3927 14.5859 11.4267 14.5859 11.4597 14.5787L12.7534 14.4354C12.7898 14.4314 12.8253 14.4202 12.8583 14.4023C12.8873 14.3851 12.9137 14.3628 12.9364 14.3361C12.9584 14.3056 12.9757 14.2711 12.9877 14.2341C12.9951 14.2015 12.9951 14.1674 12.9877 14.1348L12.8998 13.0596C12.891 12.9659 12.9102 12.8715 12.9545 12.7915C12.9987 12.7115 13.0654 12.6506 13.1439 12.6185C13.2391 12.5827 13.3343 12.5413 13.427 12.4972H13.4563C13.5344 12.4586 13.6125 12.4145 13.7004 12.3649H13.715C13.8078 12.3125 13.8981 12.2573 13.9787 12.2022L14.2496 12.0175C14.3158 11.9695 14.3939 11.9467 14.4724 11.9521C14.551 11.9576 14.6259 11.9911 14.6865 12.0478L15.5115 12.8087C15.5362 12.8294 15.5633 12.8461 15.592 12.8584C15.6177 12.8653 15.6445 12.8653 15.6701 12.8584C15.705 12.8565 15.7392 12.8461 15.7702 12.828C15.7981 12.808 15.8229 12.7828 15.8434 12.7536C16.1241 12.3731 16.4 11.9816 16.6831 11.6039C16.6996 11.5801 16.712 11.5529 16.7197 11.524C16.7248 11.4893 16.7248 11.4539 16.7197 11.4192C16.7155 11.3773 16.7056 11.3364 16.6904 11.2979C16.6746 11.2648 16.654 11.235 16.6294 11.2097L15.8971 10.537C15.8286 10.4756 15.7814 10.3888 15.764 10.2919C15.7466 10.1951 15.76 10.0944 15.802 10.0076C15.847 9.91263 15.8877 9.81509 15.924 9.7154C15.9655 9.60236 16.0021 9.49484 16.0314 9.39559C16.0607 9.29634 16.09 9.18054 16.1217 9.05648C16.1534 8.93241 16.1778 8.8304 16.1998 8.72013C16.2184 8.62793 16.2639 8.54546 16.329 8.48596C16.394 8.42647 16.4749 8.39339 16.5586 8.39204L17.574 8.27074C17.6096 8.26637 17.6443 8.25518 17.6765 8.23765C17.7023 8.21981 17.726 8.19852 17.7473 8.17424C17.7653 8.1476 17.7793 8.1178 17.7888 8.08602C17.794 8.05135 17.794 8.01593 17.7888 7.98125L17.6619 6.52005C17.6576 6.48082 17.6477 6.44263 17.6326 6.40702V6.39047C17.6158 6.36145 17.5952 6.33542 17.5716 6.31328C17.5475 6.29155 17.5202 6.27475 17.491 6.26365C17.4644 6.25798 17.4371 6.25798 17.4105 6.26365L16.4512 6.34085C16.3683 6.34984 16.2851 6.3277 16.2145 6.27785C16.1439 6.22801 16.0898 6.15324 16.0607 6.06515C16.0289 5.96314 15.9948 5.85562 15.9508 5.74534C15.9069 5.63506 15.8654 5.51927 15.8239 5.42829V5.40899C15.7825 5.31453 15.7369 5.22251 15.6872 5.13329C15.6384 5.03955 15.5823 4.94582 15.5261 4.85759C15.4803 4.78139 15.4577 4.69043 15.4616 4.59842C15.4656 4.50642 15.496 4.41837 15.5481 4.34755L16.2169 3.41293C16.2381 3.38426 16.2546 3.3516 16.2657 3.31644C16.2709 3.29011 16.2709 3.26282 16.2657 3.23649C16.2607 3.19622 16.25 3.15713 16.234 3.12069V3.10139C16.2196 3.0768 16.2024 3.05454 16.1827 3.03523L15.2674 2.18607C15.2183 2.17144 15.1725 2.14512 15.1332 2.10888ZM25.2333 8.89106C25.1949 8.85405 25.1502 8.82619 25.1019 8.80913C25.0537 8.79208 25.0029 8.78619 24.9526 8.79181C24.8517 8.80472 24.7591 8.86099 24.6939 8.94895L24.3205 9.459C24.2018 9.38961 24.0786 9.33062 23.9519 9.28255C23.8201 9.23568 23.7078 9.19433 23.5662 9.15849L23.5077 8.44718C23.4987 8.3336 23.4505 8.22858 23.3734 8.15494C23.3353 8.11847 23.2909 8.09151 23.2429 8.07583C23.195 8.06015 23.1446 8.0561 23.0952 8.06396L22.2994 8.15219C22.2048 8.16665 22.118 8.21957 22.0554 8.30106C22.0222 8.34427 21.9973 8.39471 21.9822 8.44926C21.9671 8.50381 21.9621 8.56129 21.9675 8.61812L22.0212 9.27152C21.8923 9.31864 21.7673 9.37861 21.6477 9.45072C21.5292 9.51682 21.415 9.59237 21.306 9.6768L20.8032 9.21914C20.7668 9.181 20.7235 9.15216 20.6764 9.13456C20.6292 9.11696 20.5792 9.11101 20.5298 9.11713C20.4284 9.13019 20.3355 9.18759 20.2711 9.27704L19.783 9.96352C19.7503 10.007 19.7257 10.0575 19.7105 10.1119C19.6954 10.1663 19.6901 10.2236 19.6948 10.2804C19.6996 10.3372 19.7144 10.3923 19.7383 10.4425C19.7623 10.4927 19.7949 10.537 19.8342 10.5728L20.2589 10.9946C20.1973 11.1282 20.1458 11.2675 20.1051 11.4109C20.0612 11.5598 20.0246 11.6866 19.9929 11.8465L19.3631 11.9127C19.2628 11.9236 19.1701 11.978 19.1044 12.0643C19.0745 12.1091 19.0531 12.1604 19.0418 12.215C19.0304 12.2696 19.0293 12.3263 19.0385 12.3814L19.1166 13.2774C19.1264 13.3899 19.1745 13.4937 19.2508 13.5669C19.2885 13.6045 19.3327 13.6328 19.3806 13.6499C19.4286 13.667 19.4792 13.6725 19.5291 13.6662L20.1076 13.6055C20.1475 13.7497 20.1982 13.8899 20.2589 14.0246C20.3194 14.1608 20.3862 14.2933 20.4591 14.4216L20.0539 14.973C20.0204 15.0143 19.9952 15.0632 19.9801 15.1165C19.9649 15.1698 19.9601 15.2262 19.966 15.2817C19.98 15.3901 20.0297 15.4886 20.1051 15.5574L20.7227 16.1557C20.7614 16.1918 20.8064 16.2185 20.8546 16.2342C20.9029 16.2498 20.9536 16.2541 21.0034 16.2467C21.1045 16.2357 21.1985 16.1826 21.267 16.0978L21.6429 15.5795C21.7609 15.6505 21.8842 15.7096 22.0114 15.7559C22.1379 15.8053 22.2666 15.8467 22.3971 15.88L22.4557 16.5941C22.4662 16.7063 22.5142 16.8099 22.5899 16.8836C22.6284 16.9203 22.6732 16.9476 22.7215 16.9637C22.7699 16.9799 22.8206 16.9845 22.8706 16.9773L23.6639 16.8891C23.7632 16.8769 23.8548 16.8227 23.9202 16.7374C23.9533 16.6942 23.9782 16.6438 23.9933 16.5892C24.0084 16.5347 24.0134 16.4772 24.008 16.4204L23.9519 15.767C24.0812 15.7209 24.2062 15.6608 24.3253 15.5878C24.4453 15.5208 24.5619 15.4463 24.6744 15.3645L25.1625 15.8221C25.2008 15.8595 25.2455 15.8877 25.2937 15.9047C25.342 15.9218 25.3929 15.9275 25.4432 15.9214C25.4935 15.9161 25.5423 15.8995 25.5868 15.8725C25.6312 15.8455 25.6704 15.8087 25.702 15.7642L26.2097 15.0695C26.2417 15.0256 26.2655 14.975 26.2798 14.9205C26.2941 14.866 26.2984 14.8088 26.2927 14.7524C26.2832 14.6374 26.2352 14.5309 26.1584 14.4546L25.6995 14.0356C25.7687 13.9033 25.8267 13.7639 25.8728 13.6193C25.9162 13.4773 25.9528 13.3328 25.9827 13.1864L26.6148 13.1203C26.7102 13.1061 26.7973 13.052 26.8589 12.9686C26.8916 12.9253 26.9158 12.8746 26.9301 12.82C26.9444 12.7654 26.9484 12.708 26.9419 12.6516L26.8638 11.7556C26.8501 11.6483 26.8024 11.5503 26.7296 11.4799C26.6915 11.442 26.6469 11.4133 26.5986 11.3958C26.5503 11.3782 26.4993 11.3721 26.4489 11.3779L25.8704 11.4413C25.8269 11.2964 25.7739 11.1554 25.7117 11.0194C25.6558 10.884 25.5888 10.7548 25.5116 10.6335L25.9192 10.0655C25.952 10.0238 25.9768 9.97474 25.9919 9.92158C26.007 9.86842 26.0122 9.81229 26.0071 9.75675C25.9956 9.64277 25.9458 9.53813 25.8679 9.46451L25.2577 8.89933H25.2382L25.2333 8.89106ZM22.8218 10.7741C23.0288 10.7529 23.2376 10.7763 23.4369 10.843C23.6279 10.9117 23.8059 11.0201 23.9617 11.1628C24.1164 11.3072 24.2449 11.4842 24.34 11.6839C24.4395 11.8888 24.4994 12.1153 24.5157 12.3483C24.5346 12.5822 24.5139 12.818 24.4547 13.0431C24.3984 13.2597 24.3047 13.4616 24.179 13.6371C24.0533 13.8126 23.8982 13.9584 23.7225 14.0659C23.5403 14.176 23.3401 14.2427 23.1342 14.2617C22.9272 14.2844 22.7182 14.261 22.5191 14.1927C22.3274 14.125 22.1486 14.0175 21.9919 13.8757C21.8385 13.7294 21.711 13.5516 21.616 13.3519C21.511 13.1466 21.4469 12.918 21.4281 12.6819C21.3953 12.3379 21.4545 11.9906 21.598 11.685C21.7416 11.3793 21.963 11.1293 22.2335 10.9671C22.4148 10.8541 22.6154 10.7864 22.8218 10.7686V10.7741ZM15.2699 1.24043C15.3553 1.27074 15.4372 1.31239 15.5139 1.36449C15.5677 1.37904 15.6178 1.40734 15.6604 1.4472L16.644 2.37079C16.7353 2.45526 16.8129 2.55693 16.8735 2.6713L16.893 2.70714C16.9552 2.83718 16.995 2.97939 17.0102 3.12621C17.0272 3.28034 17.013 3.43683 16.9687 3.58387C16.9299 3.71304 16.8713 3.83345 16.7954 3.93952L16.2926 4.6453L16.3243 4.7032C16.3883 4.82437 16.4462 4.94955 16.4976 5.07815C16.5562 5.20681 16.605 5.32536 16.644 5.4338L16.6636 5.48894L17.3226 5.41726C17.4505 5.40052 17.5801 5.41366 17.7034 5.45586H17.7229C17.8361 5.49822 17.9418 5.56259 18.0353 5.64609L18.0695 5.67917C18.1566 5.76558 18.2301 5.86814 18.2867 5.98244L18.3062 6.01828C18.3624 6.14326 18.3979 6.27871 18.4112 6.41804C18.4112 6.78748 18.4942 7.5043 18.5381 7.89027C18.5527 8.02971 18.5436 8.17101 18.5113 8.30658V8.33139C18.474 8.47355 18.4117 8.60576 18.3282 8.72013C18.248 8.8323 18.1494 8.92591 18.0378 8.99582C17.9219 9.06305 17.7962 9.10602 17.6667 9.12264L16.8906 9.19984L16.871 9.27979C16.8442 9.39007 16.81 9.51414 16.7661 9.65474C16.7221 9.79535 16.6855 9.93044 16.644 10.0324L16.6245 10.0793L17.1591 10.5673C17.2605 10.6664 17.3435 10.7873 17.4031 10.923C17.4477 11.044 17.4741 11.1726 17.4812 11.3034V11.3172C17.4977 11.4651 17.4868 11.6153 17.4495 11.7583C17.4156 11.8926 17.3602 12.0188 17.286 12.1305L16.4341 13.294C16.3528 13.407 16.2524 13.5007 16.1388 13.5697C16.0237 13.6424 15.8966 13.6874 15.7653 13.702C15.6351 13.7191 15.5033 13.7069 15.3772 13.6662H15.3577C15.2466 13.6236 15.1427 13.5602 15.0502 13.4787L14.418 12.897L14.3545 12.9383C14.2471 13.01 14.1422 13.0734 14.0421 13.1285C13.942 13.1837 13.8566 13.2333 13.7565 13.2829L13.6687 13.316L13.737 14.0604C13.7521 14.2136 13.738 14.3688 13.6955 14.5153C13.6543 14.6511 13.5915 14.7773 13.51 14.8875L13.4954 14.904C13.4164 15.0044 13.3232 15.0892 13.2196 15.1549H13.1951C13.0851 15.2175 12.9661 15.2577 12.8437 15.2735C12.5166 15.2735 11.882 15.37 11.5403 15.4196C11.4092 15.4359 11.2767 15.4237 11.1497 15.3838C11.0237 15.3408 10.9066 15.2696 10.8056 15.1742H10.7934C10.6995 15.0802 10.621 14.9682 10.5615 14.8434C10.5005 14.7132 10.4624 14.5709 10.4492 14.4243L10.3784 13.5504L10.3101 13.5283L9.97812 13.4098C9.86096 13.3656 9.73404 13.3188 9.64373 13.2691L9.59735 13.2471L9.158 13.8509C9.07748 13.9539 8.98063 14.039 8.87243 14.1018L8.84558 14.1211C8.73834 14.1778 8.62383 14.215 8.5063 14.2313H8.4941C8.36231 14.2497 8.22859 14.2375 8.10112 14.1955C7.98387 14.1554 7.87392 14.0919 7.77649 14.008L6.74402 13.0458C6.64448 12.9533 6.56162 12.8401 6.49994 12.7122C6.43769 12.5832 6.39792 12.4419 6.38278 12.2959C6.36697 12.1472 6.38115 11.9964 6.42427 11.8548C6.46038 11.7277 6.51662 11.6091 6.59025 11.5047L7.10526 10.7906L7.07842 10.7217C7.02472 10.6197 6.97346 10.5094 6.9222 10.3936C6.86118 10.2668 6.80992 10.1455 6.76355 10.0214L6.74158 9.95801L6.08744 10.0269C5.95275 10.0449 5.81622 10.0298 5.68714 9.98282C5.5734 9.94067 5.4675 9.87525 5.37471 9.78983L5.3381 9.75951C5.23861 9.66263 5.15585 9.54579 5.09402 9.41488C5.03824 9.29073 5.00268 9.15625 4.98906 9.01788C4.98906 8.64569 4.90363 7.9399 4.8597 7.54841C4.83961 7.39666 4.84709 7.24188 4.88167 7.0935C4.91966 6.95112 4.98276 6.8189 5.06717 6.70477C5.14954 6.59396 5.24872 6.5006 5.36007 6.42907C5.47553 6.36118 5.6015 6.31905 5.73108 6.30501L6.50482 6.22506L6.52435 6.1451C6.55364 6.03758 6.58781 5.91076 6.6293 5.77291C6.6708 5.63506 6.71229 5.49721 6.75378 5.39245L6.77331 5.34006L6.27294 4.86035C6.17611 4.77555 6.09346 4.67192 6.02886 4.55432L6.01421 4.52675C5.95833 4.4048 5.92354 4.27193 5.9117 4.13526V4.11321C5.89781 3.96379 5.9111 3.81274 5.95075 3.66933C5.99129 3.52703 6.05595 3.395 6.14114 3.2806L6.95881 2.15299C7.03352 2.04953 7.12456 1.96259 7.22731 1.89659L7.2566 1.87454C7.37115 1.80276 7.49733 1.75775 7.6276 1.7422C7.76165 1.72297 7.89781 1.73901 8.02546 1.78907C8.13964 1.83328 8.24617 1.89951 8.34033 1.98481L8.96762 2.55551L9.03108 2.50037C9.13116 2.4342 9.23367 2.37355 9.33619 2.31565C9.4387 2.25776 9.55098 2.19435 9.65105 2.14472L9.70963 2.11991L9.64373 1.37828C9.62891 1.23379 9.64054 1.08739 9.6779 0.948189V0.926133C9.7154 0.798314 9.7724 0.678884 9.84632 0.573239L9.88293 0.551183C9.96694 0.43897 10.0688 0.345467 10.1832 0.275485C10.2933 0.209783 10.4133 0.167717 10.5371 0.151421C10.8641 0.151421 11.4988 0.0576834 11.8405 0.00805773C11.9715 -0.00992595 12.1043 0.00226646 12.231 0.0438985C12.3569 0.0859913 12.4739 0.156317 12.5752 0.250672C12.6733 0.34255 12.756 0.453693 12.8193 0.578753C12.8816 0.712658 12.9213 0.858507 12.9364 1.00884L13.0048 1.88556L13.0755 1.90762C13.1707 1.93795 13.283 1.97654 13.4075 2.02341L13.7419 2.16402L13.7907 2.18883L14.213 1.61262C14.2954 1.49972 14.3966 1.40607 14.5108 1.33692C14.6276 1.2632 14.7561 1.21635 14.8891 1.19907C15.0212 1.18059 15.1553 1.1947 15.2821 1.24043H15.2699ZM11.4011 4.44129C11.5887 4.42338 11.7774 4.42338 11.965 4.44129C12.1603 4.4629 12.3532 4.5063 12.541 4.57087C12.7199 4.63429 12.8931 4.71643 13.0585 4.81624L13.0804 4.83002C13.2351 4.92674 13.3821 5.03835 13.5198 5.16362C13.8063 5.43794 14.0455 5.76977 14.2252 6.14235C14.3199 6.33344 14.3952 6.53597 14.4497 6.74613C14.5066 6.9579 14.5426 7.17609 14.5571 7.39677C14.5742 7.6077 14.5742 7.81995 14.5571 8.03088C14.5405 8.25168 14.5028 8.46982 14.4448 8.68153V8.7091C14.3895 8.89957 14.3193 9.0841 14.2349 9.26049C14.1467 9.44466 14.0446 9.61991 13.9298 9.78432L13.9054 9.81465C13.6677 10.1295 13.3806 10.3922 13.0585 10.5894C12.8877 10.6947 12.7078 10.7797 12.5215 10.843C12.3342 10.9043 12.1421 10.9449 11.9479 10.9643C11.757 10.9822 11.5652 10.9822 11.3743 10.9643C11.1789 10.943 10.9859 10.8996 10.7982 10.8347C10.6203 10.7708 10.4479 10.6887 10.2832 10.5894C10.1203 10.4884 9.96518 10.3722 9.81947 10.242C9.6773 10.1071 9.54656 9.9576 9.42894 9.79535C9.30964 9.62975 9.20346 9.45262 9.11163 9.26601C9.01897 9.07318 8.94452 8.86989 8.88951 8.65947C8.83267 8.4477 8.79666 8.2295 8.78212 8.00882C8.76507 7.79789 8.76507 7.58565 8.78212 7.37472C8.79876 7.15391 8.83641 6.93577 8.89439 6.72407C8.95008 6.52184 9.02282 6.32611 9.11163 6.13959L9.12383 6.11478C9.20827 5.93839 9.30715 5.77132 9.41917 5.61576L9.4387 5.58819C9.55324 5.434 9.68076 5.29273 9.81947 5.16637C9.96613 5.0325 10.123 4.91349 10.2881 4.81072C10.4579 4.7052 10.6371 4.62018 10.8227 4.55708C11.0108 4.49601 11.2037 4.45539 11.3987 4.43577L11.4011 4.44129ZM11.8893 5.28768C11.7448 5.27251 11.5993 5.27251 11.4548 5.28768C11.3118 5.30112 11.1704 5.33067 11.0326 5.3759C10.8979 5.42101 10.7678 5.482 10.6445 5.55787C10.5181 5.63807 10.3981 5.73031 10.2857 5.83356C10.1855 5.92553 10.0924 6.02699 10.0074 6.13683C9.92475 6.25345 9.85125 6.37798 9.78774 6.50903V6.53108C9.72236 6.67137 9.66844 6.81809 9.62664 6.96944C9.5759 7.12838 9.53991 7.29284 9.51925 7.46018C9.50703 7.62347 9.50703 7.78764 9.51925 7.95093C9.53098 8.1136 9.55799 8.27441 9.5998 8.43064C9.63937 8.58595 9.69423 8.73576 9.76333 8.87727C9.83348 9.0197 9.91519 9.15445 10.0074 9.27979C10.0933 9.40071 10.1898 9.51155 10.2954 9.61063C10.4032 9.70741 10.5184 9.79321 10.6396 9.86703C10.7648 9.94113 10.8955 10.0029 11.0301 10.0517C11.1674 10.1005 11.309 10.1319 11.4524 10.1455C11.5993 10.1607 11.7472 10.1607 11.8942 10.1455C12.038 10.1318 12.1802 10.1022 12.3189 10.0573C12.4486 10.0115 12.5738 9.95047 12.6923 9.8753C12.8192 9.79608 12.9393 9.70379 13.0511 9.5996C13.1516 9.50588 13.2447 9.40258 13.3294 9.29082C13.4214 9.16728 13.5031 9.03437 13.5735 8.89381C13.6357 8.75888 13.6887 8.61879 13.7321 8.47475V8.45821C13.7745 8.30188 13.8031 8.14119 13.8176 7.9785C13.8298 7.81521 13.8298 7.65104 13.8176 7.48775C13.8058 7.32508 13.7788 7.16427 13.737 7.00804C13.6972 6.85587 13.6432 6.70892 13.5759 6.56968C13.5063 6.42685 13.4246 6.29204 13.3318 6.16716C13.2459 6.04624 13.1494 5.9354 13.0438 5.83632C12.9418 5.74451 12.8332 5.66244 12.7192 5.59095H12.6997C12.5745 5.51672 12.4438 5.45491 12.3091 5.40623C12.1726 5.35784 12.0318 5.3264 11.8893 5.31249V5.28768ZM3.96635 23.6685C4.13832 23.6679 4.30656 23.725 4.44977 23.8326C4.59299 23.9401 4.70474 24.0932 4.77088 24.2725C4.83703 24.4518 4.85458 24.6492 4.82133 24.8398C4.78808 25.0303 4.70551 25.2055 4.58409 25.343C4.46266 25.4806 4.30784 25.5743 4.13921 25.6124C3.97059 25.6505 3.79575 25.6312 3.63683 25.557C3.47791 25.4828 3.34206 25.357 3.24647 25.1955C3.15088 25.0341 3.09986 24.8442 3.09986 24.65C3.09986 24.3901 3.19107 24.1409 3.3535 23.9569C3.51593 23.7729 3.73632 23.6692 3.96635 23.6685Z" fill="#F05C26"/>
</svg>
