<svg width="30" height="32" viewBox="0 0 30 32" fill="none" xmlns="http://www.w3.org/2000/svg">
<path d="M14.91 16.28C22.99 16.28 29.57 14.54 30 12.34V6.59003C29.57 8.79003 23 10.53 14.91 10.53C10.9687 10.6062 7.03824 10.0905 3.25 9.00003V7.00003C7.03927 8.0837 10.9697 8.5927 14.91 8.51003C23 8.53003 29.52 6.79003 30 4.61003C29.8 1.20003 20.52 0.280029 15 0.280029C9.48 0.280029 0 1.21003 0 4.71003V27.29C0 30.78 9.43 31.72 15 31.72C20.57 31.72 30 30.79 30 27.29V22.09C29.57 24.28 23 26 14.91 26C10.9712 26.0925 7.04081 25.5936 3.25 24.52V22.52C7.04081 23.5936 10.9712 24.0925 14.91 24C23 24 29.57 22.28 30 20.09V14.34C29.57 16.54 23 18.28 14.91 18.28C10.9697 18.3627 7.03927 17.8537 3.25 16.77V14.77C7.03927 15.8537 10.9697 16.3627 14.91 16.28Z" fill="#F05C26"/>
</svg>
