<svg width="35" height="32" viewBox="0 0 35 32" fill="none" xmlns="http://www.w3.org/2000/svg">
<path d="M34.6667 17.5C34.6667 23.1334 32.0667 28.1167 27.95 31.15L26.8667 30.0667L22.3167 25.5167L25.35 22.4834L27.95 25.0834C29.0333 23.5667 29.9 21.6167 30.1167 19.6667H26V15.3334H30.1167C29.6833 13.3834 29.0333 11.65 27.95 9.91669L25.35 12.5167L22.3167 9.48336L24.9167 6.88336C23.4 5.80002 21.45 4.93336 19.5 4.71669V8.83335H15.1667V4.71669C13.2167 5.15002 11.4833 5.80002 9.75 6.88336L16.25 13.3834C16.6833 13.3834 16.9 13.1667 17.3333 13.1667C18.4826 13.1667 19.5848 13.6232 20.3975 14.4359C21.2101 15.2486 21.6667 16.3508 21.6667 17.5C21.6667 18.6493 21.2101 19.7515 20.3975 20.5642C19.5848 21.3768 18.4826 21.8334 17.3333 21.8334C16.1841 21.8334 15.0819 21.3768 14.2692 20.5642C13.4565 19.7515 13 18.6493 13 17.5C13 17.0667 13 16.85 13.2167 16.4167L6.71667 9.91669C5.63333 11.4334 4.76667 13.3834 4.55 15.3334H8.66667V19.6667H4.55C4.98333 21.6167 5.63333 23.35 6.71667 25.0834L9.31667 22.4834L12.35 25.5167L6.71667 31.15C2.6 28.1167 0 23.1334 0 17.5C0 12.9029 1.82618 8.49413 5.07682 5.2435C8.32745 1.99287 12.7362 0.166687 17.3333 0.166687C21.9304 0.166687 26.3392 1.99287 29.5898 5.2435C32.8405 8.49413 34.6667 12.9029 34.6667 17.5Z" fill="#F05C26"/>
</svg>
