<svg width="11" height="11" viewBox="0 0 11 11" fill="none" xmlns="http://www.w3.org/2000/svg">
<path d="M10.5459 1.52588e-05H0.454115C0.299219 1.52588e-05 0.172485 0.126749 0.172485 0.281645C0.172485 0.436542 0.299219 0.563275 0.454115 0.563275H1.06197V10.7113C1.06197 10.8146 1.11829 10.9108 1.20982 10.9601C1.30135 11.0094 1.41166 11.0047 1.49849 10.946L2.72124 10.1317L3.94867 10.9484C4.04255 11.0117 4.16694 11.0117 4.26081 10.9484L5.48356 10.134L6.711 10.9507C6.80487 11.0141 6.92926 11.0141 7.02314 10.9507L8.24588 10.1363L9.47332 10.9531C9.52026 10.9836 9.57423 11 9.62821 11C9.67281 11 9.71974 10.9883 9.76199 10.9672C9.85352 10.9179 9.90984 10.8216 9.90984 10.7184L9.90515 0.570316H10.5459C10.7008 0.570316 10.8275 0.443583 10.8275 0.288686C10.8275 0.13379 10.7008 1.52588e-05 10.5459 1.52588e-05ZM9.34893 10.1856L8.40312 9.55666C8.30925 9.49329 8.18486 9.49329 8.09098 9.55666L6.86824 10.3734L5.6408 9.55666C5.54693 9.49329 5.42254 9.49329 5.32866 9.55666L4.10592 10.371L2.87848 9.55666C2.7846 9.49329 2.66022 9.49329 2.56634 9.55666L1.62523 10.1833V0.560928H9.34658L9.34893 10.1856Z" fill="#F05C26"/>
<path d="M2.92073 4.49671H5.8708C6.02569 4.49671 6.15243 4.36997 6.15243 4.21508C6.15243 4.06018 6.02569 3.93345 5.8708 3.93345H2.92073C2.76583 3.93345 2.6391 4.06018 2.6391 4.21508C2.6391 4.36997 2.76349 4.49671 2.92073 4.49671Z" fill="#F05C26"/>
<path d="M2.92073 5.47537H5.13152C5.28642 5.47537 5.41315 5.34864 5.41315 5.19374C5.41315 5.03885 5.28642 4.91211 5.13152 4.91211H2.92073C2.76583 4.91211 2.6391 5.03885 2.6391 5.19374C2.6391 5.34864 2.76349 5.47537 2.92073 5.47537Z" fill="#F05C26"/>
<path d="M7.34468 4.49671H8.08161C8.23651 4.49671 8.36324 4.36997 8.36324 4.21508C8.36324 4.06018 8.23651 3.93345 8.08161 3.93345H7.34468C7.18978 3.93345 7.06305 4.06018 7.06305 4.21508C7.06305 4.36997 7.18744 4.49671 7.34468 4.49671Z" fill="#F05C26"/>
<path d="M7.34468 5.47537H8.08161C8.23651 5.47537 8.36324 5.34864 8.36324 5.19374C8.36324 5.03885 8.23651 4.91211 8.08161 4.91211H7.34468C7.18978 4.91211 7.06305 5.03885 7.06305 5.19374C7.06305 5.34864 7.18744 5.47537 7.34468 5.47537Z" fill="#F05C26"/>
<path d="M2.92073 2.23663H5.8708C6.02569 2.23663 6.15243 2.10989 6.15243 1.955C6.15243 1.8001 6.02569 1.67337 5.8708 1.67337H2.92073C2.76583 1.67337 2.6391 1.8001 2.6391 1.955C2.6391 2.10989 2.76349 2.23663 2.92073 2.23663Z" fill="#F05C26"/>
<path d="M2.92073 3.21294H5.13152C5.28642 3.21294 5.41315 3.08621 5.41315 2.93131C5.41315 2.77642 5.28642 2.64968 5.13152 2.64968H2.92073C2.76583 2.64968 2.6391 2.77642 2.6391 2.93131C2.6391 3.08621 2.76349 3.21294 2.92073 3.21294Z" fill="#F05C26"/>
<path d="M7.34468 2.23663H8.08161C8.23651 2.23663 8.36324 2.10989 8.36324 1.955C8.36324 1.8001 8.23651 1.67337 8.08161 1.67337H7.34468C7.18978 1.67337 7.06305 1.8001 7.06305 1.955C7.06305 2.10989 7.18744 2.23663 7.34468 2.23663Z" fill="#F05C26"/>
<path d="M7.34468 3.21294H8.08161C8.23651 3.21294 8.36324 3.08621 8.36324 2.93131C8.36324 2.77642 8.23651 2.64968 8.08161 2.64968H7.34468C7.18978 2.64968 7.06305 2.77642 7.06305 2.93131C7.06305 3.08621 7.18744 3.21294 7.34468 3.21294Z" fill="#F05C26"/>
<path d="M2.92073 6.78495H5.8708C6.02569 6.78495 6.15243 6.65822 6.15243 6.50332C6.15243 6.34842 6.02569 6.22169 5.8708 6.22169H2.92073C2.76583 6.22169 2.6391 6.34842 2.6391 6.50332C2.6391 6.65822 2.76349 6.78495 2.92073 6.78495Z" fill="#F05C26"/>
<path d="M2.92073 7.76127H5.13152C5.28642 7.76127 5.41315 7.63454 5.41315 7.47964C5.41315 7.32474 5.28642 7.19801 5.13152 7.19801H2.92073C2.76583 7.19801 2.6391 7.32474 2.6391 7.47964C2.6391 7.63454 2.76349 7.76127 2.92073 7.76127Z" fill="#F05C26"/>
<path d="M7.34468 6.78495H8.08161C8.23651 6.78495 8.36324 6.65822 8.36324 6.50332C8.36324 6.34842 8.23651 6.22169 8.08161 6.22169H7.34468C7.18978 6.22169 7.06305 6.34842 7.06305 6.50332C7.06305 6.65822 7.18744 6.78495 7.34468 6.78495Z" fill="#F05C26"/>
<path d="M7.34468 7.76127H8.08161C8.23651 7.76127 8.36324 7.63454 8.36324 7.47964C8.36324 7.32474 8.23651 7.19801 8.08161 7.19801H7.34468C7.18978 7.19801 7.06305 7.32474 7.06305 7.47964C7.06305 7.63454 7.18744 7.76127 7.34468 7.76127Z" fill="#F05C26"/>
</svg>
