<svg width="14" height="7" viewBox="0 0 14 7" fill="none" xmlns="http://www.w3.org/2000/svg">
<path d="M0.728708 2.6926L1.8533 2.20428L2.84592 0.698399C3.1328 0.261913 3.63772 -0.00270715 4.17993 2.08906e-05H8.40862C8.89919 2.08906e-05 9.36394 0.215536 9.6623 0.586549L10.9447 2.18245L13.082 2.73897C13.6242 2.88083 14 3.35278 14 3.88748V4.66497C14 5.32243 13.4492 5.86531 12.7578 5.86531H12.5742C12.3533 6.67554 11.484 7.16113 10.632 6.95107C10.0725 6.81194 9.63361 6.39727 9.49017 5.86531H4.67051C4.4496 6.67554 3.58034 7.16113 2.7283 6.95107C2.16887 6.81194 1.72994 6.39727 1.58649 5.86531H1.24223C0.550839 5.86531 2.09808e-05 5.32243 2.09808e-05 4.66497V3.77836C-0.00284767 3.31186 0.284037 2.88629 0.728708 2.6926ZM11.0336 6.44911C11.5959 6.44911 12.0521 6.01535 12.0521 5.48065C12.0521 4.94596 11.5959 4.5122 11.0336 4.5122C10.4713 4.5122 10.0152 4.94596 10.0152 5.48065C10.0123 6.01262 10.4684 6.44638 11.0336 6.44911ZM3.12993 6.44911C3.69223 6.44911 4.14838 6.01535 4.14838 5.48065C4.14838 4.94596 3.69223 4.5122 3.12993 4.5122C2.56764 4.5122 2.11149 4.94596 2.11149 5.48065C2.10862 6.01262 2.56477 6.44638 3.12993 6.44911ZM1.24223 5.3197H1.54633C1.641 4.48765 2.42994 3.88748 3.30493 3.98023C4.04797 4.05662 4.63321 4.61586 4.71354 5.3197H9.45001C9.54468 4.48765 10.3336 3.88748 11.2086 3.98023C11.9516 4.05662 12.5369 4.61586 12.6172 5.3197H12.7607C13.1365 5.3197 13.4291 5.02234 13.4291 4.66497V3.88748C13.432 3.59558 13.2283 3.34187 12.9328 3.26276L10.698 2.68168C10.6377 2.66532 10.5832 2.63258 10.5459 2.58347L9.20902 0.916642C9.01681 0.682031 8.72132 0.545629 8.40862 0.545629H4.17993C3.83567 0.542901 3.51149 0.709311 3.33075 0.987571L2.29223 2.56438C2.26354 2.61075 2.21764 2.64622 2.16887 2.66804L0.969691 3.1891C0.728708 3.29549 0.573792 3.52465 0.57666 3.77836V4.66497H0.573791C0.573791 5.02234 0.866413 5.3197 1.24223 5.3197Z" fill="#F05C26"/>
</svg>
