<svg width="14" height="7" viewBox="0 0 14 7" fill="none" xmlns="http://www.w3.org/2000/svg">
<path d="M13.2713 2.6926L12.1467 2.20428L11.1541 0.698399C10.8672 0.261913 10.3623 -0.00270715 9.82007 2.08906e-05H5.59138C5.10081 2.08906e-05 4.63606 0.215536 4.3377 0.586549L3.05532 2.18245L0.918031 2.73897C0.375819 2.88083 0 3.35278 0 3.88748V4.66497C0 5.32243 0.550819 5.86531 1.24221 5.86531H1.42582C1.64672 6.67554 2.51598 7.16113 3.36803 6.95107C3.92745 6.81194 4.36639 6.39727 4.50983 5.86531H9.32949C9.5504 6.67554 10.4197 7.16113 11.2717 6.95107C11.8311 6.81194 12.2701 6.39727 12.4135 5.86531H12.7578C13.4492 5.86531 14 5.32243 14 4.66497V3.77836C14.0028 3.31186 13.716 2.88629 13.2713 2.6926ZM2.96639 6.44911C2.40409 6.44911 1.94795 6.01535 1.94795 5.48065C1.94795 4.94596 2.40409 4.5122 2.96639 4.5122C3.52868 4.5122 3.98483 4.94596 3.98483 5.48065C3.9877 6.01262 3.53155 6.44638 2.96639 6.44911ZM10.8701 6.44911C10.3078 6.44911 9.85162 6.01535 9.85162 5.48065C9.85162 4.94596 10.3078 4.5122 10.8701 4.5122C11.4324 4.5122 11.8885 4.94596 11.8885 5.48065C11.8914 6.01262 11.4352 6.44638 10.8701 6.44911ZM12.7578 5.3197H12.4537C12.359 4.48765 11.5701 3.88748 10.6951 3.98023C9.95203 4.05662 9.36679 4.61586 9.28646 5.3197H4.54999C4.45532 4.48765 3.66639 3.88748 2.79139 3.98023C2.04836 4.05662 1.46311 4.61586 1.38278 5.3197H1.23934C0.863523 5.3197 0.570901 5.02234 0.570901 4.66497V3.88748C0.568032 3.59558 0.77172 3.34187 1.06721 3.26276L3.30204 2.68168C3.36229 2.66532 3.4168 2.63258 3.45409 2.58347L4.79098 0.916642C4.98319 0.682031 5.27868 0.545629 5.59138 0.545629H9.82007C10.1643 0.542901 10.4885 0.709311 10.6692 0.987571L11.7078 2.56438C11.7365 2.61075 11.7824 2.64622 11.8311 2.66804L13.0303 3.1891C13.2713 3.29549 13.4262 3.52465 13.4233 3.77836V4.66497H13.4262C13.4262 5.02234 13.1336 5.3197 12.7578 5.3197Z" fill="#F05C26"/>
</svg>
