<svg width="21" height="19" viewBox="0 0 21 19" fill="none" xmlns="http://www.w3.org/2000/svg">
<path d="M16.9338 10.3653V2.6446C16.9338 1.57539 16.0631 0.703705 14.9951 0.703705H1.93873C0.870711 0.703705 0 1.57539 0 2.6446V10.3653C0 11.4345 0.870711 12.3061 1.93873 12.3061H2.49203V14.6335C2.49203 15.0629 2.83946 15.4107 3.27267 15.4107C3.49571 15.4107 3.71017 15.312 3.86029 15.1402L6.30944 12.3019H14.9994C16.0631 12.3061 16.9338 11.4345 16.9338 10.3653ZM6.06495 11.2541C5.91054 11.2541 5.769 11.3185 5.66605 11.4345L3.5386 13.8949V11.778C3.5386 11.486 3.3027 11.2498 3.01103 11.2498H1.93873C1.44976 11.2498 1.05086 10.8505 1.05086 10.361V2.6446C1.05086 2.15508 1.44976 1.75574 1.93873 1.75574H14.9951C15.4841 1.75574 15.883 2.15508 15.883 2.6446V10.3653C15.883 10.8548 15.4841 11.2541 14.9951 11.2541H6.06495Z" fill="#F05C26"/>
<path d="M17.144 18.3221C17.2941 18.4981 17.5085 18.5926 17.7273 18.5926C17.8174 18.5926 17.9117 18.5754 18.0018 18.5411C18.3106 18.4251 18.5079 18.1417 18.5079 17.8111V15.4837H19.0612C20.1292 15.4837 21 14.612 21 13.5428V5.82218C21 4.75297 20.1292 3.88128 19.0612 3.88128C18.7696 3.88128 18.5337 4.11745 18.5337 4.40515C18.5337 4.69714 18.7696 4.93332 19.0612 4.93332C19.5502 4.93332 19.9491 5.33266 19.9491 5.82218V13.5428C19.9491 14.0323 19.5502 14.4317 19.0612 14.4317H17.9846C17.693 14.4317 17.4571 14.6679 17.4571 14.9599V17.0768L15.3296 14.6163C15.231 14.5004 15.0851 14.436 14.9307 14.436H7.03856C6.74689 14.436 6.51099 14.6722 6.51099 14.9642C6.51099 15.2561 6.74689 15.4923 7.03856 15.4923H14.6905L17.144 18.3221Z" fill="#F05C26"/>
</svg>
