<svg width="18" height="22" viewBox="0 0 18 22" fill="none" xmlns="http://www.w3.org/2000/svg">
<path d="M14.8945 2.68642e-05H5.1054C4.96864 -0.00137898 4.83709 0.0524446 4.74029 0.149247L0.159462 4.74031C0.0608527 4.83451 0.00361499 4.96404 0 5.10021V19.4343C0 20.8534 1.17227 22 2.59136 22H14.8945C16.3136 22 17.4858 20.8482 17.4858 19.4343V2.56568C17.4858 1.15181 16.3136 2.68642e-05 14.8945 2.68642e-05ZM4.58103 1.75833V3.35737C4.58283 3.68252 4.4545 3.99482 4.22455 4.22457C3.99479 4.45453 3.6825 4.58286 3.35734 4.58105H1.77377L4.58103 1.75833ZM16.4576 19.4396C16.4576 20.2879 15.748 20.9767 14.8945 20.9767H2.59638C1.74806 20.9767 1.03349 20.2879 1.03349 19.4396V5.6041H3.35734C3.95523 5.60611 4.52901 5.36933 4.95177 4.94677C5.37452 4.52402 5.61111 3.95003 5.6093 3.35215V1.0283H14.8945C15.7428 1.0283 16.4576 1.71736 16.4576 2.56568V19.4396Z" fill="white"/>
<path d="M14.6478 8.27762H6.44211C6.15813 8.27762 5.92798 8.50777 5.92798 8.79175C5.92798 9.07573 6.15813 9.30589 6.44211 9.30589H14.6426C14.9266 9.3073 15.1579 9.07834 15.1593 8.79436C15.1607 8.51039 14.9318 8.27902 14.6478 8.27762Z" fill="white"/>
<path d="M4.36525 8.27762H2.84855C2.56457 8.27762 2.33441 8.50777 2.33441 8.79175C2.33441 9.07573 2.56457 9.30589 2.84855 9.30589H4.36525C4.64923 9.30589 4.87938 9.07573 4.87938 8.79175C4.87938 8.50777 4.64923 8.27762 4.36525 8.27762Z" fill="white"/>
<path d="M14.6478 12.3906H6.44211C6.15813 12.3906 5.92798 12.6208 5.92798 12.9048C5.92798 13.1888 6.15813 13.4189 6.44211 13.4189H14.6426C14.9266 13.4203 15.1579 13.1914 15.1593 12.9074C15.1607 12.6234 14.9318 12.392 14.6478 12.3906Z" fill="white"/>
<path d="M4.36525 12.3906H2.84855C2.56457 12.3906 2.33441 12.6208 2.33441 12.9048C2.33441 13.1888 2.56457 13.4189 2.84855 13.4189H4.36525C4.64923 13.4189 4.87938 13.1888 4.87938 12.9048C4.87938 12.6208 4.64923 12.3906 4.36525 12.3906Z" fill="white"/>
<path d="M14.6478 16.5038H6.44211C6.15813 16.5038 5.92798 16.7339 5.92798 17.0179C5.92798 17.3019 6.15813 17.5321 6.44211 17.5321H14.6426C14.9266 17.5335 15.1579 17.3045 15.1593 17.0205C15.1607 16.7366 14.9318 16.5052 14.6478 16.5038Z" fill="white"/>
<path d="M4.36525 16.5038H2.84855C2.56457 16.5038 2.33441 16.7339 2.33441 17.0179C2.33441 17.3019 2.56457 17.5321 2.84855 17.5321H4.36525C4.64923 17.5321 4.87938 17.3019 4.87938 17.0179C4.87938 16.7339 4.64923 16.5038 4.36525 16.5038Z" fill="white"/>
</svg>
