<svg width="20" height="18" viewBox="0 0 20 18" fill="none" xmlns="http://www.w3.org/2000/svg">
<path d="M10.1283 6.18702C9.00161 6.18702 8.0882 7.10039 8.0882 8.22713C8.0882 9.35383 9.00157 10.2672 10.1283 10.2672C11.255 10.2672 12.1684 9.35387 12.1684 8.22713C12.1684 7.10039 11.2551 6.18702 10.1283 6.18702ZM10.1283 9.29572C9.53811 9.29572 9.05967 8.81728 9.05967 8.22708C9.05967 7.63689 9.53811 7.15845 10.1283 7.15845C10.7185 7.15845 11.1969 7.63689 11.1969 8.22708C11.1969 8.81728 10.7185 9.29572 10.1283 9.29572Z" fill="#F05C26"/>
<path d="M18.2644 1.52389L5.00379 0.0181425C4.48913 -0.0550275 3.96769 0.0952174 3.57088 0.431037C3.17412 0.738686 2.91979 1.19472 2.86656 1.69394L2.62371 3.68548H1.87077C0.802133 3.68548 0.000656342 4.63264 0.000656342 5.70128V15.6346C-0.0262595 16.6536 0.778007 17.5016 1.79709 17.5285C1.82163 17.5292 1.84622 17.5293 1.87077 17.529H15.2043C16.2729 17.529 17.2444 16.7032 17.2444 15.6346V15.246C17.5757 15.182 17.89 15.0497 18.1673 14.8574C18.5608 14.5261 18.8127 14.0569 18.8716 13.546L19.9888 3.68548C20.1027 2.61438 19.3341 1.65085 18.2644 1.52389ZM16.2729 15.6346C16.2729 16.1689 15.7386 16.5575 15.2043 16.5575H1.87077C1.3881 16.5717 0.985337 16.1919 0.971159 15.7092C0.970415 15.6843 0.97074 15.6595 0.972135 15.6346V13.8374L4.73663 11.0687C5.18885 10.7215 5.82581 10.7523 6.24242 11.1415L8.8897 13.4731C9.29172 13.8106 9.79777 13.9993 10.3227 14.0074C10.733 14.0124 11.1367 13.9031 11.4884 13.6916L16.2729 10.9229V15.6346H16.2729ZM16.2729 9.78146L10.9783 12.8659C10.5237 13.1352 9.94825 13.0865 9.5454 12.7445L6.87385 10.3886C6.10817 9.7307 4.98905 9.69035 4.178 10.2915L0.972135 12.623V5.70128C0.972135 5.16696 1.33645 4.65696 1.87077 4.65696H15.2043C15.7751 4.68062 16.2361 5.13117 16.2729 5.70128V9.78146ZM19.0183 3.55434C19.0179 3.55755 19.0177 3.5608 19.0173 3.56401L17.8758 13.4245C17.8778 13.6802 17.7612 13.9223 17.5601 14.0802C17.4629 14.1774 17.2443 14.226 17.2443 14.2745V5.70128C17.206 4.59485 16.311 3.71053 15.2042 3.68548H3.59515L3.81373 1.7911C3.86114 1.54579 3.9894 1.32349 4.17804 1.15962C4.39105 1.01235 4.64858 0.943692 4.90668 0.965309L18.1431 2.49537C18.6771 2.54609 19.069 3.02021 19.0183 3.55434Z" fill="#F05C26"/>
</svg>
