<svg width="19" height="21" viewBox="0 0 19 21" fill="none" xmlns="http://www.w3.org/2000/svg">
<path d="M17.6278 5.4587H3.61936C2.32132 5.4587 1.26014 4.49413 1.26014 3.30463C1.26014 2.11946 2.31658 1.15057 3.61936 1.15057H17.6325C17.9831 1.15057 18.2626 0.89104 18.2626 0.575283C18.2626 0.255201 17.9784 0 17.6325 0H3.61936C1.62492 0 0 1.48363 0 3.30463V17.6954C0 19.5164 1.62492 21 3.61936 21H17.6325C17.9831 21 18.2626 20.7405 18.2626 20.4247V6.03399C18.2579 5.71823 17.9784 5.4587 17.6278 5.4587ZM16.9977 19.8494H3.61936C2.32132 19.8494 1.26014 18.8849 1.26014 17.6954V5.81339C1.89495 6.31081 2.71926 6.61359 3.61936 6.61359H16.9977V19.8494Z" fill="white"/>
<path d="M3.81879 2.78167C3.46823 2.78167 3.18872 3.0412 3.18872 3.35695C3.18872 3.67271 3.47296 3.93224 3.81879 3.93224H15.6528C16.0033 3.93224 16.2829 3.67271 16.2829 3.35695C16.2829 3.0412 15.9986 2.78167 15.6528 2.78167H3.81879Z" fill="white"/>
</svg>
