<svg width="14" height="10" viewBox="0 0 14 10" fill="none" xmlns="http://www.w3.org/2000/svg">
<path d="M13.6906 5.98203C13.6333 5.88459 13.5079 5.85195 13.4105 5.90923C13.313 5.9665 13.2804 6.09189 13.3377 6.18935C13.5032 6.47112 13.5907 6.79324 13.5907 7.12087C13.5907 8.13687 12.7641 8.96344 11.7481 8.96344C10.7321 8.96344 9.90557 8.13687 9.90557 7.12087C9.90557 6.86236 9.95965 6.60843 10.0634 6.37452L10.6072 6.89166C10.5921 6.96697 10.5844 7.04365 10.5844 7.12087C10.5844 7.76257 11.1064 8.2846 11.7481 8.2846C12.3898 8.2846 12.9118 7.76255 12.9118 7.12087C12.9118 6.47919 12.3898 5.95714 11.7481 5.95714C11.651 5.95714 11.5553 5.9694 11.462 5.99305L10.9183 5.47597C11.1743 5.34627 11.4569 5.27833 11.7481 5.27833C12.1855 5.27833 12.6098 5.43471 12.9428 5.71874C12.9813 5.75162 13.0285 5.76769 13.0755 5.76769C13.1333 5.76769 13.1908 5.7433 13.2313 5.69585C13.3046 5.60987 13.2944 5.48066 13.2084 5.40734C12.8014 5.0602 12.2828 4.86903 11.7481 4.86903C11.3434 4.86903 10.9522 4.97605 10.6068 5.1798L10.3551 4.94036C10.7281 4.72815 11.1593 4.60675 11.6183 4.60675C11.7541 4.60675 11.891 4.61761 12.0252 4.639C12.085 4.64855 12.1458 4.63117 12.1914 4.59161L12.8372 4.03236C12.9402 3.94319 13.0182 3.83205 13.0665 3.70806C13.239 3.2647 13.2474 2.42774 12.9185 2.05208C12.0163 1.0216 10.6775 0.514362 9.14888 0.623509C8.77349 0.650359 8.55703 1.06514 8.75038 1.39016L8.84035 1.54135H8.41331C8.30026 1.54135 8.20866 1.63298 8.20866 1.746C8.20866 1.85903 8.30026 1.95066 8.41331 1.95066H9.07305C9.16817 2.15964 9.21303 2.38667 9.20481 2.61514C8.79428 2.25002 8.26588 2.04657 7.70333 2.04657C6.96184 2.04657 6.27877 2.40261 5.85362 3.00433H4.38109C4.26528 3.00433 4.1518 2.96439 4.0615 2.89186L2.56412 1.68878C2.52777 1.65959 2.48256 1.64368 2.43595 1.64368H1.21162C0.871927 1.64368 0.595566 1.92004 0.595566 2.25973C0.595566 2.45759 0.691534 2.64464 0.852253 2.76012L1.29274 3.07648C1.38445 3.14238 1.5124 3.12145 1.57835 3.02963C1.64428 2.93784 1.6233 2.80997 1.5315 2.74402L1.09104 2.42766C1.03707 2.38891 1.00487 2.32612 1.00487 2.25971C1.00487 2.1457 1.09762 2.05295 1.21162 2.05295H2.36391L3.80523 3.21095C3.96791 3.34165 4.17245 3.41364 4.38114 3.41364H5.93013L7.25539 3.92019L7.98482 4.199C7.94684 4.21868 7.45497 4.64978 6.65577 4.64978H6.20635C5.75634 4.64978 5.32908 4.89162 5.09963 5.30682L4.76138 5.06386C4.76136 5.06383 4.7613 5.0638 4.76125 5.06378L2.08641 3.14257C1.99464 3.07664 1.86675 3.0976 1.8008 3.18939C1.73487 3.28119 1.75585 3.40908 1.84765 3.475L4.27284 5.21691L3.8317 5.48828C3.41494 5.09286 2.85892 4.86897 2.28107 4.86897C1.03936 4.869 0.0291748 5.87916 0.0291748 7.12084C0.0291748 8.36253 1.03936 9.37271 2.28104 9.37271C3.52273 9.37271 4.53288 8.36253 4.53288 7.12084C4.53288 6.93008 4.50849 6.74118 4.46085 6.55715L4.94527 6.2591V7.79341C4.94527 8.37835 5.42112 8.85421 6.00604 8.85421H6.99208V8.96341H5.65691C5.54386 8.96341 5.45226 9.05501 5.45226 9.16806C5.45226 9.28111 5.54386 9.37271 5.65691 9.37271H7.19673C7.30978 9.37271 7.40138 9.28111 7.40138 9.16806V8.85421H9.27912C9.35375 8.85421 9.42245 8.81358 9.45842 8.7482C9.49438 8.68282 9.49193 8.60301 9.45198 8.53997C9.19243 8.13056 9.05526 7.65678 9.05526 7.1698C9.05526 6.66477 9.20214 6.19347 9.45533 5.79618L9.75221 6.07852C9.58443 6.39927 9.49626 6.75629 9.49626 7.12082C9.49626 8.3625 10.5064 9.37268 11.7481 9.37268C12.9898 9.37268 14 8.36253 14 7.12084C14 6.72041 13.893 6.32658 13.6906 5.98203ZM12.5026 7.12084C12.5026 7.53683 12.1641 7.87527 11.7482 7.87527C11.3847 7.87527 11.0804 7.61683 11.0094 7.27409L11.3208 7.57023C11.4366 7.68033 11.5884 7.74099 11.7481 7.74099C11.9172 7.74099 12.081 7.67073 12.1976 7.54818C12.3117 7.42817 12.3723 7.27087 12.3681 7.10526C12.364 6.93966 12.2956 6.7856 12.1755 6.67148L11.8641 6.37534C12.2252 6.43128 12.5026 6.74429 12.5026 7.12084ZM12.6785 2.42738C12.8327 2.76688 12.7852 3.34757 12.6754 3.5818C12.3994 3.5349 12.1885 3.29398 12.1885 3.00474C12.1885 2.71471 12.4005 2.47331 12.6785 2.42738ZM7.70341 2.4559C8.24754 2.4559 8.75295 2.68813 9.10628 3.09673C8.90087 3.62961 8.49934 3.81347 8.38365 3.91326L6.6765 3.26075L6.28715 3.11193C6.63765 2.69717 7.1508 2.4559 7.70341 2.4559ZM4.96036 5.71074C4.95722 5.73047 4.95411 5.75214 4.9516 5.77468L3.13258 6.89387C3.13193 6.89428 3.13127 6.89469 3.13059 6.8951L2.51806 7.27198C2.41851 7.33202 2.28863 7.29984 2.22862 7.2003C2.1985 7.15034 2.19045 7.09181 2.20589 7.03554C2.22025 6.98315 2.25378 6.93889 2.30189 6.90992L2.94392 6.51497C2.94449 6.51461 2.94507 6.51426 2.94564 6.51393L3.90332 5.92484C3.90368 5.92462 3.90406 5.92437 3.90441 5.92415L4.63324 5.47583L4.96036 5.71074ZM1.8781 7.41161C1.99431 7.60431 2.19932 7.71114 2.40986 7.71114C2.51934 7.71114 2.63029 7.68224 2.731 7.62153L2.9353 7.49582C2.80498 7.72235 2.56062 7.87532 2.28104 7.87532C1.86506 7.87532 1.52662 7.53688 1.52662 7.1209C1.52662 6.70491 1.86506 6.36647 2.28104 6.36647C2.3181 6.36647 2.35474 6.36939 2.39084 6.37466L2.089 6.56035C1.95216 6.64281 1.85349 6.7731 1.81116 6.92719C1.76641 7.0902 1.79081 7.26677 1.8781 7.41161ZM4.12361 7.12084C4.12361 8.13684 3.29704 8.96341 2.28107 8.96341C1.26505 8.96344 0.438476 8.13687 0.438476 7.12084C0.438476 6.10487 1.26505 5.2783 2.28104 5.2783C2.71689 5.2783 3.13727 5.43444 3.46755 5.71227L2.83837 6.09931C2.66808 6.00596 2.47786 5.95712 2.28104 5.95712C1.63934 5.95712 1.11732 6.47917 1.11732 7.12084C1.11732 7.76252 1.63937 8.28457 2.28104 8.28457C2.90176 8.28457 3.41044 7.79608 3.44305 7.18336L4.09215 6.78399C4.11283 6.89488 4.12361 7.00744 4.12361 7.12084ZM8.93282 8.44493H6.00604C5.64681 8.44493 5.35457 8.15267 5.35457 7.79344V5.91089C5.35457 5.48536 5.66796 5.13628 6.06744 5.07065C6.43234 5.0098 7.25095 5.22845 8.1632 4.57482C8.80845 4.11242 9.39394 3.81723 9.57529 2.9502C9.64558 2.61416 9.62266 2.26991 9.51305 1.95071H9.75549C9.86854 1.95071 9.96014 1.85908 9.96014 1.74606C9.96014 1.63304 9.86854 1.54141 9.75549 1.54141H9.31666L9.10222 1.18092C9.06524 1.11879 9.10508 1.03704 9.17813 1.0318C10.4535 0.940636 11.5801 1.31433 12.3872 2.08834C12.0303 2.23949 11.7792 2.59337 11.7792 3.00477C11.7792 3.40422 12.016 3.74921 12.3565 3.90728L11.9941 4.22116C11.8695 4.20542 11.7435 4.19745 11.6184 4.19745C9.9811 4.19745 8.64595 5.52724 8.64595 7.16985C8.64595 7.61383 8.74438 8.04848 8.93282 8.44493ZM10.0093 5.17633L10.4407 5.58653C10.4409 5.5867 10.441 5.58689 10.4412 5.58705L11.8934 6.96809C11.9343 7.00689 11.9575 7.05928 11.9589 7.11555C11.9603 7.17184 11.9397 7.22532 11.9009 7.26617C11.8607 7.30844 11.8064 7.33171 11.7481 7.33171C11.6937 7.33171 11.6422 7.31109 11.6028 7.27368L10.1509 5.89291C10.1504 5.89247 10.15 5.89207 10.1495 5.89166L9.70378 5.46776C9.79751 5.36248 9.8997 5.26499 10.0093 5.17633Z" fill="#F05C26"/>
</svg>
