<svg width="19" height="14" viewBox="0 0 19 14" fill="none" xmlns="http://www.w3.org/2000/svg">
<path d="M10.5419 0.10873C10.4729 0.039707 10.3771 0 10.2795 0C10.1815 0 10.0862 0.039707 10.0172 0.10873C9.94815 0.177754 9.90845 0.273496 9.90845 0.371094C9.90845 0.468691 9.94812 0.564434 10.0172 0.633457C10.0862 0.70248 10.1819 0.742188 10.2795 0.742188C10.3771 0.742188 10.4729 0.70248 10.5419 0.633457C10.6109 0.564434 10.6506 0.468691 10.6506 0.371094C10.6506 0.273496 10.6109 0.177754 10.5419 0.10873Z" fill="white"/>
<path d="M18.6289 5.71956C18.424 5.71956 18.2578 5.88569 18.2578 6.09065V8.3125H16.9961V5.15772C16.9961 5.05931 16.957 4.9649 16.8874 4.89532L15.7375 3.74541C15.6679 3.67583 15.5735 3.63672 15.4751 3.63672H12.0977V2.52344H14.1387C14.8344 2.52344 15.4004 1.95745 15.4004 1.26172C15.4004 0.565992 14.8344 0 14.1387 0H12.0605C11.8556 0 11.6895 0.166139 11.6895 0.371094C11.6895 0.576049 11.8556 0.742187 12.0605 0.742187H14.1387C14.4252 0.742187 14.6582 0.975234 14.6582 1.26172C14.6582 1.5482 14.4252 1.78125 14.1387 1.78125H11.7266H8.75781H6.3457C6.05922 1.78125 5.82617 1.5482 5.82617 1.26172C5.82617 0.975234 6.05922 0.742187 6.3457 0.742187H8.59082C8.79574 0.742187 8.96191 0.576049 8.96191 0.371094C8.96191 0.166139 8.79574 0 8.59082 0H6.3457C5.64998 0 5.08398 0.565992 5.08398 1.26172C5.08398 1.95745 5.64998 2.52344 6.3457 2.52344H8.38672V3.63672H6.70444C6.60603 3.63672 6.51166 3.67583 6.44204 3.74541L5.35087 4.83661H3.85938C3.65446 4.83661 3.48828 5.00275 3.48828 5.20771V6.82812H2.74609C2.54118 6.82812 2.375 6.99426 2.375 7.19922V8.3125H1.92969V5.6604C1.92969 5.1284 1.49688 4.69556 0.964844 4.69556C0.432807 4.69556 0 5.1284 0 5.6604V11.7511C0 12.2831 0.432807 12.7159 0.964844 12.7159C1.49688 12.7159 1.92969 12.2831 1.92969 11.7511V9.05469H2.375V10.168C2.375 10.3729 2.54118 10.5391 2.74609 10.5391H3.48828V11.3476C3.48828 11.4461 3.52739 11.5405 3.59697 11.61L5.60875 13.6218C5.67837 13.6914 5.77273 13.7305 5.87115 13.7305H13.1553C13.2537 13.7305 13.3481 13.6914 13.4177 13.6218L14.1068 12.9326H16.625C16.8299 12.9326 16.9961 12.7665 16.9961 12.5615V9.05469H18.2578V11.286C18.2578 11.4909 18.424 11.6571 18.6289 11.6571C18.8338 11.6571 19 11.4909 19 11.286V6.09065C19 5.88569 18.8338 5.71956 18.6289 5.71956ZM1.1875 8.67428C1.18743 8.6774 1.18743 8.68979 1.1875 8.69294V11.7511C1.1875 11.8738 1.08764 11.9737 0.964844 11.9737C0.842049 11.9737 0.742188 11.8738 0.742188 11.7511V5.6604C0.742188 5.53761 0.842049 5.43775 0.964844 5.43775C1.08764 5.43775 1.1875 5.53761 1.1875 5.6604V8.67428ZM3.48828 9.79687H3.11719V7.57031H3.48828V9.79687ZM9.12891 2.52344H11.3555V3.63672H9.12891V2.52344ZM16.2539 12.1904H13.9531C13.8547 12.1904 13.7603 12.2295 13.6907 12.2991L13.0015 12.9883H6.02486L4.23047 11.1939V5.57876H5.50454C5.60296 5.57876 5.69733 5.53965 5.76695 5.47007L6.85818 4.37891H15.3214L16.2539 5.31143V12.1904Z" fill="white"/>
<path d="M12.4342 11.4641C12.3652 11.3951 12.2695 11.3554 12.1719 11.3554C12.0743 11.3554 11.9785 11.3951 11.9095 11.4641C11.8405 11.5332 11.8008 11.6289 11.8008 11.7265C11.8008 11.8241 11.8405 11.9198 11.9095 11.9889C11.9786 12.0579 12.0743 12.0976 12.1719 12.0976C12.2695 12.0976 12.3652 12.0579 12.4342 11.9889C12.5032 11.9198 12.543 11.8241 12.543 11.7265C12.543 11.6289 12.5033 11.5332 12.4342 11.4641Z" fill="white"/>
<path d="M10.6625 11.3554H7.23387L5.66477 9.7863C5.51982 9.64138 5.28492 9.64138 5.13993 9.7863C4.99502 9.93121 4.99502 10.1662 5.13993 10.3111L6.81772 11.9888C6.88734 12.0584 6.98171 12.0975 7.08012 12.0975H10.6624C10.8674 12.0975 11.0335 11.9314 11.0335 11.7264C11.0335 11.5215 10.8674 11.3554 10.6625 11.3554Z" fill="white"/>
</svg>
