<svg width="17" height="17" viewBox="0 0 17 17" fill="none" xmlns="http://www.w3.org/2000/svg">
<path d="M13.6252 9.16179C12.8284 8.36504 11.5319 8.36499 10.735 9.16184L10.5542 9.34279C10.3029 9.59412 9.89408 9.59407 9.64281 9.34279L7.65688 7.35674C7.53517 7.23502 7.46815 7.07316 7.46815 6.90107C7.46815 6.72898 7.53517 6.56711 7.65693 6.44539L7.83781 6.26445C8.63462 5.4676 8.63462 4.17102 7.83781 3.37417L5.0614 0.597599C4.2646 -0.1992 2.96804 -0.1992 2.17134 0.597599L1.50699 1.26193C-0.502331 3.27142 -0.502331 6.54108 1.50699 8.55052L3.31815 10.3618C3.5239 10.5675 3.85758 10.5675 4.06338 10.3618C4.26913 10.156 4.26913 9.82233 4.06338 9.61652L2.25222 7.80525C0.653757 6.2067 0.653757 3.6057 2.25222 2.00715L2.91651 1.34281C3.3024 0.956849 3.93029 0.956849 4.31618 1.34281L7.09254 4.11933C7.47848 4.50524 7.47848 5.13317 7.09254 5.51908L6.91166 5.70002C6.84522 5.76646 6.78536 5.83765 6.73157 5.91247L4.53863 3.7194C4.33288 3.5137 3.9992 3.5137 3.7934 3.7194C3.58765 3.92516 3.58765 4.25886 3.7934 4.46467L6.42582 7.09724C6.46923 7.47656 6.63757 7.8278 6.9116 8.10185L8.89753 10.0879C9.55972 10.75 10.6371 10.7501 11.2993 10.0878L11.4802 9.9069C11.8661 9.52094 12.494 9.52094 12.8799 9.9069L15.6563 12.6834C15.8432 12.8704 15.9461 13.119 15.9461 13.3833C15.9461 13.6476 15.8432 13.8962 15.6562 14.0831L15.2789 14.4604L12.7519 11.9333C12.5462 11.7275 12.2125 11.7275 12.0067 11.9333C11.801 12.139 11.801 12.4727 12.0067 12.6785L14.4972 15.1691C12.8953 16.3304 10.6365 16.1902 9.19401 14.7475L7.82949 13.3829C7.62374 13.1772 7.29006 13.1772 7.08432 13.3829C6.87857 13.5887 6.87857 13.9223 7.08432 14.1282L8.44884 15.4928C9.45361 16.4976 10.7733 17 12.093 17C13.4127 17 14.7325 16.4976 15.7372 15.4929L16.4014 14.8285C16.7875 14.4425 17 13.9293 17 13.3834C17 12.8375 16.7875 12.3243 16.4015 11.9383L13.6252 9.16179Z" fill="#F05C26"/>
</svg>
