<svg width="19" height="23" viewBox="0 0 19 23" fill="none" xmlns="http://www.w3.org/2000/svg">
<path d="M9.29364 11.8756C9.31646 11.8756 9.33928 11.8756 9.36667 11.8756C9.37579 11.8756 9.38492 11.8756 9.39405 11.8756C9.40774 11.8756 9.426 11.8756 9.43969 11.8756C10.777 11.8528 11.8586 11.3827 12.6573 10.4836C14.4145 8.50279 14.1224 5.10715 14.0904 4.7831C13.9763 2.35048 12.8262 1.18665 11.8769 0.643528C11.1695 0.23733 10.3434 0.0182561 9.42143 0H9.38949C9.38492 0 9.37579 0 9.37123 0H9.34385C8.83724 0 7.84228 0.0821526 6.8884 0.625272C5.92995 1.16839 4.76156 2.33222 4.64746 4.7831C4.61551 5.10715 4.32341 8.50279 6.08056 10.4836C6.87471 11.3827 7.95638 11.8528 9.29364 11.8756ZM5.86605 4.89721C5.86605 4.88351 5.87062 4.86982 5.87062 4.86069C6.02123 1.58828 8.34432 1.23685 9.33928 1.23685H9.35754C9.36667 1.23685 9.38036 1.23685 9.39405 1.23685C10.6263 1.26424 12.7212 1.76628 12.8627 4.86069C12.8627 4.87438 12.8627 4.88808 12.8673 4.89721C12.8718 4.92915 13.1913 8.03269 11.74 9.66662C11.1649 10.3147 10.3981 10.6342 9.38949 10.6433C9.38036 10.6433 9.37579 10.6433 9.36667 10.6433C9.35754 10.6433 9.35297 10.6433 9.34385 10.6433C8.33976 10.6342 7.56844 10.3147 6.99793 9.66662C5.55114 8.04182 5.86149 4.92459 5.86605 4.89721Z" fill="white"/>
<path d="M18.7457 17.5076C18.7457 17.5031 18.7457 17.4985 18.7457 17.4939C18.7457 17.4574 18.7412 17.4209 18.7412 17.3798C18.7138 16.4762 18.6544 14.363 16.6736 13.6875C16.66 13.683 16.6417 13.6784 16.628 13.6738C14.5696 13.149 12.8581 11.9623 12.8399 11.9486C12.5615 11.7524 12.1781 11.8208 11.9818 12.0992C11.7856 12.3777 11.854 12.761 12.1324 12.9573C12.21 13.0121 14.0265 14.2763 16.2994 14.8605C17.3628 15.2393 17.4815 16.3757 17.5134 17.4163C17.5134 17.4574 17.5134 17.4939 17.518 17.5304C17.5226 17.9412 17.4952 18.5756 17.4221 18.9407C16.6828 19.3606 13.7846 20.812 9.37576 20.812C4.98516 20.812 2.06875 19.3561 1.32481 18.9362C1.25179 18.571 1.21984 17.9366 1.22897 17.5259C1.22897 17.4894 1.23353 17.4529 1.23353 17.4118C1.26548 16.3712 1.38414 15.2347 2.44756 14.8559C4.72045 14.2717 6.53693 13.0029 6.61452 12.9527C6.89293 12.7565 6.96139 12.3731 6.76514 12.0947C6.56888 11.8163 6.1855 11.7478 5.9071 11.9441C5.88884 11.9578 4.18646 13.1444 2.11895 13.6693C2.1007 13.6738 2.087 13.6784 2.07331 13.683C0.0925229 14.363 0.0331905 16.4762 0.0058063 17.3753C0.0058063 17.4163 0.0058062 17.4529 0.00124217 17.4894C0.00124217 17.4939 0.00124217 17.4985 0.00124217 17.5031C-0.00332186 17.7404 -0.0078858 18.959 0.234008 19.5706C0.279648 19.6892 0.361801 19.7896 0.471338 19.8581C0.608258 19.9494 3.8898 22.0397 9.38033 22.0397C14.8709 22.0397 18.1524 19.9448 18.2893 19.8581C18.3943 19.7896 18.481 19.6892 18.5266 19.5706C18.7548 18.9636 18.7503 17.745 18.7457 17.5076Z" fill="white"/>
</svg>
