<svg width="14" height="8" viewBox="0 0 14 8" fill="none" xmlns="http://www.w3.org/2000/svg">
<path d="M13.994 6.11653C13.9393 5.87279 13.4568 3.72606 13.3376 3.41264C13.051 2.65909 12.3625 1.80125 11.4959 1.11792C10.5949 0.407469 9.66131 0 8.93456 0H1.86522C1.49885 0 1.20077 0.26094 1.20077 0.58166V1.49562H0.711282C0.531773 1.49562 0.386238 1.62302 0.386238 1.78016C0.386238 1.93731 0.531773 2.06471 0.711282 2.06471H1.20074V2.74346H0.325044C0.145535 2.74346 0 2.87086 0 3.02801C0 3.18515 0.145535 3.31255 0.325044 3.31255H1.20074V6.17129C1.20074 6.49201 1.49882 6.75293 1.86519 6.75293H2.6756C2.79677 7.45781 3.49318 8 4.33163 8C5.17007 8 5.86649 7.45781 5.98763 6.75293H8.9691C9.09025 7.45781 9.78669 8 10.6251 8C11.4636 8 12.16 7.45781 12.2811 6.75293H13.3355C13.7019 6.75293 14 6.49201 14 6.17129C14 6.15293 13.998 6.1346 13.994 6.11653ZM12.6836 3.50065L9.33417 3.50062V0.619962C10.5208 0.89894 12.1654 2.28094 12.6836 3.50065ZM4.33165 7.43093C3.76664 7.43093 3.30694 7.02854 3.30694 6.5339C3.30694 6.03929 3.76664 5.63689 4.33165 5.63689C4.89667 5.63689 5.35634 6.03929 5.35634 6.5339C5.35631 7.02854 4.89667 7.43093 4.33165 7.43093ZM10.6252 7.43093C10.0602 7.43091 9.60045 7.02851 9.60045 6.5339C9.60045 6.03929 10.0602 5.63689 10.6252 5.63689C11.1902 5.63689 11.6498 6.03929 11.6498 6.5339C11.6498 7.02854 11.1902 7.43093 10.6252 7.43093ZM13.3195 6.18386C13.0484 6.18386 12.2513 6.18386 12.2513 6.18386C12.0715 5.54398 11.4108 5.06782 10.6252 5.06782C9.83949 5.06782 9.17877 5.54398 8.99898 6.18386H5.95781C5.77802 5.54398 5.11733 5.06782 4.33165 5.06782C3.54598 5.06782 2.88526 5.54398 2.70547 6.18386H1.86522C1.8573 6.18386 1.85086 6.17822 1.85086 6.17131V3.31258H5.83432C6.01383 3.31258 6.15936 3.18517 6.15936 3.02803C6.15936 2.87089 6.01383 2.74349 5.83432 2.74349H1.85083V2.06473H3.68436C3.86387 2.06473 4.00941 1.93733 4.00941 1.78019C4.00941 1.62305 3.86387 1.49564 3.68436 1.49564H1.85083V0.581684C1.85083 0.574756 1.85728 0.569115 1.86519 0.569115H8.68408V3.78517C8.68408 3.94231 8.82959 4.06971 9.00913 4.06971L12.8519 4.06974C12.9905 4.62302 13.1806 5.50983 13.3424 6.16632C13.3457 6.17953 13.3363 6.18386 13.3195 6.18386Z" fill="#F05C26"/>
</svg>
