<svg width="164" height="164" viewBox="0 0 164 164" fill="none" xmlns="http://www.w3.org/2000/svg">
<circle cx="82" cy="82" r="79.5" stroke="#F05C26" stroke-width="5"/>
<path d="M54.0112 106.276H46.3306V69.1743L35 73.0464V66.54L53.0273 59.9067H54.0112V106.276Z" fill="#AFAFAF"/>
<path d="M99.1748 72.2529C99.1748 74.5169 98.5929 76.5376 97.4292 78.3149C96.2655 80.0711 94.6785 81.457 92.6685 82.4727C95.0806 83.5941 96.932 85.1281 98.2227 87.0747C99.5345 89.0213 100.19 91.2218 100.19 93.6763C100.19 97.7388 98.8151 100.965 96.0645 103.356C93.3138 105.726 89.6533 106.911 85.083 106.911C80.4915 106.911 76.8099 105.716 74.0381 103.325C71.2874 100.934 69.9121 97.7176 69.9121 93.6763C69.9121 91.2007 70.568 88.979 71.8799 87.0112C73.1917 85.0435 75.0326 83.5306 77.4023 82.4727C75.4134 81.457 73.8371 80.0711 72.6733 78.3149C71.5308 76.5376 70.9595 74.5169 70.9595 72.2529C70.9595 68.3174 72.229 65.1965 74.7681 62.8901C77.3071 60.5838 80.7349 59.4307 85.0513 59.4307C89.3888 59.4307 92.8271 60.5838 95.3662 62.8901C97.9053 65.1965 99.1748 68.3174 99.1748 72.2529ZM92.478 93.2954C92.478 91.0103 91.7904 89.1694 90.415 87.7729C89.0609 86.3553 87.2624 85.6465 85.0195 85.6465C82.7767 85.6465 80.9782 86.3447 79.624 87.7412C78.291 89.1377 77.6245 90.9891 77.6245 93.2954C77.6245 95.5594 78.2804 97.3685 79.5923 98.7227C80.9253 100.077 82.7555 100.754 85.083 100.754C87.4105 100.754 89.2196 100.098 90.5103 98.7861C91.8221 97.4743 92.478 95.644 92.478 93.2954ZM91.4941 72.5386C91.4941 70.5285 90.9123 68.8781 89.7485 67.5874C88.5848 66.2756 87.019 65.6196 85.0513 65.6196C83.0835 65.6196 81.5283 66.2438 80.3857 67.4922C79.2432 68.7194 78.6719 70.4015 78.6719 72.5386C78.6719 74.6545 79.2432 76.3366 80.3857 77.585C81.5495 78.8333 83.1152 79.4575 85.083 79.4575C87.0508 79.4575 88.606 78.8333 89.7485 77.585C90.9123 76.3366 91.4941 74.6545 91.4941 72.5386Z" fill="#AFAFAF"/>
<path d="M118.766 69.0236H126V73.4217H118.766V82H114.273V73.4217H107V69.0236H114.273V61H118.766V69.0236Z" fill="#F05C26"/>
</svg>
