<svg width="108" height="86" viewBox="0 0 108 86" fill="none" xmlns="http://www.w3.org/2000/svg">
<path d="M96.6665 0.333008H11.3332C5.4505 0.333008 0.666504 5.11701 0.666504 10.9997V74.9997C0.666504 80.8823 5.4505 85.6663 11.3332 85.6663H96.6665C102.549 85.6663 107.333 80.8823 107.333 74.9997V10.9997C107.333 5.11701 102.549 0.333008 96.6665 0.333008ZM36.4798 21.6663C42.6185 21.6663 47.1465 26.1943 47.1465 32.333C47.1465 38.4717 42.6185 42.9997 36.4798 42.9997C30.3412 42.9997 25.8132 38.4717 25.8132 32.333C25.8132 26.1943 30.3358 21.6663 36.4798 21.6663ZM56.2932 64.333H16.6665V61.853C16.6665 54.5303 25.6052 46.9997 36.4798 46.9997C47.3545 46.9997 56.2932 54.5303 56.2932 61.853V64.333ZM91.3332 58.9997H69.9998V48.333H91.3332V58.9997ZM91.3332 37.6663H64.6665V26.9997H91.3332V37.6663Z" fill="#CCD6DD"/>
</svg>
