<svg width="140" height="91" viewBox="0 0 140 91" fill="none" xmlns="http://www.w3.org/2000/svg">
<path d="M126.322 53.3709C125.373 42.637 123.81 40.5466 123.219 39.7603C121.861 37.9434 119.688 36.7561 117.389 35.5103C117.259 35.4411 117.147 35.3423 117.061 35.2218C116.976 35.1014 116.919 34.9625 116.896 34.8162C116.872 34.6699 116.883 34.5202 116.927 34.3788C116.971 34.2374 117.047 34.1083 117.149 34.0016C117.575 33.5665 117.902 33.0438 118.109 32.4693C118.315 31.8947 118.395 31.282 118.344 30.6733C118.245 29.5938 117.746 28.5913 116.948 27.8646C116.149 27.1379 115.109 26.7401 114.033 26.75H109.919C109.743 26.7511 109.567 26.7626 109.392 26.7845C109.272 26.7321 109.148 26.6903 109.02 26.6597C106.584 21.472 103.249 14.3692 96.3351 10.9028C86.0809 5.76562 67.1914 5.5 63.5 5.5C59.8086 5.5 40.9192 5.76562 30.6781 10.8948C23.7647 14.3612 20.4292 21.4641 17.9929 26.6517L17.9718 26.6942C17.8503 26.7114 17.731 26.7417 17.6158 26.7845C17.4409 26.7626 17.2648 26.7511 17.0885 26.75H12.9673C11.8912 26.7401 10.8508 27.1379 10.0522 27.8646C9.25369 28.5913 8.75543 29.5938 8.65627 30.6733C8.60943 31.2806 8.69332 31.891 8.90219 32.4626C9.11107 33.0343 9.44001 33.5538 9.86652 33.9856C9.96856 34.0923 10.0446 34.2215 10.0886 34.3629C10.1326 34.5042 10.1434 34.654 10.1201 34.8003C10.0969 34.9466 10.0402 35.0855 9.95453 35.2059C9.86887 35.3264 9.7566 35.4251 9.62658 35.4944C7.32736 36.7481 5.14416 37.9355 3.79679 39.7444C3.20617 40.5412 1.64523 42.6211 0.693376 53.355C0.166033 59.3953 0.0869312 65.6481 0.500896 69.675C1.36838 78.0422 2.99523 83.0997 3.06379 83.3095C3.31343 84.0732 3.77296 84.7498 4.38903 85.2609C5.00509 85.772 5.75243 86.0965 6.54426 86.1969V86.25C6.54426 87.3772 6.98873 88.4582 7.7799 89.2552C8.57107 90.0522 9.64412 90.5 10.763 90.5H25.5286C26.6475 90.5 27.7206 90.0522 28.5117 89.2552C29.3029 88.4582 29.7474 87.3772 29.7474 86.25C32.0176 86.25 33.597 85.8409 35.2713 85.4053C37.6886 84.7491 40.1594 84.3127 42.6541 84.1011C50.6987 83.3281 58.6986 83.0625 63.5 83.0625C68.2039 83.0625 76.557 83.3281 84.6149 84.1011C87.1194 84.3131 89.6 84.7514 92.0267 85.4106C93.6298 85.825 95.1512 86.2075 97.2579 86.2473C97.2579 87.3745 97.7024 88.4555 98.4936 89.2525C99.2847 90.0496 100.358 90.4973 101.477 90.4973H116.242C117.361 90.4973 118.434 90.0496 119.225 89.2525C120.017 88.4555 120.461 87.3745 120.461 86.2473V86.2155C121.255 86.117 122.004 85.7933 122.622 85.2821C123.241 84.7709 123.702 84.0932 123.952 83.3281C124.021 83.1183 125.647 78.0608 126.515 69.6936C126.929 65.6641 126.855 59.4219 126.322 53.3709ZM25.6183 30.2855C27.7277 25.7698 30.1403 20.6592 34.4355 18.505C40.6423 15.3919 53.5069 13.9894 63.5 13.9894C73.4932 13.9894 86.3577 15.3813 92.5646 18.505C96.8598 20.6592 99.2618 25.7725 101.382 30.2855L101.645 30.8619C101.8 31.19 101.868 31.5525 101.843 31.9147C101.819 32.2769 101.703 32.6268 101.506 32.931C101.31 33.2352 101.039 33.4835 100.72 33.6523C100.401 33.8212 100.044 33.9048 99.6837 33.8953C90.9219 33.6562 72.4649 32.8912 63.5 32.8912C54.5352 32.8912 36.0781 33.6748 27.3031 33.9139C26.9429 33.9234 26.5862 33.8398 26.2672 33.6709C25.9481 33.5021 25.6773 33.2538 25.4806 32.9496C25.2839 32.6454 25.1678 32.2955 25.1434 31.9333C25.1191 31.5711 25.1872 31.2086 25.3414 30.8805C25.4337 30.6839 25.5313 30.4847 25.6183 30.2855ZM28.7639 51.4372C24.2282 51.9871 19.6635 52.2586 15.0951 52.25C12.3002 52.25 9.41828 51.4531 8.88303 48.9456C8.51652 47.2589 8.55607 46.3106 8.75383 45.357C8.91994 44.5469 9.18361 43.9572 10.502 43.75C13.9297 43.2188 15.8466 43.8855 21.4575 45.5509C25.1779 46.6533 27.8621 48.1222 29.3914 49.2856C30.1587 49.8594 29.75 51.3575 28.7639 51.4372ZM87.1356 73.2184C83.6656 73.6169 76.7258 73.4708 63.5791 73.4708C50.4324 73.4708 43.4952 73.6169 40.0253 73.2184C36.4446 72.8173 31.8805 69.4067 34.9971 66.368C37.0722 64.3652 41.9132 62.867 48.36 62.025C54.8068 61.183 57.5358 60.75 63.5528 60.75C69.5697 60.75 72.0219 61.0156 78.7455 62.0277C85.4692 63.0397 90.5501 64.5564 92.1084 66.3706C94.9508 69.6219 90.7136 72.7961 87.1356 73.2344V73.2184ZM118.117 48.943C117.59 51.4611 114.689 52.2473 111.905 52.2473C107.249 52.2484 102.597 51.977 97.9725 51.4345C97.1656 51.3575 96.7912 49.9311 97.6086 49.283C99.1142 48.0903 101.827 46.6506 105.543 45.5483C111.153 43.8828 114.389 43.2161 117.168 43.7713C117.845 43.9067 118.204 44.6398 118.246 45.0994C118.432 46.3789 118.388 47.6817 118.117 48.9456V48.943Z" fill="#F05C26"/>
<path d="M138 24C138 36.0741 127.78 46 115 46C102.22 46 92 36.0741 92 24C92 11.9259 102.22 2 115 2C127.78 2 138 11.9259 138 24Z" fill="white" stroke="#F05C26" stroke-width="4"/>
<path d="M107.666 17.2646H108.678C109.188 17.2601 109.591 17.1279 109.888 16.8682C110.188 16.6084 110.339 16.2324 110.339 15.7402C110.339 15.2663 110.214 14.8994 109.963 14.6396C109.717 14.3753 109.339 14.2432 108.828 14.2432C108.382 14.2432 108.015 14.373 107.728 14.6328C107.44 14.888 107.297 15.223 107.297 15.6377H105.636C105.636 15.1273 105.77 14.6624 106.039 14.2432C106.312 13.8239 106.691 13.498 107.174 13.2656C107.661 13.0286 108.206 12.9102 108.808 12.9102C109.801 12.9102 110.58 13.1608 111.146 13.6621C111.715 14.1589 112 14.8516 112 15.7402C112 16.1868 111.856 16.6084 111.569 17.0049C111.287 17.3968 110.92 17.693 110.469 17.8936C111.016 18.0804 111.43 18.3743 111.713 18.7754C112 19.1764 112.144 19.6549 112.144 20.2109C112.144 21.1042 111.836 21.8151 111.221 22.3438C110.61 22.8724 109.806 23.1367 108.808 23.1367C107.851 23.1367 107.067 22.8815 106.456 22.3711C105.845 21.8607 105.54 21.1816 105.54 20.334H107.201C107.201 20.7715 107.347 21.127 107.639 21.4004C107.935 21.6738 108.331 21.8105 108.828 21.8105C109.343 21.8105 109.749 21.6738 110.045 21.4004C110.341 21.127 110.489 20.7305 110.489 20.2109C110.489 19.6868 110.334 19.2835 110.024 19.001C109.715 18.7184 109.254 18.5771 108.644 18.5771H107.666V17.2646ZM117.681 17.1211C117.462 17.0846 117.236 17.0664 117.004 17.0664C116.243 17.0664 115.73 17.3581 115.466 17.9414V23H113.805V15.6035H115.391L115.432 16.4307C115.833 15.7881 116.389 15.4668 117.1 15.4668C117.337 15.4668 117.533 15.4987 117.688 15.5625L117.681 17.1211ZM118.282 19.2471C118.282 18.1077 118.547 17.194 119.075 16.5059C119.604 15.8132 120.312 15.4668 121.201 15.4668C121.985 15.4668 122.618 15.7402 123.102 16.2871V12.5H124.763V23H123.259L123.177 22.2344C122.68 22.8359 122.017 23.1367 121.188 23.1367C120.322 23.1367 119.62 22.7881 119.082 22.0908C118.549 21.3936 118.282 20.4456 118.282 19.2471ZM119.943 19.3906C119.943 20.1426 120.087 20.7305 120.374 21.1543C120.666 21.5736 121.078 21.7832 121.611 21.7832C122.29 21.7832 122.787 21.4801 123.102 20.874V17.7158C122.796 17.1234 122.304 16.8271 121.625 16.8271C121.087 16.8271 120.673 17.0413 120.381 17.4697C120.089 17.8936 119.943 18.5339 119.943 19.3906Z" fill="#AFAFAF"/>
<path d="M106.762 31.6226V34H105.65V27.6016H108.098C108.813 27.6016 109.38 27.7876 109.799 28.1597C110.221 28.5317 110.432 29.0239 110.432 29.6362C110.432 30.2632 110.225 30.751 109.812 31.0996C109.402 31.4482 108.826 31.6226 108.085 31.6226H106.762ZM106.762 30.7305H108.098C108.494 30.7305 108.795 30.6382 109.003 30.4536C109.211 30.2661 109.315 29.9966 109.315 29.645C109.315 29.2993 109.21 29.0239 108.999 28.8188C108.788 28.6108 108.498 28.5039 108.129 28.498H106.762V30.7305ZM114.092 34C114.045 33.9092 114.004 33.7612 113.969 33.5562C113.629 33.9106 113.213 34.0879 112.721 34.0879C112.244 34.0879 111.854 33.9517 111.552 33.6792C111.25 33.4067 111.1 33.0698 111.1 32.6685C111.1 32.1616 111.287 31.7734 111.662 31.5039C112.04 31.2314 112.579 31.0952 113.279 31.0952H113.934V30.7832C113.934 30.5371 113.865 30.3408 113.728 30.1943C113.59 30.0449 113.38 29.9702 113.099 29.9702C112.856 29.9702 112.657 30.0317 112.501 30.1548C112.346 30.2749 112.269 30.4287 112.269 30.6162H111.201C111.201 30.3555 111.287 30.1123 111.46 29.8867C111.633 29.6582 111.867 29.4795 112.163 29.3506C112.462 29.2217 112.794 29.1572 113.161 29.1572C113.717 29.1572 114.161 29.2979 114.492 29.5791C114.823 29.8574 114.993 30.25 115.002 30.7568V32.9014C115.002 33.3291 115.062 33.6704 115.182 33.9253V34H114.092ZM112.919 33.231C113.13 33.231 113.328 33.1797 113.512 33.0771C113.7 32.9746 113.84 32.8369 113.934 32.6641V31.7676H113.358C112.963 31.7676 112.666 31.8364 112.466 31.9741C112.267 32.1118 112.167 32.3066 112.167 32.5586C112.167 32.7637 112.235 32.9277 112.37 33.0508C112.507 33.1709 112.69 33.231 112.919 33.231ZM118.61 30.2207C118.469 30.1973 118.324 30.1855 118.175 30.1855C117.686 30.1855 117.356 30.373 117.186 30.748V34H116.118V29.2451H117.138L117.164 29.7769C117.422 29.3638 117.779 29.1572 118.236 29.1572C118.389 29.1572 118.515 29.1777 118.614 29.2188L118.61 30.2207ZM120.842 28.0894V29.2451H121.682V30.0361H120.842V32.6904C120.842 32.8721 120.877 33.0039 120.948 33.0859C121.021 33.165 121.15 33.2046 121.334 33.2046C121.458 33.2046 121.582 33.1899 121.708 33.1606V33.9868C121.465 34.0542 121.23 34.0879 121.005 34.0879C120.185 34.0879 119.774 33.6353 119.774 32.73V30.0361H118.992V29.2451H119.774V28.0894H120.842ZM124.165 32.4707L125.131 29.2451H126.27L124.38 34.7207C124.09 35.5205 123.598 35.9204 122.903 35.9204C122.748 35.9204 122.577 35.894 122.389 35.8413V35.0151L122.591 35.0283C122.861 35.0283 123.063 34.9785 123.198 34.8789C123.335 34.7822 123.444 34.6182 123.523 34.3867L123.677 33.978L122.007 29.2451H123.158L124.165 32.4707Z" fill="#AFAFAF"/>
</svg>
