<svg width="41" height="36" viewBox="0 0 41 36" fill="none" xmlns="http://www.w3.org/2000/svg">
<path d="M40.0833 19.875C40.0833 26.2667 37.1333 31.9208 32.4625 35.3625L31.2333 34.1333L26.0708 28.9709L29.5125 25.5292L32.4625 28.4792C33.6917 26.7583 34.675 24.5458 34.9208 22.3333H30.25V17.4167H34.9208C34.4292 15.2042 33.6917 13.2375 32.4625 11.2708L29.5125 14.2208L26.0708 10.7792L29.0208 7.82918C27.3 6.60001 25.0875 5.61668 22.875 5.37085V10.0417H17.9583V5.37085C15.7458 5.86251 13.7792 6.60001 11.8125 7.82918L19.1875 15.2042C19.6792 15.2042 19.925 14.9583 20.4167 14.9583C21.7206 14.9583 22.9712 15.4764 23.8933 16.3984C24.8153 17.3205 25.3333 18.571 25.3333 19.875C25.3333 21.179 24.8153 22.4296 23.8933 23.3516C22.9712 24.2737 21.7206 24.7917 20.4167 24.7917C19.1127 24.7917 17.8621 24.2737 16.9401 23.3516C16.018 22.4296 15.5 21.179 15.5 19.875C15.5 19.3833 15.5 19.1375 15.7458 18.6458L8.37083 11.2708C7.14167 12.9917 6.15833 15.2042 5.9125 17.4167H10.5833V22.3333H5.9125C6.40417 24.5458 7.14167 26.5125 8.37083 28.4792L11.3208 25.5292L14.7625 28.9709L8.37083 35.3625C3.7 31.9208 0.75 26.2667 0.75 19.875C0.75 14.6591 2.82202 9.65679 6.51023 5.96858C10.1984 2.28036 15.2007 0.208344 20.4167 0.208344C25.6326 0.208344 30.6349 2.28036 34.3231 5.96858C38.0113 9.65679 40.0833 14.6591 40.0833 19.875Z" fill="#707070"/>
</svg>
