<svg width="40" height="40" viewBox="0 0 40 40" fill="none" xmlns="http://www.w3.org/2000/svg">
<path d="M36.1333 15.6V31.7334C36.1333 32.1223 35.9788 32.4954 35.7038 32.7704C35.4287 33.0455 35.0557 33.2 34.6667 33.2C34.2777 33.2 33.9046 33.0455 33.6296 32.7704C33.3545 32.4954 33.2 32.1223 33.2 31.7334V25.8667C33.2 24.6997 32.7364 23.5806 31.9113 22.7554C31.0861 21.9303 29.967 21.4667 28.8 21.4667H24.4V3.86668C24.4 3.08871 24.091 2.34261 23.5409 1.7925C22.9908 1.2424 22.2446 0.93335 21.4667 0.93335H3.86668C3.08871 0.93335 2.34261 1.2424 1.7925 1.7925C1.2424 2.34261 0.93335 3.08871 0.93335 3.86668V36.1334C0.93335 36.9113 1.2424 37.6574 1.7925 38.2075C2.34261 38.7576 3.08871 39.0667 3.86668 39.0667H21.4667C22.2446 39.0667 22.9908 38.7576 23.5409 38.2075C24.091 37.6574 24.4 36.9113 24.4 36.1334V24.4H28.8C29.189 24.4 29.5621 24.5545 29.8371 24.8296C30.1122 25.1046 30.2667 25.4777 30.2667 25.8667V31.7334C30.2667 32.9003 30.7303 34.0195 31.5554 34.8446C32.3806 35.6698 33.4997 36.1334 34.6667 36.1334C35.8336 36.1334 36.9528 35.6698 37.778 34.8446C38.6031 34.0195 39.0667 32.9003 39.0667 31.7334V12.6667C39.0667 11.8887 38.7576 11.1426 38.2075 10.5925C37.6574 10.0424 36.9113 9.73335 36.1333 9.73335V5.30402C36.1257 4.92014 35.9678 4.55458 35.6935 4.28584C35.4193 4.0171 35.0506 3.86661 34.6667 3.86668C34.4624 3.87006 34.261 3.91523 34.0749 3.99941C33.8888 4.08359 33.7219 4.205 33.5844 4.35616C33.447 4.50732 33.342 4.68501 33.2759 4.8783C33.2098 5.07159 33.184 5.27637 33.2 5.48002V12.6667C33.2 13.2468 33.3721 13.814 33.6944 14.2964C34.0167 14.7787 34.4748 15.1547 35.0108 15.3767C35.5468 15.5987 36.1366 15.6568 36.7056 15.5437C37.2746 15.4305 37.7973 15.1511 38.2075 14.7409C38.6178 14.3306 38.8971 13.808 39.0103 13.2389C39.1235 12.6699 39.0654 12.0801 38.8434 11.5441C38.6214 11.0081 38.2454 10.55 37.763 10.2277C37.2806 9.90539 36.7135 9.73335 36.1333 9.73335V15.6ZM21.4667 17.0667C21.4667 17.4557 21.3122 17.8287 21.0371 18.1038C20.7621 18.3788 20.389 18.5333 20 18.5333H5.33335C4.94437 18.5333 4.57131 18.3788 4.29626 18.1038C4.02121 17.8287 3.86668 17.4557 3.86668 17.0667V8.26668C3.86668 7.8777 4.02121 7.50465 4.29626 7.22959C4.57131 6.95454 4.94437 6.80002 5.33335 6.80002H20C20.389 6.80002 20.7621 6.95454 21.0371 7.22959C21.3122 7.50465 21.4667 7.8777 21.4667 8.26668V17.0667Z" fill="#707070"/>
</svg>
