<svg width="38" height="32" viewBox="0 0 38 32" fill="none" xmlns="http://www.w3.org/2000/svg">
<path d="M6.04008 8.39618C5.65106 8.07711 5.15184 7.92447 4.65091 7.97144C4.14997 8.0184 3.68782 8.26117 3.36488 8.64698L0.938582 11.5711C0.619403 11.9596 0.466493 12.4583 0.513103 12.9589C0.559713 13.4595 0.802073 13.9215 1.18748 14.2444L16.1747 26.6742L8.94138 10.8016L6.04008 8.39618ZM13.3247 2.09768L9.86668 3.67278C9.41028 3.8838 9.05554 4.26632 8.87945 4.7373C8.70337 5.20828 8.72016 5.72971 8.92618 6.18838L17.0012 23.9059L17.4059 6.46578L15.8441 3.03818C15.4071 2.08818 14.2747 1.66448 13.3247 2.09768ZM27.0009 2.48528C27.0111 1.98208 26.8218 1.49527 26.4744 1.13112C26.127 0.766958 25.6496 0.555027 25.1465 0.541582L21.3465 0.454182C20.8436 0.444475 20.3573 0.633963 19.9935 0.981335C19.6298 1.32871 19.4181 1.80579 19.4047 2.30858L18.9506 21.7703L26.9116 6.25298L27.0009 2.48528ZM36.4629 4.29028L33.0828 2.55558C32.6337 2.32777 32.1127 2.2866 31.6334 2.44104C31.154 2.59548 30.7551 2.93302 30.5235 3.38018L18.3806 27.0466C18.1523 27.4956 18.1108 28.0167 18.2653 28.4962C18.4198 28.9757 18.7577 29.3746 19.2052 29.6059L22.5853 31.3406C23.0338 31.569 23.5545 31.6106 24.0336 31.4565C24.5127 31.3024 24.9114 30.9649 25.1427 30.5179L37.2856 6.85148C37.5141 6.4024 37.5559 5.88117 37.4018 5.40142C37.2477 4.92166 36.9102 4.52226 36.4629 4.29028ZM24.3181 27.9567C24.2075 28.184 24.0528 28.387 23.8628 28.5538C23.6728 28.7206 23.4515 28.8477 23.2117 28.9279C22.972 29.008 22.7186 29.0395 22.4666 29.0205C22.2145 29.0015 21.9687 28.9324 21.7437 28.8172C21.5187 28.7021 21.3189 28.5432 21.1561 28.3498C20.9932 28.1564 20.8706 27.9325 20.7954 27.6912C20.7202 27.4499 20.6939 27.1959 20.718 26.9443C20.7422 26.6927 20.8163 26.4484 20.9361 26.2258C21.1716 25.7879 21.5694 25.4599 22.044 25.3119C22.5187 25.164 23.0324 25.208 23.475 25.4345C23.9176 25.661 24.2537 26.052 24.4113 26.5235C24.569 26.995 24.5355 27.5096 24.3181 27.9567Z" fill="#707070"/>
</svg>
