<svg width="42" height="28" viewBox="0 0 42 28" fill="none" xmlns="http://www.w3.org/2000/svg">
<path d="M41.4757 15.7377C41.1663 12.2649 40.6567 11.5886 40.4642 11.3342C40.0216 10.7464 39.3135 10.3623 38.5641 9.95922C38.5217 9.93681 38.4852 9.90486 38.4572 9.86589C38.4293 9.82692 38.4108 9.782 38.4033 9.73466C38.3957 9.68733 38.3992 9.63888 38.4135 9.59314C38.4279 9.5474 38.4527 9.50562 38.4859 9.47109C38.6247 9.33035 38.7314 9.16123 38.7986 8.97535C38.8658 8.78947 38.8919 8.59124 38.8752 8.3943C38.8429 8.04506 38.6805 7.72072 38.4202 7.48561C38.16 7.25049 37.8209 7.12178 37.4701 7.125H36.1295C36.0721 7.12534 36.0147 7.12907 35.9576 7.13617C35.9185 7.1192 35.878 7.10568 35.8365 7.09578C35.0424 5.41742 33.9553 3.11945 31.702 1.99797C28.3599 0.335937 22.2033 0.25 21.0002 0.25C19.7971 0.25 13.6405 0.335937 10.3027 1.99539C8.04944 3.11687 6.96233 5.41484 6.16827 7.0932L6.16139 7.10695C6.12179 7.11252 6.0829 7.12232 6.04538 7.13617C5.98836 7.12907 5.93096 7.12534 5.8735 7.125H4.5303C4.17958 7.12178 3.84046 7.25049 3.5802 7.48561C3.31994 7.72072 3.15754 8.04506 3.12522 8.3943C3.10996 8.59079 3.1373 8.78826 3.20537 8.97321C3.27345 9.15816 3.38066 9.32623 3.51967 9.46594C3.55293 9.50046 3.57771 9.54224 3.59205 9.58799C3.6064 9.63373 3.60992 9.68217 3.60234 9.72951C3.59475 9.77684 3.57627 9.82177 3.54836 9.86074C3.52044 9.8997 3.48385 9.93165 3.44147 9.95406C2.6921 10.3597 1.98053 10.7438 1.54139 11.3291C1.34889 11.5869 0.840143 12.2598 0.529908 15.7325C0.358033 17.6867 0.332252 19.7097 0.467174 21.0125C0.749908 23.7195 1.28014 25.3558 1.30249 25.4237C1.38385 25.6707 1.53362 25.8896 1.73442 26.055C1.93521 26.2203 2.17878 26.3253 2.43686 26.3578V26.375C2.43686 26.7397 2.58173 27.0894 2.83959 27.3473C3.09745 27.6051 3.44719 27.75 3.81186 27.75H8.62436C8.98903 27.75 9.33877 27.6051 9.59663 27.3473C9.8545 27.0894 9.99936 26.7397 9.99936 26.375C10.7393 26.375 11.254 26.2427 11.7998 26.1017C12.5876 25.8894 13.3929 25.7482 14.206 25.6798C16.828 25.4297 19.4353 25.3438 21.0002 25.3438C22.5333 25.3438 25.2558 25.4297 27.8821 25.6798C28.6984 25.7484 29.5069 25.8902 30.2978 26.1034C30.8203 26.2375 31.3162 26.3612 32.0028 26.3741C32.0028 26.7388 32.1477 27.0886 32.4055 27.3464C32.6634 27.6043 33.0131 27.7491 33.3778 27.7491H38.1903C38.555 27.7491 38.9047 27.6043 39.1626 27.3464C39.4204 27.0886 39.5653 26.7388 39.5653 26.3741V26.3638C39.824 26.332 40.0683 26.2272 40.2697 26.0619C40.4712 25.8965 40.6215 25.6772 40.7031 25.4297C40.7255 25.3618 41.2557 23.7255 41.5384 21.0185C41.6733 19.7148 41.6493 17.6953 41.4757 15.7377ZM8.65358 8.26883C9.34108 6.80789 10.1274 5.15445 11.5273 4.4575C13.5503 3.45031 17.7432 2.99656 21.0002 2.99656C24.2572 2.99656 28.4501 3.44688 30.4731 4.4575C31.873 5.15445 32.6559 6.80875 33.3469 8.26883L33.4328 8.45531C33.4831 8.56148 33.5053 8.67875 33.4973 8.79593C33.4894 8.91312 33.4515 9.02632 33.3874 9.12474C33.3233 9.22315 33.2351 9.3035 33.1311 9.35811C33.0271 9.41273 32.9108 9.43979 32.7934 9.43672C29.9377 9.35937 23.9221 9.11187 21.0002 9.11187C18.0783 9.11187 12.0627 9.36539 9.20272 9.44273C9.0853 9.44581 8.96906 9.41874 8.86507 9.36413C8.76108 9.30951 8.67282 9.22917 8.60871 9.13075C8.54459 9.03234 8.50676 8.91914 8.49882 8.80195C8.49088 8.68476 8.51309 8.56749 8.56334 8.46133C8.59342 8.39773 8.62522 8.33328 8.65358 8.26883ZM9.67881 15.112C8.20052 15.29 6.71277 15.3778 5.22381 15.375C4.31288 15.375 3.37358 15.1172 3.19913 14.3059C3.07967 13.7602 3.09256 13.4534 3.15702 13.1449C3.21116 12.8828 3.2971 12.692 3.72678 12.625C4.84397 12.4531 5.46874 12.6688 7.29749 13.2077C8.51006 13.5643 9.38491 14.0395 9.88335 14.4159C10.1334 14.6016 10.0002 15.0863 9.67881 15.112ZM28.7037 22.1589C27.5727 22.2878 25.3108 22.2405 21.026 22.2405C16.7412 22.2405 14.4801 22.2878 13.3492 22.1589C12.1822 22.0291 10.6946 20.9257 11.7104 19.9426C12.3867 19.2946 13.9645 18.8099 16.0657 18.5375C18.1669 18.2651 19.0563 18.125 21.0174 18.125C22.9785 18.125 23.7777 18.2109 25.9691 18.5384C28.1605 18.8658 29.8165 19.3565 30.3244 19.9434C31.2508 20.9953 29.8698 22.0223 28.7037 22.1641V22.1589ZM38.8013 14.3051C38.6294 15.1198 37.6841 15.3741 36.7766 15.3741C35.2592 15.3745 33.743 15.2867 32.2357 15.1112C31.9727 15.0862 31.8507 14.6248 32.1171 14.4151C32.6078 14.0292 33.4921 13.5634 34.703 13.2068C36.5317 12.668 37.5862 12.4523 38.4919 12.6319C38.7128 12.6757 38.8297 12.9129 38.8434 13.0616C38.904 13.4755 38.8898 13.897 38.8013 14.3059V14.3051Z" fill="#707070"/>
</svg>
