<svg width="140" height="91" viewBox="0 0 140 91" fill="none" xmlns="http://www.w3.org/2000/svg">
<path d="M126.322 53.3709C125.373 42.637 123.81 40.5466 123.219 39.7603C121.861 37.9434 119.688 36.7561 117.389 35.5103C117.259 35.4411 117.147 35.3423 117.061 35.2218C116.976 35.1014 116.919 34.9625 116.896 34.8162C116.872 34.6699 116.883 34.5202 116.927 34.3788C116.971 34.2374 117.047 34.1083 117.149 34.0016C117.575 33.5665 117.902 33.0438 118.109 32.4693C118.315 31.8947 118.395 31.282 118.344 30.6733C118.245 29.5938 117.746 28.5913 116.948 27.8646C116.149 27.1379 115.109 26.7401 114.033 26.75H109.919C109.743 26.7511 109.567 26.7626 109.392 26.7845C109.272 26.7321 109.148 26.6903 109.02 26.6597C106.584 21.472 103.249 14.3692 96.3351 10.9028C86.0809 5.76562 67.1914 5.5 63.5 5.5C59.8086 5.5 40.9192 5.76562 30.6781 10.8948C23.7647 14.3612 20.4292 21.4641 17.9929 26.6517L17.9718 26.6942C17.8503 26.7114 17.731 26.7417 17.6158 26.7845C17.4409 26.7626 17.2648 26.7511 17.0885 26.75H12.9673C11.8912 26.7401 10.8508 27.1379 10.0522 27.8646C9.25369 28.5913 8.75543 29.5938 8.65627 30.6733C8.60943 31.2806 8.69332 31.891 8.90219 32.4626C9.11107 33.0343 9.44001 33.5538 9.86652 33.9856C9.96856 34.0923 10.0446 34.2215 10.0886 34.3629C10.1326 34.5042 10.1434 34.654 10.1201 34.8003C10.0969 34.9466 10.0402 35.0855 9.95453 35.2059C9.86887 35.3264 9.7566 35.4251 9.62658 35.4944C7.32736 36.7481 5.14416 37.9355 3.79679 39.7444C3.20617 40.5412 1.64523 42.6211 0.693376 53.355C0.166033 59.3953 0.0869312 65.6481 0.500896 69.675C1.36838 78.0422 2.99523 83.0997 3.06379 83.3095C3.31343 84.0732 3.77296 84.7498 4.38903 85.2609C5.00509 85.772 5.75243 86.0965 6.54426 86.1969V86.25C6.54426 87.3772 6.98873 88.4582 7.7799 89.2552C8.57107 90.0522 9.64412 90.5 10.763 90.5H25.5286C26.6475 90.5 27.7206 90.0522 28.5117 89.2552C29.3029 88.4582 29.7474 87.3772 29.7474 86.25C32.0176 86.25 33.597 85.8409 35.2713 85.4053C37.6886 84.7491 40.1594 84.3127 42.6541 84.1011C50.6987 83.3281 58.6986 83.0625 63.5 83.0625C68.2039 83.0625 76.557 83.3281 84.6149 84.1011C87.1194 84.3131 89.6 84.7514 92.0267 85.4106C93.6298 85.825 95.1512 86.2075 97.2579 86.2473C97.2579 87.3745 97.7024 88.4555 98.4936 89.2525C99.2847 90.0496 100.358 90.4973 101.477 90.4973H116.242C117.361 90.4973 118.434 90.0496 119.225 89.2525C120.017 88.4555 120.461 87.3745 120.461 86.2473V86.2155C121.255 86.117 122.004 85.7933 122.622 85.2821C123.241 84.7709 123.702 84.0932 123.952 83.3281C124.021 83.1183 125.647 78.0608 126.515 69.6936C126.929 65.6641 126.855 59.4219 126.322 53.3709ZM25.6183 30.2855C27.7277 25.7698 30.1403 20.6592 34.4355 18.505C40.6423 15.3919 53.5069 13.9894 63.5 13.9894C73.4932 13.9894 86.3577 15.3813 92.5646 18.505C96.8598 20.6592 99.2618 25.7725 101.382 30.2855L101.645 30.8619C101.8 31.19 101.868 31.5525 101.843 31.9147C101.819 32.2769 101.703 32.6268 101.506 32.931C101.31 33.2352 101.039 33.4835 100.72 33.6523C100.401 33.8212 100.044 33.9048 99.6837 33.8953C90.9219 33.6562 72.4649 32.8912 63.5 32.8912C54.5352 32.8912 36.0781 33.6748 27.3031 33.9139C26.9429 33.9234 26.5862 33.8398 26.2672 33.6709C25.9481 33.5021 25.6773 33.2538 25.4806 32.9496C25.2839 32.6454 25.1678 32.2955 25.1434 31.9333C25.1191 31.5711 25.1872 31.2086 25.3414 30.8805C25.4337 30.6839 25.5313 30.4847 25.6183 30.2855ZM28.7639 51.4372C24.2282 51.9871 19.6635 52.2586 15.0951 52.25C12.3002 52.25 9.41828 51.4531 8.88303 48.9456C8.51652 47.2589 8.55607 46.3106 8.75383 45.357C8.91994 44.5469 9.18361 43.9572 10.502 43.75C13.9297 43.2188 15.8466 43.8855 21.4575 45.5509C25.1779 46.6533 27.8621 48.1222 29.3914 49.2856C30.1587 49.8594 29.75 51.3575 28.7639 51.4372ZM87.1356 73.2184C83.6656 73.6169 76.7258 73.4708 63.5791 73.4708C50.4324 73.4708 43.4952 73.6169 40.0253 73.2184C36.4446 72.8173 31.8805 69.4067 34.9971 66.368C37.0722 64.3652 41.9132 62.867 48.36 62.025C54.8068 61.183 57.5358 60.75 63.5528 60.75C69.5697 60.75 72.0219 61.0156 78.7455 62.0277C85.4692 63.0397 90.5501 64.5564 92.1084 66.3706C94.9508 69.6219 90.7136 72.7961 87.1356 73.2344V73.2184ZM118.117 48.943C117.59 51.4611 114.689 52.2473 111.905 52.2473C107.249 52.2484 102.597 51.977 97.9725 51.4345C97.1656 51.3575 96.7912 49.9311 97.6086 49.283C99.1142 48.0903 101.827 46.6506 105.543 45.5483C111.153 43.8828 114.389 43.2161 117.168 43.7713C117.845 43.9067 118.204 44.6398 118.246 45.0994C118.432 46.3789 118.388 47.6817 118.117 48.9456V48.943Z" fill="#CCD6DD"/>
<path d="M138 24C138 36.0741 127.78 46 115 46C102.22 46 92 36.0741 92 24C92 11.9259 102.22 2 115 2C127.78 2 138 11.9259 138 24Z" fill="white" stroke="#F05C26" stroke-width="4"/>
<path fill-rule="evenodd" clip-rule="evenodd" d="M121.384 32.0588H118.594L115.933 27.8235H111.435V32.0588H108.645V27.8235H104.189V25H108.645V22.1763H104.189V19.3528H108.645V16H111.435L113.54 19.3528H118.616V16H121.384V19.3528H125.366V22.1763H121.384V25H125.366V27.8235H121.384V32.0588ZM111.435 25H114.159L112.385 22.1763H111.435V25ZM118.616 25H117.085L115.313 22.1763H118.616V25Z" fill="#F05C26"/>
</svg>
