<svg width="96" height="96" viewBox="0 0 96 96" fill="none" xmlns="http://www.w3.org/2000/svg">
<g clip-path="url(#clip0)">
<path d="M87.9998 96H10.6665C21.3332 96 18.6665 72 18.6665 72C18.6665 66.1093 23.4425 32 29.3332 32H85.3332C85.3332 32 95.9998 32 95.9998 42.6667V88C95.9998 88 95.9998 96 87.9998 96Z" fill="#99AAB5"/>
<path d="M80 88C80 96 88 96 88 96H8C8 96 0 96 0 85.3333V10.6667C0 7.83769 1.12381 5.12458 3.12419 3.12419C5.12458 1.12381 7.83769 0 10.6667 0L69.3333 0C72.1623 0 74.8754 1.12381 76.8758 3.12419C78.8762 5.12458 80 7.83769 80 10.6667V88Z" fill="#CCD6DD"/>
<path d="M72 53.3333C72 54.0406 71.7191 54.7189 71.219 55.219C70.7189 55.7191 70.0406 56 69.3333 56H48C47.2928 56 46.6145 55.7191 46.1144 55.219C45.6143 54.7189 45.3333 54.0406 45.3333 53.3333C45.3333 52.6261 45.6143 51.9478 46.1144 51.4477C46.6145 50.9476 47.2928 50.6667 48 50.6667H69.3333C70.0406 50.6667 70.7189 50.9476 71.219 51.4477C71.7191 51.9478 72 52.6261 72 53.3333ZM72 42.6667C72 43.3739 71.7191 44.0522 71.219 44.5523C70.7189 45.0524 70.0406 45.3333 69.3333 45.3333H48C47.2928 45.3333 46.6145 45.0524 46.1144 44.5523C45.6143 44.0522 45.3333 43.3739 45.3333 42.6667C45.3333 41.9594 45.6143 41.2811 46.1144 40.7811C46.6145 40.281 47.2928 40 48 40H69.3333C70.0406 40 70.7189 40.281 71.219 40.7811C71.7191 41.2811 72 41.9594 72 42.6667ZM72 32C72 32.7072 71.7191 33.3855 71.219 33.8856C70.7189 34.3857 70.0406 34.6667 69.3333 34.6667H48C47.2928 34.6667 46.6145 34.3857 46.1144 33.8856C45.6143 33.3855 45.3333 32.7072 45.3333 32C45.3333 31.2928 45.6143 30.6145 46.1144 30.1144C46.6145 29.6143 47.2928 29.3333 48 29.3333H69.3333C70.0406 29.3333 70.7189 29.6143 71.219 30.1144C71.7191 30.6145 72 31.2928 72 32ZM72 64C72 64.7072 71.7191 65.3855 71.219 65.8856C70.7189 66.3857 70.0406 66.6667 69.3333 66.6667H10.6667C9.95942 66.6667 9.28115 66.3857 8.78105 65.8856C8.28095 65.3855 8 64.7072 8 64C8 63.2928 8.28095 62.6145 8.78105 62.1144C9.28115 61.6143 9.95942 61.3333 10.6667 61.3333H69.3333C70.0406 61.3333 70.7189 61.6143 71.219 62.1144C71.7191 62.6145 72 63.2928 72 64ZM72 74.6667C72 75.3739 71.7191 76.0522 71.219 76.5523C70.7189 77.0524 70.0406 77.3333 69.3333 77.3333H10.6667C9.95942 77.3333 9.28115 77.0524 8.78105 76.5523C8.28095 76.0522 8 75.3739 8 74.6667C8 73.9594 8.28095 73.2811 8.78105 72.7811C9.28115 72.281 9.95942 72 10.6667 72H69.3333C70.0406 72 70.7189 72.281 71.219 72.7811C71.7191 73.2811 72 73.9594 72 74.6667ZM72 85.3333C72 86.0406 71.7191 86.7189 71.219 87.219C70.7189 87.7191 70.0406 88 69.3333 88H10.6667C9.95942 88 9.28115 87.7191 8.78105 87.219C8.28095 86.7189 8 86.0406 8 85.3333C8 84.6261 8.28095 83.9478 8.78105 83.4477C9.28115 82.9476 9.95942 82.6667 10.6667 82.6667H69.3333C70.0406 82.6667 70.7189 82.9476 71.219 83.4477C71.7191 83.9478 72 84.6261 72 85.3333ZM66.6667 24C66.6667 24 72 24 72 18.6667V13.3333C72 13.3333 72 8 66.6667 8H13.3333C13.3333 8 8 8 8 13.3333V18.6667C8 18.6667 8 24 13.3333 24H66.6667Z" fill="#99AAB5"/>
<path d="M34.6667 55.9997C34.6667 55.9997 40 55.9997 40 50.6663V34.6663C40 34.6663 40 29.333 34.6667 29.333H13.3333C13.3333 29.333 8 29.333 8 34.6663V50.6663C8 50.6663 8 55.9997 13.3333 55.9997H34.6667Z" fill="#F05C26"/>
</g>
<defs>
<clipPath id="clip0">
<rect width="96" height="96" fill="white"/>
</clipPath>
</defs>
</svg>
